<?xml version="1.0" standalone="no"?>
<!DOCTYPE svg PUBLIC "-//W3C//DTD SVG 1.1//EN" "http://www.w3.org/Graphics/SVG/1.1/DTD/svg11.dtd" >
<svg xmlns="http://www.w3.org/2000/svg" xmlns:xlink="http://www.w3.org/1999/xlink" version="1.1">
<metadata>
Created by FontForge 20170731 at Tue Aug 30 10:09:38 2022
 By Aleksey,,,
Copyright 2011 The Emberly Project Authors (https://github.com/rajputrajesh448/Fonts)
</metadata>
<defs>
<font id="Moniqa-BoldHeading" horiz-adv-x="763" >
  <font-face 
    font-family="Moniqa Heading"
    font-weight="700"
    font-stretch="normal"
    units-per-em="2048"
    panose-1="0 0 0 0 0 0 0 0 0 0"
    ascent="1638"
    descent="-410"
    x-height="1012"
    cap-height="1432"
    bbox="-152 -391 3277 1751"
    underline-thickness="0"
    underline-position="0"
    unicode-range="U+000D-1F852"
  />
<missing-glyph horiz-adv-x="1085" 
d="M57 0v1432h971v-1432h-971zM926 1348h-764v-1248h764v1248z" />
    <glyph glyph-name="f_f" unicode="ff" horiz-adv-x="827" 
d="M719 0h-201v967h-205v-967h-200v967h-105v47h105v149q0 116 75 192.5t189 76.5q98 0 201 -62q71 80 188 80q106 0 213 -66l-25 -41q-77 48 -135 48q-100 0 -100 -144v-233h199v-47h-199v-967zM313 1210v-196h205v188q0 71 35 127q-65 41 -123 41q-56 0 -86.5 -42
t-30.5 -118z" />
    <glyph glyph-name="fi" unicode="fi" horiz-adv-x="815" 
d="M8 1014h105v188q0 107 71.5 177.5t180.5 70.5q118 0 237 -86l-27 -39q-100 66 -163 66q-48 0 -73.5 -37t-25.5 -107v-233h406v-1014h-201v967h-205v-967h-200v967h-105v47z" />
    <glyph glyph-name="fl" unicode="fl" horiz-adv-x="788" 
d="M8 1014h105v188q0 107 71.5 177.5t180.5 70.5q78 0 153 -37v19h201v-1432h-201v967h-205v-967h-200v967h-105v47zM313 1014h205v344q-59 33 -106 33q-48 0 -73.5 -37t-25.5 -107v-233z" />
    <glyph glyph-name="f_f_i" unicode="ffi" horiz-adv-x="1220" 
d="M719 0h-201v967h-205v-967h-200v967h-105v47h105v149q0 116 75 192.5t189 76.5q97 0 203 -62q67 80 188 80t240 -86l-27 -39q-100 66 -164 66q-47 0 -72.5 -37t-25.5 -107v-233h405v-1014h-200v967h-205v-967zM430 1370q-56 0 -86.5 -42t-30.5 -118v-196h205v188
q0 71 35 127q-65 41 -123 41z" />
    <glyph glyph-name="f_f_l" unicode="ffl" horiz-adv-x="1193" 
d="M719 0h-201v967h-205v-967h-200v967h-105v47h105v149q0 116 75 192.5t189 76.5q101 0 201 -62q71 80 190 80q81 0 156 -37v19h200v-1432h-200v967h-205v-967zM719 1014h205v344q-59 33 -107 33q-47 0 -72.5 -37t-25.5 -107v-233zM430 1370q-56 0 -86.5 -42t-30.5 -118
v-196h205v188q0 71 35 127q-65 41 -123 41z" />
    <glyph glyph-name="f_b" unicode="fb" horiz-adv-x="1202" 
d="M113 0v967h-105v47h105v188q0 107 71.5 177.5t180.5 70.5q78 0 153 -37v19h201v-457l-8 -60l12 -4q42 121 149 121q105 0 183 -88.5t78 -208.5v-475q0 -112 -74 -195t-174 -83q-112 0 -162 135l-12 -4l8 -60v-53h-201v967h-205v-967h-200zM313 1014h205v344
q-59 33 -106 33q-48 0 -73.5 -37t-25.5 -107v-233zM719 223q0 -64 37.5 -118t81.5 -54q37 0 62.5 35.5t25.5 87.5v682q0 54 -24.5 88.5t-61.5 34.5q-46 0 -83.5 -55.5t-37.5 -124.5v-576z" />
    <glyph glyph-name="f_h" unicode="fh" horiz-adv-x="1212" 
d="M113 0v967h-105v47h105v188q0 107 71.5 177.5t180.5 70.5q78 0 153 -37v19h201v-504l-8 -60l12 -4q34 89 80 128.5t115 39.5q97 0 162 -62t65 -153v-817h-213v862q0 111 -64 111q-52 0 -100.5 -73t-48.5 -150v-750h-201v967h-205v-967h-200zM518 1014v344q-59 33 -106 33
q-48 0 -73.5 -37t-25.5 -107v-233h205z" />
    <glyph glyph-name="f_j" unicode="fj" horiz-adv-x="794" 
d="M719 47q0 -127 -65 -219t-220 -186l-24 32q54 43 81 92t27 136v1065h-205v-967h-200v967h-105v47h105v188q0 107 71.5 177.5t180.5 70.5q118 0 237 -86l-27 -39q-100 66 -163 66q-48 0 -73.5 -37t-25.5 -107v-233h406v-967z" />
    <glyph glyph-name="f_k" unicode="fk" horiz-adv-x="1212" 
d="M518 1432h201v-1432h-201v967h-205v-967h-200v967h-105v47h105v188q0 107 71.5 177.5t180.5 70.5q78 0 153 -37v19zM313 1014h205v344q-59 33 -106 33q-48 0 -73.5 -37t-25.5 -107v-233zM1108 1014l-215 -287l328 -727h-207l-252 604v31l287 379h59z" />
    <glyph glyph-name="f_f_b" unicode="ffb" horiz-adv-x="1607" 
d="M1536 260q0 -113 -73.5 -195.5t-172.5 -82.5q-112 0 -162 135l-12 -4l8 -60v-53h-200v967h-205v-967h-201v967h-205v-967h-200v967h-105v47h105v149q0 116 75 192.5t189 76.5q98 0 201 -62q71 80 190 80q81 0 156 -37v19h200v-457l-8 -60l12 -4q40 121 150 121
q104 0 181 -88.5t77 -208.5v-475zM719 1014h205v344q-59 33 -107 33q-47 0 -72.5 -37t-25.5 -107v-233zM313 1210v-196h205v188q0 71 35 127q-65 41 -123 41q-56 0 -86.5 -42t-30.5 -118zM1124 223q0 -64 37.5 -118t81.5 -54q37 0 62.5 35.5t25.5 87.5v682q0 54 -24.5 88.5
t-61.5 34.5q-46 0 -83.5 -55.5t-37.5 -124.5v-576z" />
    <glyph glyph-name="f_f_h" unicode="ffh" horiz-adv-x="1617" 
d="M113 0v967h-105v47h105v149q0 116 75 192.5t189 76.5q98 0 201 -62q71 80 190 80q81 0 156 -37v19h200v-504l-8 -60l12 -4q34 89 80 128.5t115 39.5q97 0 162 -62t65 -153v-817h-213v862q0 111 -63 111q-52 0 -101 -73t-49 -150v-750h-200v967h-205v-967h-201v967h-205
v-967h-200zM719 1014h205v344q-59 33 -107 33q-47 0 -72.5 -37t-25.5 -107v-233zM313 1210v-196h205v188q0 71 35 127q-65 41 -123 41q-56 0 -86.5 -42t-30.5 -118z" />
    <glyph glyph-name="f_f_j" unicode="ffj" horiz-adv-x="1200" 
d="M1122 47q0 -127 -64 -219t-218 -186l-25 32q36 29 56.5 53.5t36.5 69.5t16 105v1065h-205v-967h-201v967h-205v-967h-200v967h-105v47h105v149q0 116 75 192.5t189 76.5q98 0 201 -62q71 80 190 80q122 0 238 -86l-27 -39q-97 66 -162 66q-47 0 -72.5 -37t-25.5 -107
v-233h403v-967zM313 1210v-196h205v188q0 71 35 127q-65 41 -123 41q-56 0 -86.5 -42t-30.5 -118z" />
    <glyph glyph-name="f_f_k" unicode="ffk" horiz-adv-x="1615" 
d="M1122 1432v-1432h-198v967h-205v-967h-201v967h-205v-967h-200v967h-105v47h105v149q0 116 75 192.5t189 76.5q98 0 201 -62q71 80 190 80q81 0 156 -37v19h198zM719 1014h205v344q-59 33 -107 33q-47 0 -72.5 -37t-25.5 -107v-233zM313 1210v-196h205v188q0 71 35 127
q-65 41 -123 41q-56 0 -86.5 -42t-30.5 -118zM1513 1014l-215 -285l326 -729h-207l-252 604v31l287 379h61z" />
    <glyph glyph-name="f_t" unicode="ft" horiz-adv-x="878" 
d="M414 1391q-101 0 -101 -144v-233h207v129l199 65v-194h199v-47h-199v-793q0 -54 17 -85.5t46 -31.5q43 0 99 62l32 -33q-42 -47 -103.5 -75.5t-117.5 -28.5q-78 0 -125 61.5t-47 165.5v758h-207v-967h-200v967h-105v47h105v188q0 107 72 177.5t182 70.5q116 0 235 -86
l-27 -39q-97 66 -161 66z" />
    <glyph glyph-name="f_f_t" unicode="fft" horiz-adv-x="1284" 
d="M817 1391q-47 0 -72.5 -37t-25.5 -107v-233h205v129l198 65v-194h199v-47h-199v-793q0 -54 17.5 -85.5t46.5 -31.5q42 0 98 62l33 -33q-42 -47 -103.5 -75.5t-117.5 -28.5q-78 0 -125 61.5t-47 165.5v758h-205v-967h-201v967h-205v-967h-200v967h-105v47h105v149
q0 116 75 192.5t189 76.5q98 0 201 -62q71 80 190 80q121 0 240 -86l-27 -39q-100 66 -164 66zM313 1210v-196h205v188q0 71 35 127q-65 41 -123 41q-56 0 -86.5 -42t-30.5 -118z" />
    <glyph glyph-name=".notdef" horiz-adv-x="1085" 
d="M57 0v1432h971v-1432h-971zM926 1348h-764v-1248h764v1248z" />
    <glyph glyph-name="uni0000" horiz-adv-x="0" 
 />
    <glyph glyph-name="uni000D" unicode="&#xd;" horiz-adv-x="512" 
 />
    <glyph glyph-name="space" unicode=" " horiz-adv-x="378" 
 />
    <glyph glyph-name="exclam" unicode="!" horiz-adv-x="649" 
d="M451 1432l-101 -1168h-47l-98 1168h246zM215 96q0 51 32.5 83t82.5 32q49 0 81.5 -32.5t32.5 -82.5t-32.5 -82t-83.5 -32q-48 0 -80.5 32.5t-32.5 81.5z" />
    <glyph glyph-name="quotedbl" unicode="&#x22;" horiz-adv-x="512" 
d="M121 1034l-62 398h158l-59 -398h-37zM356 1034l-61 398h158l-60 -398h-37z" />
    <glyph glyph-name="numbersign" unicode="#" horiz-adv-x="684" 
d="M59 504l4 43h107l35 391h-111l6 41h109l41 455h45l-39 -455h211l39 455h47l-41 -455h113l-4 -41h-113l-35 -391h117l-4 -43h-115l-47 -504h-45l45 504h-211l-45 -504h-45l45 504h-109zM215 547h211l37 391h-211z" />
    <glyph glyph-name="dollar" unicode="$" horiz-adv-x="745" 
d="M242 -176l24 170q-89 18 -178 74l27 43q77 -48 159 -64l76 522l-188 375q-56 112 -56 211q0 129 81 212t208 83q34 0 82 -10l21 147h45l-23 -160q87 -30 150 -100l-35 -35q-55 58 -123 82l-74 -504l219 -444q43 -90 43 -170q0 -120 -93 -197t-236 -77q-24 0 -60 4
l-24 -162h-45zM403 942l66 444q-15 3 -29 3q-60 0 -95.5 -44t-35.5 -118q0 -87 56 -205zM492 193q0 94 -74 239l-33 66l-68 -457q10 -2 27 -2q71 0 109.5 40.5t38.5 113.5z" />
    <glyph glyph-name="percent" unicode="%" horiz-adv-x="1429" 
d="M59 1014v131q0 122 94 211.5t224 89.5q128 0 219.5 -88.5t91.5 -212.5v-131q0 -122 -91.5 -210.5t-217.5 -88.5q-127 0 -223.5 90t-96.5 209zM485 0h-57l512 1434h59zM266 1262v-365q0 -58 32 -96.5t79 -38.5q46 0 75 37.5t29 97.5v365q0 59 -30 98t-76 39t-77.5 -39.5
t-31.5 -97.5zM741 289v131q0 121 93 210t219 89t221.5 -89.5t95.5 -209.5v-131q0 -122 -91.5 -210.5t-217.5 -88.5q-128 0 -224 89.5t-96 209.5zM948 537v-365q0 -58 32 -96.5t79 -38.5q46 0 75 37.5t29 97.5v365q0 58 -30 96.5t-76 38.5t-77.5 -38.5t-31.5 -96.5z" />
    <glyph glyph-name="ampersand" unicode="&#x26;" horiz-adv-x="866" 
d="M59 338v31q0 145 67 237t183 109l51 8v12l-51 6q-102 10 -158.5 88t-56.5 207v51q0 149 100.5 253t249.5 104q98 0 166 -59t119 -189l-188 -27q-3 109 -33 167.5t-84 58.5q-52 0 -84.5 -52t-32.5 -137v-213q0 -129 28.5 -184t115.5 -55h143v198h197v-198h118v-49h-118
v-599q-60 -54 -157 -86t-200 -32q-174 0 -274.5 94t-100.5 256zM287 428v-182q0 -101 39.5 -155t113.5 -54q59 0 106.5 28.5t47.5 65.5v574h-143q-91 0 -127.5 -60.5t-36.5 -216.5z" />
    <glyph glyph-name="quotesingle" unicode="'" horiz-adv-x="276" 
d="M121 1034l-62 398h158l-59 -398h-37z" />
    <glyph glyph-name="parenleft" unicode="(" horiz-adv-x="538" 
d="M459 1567h20q-205 -362 -205 -836q0 -473 205 -835h-20q-186 140 -293 361t-107 468t107 471t293 371z" />
    <glyph glyph-name="parenright" unicode=")" horiz-adv-x="538" 
d="M82 -104h-23q205 362 205 835q0 474 -205 836h23q185 -140 291 -361.5t106 -468.5q0 -246 -105.5 -470.5t-291.5 -370.5z" />
    <glyph glyph-name="asterisk" unicode="*" horiz-adv-x="509" 
d="M233 1233l-174 70l56 79l131 -131l-37 181h96l-39 -181l131 131l54 -79l-172 -70l172 -74l-52 -80l-133 131l37 -182h-94l35 182l-129 -131l-54 80z" />
    <glyph glyph-name="plus" unicode="+" horiz-adv-x="743" 
d="M346 614h-287v50h287v307h51v-307h287v-50h-287v-307h-51v307z" />
    <glyph glyph-name="comma" unicode="," horiz-adv-x="354" 
d="M223 -4q-28 -14 -57 -14q-47 0 -78 32.5t-31 81.5q0 51 32.5 84t82.5 33q58 0 91.5 -45t33.5 -123q0 -97 -51 -163t-140 -83l-10 35q69 20 102.5 62.5t24.5 99.5z" />
    <glyph glyph-name="hyphen" unicode="-" horiz-adv-x="563" 
d="M59 664h445v-50h-445v50z" />
    <glyph glyph-name="period" unicode="." horiz-adv-x="344" 
d="M57 98q0 50 32 82.5t83 32.5q50 0 82.5 -32.5t32.5 -82.5q0 -51 -32.5 -83.5t-82.5 -32.5t-82.5 32.5t-32.5 83.5z" />
    <glyph glyph-name="slash" unicode="/" horiz-adv-x="555" 
d="M59 -182l383 1718h52l-381 -1718h-54z" />
    <glyph glyph-name="zero" unicode="0" horiz-adv-x="917" 
d="M109 389v670q0 180 95.5 285.5t256.5 105.5q160 0 254 -105.5t94 -285.5v-670q0 -189 -93.5 -298t-256.5 -109q-161 0 -255.5 109.5t-94.5 297.5zM322 1163v-893q0 -122 34 -180.5t103 -58.5q71 0 104 57.5t33 181.5v893q0 122 -33 180t-102 58q-139 0 -139 -238z" />
    <glyph glyph-name="one" unicode="1" horiz-adv-x="542" 
d="M406 0h-197v1321l-121 -61l-20 45l237 127h101v-1432z" />
    <glyph glyph-name="two" unicode="2" horiz-adv-x="817" 
d="M123 1294l-33 35q54 57 130.5 89t160.5 32q146 0 236 -93t90 -245q0 -100 -47 -193.5t-150 -201.5l-148 -133q-102 -105 -155.5 -194t-75.5 -189h578v-201h-648q0 196 55.5 365.5t178.5 351.5l45 65q93 135 131.5 222t38.5 167q0 101 -48 160.5t-128 59.5
q-52 0 -109.5 -26.5t-101.5 -70.5z" />
    <glyph glyph-name="three" unicode="3" horiz-adv-x="733" 
d="M258 -16q-164 0 -287 90l27 41q115 -74 215 -74q101 0 154 83t53 243v55q0 161 -53 229t-179 68v49q117 0 165 62.5t48 216.5v59q0 280 -172 280q-97 0 -192 -92l-37 33q47 58 121.5 90.5t159.5 32.5q148 0 237.5 -93.5t89.5 -248.5v-53q0 -272 -229 -299l-33 -4v-15
l33 -6q248 -30 248 -325v-29q0 -183 -98.5 -288t-270.5 -105z" />
    <glyph glyph-name="four" unicode="4" horiz-adv-x="903" 
d="M485 258h-430v82l525 1092h102v-1010h113v-164h-113v-258h-197v258zM485 1053l4 61h-16l-22 -57l-291 -635h325v631z" />
    <glyph glyph-name="five" unicode="5" horiz-adv-x="823" 
d="M47 188l47 21q22 -74 85 -122t138 -48q86 0 139.5 66.5t53.5 173.5v186q0 123 -58 200.5t-149 77.5q-46 0 -84.5 -20t-60.5 -55h-47v764h573l-33 -181h-489v-514h4q68 78 192 78q153 0 256 -102.5t103 -255.5v-133q0 -146 -103 -244t-254 -98q-112 0 -198 56.5
t-115 149.5z" />
    <glyph glyph-name="six" unicode="6" horiz-adv-x="927" 
d="M109 358v713q0 171 100 276t260 105q91 0 169 -33.5t122 -91.5l-41 -29q-39 45 -96.5 72t-118.5 27q-87 0 -138 -56.5t-51 -154.5v-375q35 44 95 70t129 26q126 0 204 -84.5t78 -220.5v-244q0 -164 -100.5 -270t-255.5 -106t-255.5 106t-100.5 270zM315 760v-524
q0 -89 42 -146t108 -57q65 0 107 57t42 146v413q0 89 -38.5 142t-104.5 53q-43 0 -85 -23t-71 -61z" />
    <glyph glyph-name="seven" unicode="7" horiz-adv-x="741" 
d="M201 0v47q0 171 21 294t61.5 215.5t85 173.5t106 218.5t111.5 300.5h-559v183h684l-49 -129q-134 -398 -184 -667t-50 -589v-47h-227z" />
    <glyph glyph-name="eight" unicode="8" horiz-adv-x="1015" 
d="M393 721l35 4v16l-35 2q-111 12 -188.5 97.5t-77.5 197.5v99q0 82 53.5 154.5t143.5 115.5t192 43q155 0 265 -92t110 -221v-99q0 -108 -80 -194t-193 -101l-34 -4v-14l34 -4q121 -12 206 -102.5t85 -208.5v-101q0 -135 -116.5 -231t-278.5 -96q-163 0 -284 97.5
t-121 229.5v101q0 118 81.5 207t202.5 104zM518 758q82 0 120 53t38 168v211q0 107 -39 158t-119 51q-86 0 -131 -53.5t-45 -155.5v-211q0 -221 176 -221zM516 31q85 0 123.5 50t38.5 163v245q0 220 -162 220q-83 0 -129.5 -58.5t-46.5 -161.5v-245q0 -213 176 -213z" />
    <glyph glyph-name="nine" unicode="9" horiz-adv-x="927" 
d="M821 1075v-719q0 -166 -100 -270t-260 -104q-116 0 -207.5 56t-128.5 150l45 25q32 -79 103.5 -127.5t156.5 -48.5t134.5 51.5t49.5 140.5v394q-35 -44 -95.5 -70.5t-127.5 -26.5q-126 0 -204 85t-78 223v241q0 164 100.5 270.5t255.5 106.5t255.5 -106.5t100.5 -270.5z
M614 672v528q0 89 -41.5 146t-107.5 57q-65 0 -107.5 -58t-42.5 -147v-405q0 -95 38.5 -149t103.5 -54q42 0 84.5 22.5t72.5 59.5z" />
    <glyph glyph-name="colon" unicode=":" horiz-adv-x="344" 
d="M57 750q0 49 32.5 81.5t82.5 32.5q51 0 84 -32t33 -82t-33 -83.5t-84 -33.5q-49 0 -82 33.5t-33 83.5zM57 106q0 50 32.5 82.5t82.5 32.5q51 0 84 -32.5t33 -82.5q0 -51 -33 -83.5t-84 -32.5q-50 0 -82.5 32.5t-32.5 83.5z" />
    <glyph glyph-name="semicolon" unicode=";" horiz-adv-x="354" 
d="M59 750q0 51 32.5 82.5t82.5 31.5t83.5 -32.5t33.5 -81.5t-33.5 -82t-83.5 -33t-82.5 32.5t-32.5 82.5zM223 -4q-28 -14 -57 -14q-47 0 -78 32.5t-31 81.5q0 51 32.5 84t82.5 33q57 0 91 -45t34 -123q0 -97 -51.5 -163t-139.5 -83l-10 35q69 20 102.5 62.5t24.5 99.5z
" />
    <glyph glyph-name="less" unicode="&#x3c;" horiz-adv-x="669" 
d="M610 457v-56l-551 215v50l551 215v-58l-452 -178v-6z" />
    <glyph glyph-name="equal" unicode="=" horiz-adv-x="741" 
d="M59 782h623v-49h-623v49zM59 539h623v-50h-623v50z" />
    <glyph glyph-name="greater" unicode="&#x3e;" horiz-adv-x="669" 
d="M57 823v58l551 -215v-50l-551 -213v56l453 180v4z" />
    <glyph glyph-name="question" unicode="?" horiz-adv-x="808" 
d="M147 1298l-36 35q44 54 119.5 85.5t160.5 31.5q145 0 231.5 -88t86.5 -234q0 -140 -93 -277.5t-309 -313.5v-273h-49v416q140 135 193 234.5t53 226.5q0 123 -41 186.5t-121 63.5q-49 0 -103 -25.5t-92 -67.5zM168 98q0 50 33 82.5t82 32.5t81.5 -32.5t32.5 -82.5
q0 -51 -32.5 -83.5t-83.5 -32.5q-48 0 -80.5 33t-32.5 83z" />
    <glyph glyph-name="at" unicode="@" horiz-adv-x="1589" 
d="M854 115q-38 -129 -184 -129q-118 0 -179 79t-47 214l37 380q10 115 93.5 197t189.5 82q120 0 141 -125h15l-2 59l4 46h200l-65 -725q-12 -156 104 -156q81 0 156.5 67.5t122.5 182t47 241.5q0 177 -92.5 330t-252 243.5t-347.5 90.5q-194 0 -353 -96t-249.5 -263.5
t-90.5 -371.5q0 -205 90.5 -373t248.5 -264t350 -96q222 0 417 127l21 -37q-196 -133 -434 -133q-154 0 -291 60t-234.5 162.5t-154 246t-56.5 305.5t56.5 306t154 247t234.5 163t291 60q150 0 286.5 -57t234.5 -153t156 -228t58 -277q0 -151 -60.5 -278t-163.5 -200
t-223 -73q-73 0 -128.5 28.5t-80.5 78.5l-6 39h-14zM692 733l-47 -514q-9 -95 9 -137.5t67 -42.5q51 0 90 43t45 106l45 482q8 90 -21.5 154.5t-78.5 64.5q-41 0 -71 -43.5t-38 -112.5z" />
    <glyph glyph-name="A" unicode="A" horiz-adv-x="684" 
d="M-10 0l266 1432h94l344 -1432h-219l-102 428h-250l-80 -428h-53zM225 1022l-10 -82l-84 -463h229l-106 463l-14 82h-15z" />
    <glyph glyph-name="B" unicode="B" horiz-adv-x="833" 
d="M758 1110v-51q0 -133 -64.5 -215.5t-161.5 -95.5l-30 -5v-12l30 -4q105 -15 179.5 -111.5t74.5 -218.5v-61q0 -84 -36.5 -159.5t-109.5 -126t-165 -50.5h-375v1432h346q130 0 221 -92t91 -230zM313 762h109q69 0 96 58.5t27 199.5v110q0 140 -27.5 196t-99.5 56h-105
v-620zM573 305v146q0 131 -39.5 196.5t-111.5 65.5h-109v-664h125q73 0 104 60.5t31 195.5z" />
    <glyph glyph-name="C" unicode="C" horiz-adv-x="788" 
d="M88 393v660q0 182 99 289.5t266 107.5q175 0 284 -121l-37 -33q-97 97 -213 97q-89 0 -137.5 -56t-48.5 -159v-914q0 -225 182 -225q86 0 154 46t100 124l47 -21q-40 -98 -125 -152t-202 -54q-170 0 -269.5 110.5t-99.5 300.5z" />
    <glyph glyph-name="D" unicode="D" horiz-adv-x="860" 
d="M100 0v1432h349q146 0 235.5 -105t89.5 -274v-676q0 -163 -89.5 -270t-225.5 -107h-359zM313 1382v-1333h113q66 0 100.5 61t34.5 175v864q0 111 -39 172t-112 61h-97z" />
    <glyph glyph-name="E" unicode="E" horiz-adv-x="667" 
d="M100 1432h518v-50h-305v-626h262v-49h-262v-658h305v-49h-518v1432z" />
    <glyph glyph-name="F" unicode="F" horiz-adv-x="669" 
d="M621 1382h-308v-647h265v-49h-265v-686h-213v1432h521v-50z" />
    <glyph glyph-name="G" unicode="G" horiz-adv-x="878" 
d="M88 1055q0 182 100.5 288.5t274.5 106.5q188 0 295 -119l-35 -35q-42 43 -100 68t-119 25q-95 0 -149 -56.5t-54 -154.5v-928q0 -106 48 -161.5t140 -55.5q63 0 115 24v615h-160v49h357v-649q-58 -39 -152 -64.5t-180 -25.5q-179 0 -280 110t-101 299v664z" />
    <glyph glyph-name="H" unicode="H" horiz-adv-x="919" 
d="M100 1432h213v-693h295v693h213v-1432h-213v690h-295v-690h-213v1432z" />
    <glyph glyph-name="I" unicode="I" horiz-adv-x="411" 
d="M100 1432h213v-1432h-213v1432z" />
    <glyph glyph-name="J" unicode="J" horiz-adv-x="598" 
d="M-10 68l30 41q81 -66 154 -66q54 0 83.5 45.5t29.5 130.5v1213h213v-1102q0 -151 -82.5 -249.5t-208.5 -98.5q-113 0 -219 86z" />
    <glyph glyph-name="K" unicode="K" horiz-adv-x="856" 
d="M313 1432v-1432h-213v1432h213zM647 0l-268 733v39l340 660h57l-264 -517l354 -915h-219z" />
    <glyph glyph-name="L" unicode="L" horiz-adv-x="593" 
d="M100 1432h213v-1383h293v-49h-506v1432z" />
    <glyph glyph-name="M" unicode="M" horiz-adv-x="1067" 
d="M967 1432v-1432h-213v1137l4 82h-15l-8 -82l-207 -1137h-96l-270 1137l-15 82h-14l6 -82v-1137h-51v1432h225l217 -924l15 -82h14l8 82l168 924h232z" />
    <glyph glyph-name="N" unicode="N" horiz-adv-x="804" 
d="M307 1432l324 -881l26 -82h15l-6 82v881h51v-1432h-94l-449 1190l-27 82h-12l4 -82v-1190h-51v1432h219z" />
    <glyph glyph-name="O" unicode="O" horiz-adv-x="907" 
d="M88 389v670q0 173 102.5 282t266.5 109t264 -108t100 -283v-670q0 -183 -101 -295t-265 -112t-265.5 112t-101.5 295zM301 1178v-924q0 -107 40 -165t114 -58t113.5 58t39.5 165v924q0 108 -39.5 165.5t-111.5 57.5q-74 0 -115 -58.5t-41 -164.5z" />
    <glyph glyph-name="P" unicode="P" horiz-adv-x="821" 
d="M100 1432h349q141 0 235 -98t94 -238v-88q0 -140 -92.5 -239t-232.5 -99h-140v-670h-213v1432zM565 981v139q0 136 -33.5 199t-105.5 63h-113v-663h121q70 0 100.5 62.5t30.5 199.5z" />
    <glyph glyph-name="Q" unicode="Q" horiz-adv-x="907" 
d="M367 -20l26 6l-2 4h-26q-128 26 -202.5 133t-74.5 266v668q0 177 101.5 285t265.5 108t265 -108t101 -285v-668q0 -187 -99 -297t-267 -110q-35 0 -77.5 -20.5t-76.5 -53.5q27 18 74 18q71 0 176 -51l16 -8q69 -35 115 -35q71 0 113 86l24 -14q-35 -72 -93 -112t-128 -40
q-58 0 -137 29l-10 4q-68 29 -127 29q-75 0 -125 -50l-25 15q86 152 193 201zM301 1163v-895q0 -115 39 -176t113 -61q75 0 115 63t40 182v887q0 114 -39.5 176t-111.5 62t-114 -63t-42 -175z" />
    <glyph glyph-name="R" unicode="R" horiz-adv-x="890" 
d="M100 1432h349q141 0 235 -98t94 -238v-49q0 -133 -83.5 -226.5t-211.5 -105.5v-15q74 -4 137 -58.5t78 -125.5l121 -516h-217l-125 545q-21 91 -40 118t-68 27h-56v-690h-213v1432zM565 1001v119q0 136 -33.5 199t-105.5 63h-113v-643h121q70 0 100.5 62.5t30.5 199.5z
" />
    <glyph glyph-name="S" unicode="S" horiz-adv-x="745" 
d="M492 193q0 94 -74 239l-256 512q-56 112 -56 211q0 129 81 212t208 83q77 0 150 -32.5t125 -90.5l-35 -35q-40 43 -94 70t-101 27q-60 0 -95.5 -44t-35.5 -118q0 -87 56 -205l292 -596q43 -90 43 -170q0 -120 -93 -197t-236 -77q-149 0 -283 86l27 43q124 -72 229 -72
q71 0 109.5 40.5t38.5 113.5z" />
    <glyph glyph-name="T" unicode="T" horiz-adv-x="702" 
d="M715 1432v-50h-256v-1382h-213v1382h-256v50h725z" />
    <glyph glyph-name="U" unicode="U" horiz-adv-x="835" 
d="M100 1432h213v-1151q0 -113 46.5 -176.5t129.5 -63.5q95 0 152 82t57 221v1088h52v-1088q0 -171 -80.5 -266.5t-223.5 -95.5q-157 0 -251.5 110.5t-94.5 296.5v1043z" />
    <glyph glyph-name="V" unicode="V" horiz-adv-x="667" 
d="M207 1432l201 -930l14 -82h14l10 82l179 930h53l-279 -1432h-96l-313 1432h217z" />
    <glyph glyph-name="W" unicode="W" horiz-adv-x="1005" 
d="M594 1432l178 -906l12 -82h15l8 82l156 906h53l-250 -1432h-96l-140 694l-12 82h-14l-8 -82l-123 -694h-97l-286 1432h211l178 -906l12 -82h15l8 82l69 410l-98 496h209z" />
    <glyph glyph-name="X" unicode="X" horiz-adv-x="712" 
d="M231 1432l158 -461l23 -80h12l27 80l180 461h55l-242 -623l279 -809h-221l-185 537l-22 77h-14l-25 -77l-209 -537h-57l272 696l-256 736h225z" />
    <glyph glyph-name="Y" unicode="Y" horiz-adv-x="692" 
d="M213 1430l201 -594l24 -82h15l18 82l178 594h56l-232 -771v-659h-213v641l-270 789h223z" />
    <glyph glyph-name="Z" unicode="Z" horiz-adv-x="825" 
d="M524 1382h-403v50h624v-50l-473 -1333h502v-49h-725v49z" />
    <glyph glyph-name="bracketleft" unicode="[" horiz-adv-x="430" 
d="M373 -104h-314v1671h314v-49h-101v-1573h101v-49z" />
    <glyph glyph-name="backslash" unicode="\" horiz-adv-x="555" 
d="M494 -182h-52l-383 1718h54z" />
    <glyph glyph-name="bracketright" unicode="]" horiz-adv-x="430" 
d="M57 1567h314v-1671h-314v49h101v1573h-101v49z" />
    <glyph glyph-name="asciicircum" unicode="^" horiz-adv-x="618" 
d="M559 760h-31l-213 604h-8l-217 -604h-31l242 672h21z" />
    <glyph glyph-name="underscore" unicode="_" horiz-adv-x="698" 
d="M59 49h578v-49h-578v49z" />
    <glyph glyph-name="grave" unicode="`" horiz-adv-x="333" 
d="M274 1167h-36l-179 230h154z" />
    <glyph glyph-name="a" unicode="a" horiz-adv-x="714" 
d="M49 203v96q0 119 98.5 192.5t303.5 108.5v229q0 70 -36.5 111t-99.5 41q-49 0 -102 -24.5t-84 -61.5l-35 33q41 47 111 75.5t153 28.5q126 0 212.5 -80t86.5 -198v-754h-206v59l10 52l-15 4q-37 -61 -93.5 -97t-116.5 -36q-80 0 -133.5 63t-53.5 158zM330 72
q31 0 64.5 25.5t56.5 66.5v407q-106 -27 -151.5 -76.5t-45.5 -146.5v-155q0 -55 21 -88t55 -33z" />
    <glyph glyph-name="b" unicode="b" horiz-adv-x="761" 
d="M281 53v-53h-201v1432h201v-457l-9 -60l13 -4q42 121 149 121q104 0 182 -88.5t78 -208.5v-475q0 -112 -74 -195t-174 -83q-57 0 -96 32.5t-65 102.5l-13 -4zM281 799v-576q0 -65 37 -118.5t81 -53.5q37 0 62.5 35.5t25.5 87.5v682q0 54 -24.5 88.5t-61.5 34.5
q-46 0 -83 -55.5t-37 -124.5z" />
    <glyph glyph-name="c" unicode="c" horiz-adv-x="661" 
d="M70 715q0 137 89 227t224 90q73 0 140 -27.5t112 -76.5l-35 -31q-34 37 -86.5 60.5t-101.5 23.5q-63 0 -99.5 -40.5t-36.5 -109.5v-634q0 -73 42 -118.5t110 -45.5q65 0 125 38.5t88 96.5l43 -18q-40 -78 -117 -123t-172 -45q-141 0 -233 89.5t-92 227.5v416z" />
    <glyph glyph-name="d" unicode="d" 
d="M483 53l9 60l-13 4q-50 -135 -162 -135q-100 0 -173.5 82t-73.5 196v475q0 120 78 208.5t182 88.5q56 0 91.5 -29t57.5 -92l15 4l-11 60v457h199v-1432h-199v53zM483 801q0 68 -37.5 124t-83.5 56q-37 0 -61.5 -35t-24.5 -88v-684q0 -52 26 -87.5t63 -35.5q44 0 81 53.5
t37 118.5v578z" />
    <glyph glyph-name="e" unicode="e" horiz-adv-x="751" 
d="M70 729q0 124 92.5 214.5t218.5 90.5q127 0 222 -90.5t95 -212.5v-237h-422v-314q0 -65 43.5 -107t110.5 -42q70 0 133 46t92 118l45 -17q-41 -92 -121 -144t-180 -52q-137 0 -233 88.5t-96 214.5v444zM276 541h216v309q0 60 -30.5 98.5t-76.5 38.5t-77.5 -39.5
t-31.5 -97.5v-309z" />
    <glyph glyph-name="f" unicode="f" horiz-adv-x="421" 
d="M8 1014h105v188q0 107 71.5 177.5t180.5 70.5q101 0 208 -66l-24 -41q-77 48 -135 48q-101 0 -101 -144v-233h199v-47h-199v-967h-200v967h-105v47z" />
    <glyph glyph-name="g" unicode="g" horiz-adv-x="751" 
d="M365 -358q-150 0 -239 76t-81 198h115q-7 -101 53 -164t164 -63q94 0 164.5 50.5t70.5 117.5q0 47 -32.5 77.5t-83.5 30.5h-242q-89 0 -141 44.5t-52 121.5q0 61 38.5 118.5t107.5 98.5q-63 41 -98 106.5t-35 141.5v158q0 114 85.5 196t205.5 82q58 0 117 -23t102 -61
q17 47 57.5 74t95.5 27v-123q-38 12 -71 12q-36 0 -58 -16q62 -68 62 -160v-172q0 -129 -81.5 -211t-207.5 -82q-71 0 -139 33q-38 -19 -60 -46t-22 -55q0 -59 127 -59h276q85 0 139 -60.5t54 -154.5q0 -132 -112.5 -222.5t-278.5 -90.5zM281 457q0 -50 26.5 -81.5
t67.5 -31.5q40 0 64 31t24 82v413q0 49 -26 81t-66 32q-39 0 -64.5 -32t-25.5 -81v-413z" />
    <glyph glyph-name="h" unicode="h" horiz-adv-x="780" 
d="M291 864q34 88 79 127t113 39q97 0 162.5 -61t65.5 -152v-817h-213v862q0 111 -64 111q-51 0 -99 -73t-48 -150v-750h-201v1430h201v-502l-8 -60z" />
    <glyph glyph-name="i" unicode="i" horiz-adv-x="395" 
d="M84 1260q0 50 33 82t84 32t84.5 -32.5t33.5 -81.5q0 -51 -33.5 -85t-84.5 -34t-84 34t-33 85zM98 1014h201v-1014h-201v1014z" />
    <glyph glyph-name="j" unicode="j" horiz-adv-x="462" 
d="M154 1260q0 50 32 82t82 32q51 0 85 -33t34 -81q0 -51 -34 -85t-85 -34q-49 0 -81.5 34t-32.5 85zM371 49q0 -129 -65 -221t-222 -186l-23 32q36 29 56.5 53.5t36.5 69.5t16 105v1112h201v-965z" />
    <glyph glyph-name="k" unicode="k" horiz-adv-x="778" 
d="M285 1432v-1432h-199v1432h199zM674 1014l-215 -287l327 -727h-206l-252 604v31l286 379h60z" />
    <glyph glyph-name="l" unicode="l" horiz-adv-x="354" 
d="M86 0v1432h201v-1432h-201z" />
    <glyph glyph-name="m" unicode="m" horiz-adv-x="1146" 
d="M670 852q18 81 71 130.5t129 49.5q89 0 149 -61t60 -152v-819h-200v848q0 65 -14 94t-46 29q-53 0 -99 -66t-46 -143v-762h-201v872q0 43 -17.5 71t-43.5 28q-44 0 -87.5 -78t-43.5 -156v-737h-201v1014h201v-88l-11 -60l15 -2q57 168 180 168q74 0 126.5 -50.5
t61.5 -129.5h17z" />
    <glyph glyph-name="n" unicode="n" horiz-adv-x="774" 
d="M285 864q34 88 79 127t113 39q97 0 162.5 -61t65.5 -152v-817h-213v862q0 111 -64 111q-51 0 -99 -73t-48 -150v-750h-201v1012h201v-84l-9 -60z" />
    <glyph glyph-name="o" unicode="o" horiz-adv-x="765" 
d="M381 1032q128 0 222.5 -90t94.5 -211v-450q0 -123 -91.5 -211t-217.5 -88q-128 0 -223.5 89.5t-95.5 209.5v450q0 123 92.5 212t218.5 89zM387 985q-47 0 -79 -38.5t-32 -96.5v-686q0 -60 31 -97.5t80 -37.5q47 0 76 37t29 98v686q0 60 -29.5 97.5t-75.5 37.5z" />
    <glyph glyph-name="p" unicode="p" horiz-adv-x="770" 
d="M285 961l-9 -60l13 -4q50 135 162 135q100 0 173.5 -82t73.5 -196v-475q0 -120 -77 -208.5t-183 -88.5q-108 0 -149 120l-13 -4l9 -59v-383h-199v1358h199v-53zM285 215q0 -69 38 -124.5t85 -55.5q37 0 61.5 34.5t24.5 88.5v682q0 52 -25.5 87.5t-62.5 35.5
q-46 0 -83.5 -53.5t-37.5 -118.5v-576z" />
    <glyph glyph-name="q" unicode="q" 
d="M483 961v53h201v-1358h-201v383l11 59l-15 4q-41 -120 -151 -120q-103 0 -180.5 88.5t-77.5 208.5v475q0 114 73.5 196t173.5 82q112 0 162 -135l13 4zM483 215v576q0 65 -37 118.5t-81 53.5q-38 0 -64.5 -35.5t-26.5 -87.5v-682q0 -54 24.5 -88.5t61.5 -34.5
q47 0 85 55.5t38 124.5z" />
    <glyph glyph-name="r" unicode="r" horiz-adv-x="532" 
d="M80 1014h196v-144l-8 -59l15 -4q22 102 85.5 163.5t147.5 61.5v-168q-73 11 -142.5 -23.5t-97.5 -95.5v-745h-196v1014z" />
    <glyph glyph-name="s" unicode="s" horiz-adv-x="591" 
d="M537 950l-35 -32q-62 59 -140 59q-51 0 -83.5 -31.5t-32.5 -81.5q0 -55 41 -123l237 -393q45 -68 45 -135q0 -96 -82 -163.5t-198 -67.5q-142 0 -244 102l31 35q97 -84 184 -84q48 0 76.5 28.5t28.5 77.5q0 74 -68 183l-199 321q-51 85 -51 156q0 97 79 164t193 67
q127 0 218 -82z" />
    <glyph glyph-name="t" unicode="t" horiz-adv-x="466" 
d="M279 -18q-78 0 -125.5 61.5t-47.5 165.5v758h-104v47h104v231l199 68v-299h199v-47h-199v-793q0 -54 17.5 -85.5t46.5 -31.5q42 0 98 62l33 -33q-42 -47 -103.5 -75.5t-117.5 -28.5z" />
    <glyph glyph-name="u" unicode="u" horiz-adv-x="759" 
d="M487 147q-34 -88 -78.5 -126.5t-113.5 -38.5q-97 0 -162 61t-65 152v817h213v-862q0 -111 63 -111q51 0 99.5 73t48.5 150v750h200v-1012h-200v84l10 59z" />
    <glyph glyph-name="v" unicode="v" horiz-adv-x="659" 
d="M633 1014l-264 -1014h-64l-278 1014h209l159 -602l11 -60h14l10 60l152 602h51z" />
    <glyph glyph-name="w" unicode="w" horiz-adv-x="997" 
d="M276 0l-249 1014h206l134 -565l10 -60h14l6 60l76 346l-53 219h209l133 -565l8 -60h14l9 60l127 565h51l-236 -1014h-63l-156 627l-8 59h-14l-9 -59l-143 -627h-66z" />
    <glyph glyph-name="x" unicode="x" horiz-adv-x="731" 
d="M35 1012h209l135 -301l20 -56h15l18 56l133 301h53l-184 -418l271 -594h-209l-183 401l-20 58h-14l-19 -58l-178 -401h-55l231 522z" />
    <glyph glyph-name="y" unicode="y" horiz-adv-x="659" 
d="M27 1014h209l159 -600l11 -60h14l10 60l152 600h51l-357 -1372h-53l96 358h-14z" />
    <glyph glyph-name="z" unicode="z" horiz-adv-x="710" 
d="M664 0h-603v47l373 920h-307v47h532v-47l-372 -920h377v-47z" />
    <glyph glyph-name="braceleft" unicode="{" horiz-adv-x="661" 
d="M59 756h35q68 0 99.5 30.5t31.5 94.5v419q0 142 54 204.5t176 62.5h149v-49h-12q-154 0 -154 -154v-377q0 -124 -79.5 -189t-231.5 -65v-4q152 0 231.5 -65t79.5 -189v-377q0 -153 154 -153h12v-49h-149q-122 0 -176 62t-54 204v420q0 64 -31.5 94.5t-99.5 30.5h-35v49z
" />
    <glyph glyph-name="bar" unicode="|" horiz-adv-x="167" 
d="M59 -182v1718h50v-1718h-50z" />
    <glyph glyph-name="braceright" unicode="}" horiz-adv-x="663" 
d="M604 707h-35q-68 0 -99.5 -30.5t-31.5 -94.5v-420q0 -142 -53.5 -204t-175.5 -62h-150v49h11q79 0 117 37.5t38 115.5v377q0 124 79.5 189t230.5 65v4q-151 0 -230.5 65t-79.5 189v377q0 78 -38 116t-117 38h-11v49h150q122 0 175.5 -62.5t53.5 -204.5v-419
q0 -64 31.5 -94.5t99.5 -30.5h35v-49z" />
    <glyph glyph-name="asciitilde" unicode="~" 
d="M88 451l-29 12q67 192 203 192q55 0 141 -34l21 -9q90 -34 135 -34q77 0 115 86l31 -11q-49 -200 -185 -200q-53 0 -149 36q-105 39 -158 39q-83 0 -125 -77z" />
    <glyph glyph-name="uni00A0" unicode="&#xa0;" horiz-adv-x="378" 
 />
    <glyph glyph-name="exclamdown" unicode="&#xa1;" horiz-adv-x="520" 
d="M117 915q0 51 32 84t82 33q51 0 84 -33t33 -84q0 -49 -33 -80.5t-84 -31.5q-50 0 -82 31.5t-32 80.5zM207 754h47l100 -1104h-248z" />
    <glyph glyph-name="cent" unicode="&#xa2;" horiz-adv-x="661" 
d="M469 1022l10 78h43l-10 -92q70 -24 123 -80l-35 -31q-39 42 -94 64l-121 -922q21 -6 43 -6q65 0 125 38.5t88 96.5l43 -18q-44 -86 -123.5 -127t-181.5 -41l-10 -80h-45l12 84q-119 19 -192.5 105t-73.5 208v416q0 137 89 227t224 90q38 0 86 -10zM344 55l119 920
q-24 6 -51 6q-63 0 -99.5 -40.5t-36.5 -109.5v-634q0 -96 68 -142z" />
    <glyph glyph-name="sterling" unicode="&#xa3;" horiz-adv-x="868" 
d="M59 803h164v315q0 155 82 243.5t227 88.5q78 0 154 -25.5t123 -68.5l-29 -41q-87 71 -188 71q-74 0 -115 -48.5t-41 -135.5v-399h242v-49h-242v-123q0 -170 -57.5 -306t-183.5 -268l-2 -6h577v-51h-641v25q61 90 77.5 193.5t16.5 350.5v185h-164v49z" />
    <glyph glyph-name="currency" unicode="&#xa4;" horiz-adv-x="749" 
d="M602 530l88 -88l-28 -30l-89 88q-87 -74 -198 -74q-112 0 -199 74l-88 -88l-29 30l88 86q-75 84 -75 201q0 114 73 199l-86 86l29 28l88 -86q87 74 199 74q113 0 198 -76l89 88l28 -28l-88 -88q74 -87 74 -197q0 -112 -74 -199zM113 729q0 -109 76.5 -185.5t185.5 -76.5
q107 0 183.5 76.5t76.5 185.5q0 107 -76.5 183.5t-183.5 76.5q-109 0 -185.5 -76.5t-76.5 -183.5z" />
    <glyph glyph-name="yen" unicode="&#xa5;" horiz-adv-x="694" 
d="M213 1430l201 -594l24 -82h15l18 82l178 594h56l-230 -760h223v-49h-225v-140h225v-49h-225v-432h-213v432h-219v49h219v140h-219v49h209l-260 760h223z" />
    <glyph glyph-name="brokenbar" unicode="&#xa6;" horiz-adv-x="167" 
d="M59 1493h50v-657h-50v657zM109 -61h-50v661h50v-661z" />
    <glyph glyph-name="section" unicode="&#xa7;" horiz-adv-x="765" 
d="M47 600q0 98 78 164.5t194 66.5q51 0 107 -16l-154 248q-53 83 -53 156q0 97 79.5 164t193.5 67q125 0 219 -84l-35 -33q-65 62 -139 62q-52 0 -85.5 -31.5t-33.5 -81.5q0 -59 43 -123l237 -393q45 -68 45 -137q0 -95 -82.5 -162.5t-199.5 -67.5q-49 0 -99 15l162 -267
q45 -68 45 -135q0 -96 -82 -163.5t-198 -67.5q-142 0 -244 102l31 35q94 -84 184 -84q47 0 76 29t29 76q0 75 -68 184l-199 321q-51 80 -51 156zM246 666q0 -57 47 -136l26 -41q62 -36 111 -36q46 0 77.5 31.5t31.5 78.5q0 63 -54 148l-22 39q-47 26 -98 26q-52 0 -85.5 -31
t-33.5 -79z" />
    <glyph glyph-name="dieresis" unicode="&#xa8;" horiz-adv-x="534" 
d="M57 1276q0 34 24 57t58 23q37 0 61.5 -23t24.5 -57q0 -37 -24.5 -60.5t-61.5 -23.5q-34 0 -58 24t-24 60zM311 1276q0 34 24.5 57t59.5 23t59.5 -23t24.5 -57q0 -36 -24 -60t-60 -24t-60 24t-24 60z" />
    <glyph glyph-name="copyright" unicode="&#xa9;" horiz-adv-x="1406" 
d="M59 705q0 201 86 368t234.5 263t325.5 96t325.5 -96t234 -263t85.5 -368q0 -150 -50.5 -285t-136.5 -232t-205.5 -154t-252.5 -57q-177 0 -325.5 96.5t-234.5 264t-86 367.5zM106 705q0 -189 79 -346t217.5 -248t304.5 -91q165 0 301.5 90.5t215.5 247.5t79 347
q0 189 -79 346.5t-215.5 247.5t-301.5 90q-125 0 -236.5 -53.5t-191.5 -144.5t-126.5 -218t-46.5 -268zM401 584v239q0 137 89.5 227.5t224.5 90.5q71 0 139 -28t113 -77l-35 -30q-34 37 -87 60.5t-102 23.5q-62 0 -98.5 -40.5t-36.5 -109.5v-459q0 -73 42.5 -118.5
t111.5 -45.5q65 0 125 39t86 99l43 -21q-40 -78 -117.5 -123t-173.5 -45q-141 0 -232.5 90t-91.5 228z" />
    <glyph glyph-name="ordfeminine" unicode="&#xaa;" horiz-adv-x="491" 
d="M59 938v59q0 143 246 183v139q0 44 -21 68t-59 24q-30 0 -61.5 -14.5t-52.5 -36.5l-23 20q22 27 68 45.5t92 18.5q78 0 131 -49t53 -121v-459h-127v35l6 31l-8 4q-24 -37 -58.5 -59.5t-70.5 -22.5q-50 0 -82.5 38.5t-32.5 96.5zM305 918v243q-64 -18 -91.5 -48t-27.5 -89
v-88q0 -34 12.5 -54t34.5 -20q19 0 39 15t33 41z" />
    <glyph glyph-name="guillemotleft" unicode="&#xab;" horiz-adv-x="745" 
d="M369 618v17l295 262l22 -23l-141 -243v-8l141 -244l-22 -21zM55 618v17l295 262l25 -23l-144 -243v-8l144 -244l-25 -21z" />
    <glyph glyph-name="logicalnot" unicode="&#xac;" horiz-adv-x="995" 
d="M938 778v-323h-90v235h-789v88h879z" />
    <glyph glyph-name="uni00AD" unicode="&#xad;" horiz-adv-x="743" 
d="M59 664h625v-50h-625v50z" />
    <glyph glyph-name="registered" unicode="&#xae;" horiz-adv-x="686" 
d="M344 895q-119 0 -202 87.5t-83 211.5q0 123 83.5 210t201.5 87q117 0 200 -87t83 -210q0 -124 -83 -211.5t-200 -87.5zM342 930q104 0 177 77.5t73 186.5t-73 185.5t-177 76.5q-103 0 -175.5 -76.5t-72.5 -185.5t72.5 -186.5t175.5 -77.5zM250 1358h108q35 0 61.5 -22.5
t26.5 -53.5v-18q0 -29 -23.5 -49.5t-57.5 -20.5v-4q6 0 15.5 -2t25 -13.5t20.5 -29.5l33 -117h-68l-33 121q-8 31 -30 31h-13v-152h-65v330zM315 1327v-117h37q29 0 29 45v31q0 41 -31 41h-35z" />
    <glyph glyph-name="macron" unicode="&#xaf;" horiz-adv-x="479" 
d="M420 1303v-50h-361v50h361z" />
    <glyph glyph-name="degree" unicode="&#xb0;" horiz-adv-x="487" 
d="M244 881q-75 0 -130 54.5t-55 129.5t55 129.5t130 54.5t129.5 -54.5t54.5 -129.5t-54 -129.5t-130 -54.5zM244 1206q-59 0 -100.5 -41.5t-41.5 -99.5q0 -59 41 -100t101 -41q58 0 99.5 41t41.5 100t-41.5 100t-99.5 41z" />
    <glyph glyph-name="plusminus" unicode="&#xb1;" horiz-adv-x="745" 
d="M59 705v49h287v307h51v-307h289v-49h-289v-308h-51v308h-287zM59 297h625v-49h-625v49z" />
    <glyph glyph-name="twosuperior" unicode="&#xb2;" horiz-adv-x="399" 
d="M88 1372l-18 19q50 53 129 53q64 0 103.5 -40.5t39.5 -105.5q0 -90 -84 -174l-65 -59q-82 -82 -99 -162h244v-90h-281q0 86 24.5 159.5t78.5 151.5l18 29q76 111 76 168q0 41 -21 66.5t-55 25.5q-46 0 -90 -41z" />
    <glyph glyph-name="threesuperior" unicode="&#xb3;" horiz-adv-x="401" 
d="M90 1372l-20 19q48 51 120 51q63 0 104.5 -39.5t41.5 -102.5v-26q0 -116 -105 -135v-4q111 -19 111 -138v-32q0 -70 -44 -113t-116 -43q-75 0 -123 39l15 20q52 -30 94 -30q41 0 61.5 31t20.5 102v22q0 72 -21.5 101.5t-74.5 29.5v25q50 0 70 28.5t20 98.5v22
q0 55 -19 84t-51 29q-45 0 -84 -39z" />
    <glyph glyph-name="acute" unicode="&#xb4;" horiz-adv-x="333" 
d="M98 1167h-39l62 230h155z" />
    <glyph glyph-name="paragraph" unicode="&#xb6;" horiz-adv-x="774" 
d="M348 1432h49v-1493h-49v884q-128 0 -208.5 84t-80.5 221q0 136 81 220t208 84zM666 -61v1493h49v-1493h-49z" />
    <glyph glyph-name="periodcentered" unicode="&#xb7;" horiz-adv-x="290" 
d="M57 662q0 38 25 63t63 25q39 0 65 -25t26 -63t-26.5 -64.5t-64.5 -26.5t-63 26t-25 65z" />
    <glyph glyph-name="cedilla" unicode="&#xb8;" horiz-adv-x="417" 
d="M61 -205l21 25q18 -21 50.5 -35t62.5 -14q28 0 44.5 14t16.5 39q0 32 -31.5 53t-87.5 27l39 98h31l-23 -65q76 -3 126 -34.5t50 -80.5q0 -42 -36.5 -68t-96.5 -26q-49 0 -93.5 18t-72.5 49z" />
    <glyph glyph-name="onesuperior" unicode="&#xb9;" horiz-adv-x="264" 
d="M119 815v563l-49 -26l-13 24l103 56h47v-617h-88z" />
    <glyph glyph-name="ordmasculine" unicode="&#xba;" horiz-adv-x="495" 
d="M246 1444q76 0 133 -54t57 -126v-271q0 -73 -54.5 -125.5t-129.5 -52.5q-77 0 -135 53t-58 125v271q0 73 56 126.5t131 53.5zM250 1413q-29 0 -48.5 -23.5t-19.5 -58.5v-405q0 -35 19.5 -57.5t48.5 -22.5q28 0 45.5 22t17.5 58v405q0 37 -17.5 59.5t-45.5 22.5z" />
    <glyph glyph-name="guillemotright" unicode="&#xbb;" horiz-adv-x="745" 
d="M375 635v-17l-295 -262l-23 23l142 244v8l-142 243l23 23zM688 635v-17l-295 -262l-24 23l143 244v8l-143 243l24 23z" />
    <glyph glyph-name="onequarter" unicode="&#xbc;" horiz-adv-x="727" 
d="M121 815v563l-49 -26l-13 24l103 56h47v-617h-88zM176 0l320 1432h51l-320 -1432h-51zM381 119v43l190 454h52v-428h45v-69h-45v-119h-93v119h-149zM530 436h-4l-98 -243v-5h102v248z" />
    <glyph glyph-name="onehalf" unicode="&#xbd;" horiz-adv-x="794" 
d="M121 815v563l-49 -26l-13 24l103 56h47v-617h-88zM176 0l320 1432h51l-320 -1432h-51zM481 559l-16 19q47 53 129 53q63 0 102 -40.5t39 -105.5q0 -93 -84 -174l-65 -59q-82 -82 -99 -162h246v-90h-282q0 164 102 311l20 29q74 112 74 168q0 41 -21 66.5t-55 25.5
q-46 0 -90 -41z" />
    <glyph glyph-name="threequarters" unicode="&#xbe;" horiz-adv-x="815" 
d="M90 1372l-20 19q48 51 120 51q63 0 104.5 -39.5t41.5 -102.5v-26q0 -116 -105 -135v-4q111 -19 111 -138v-32q0 -70 -44 -113t-116 -43q-75 0 -123 39l15 20q52 -30 94 -30q41 0 61.5 31t20.5 102v22q0 72 -21.5 101.5t-74.5 29.5v25q50 0 70 28.5t20 98.5v22
q0 55 -19 84t-51 29q-45 0 -84 -39zM264 0l320 1430h53l-320 -1430h-53zM469 119v41l190 454h50v-426h47v-69h-47v-119h-91v119h-149zM618 434h-4l-98 -241v-5h102v246z" />
    <glyph glyph-name="questiondown" unicode="&#xbf;" horiz-adv-x="811" 
d="M647 915q0 -49 -32 -81.5t-80 -32.5q-51 0 -84 32t-33 82q0 49 34 83t83 34q48 0 80 -33t32 -84zM668 -195l37 -32q-44 -55 -119.5 -87t-161.5 -32q-146 0 -233 87.5t-87 233.5q0 141 93 278.5t311 313.5v183h49v-326q-140 -134 -194 -233.5t-54 -225.5q0 -124 42 -187
t122 -63q50 0 103.5 24.5t91.5 65.5z" />
    <glyph glyph-name="Agrave" unicode="&#xc0;" horiz-adv-x="684" 
d="M336 1518h-37l-178 229h153zM-10 0l266 1432h94l344 -1432h-219l-102 428h-250l-80 -428h-53zM225 1022l-10 -82l-84 -463h229l-106 463l-14 82h-15z" />
    <glyph glyph-name="Aacute" unicode="&#xc1;" horiz-adv-x="684" 
d="M309 1518h-39l62 229h155zM-10 0l266 1432h94l344 -1432h-219l-102 428h-250l-80 -428h-53zM225 1022l-10 -82l-84 -463h229l-106 463l-14 82h-15z" />
    <glyph glyph-name="Acircumflex" unicode="&#xc2;" horiz-adv-x="684" 
d="M104 1520l187 227h26l187 -227h-41l-160 104l-158 -104h-41zM-10 0l266 1432h94l344 -1432h-219l-102 428h-250l-80 -428h-53zM225 1022l-10 -82l-84 -463h229l-106 463l-14 82h-15z" />
    <glyph glyph-name="Atilde" unicode="&#xc3;" horiz-adv-x="684" 
d="M135 1567l-26 14q55 119 141 119q29 0 59 -12l53 -25q32 -14 52 -14q40 0 63 53l25 -14q-52 -121 -137 -121q-31 0 -68 16l-37 16q-38 17 -57 17q-43 0 -68 -49zM-10 0l266 1432h94l344 -1432h-219l-102 428h-250l-80 -428h-53zM225 1022l-10 -82l-84 -463h229l-106 463
l-14 82h-15z" />
    <glyph glyph-name="Adieresis" unicode="&#xc4;" horiz-adv-x="684" 
d="M92 1624q0 35 24 58.5t58 23.5q37 0 61.5 -23.5t24.5 -58.5t-24.5 -58.5t-61.5 -23.5q-34 0 -58 23.5t-24 58.5zM346 1624q0 35 24.5 58.5t59.5 23.5t59.5 -23.5t24.5 -58.5t-24.5 -58.5t-59.5 -23.5t-59.5 23.5t-24.5 58.5zM-10 0l266 1432h94l344 -1432h-219l-102 428
h-250l-80 -428h-53zM225 1022l-10 -82l-84 -463h229l-106 463l-14 82h-15z" />
    <glyph glyph-name="Aring" unicode="&#xc5;" horiz-adv-x="684" 
d="M193 1640q0 47 31.5 79t78.5 32t80 -32t33 -79q0 -49 -32.5 -80.5t-80.5 -31.5t-79 31.5t-31 80.5zM231 1640q0 -31 20.5 -52t51.5 -21t52.5 21t21.5 52t-21 51.5t-53 20.5q-31 0 -51.5 -20.5t-20.5 -51.5zM-10 0l264 1432h96l344 -1432h-219l-102 428h-250l-80 -428h-53
zM225 1022l-10 -82l-84 -463h229l-106 463l-14 82h-15z" />
    <glyph glyph-name="AE" unicode="&#xc6;" horiz-adv-x="950" 
d="M350 1432h551v-52h-305v-624h262v-49h-262v-658h305v-51h-518v428h-262l-121 -428h-53zM360 1296l-14 -82l-211 -739h248v821h-23z" />
    <glyph glyph-name="Ccedilla" unicode="&#xc7;" horiz-adv-x="788" 
d="M88 393v662q0 182 99 289.5t266 107.5q170 0 282 -121l-37 -35q-94 97 -213 97q-89 0 -136.5 -55.5t-47.5 -159.5v-912q0 -225 182 -225q85 0 152.5 45t101.5 123l45 -21q-38 -95 -119 -148t-192 -56l-16 -47q78 -3 128 -34.5t50 -80.5q0 -42 -36.5 -68t-96.5 -26
q-49 0 -94.5 18t-73.5 49l20 25q20 -21 52.5 -35t62.5 -14q28 0 44.5 14t16.5 39q0 32 -32 53t-88 27l32 80q-163 4 -257.5 114t-94.5 295z" />
    <glyph glyph-name="Egrave" unicode="&#xc8;" horiz-adv-x="667" 
d="M401 1518h-39l-178 229h156zM100 1432h518v-50h-305v-626h262v-49h-262v-658h305v-49h-518v1432z" />
    <glyph glyph-name="Eacute" unicode="&#xc9;" horiz-adv-x="667" 
d="M371 1518h-39l61 229h156zM100 1432h518v-50h-305v-626h262v-49h-262v-658h305v-49h-518v1432z" />
    <glyph glyph-name="Ecircumflex" unicode="&#xca;" horiz-adv-x="667" 
d="M168 1518l188 229h27l186 -229h-43l-157 106l-158 -106h-43zM100 1432h518v-50h-305v-626h262v-49h-262v-658h305v-49h-518v1432z" />
    <glyph glyph-name="Edieresis" unicode="&#xcb;" horiz-adv-x="667" 
d="M156 1624q0 35 24.5 58.5t59.5 23.5q36 0 61 -23.5t25 -58.5t-25 -58.5t-61 -23.5q-35 0 -59.5 23.5t-24.5 58.5zM412 1624q0 35 24 58.5t58 23.5q37 0 61.5 -23.5t24.5 -58.5t-24.5 -58.5t-61.5 -23.5q-34 0 -58 23.5t-24 58.5zM100 1432h518v-50h-305v-626h262v-49
h-262v-658h305v-49h-518v1432z" />
    <glyph glyph-name="Igrave" unicode="&#xcc;" horiz-adv-x="411" 
d="M240 1518h-39l-178 229h155zM100 1432h213v-1432h-213v1432z" />
    <glyph glyph-name="Iacute" unicode="&#xcd;" horiz-adv-x="411" 
d="M211 1518h-39l61 229h156zM100 1432h213v-1432h-213v1432z" />
    <glyph glyph-name="Icircumflex" unicode="&#xce;" horiz-adv-x="411" 
d="M6 1520l189 227h26l187 -227h-43l-158 104l-158 -104h-43zM100 1432h213v-1432h-213v1432z" />
    <glyph glyph-name="Idieresis" unicode="&#xcf;" horiz-adv-x="411" 
d="M-6 1624q0 35 24.5 58.5t59.5 23.5q36 0 61 -23.5t25 -58.5t-25 -58.5t-61 -23.5q-35 0 -59.5 23.5t-24.5 58.5zM250 1624q0 35 24 58.5t58 23.5q37 0 61.5 -23.5t24.5 -58.5t-24.5 -58.5t-61.5 -23.5q-34 0 -58 23.5t-24 58.5zM100 1432h213v-1432h-213v1432z" />
    <glyph glyph-name="Eth" unicode="&#xd0;" horiz-adv-x="862" 
d="M100 0v692h-92v49h92v691h349q146 0 235.5 -105t89.5 -274v-676q0 -163 -89.5 -270t-225.5 -107h-359zM313 1382v-641h131v-49h-131v-643h113q66 0 100.5 61t34.5 175v864q0 111 -39 172t-112 61h-97z" />
    <glyph glyph-name="Ntilde" unicode="&#xd1;" horiz-adv-x="804" 
d="M242 1567l-27 14q55 119 141 119q30 0 60 -12l53 -25q32 -14 51 -14q41 0 64 53l26 -14q-55 -121 -139 -121q-31 0 -68 16l-36 16q-34 15 -58 15q-41 0 -67 -47zM307 1432l324 -881l26 -82h15l-6 82v881h51v-1432h-94l-449 1190l-27 82h-12l4 -82v-1190h-51v1432h219z
" />
    <glyph glyph-name="Ograve" unicode="&#xd2;" horiz-adv-x="907" 
d="M489 1518h-38l-179 229h154zM88 389v670q0 173 102.5 282t266.5 109t264 -108t100 -283v-670q0 -183 -101 -295t-265 -112t-265.5 112t-101.5 295zM301 1178v-924q0 -107 40 -165t114 -58t113.5 58t39.5 165v924q0 108 -39.5 165.5t-111.5 57.5q-74 0 -115 -58.5
t-41 -164.5z" />
    <glyph glyph-name="Oacute" unicode="&#xd3;" horiz-adv-x="907" 
d="M461 1518h-39l61 229h156zM88 389v670q0 173 102.5 282t266.5 109t264 -108t100 -283v-670q0 -183 -101 -295t-265 -112t-265.5 112t-101.5 295zM301 1178v-924q0 -107 40 -165t114 -58t113.5 58t39.5 165v924q0 108 -39.5 165.5t-111.5 57.5q-74 0 -115 -58.5
t-41 -164.5z" />
    <glyph glyph-name="Ocircumflex" unicode="&#xd4;" horiz-adv-x="907" 
d="M256 1520l188 227h27l186 -227h-43l-159 104l-156 -104h-43zM88 389v670q0 173 102.5 282t266.5 109t264 -108t100 -283v-670q0 -183 -101 -295t-265 -112t-265.5 112t-101.5 295zM301 1178v-924q0 -107 40 -165t114 -58t113.5 58t39.5 165v924q0 108 -39.5 165.5
t-111.5 57.5q-74 0 -115 -58.5t-41 -164.5z" />
    <glyph glyph-name="Otilde" unicode="&#xd5;" horiz-adv-x="907" 
d="M287 1567l-27 14q55 119 143 119q28 0 58 -12l53 -25q32 -14 51 -14q41 0 64 53l26 -14q-55 -121 -137 -121q-32 0 -69 16l-37 16q-34 15 -58 15q-41 0 -67 -47zM88 389v670q0 173 102.5 282t266.5 109t264 -108t100 -283v-670q0 -183 -101 -295t-265 -112t-265.5 112
t-101.5 295zM301 1178v-924q0 -107 40 -165t114 -58t113.5 58t39.5 165v924q0 108 -39.5 165.5t-111.5 57.5q-74 0 -115 -58.5t-41 -164.5z" />
    <glyph glyph-name="Odieresis" unicode="&#xd6;" horiz-adv-x="907" 
d="M244 1624q0 35 24.5 58.5t59.5 23.5t59.5 -23.5t24.5 -58.5t-24.5 -58.5t-59.5 -23.5t-59.5 23.5t-24.5 58.5zM498 1624q0 35 25 58.5t59 23.5q37 0 60.5 -23.5t23.5 -58.5t-23.5 -58.5t-60.5 -23.5q-34 0 -59 23.5t-25 58.5zM88 389v670q0 173 102.5 282t266.5 109
t264 -108t100 -283v-670q0 -183 -101 -295t-265 -112t-265.5 112t-101.5 295zM301 1178v-924q0 -107 40 -165t114 -58t113.5 58t39.5 165v924q0 108 -39.5 165.5t-111.5 57.5q-74 0 -115 -58.5t-41 -164.5z" />
    <glyph glyph-name="multiply" unicode="&#xd7;" horiz-adv-x="661" 
d="M330 678l235 233l37 -37l-235 -233l235 -233l-37 -37l-233 235l-236 -235l-37 37l236 233l-234 233l37 37z" />
    <glyph glyph-name="Oslash" unicode="&#xd8;" horiz-adv-x="907" 
d="M88 389v670q0 173 102.5 282t266.5 109q155 0 254 -96l43 100l49 -22l-55 -123q73 -103 73 -250v-670q0 -183 -101 -295t-265 -112q-159 0 -256 102l-49 -109l-48 25l58 131q-72 109 -72 258zM301 1178v-736l307 684v52q0 108 -39.5 165.5t-111.5 57.5q-74 0 -115 -58.5
t-41 -164.5zM301 313v-59q0 -107 40 -165t114 -58t113.5 58t39.5 165v743z" />
    <glyph glyph-name="Ugrave" unicode="&#xd9;" horiz-adv-x="835" 
d="M483 1518h-39l-178 229h156zM100 1432h213v-1151q0 -113 46.5 -176.5t129.5 -63.5q95 0 152 82t57 221v1088h52v-1088q0 -171 -80.5 -266.5t-223.5 -95.5q-157 0 -251.5 110.5t-94.5 296.5v1043z" />
    <glyph glyph-name="Uacute" unicode="&#xda;" horiz-adv-x="835" 
d="M455 1518h-39l61 229h156zM100 1432h213v-1151q0 -113 46.5 -176.5t129.5 -63.5q95 0 152 82t57 221v1088h52v-1088q0 -171 -80.5 -266.5t-223.5 -95.5q-157 0 -251.5 110.5t-94.5 296.5v1043z" />
    <glyph glyph-name="Ucircumflex" unicode="&#xdb;" horiz-adv-x="835" 
d="M250 1520l188 227h27l186 -227h-43l-157 104l-158 -104h-43zM100 1432h213v-1151q0 -113 46.5 -176.5t129.5 -63.5q95 0 152 82t57 221v1088h52v-1088q0 -171 -80.5 -266.5t-223.5 -95.5q-157 0 -251.5 110.5t-94.5 296.5v1043z" />
    <glyph glyph-name="Udieresis" unicode="&#xdc;" horiz-adv-x="835" 
d="M238 1624q0 35 24.5 58.5t59.5 23.5q36 0 61 -23.5t25 -58.5t-25 -58.5t-61 -23.5q-35 0 -59.5 23.5t-24.5 58.5zM494 1624q0 35 23.5 58.5t57.5 23.5q37 0 60.5 -23.5t23.5 -58.5t-23.5 -58.5t-60.5 -23.5q-34 0 -57.5 23.5t-23.5 58.5zM100 1432h213v-1151
q0 -113 46.5 -176.5t129.5 -63.5q95 0 152 82t57 221v1088h52v-1088q0 -171 -80.5 -266.5t-223.5 -95.5q-157 0 -251.5 110.5t-94.5 296.5v1043z" />
    <glyph glyph-name="Yacute" unicode="&#xdd;" horiz-adv-x="694" 
d="M391 1518h-39l62 227h155zM213 1430l201 -594l24 -82h15l18 82l178 594h56l-232 -771v-659h-213v641l-270 789h223z" />
    <glyph glyph-name="Thorn" unicode="&#xde;" horiz-adv-x="821" 
d="M100 1430h213v-345h156q140 0 224.5 -90t84.5 -239v-76q0 -150 -87.5 -243t-227.5 -93h-150v-344h-213v1430zM565 631v180q0 109 -30.5 167t-88.5 58h-133v-643h133q57 0 88 61.5t31 176.5z" />
    <glyph glyph-name="germandbls" unicode="&#xdf;" horiz-adv-x="831" 
d="M313 1165v-1165h-213v1155q0 130 92.5 212.5t235.5 82.5q142 0 233 -82.5t91 -212.5v-20q0 -109 -64.5 -192t-159.5 -95l-30 -4v-13l30 -4q111 -17 182.5 -119.5t71.5 -246.5v-31q0 -202 -85 -316t-236 -114h-76v49h55q67 0 98 65.5t31 202.5v254q0 111 -38.5 176.5
t-104.5 65.5h-41v49h35q57 0 89 60.5t32 173.5v69q0 234 -113 234q-115 0 -115 -234z" />
    <glyph glyph-name="agrave" unicode="&#xe0;" horiz-adv-x="714" 
d="M385 1155h-39l-176 227h154zM49 203v96q0 119 98.5 192.5t303.5 108.5v229q0 70 -36.5 111t-99.5 41q-49 0 -102 -24.5t-84 -61.5l-35 33q41 47 111 75.5t153 28.5q126 0 212.5 -80t86.5 -198v-754h-206v59l10 52l-15 4q-37 -61 -93.5 -97t-116.5 -36q-80 0 -133.5 63
t-53.5 158zM330 72q31 0 64.5 25.5t56.5 66.5v407q-106 -27 -151.5 -76.5t-45.5 -146.5v-155q0 -55 21 -88t55 -33z" />
    <glyph glyph-name="aacute" unicode="&#xe1;" horiz-adv-x="714" 
d="M356 1155h-39l62 227h153zM49 203v96q0 119 98.5 192.5t303.5 108.5v229q0 70 -36.5 111t-99.5 41q-49 0 -102 -24.5t-84 -61.5l-35 33q41 47 111 75.5t153 28.5q126 0 212.5 -80t86.5 -198v-754h-206v59l10 52l-15 4q-37 -61 -93.5 -97t-116.5 -36q-80 0 -133.5 63
t-53.5 158zM330 72q31 0 64.5 25.5t56.5 66.5v407q-106 -27 -151.5 -76.5t-45.5 -146.5v-155q0 -55 21 -88t55 -33z" />
    <glyph glyph-name="acircumflex" unicode="&#xe2;" horiz-adv-x="714" 
d="M154 1155l186 227h27l186 -227h-43l-158 105l-157 -105h-41zM49 203v96q0 119 98.5 192.5t303.5 108.5v229q0 70 -36.5 111t-99.5 41q-49 0 -102 -24.5t-84 -61.5l-35 33q41 47 111 75.5t153 28.5q126 0 212.5 -80t86.5 -198v-754h-206v59l10 52l-15 4q-37 -61 -93.5 -97
t-116.5 -36q-80 0 -133.5 63t-53.5 158zM330 72q31 0 64.5 25.5t56.5 66.5v407q-106 -27 -151.5 -76.5t-45.5 -146.5v-155q0 -55 21 -88t55 -33z" />
    <glyph glyph-name="atilde" unicode="&#xe3;" horiz-adv-x="714" 
d="M182 1202l-26 15q56 120 141 120q24 0 59 -14l54 -25q28 -14 51 -14q41 0 61 53l27 -14q-52 -121 -137 -121q-29 0 -68 17l-39 16q-36 16 -55 16q-43 0 -68 -49zM49 203v96q0 119 98.5 192.5t303.5 108.5v229q0 70 -36.5 111t-99.5 41q-49 0 -102 -24.5t-84 -61.5l-35 33
q41 47 111 75.5t153 28.5q126 0 212.5 -80t86.5 -198v-754h-206v59l10 52l-15 4q-37 -61 -93.5 -97t-116.5 -36q-80 0 -133.5 63t-53.5 158zM330 72q31 0 64.5 25.5t56.5 66.5v407q-106 -27 -151.5 -76.5t-45.5 -146.5v-155q0 -55 21 -88t55 -33z" />
    <glyph glyph-name="adieresis" unicode="&#xe4;" horiz-adv-x="714" 
d="M139 1260q0 35 24 58t58 23q36 0 61 -23t25 -58t-24.5 -58.5t-61.5 -23.5q-34 0 -58 23.5t-24 58.5zM393 1260q0 35 24 58t58 23q37 0 61.5 -23t24.5 -58t-24.5 -58.5t-61.5 -23.5q-34 0 -58 23.5t-24 58.5zM49 203v96q0 118 99 191.5t303 107.5v231q0 70 -36.5 110
t-99.5 40q-50 0 -102.5 -23.5t-83.5 -60.5l-35 31q41 47 111.5 76.5t152.5 29.5q126 0 212.5 -80t86.5 -198v-754h-206v59l10 52l-15 4q-37 -61 -93.5 -97t-116.5 -36q-80 0 -133.5 63t-53.5 158zM330 72q31 0 64.5 25.5t56.5 66.5v407q-106 -27 -151.5 -76.5t-45.5 -146.5
v-155q0 -55 21 -88t55 -33z" />
    <glyph glyph-name="aring" unicode="&#xe5;" horiz-adv-x="714" 
d="M240 1274q0 48 31.5 80t80.5 32q47 0 79 -32.5t32 -79.5t-32 -79t-79 -32t-79.5 32t-32.5 79zM279 1274q0 -31 21 -51.5t52 -20.5t51.5 20.5t20.5 51.5q0 32 -20.5 53t-51.5 21t-52 -21t-21 -53zM49 203v96q0 119 98.5 192.5t303.5 108.5v229q0 70 -36.5 111t-99.5 41
q-49 0 -102 -24.5t-82 -61.5l-35 33q41 47 111 75.5t151 28.5q127 0 213 -79.5t86 -198.5v-754h-206v59l10 52l-15 4q-37 -60 -93.5 -96.5t-114.5 -36.5q-80 0 -134.5 63t-54.5 158zM330 72q31 0 64.5 25.5t56.5 66.5v407q-106 -27 -151.5 -76.5t-45.5 -146.5v-155
q0 -55 21 -88t55 -33z" />
    <glyph glyph-name="ae" unicode="&#xe6;" horiz-adv-x="1132" 
d="M451 600v231q0 70 -36.5 110t-99.5 40q-49 0 -102 -24t-84 -60l-35 31q41 47 110.5 75.5t149.5 28.5q132 0 201 -78h12q80 80 197 80q129 0 222 -90.5t93 -216.5v-233h-422v-320q0 -63 43 -103t111 -40q70 0 134 46t93 118l43 -17q-41 -93 -121 -144.5t-182 -51.5
q-101 0 -178 49t-111 135h-12q-29 -79 -96.5 -131.5t-140.5 -52.5q-82 0 -136.5 63t-54.5 158v98q0 118 99 191.5t303 107.5zM657 856v-315h215v313q0 56 -30 94.5t-74 38.5q-46 0 -78.5 -38.5t-32.5 -92.5zM330 74q36 0 74.5 35.5t60.5 87.5q-14 41 -14 88v286
q-106 -27 -151.5 -76.5t-45.5 -146.5v-155q0 -54 20.5 -86.5t55.5 -32.5z" />
    <glyph glyph-name="ccedilla" unicode="&#xe7;" horiz-adv-x="661" 
d="M70 717q0 135 89 225t222 90q72 0 139 -27.5t113 -74.5l-33 -33q-35 38 -87.5 61t-100.5 23q-63 0 -99.5 -40.5t-36.5 -109.5v-634q0 -73 42 -117.5t110 -44.5q65 0 124.5 37.5t88.5 97.5l41 -20q-37 -74 -109.5 -118.5t-162.5 -47.5l-15 -45q77 -3 126.5 -34.5
t49.5 -80.5q0 -41 -36.5 -67.5t-94.5 -26.5q-51 0 -96.5 18t-73.5 49l21 25q20 -21 52.5 -35t62.5 -14q29 0 46 14t17 39q0 32 -32.5 53t-90.5 27l33 78q-135 5 -222 93.5t-87 221.5v418z" />
    <glyph glyph-name="egrave" unicode="&#xe8;" horiz-adv-x="751" 
d="M416 1155h-39l-178 229h155zM70 729q0 124 92.5 214.5t218.5 90.5q127 0 222 -90.5t95 -212.5v-237h-422v-314q0 -65 43.5 -107t110.5 -42q70 0 133 46t92 118l45 -17q-41 -92 -121 -144t-180 -52q-137 0 -233 88.5t-96 214.5v444zM276 541h216v309q0 60 -30.5 98.5
t-76.5 38.5t-77.5 -39.5t-31.5 -97.5v-309z" />
    <glyph glyph-name="eacute" unicode="&#xe9;" horiz-adv-x="751" 
d="M387 1155h-39l62 229h155zM70 729q0 124 92.5 214.5t218.5 90.5q127 0 222 -90.5t95 -212.5v-237h-422v-314q0 -65 43.5 -107t110.5 -42q70 0 133 46t92 118l45 -17q-41 -92 -121 -144t-180 -52q-137 0 -233 88.5t-96 214.5v444zM276 541h216v309q0 60 -30.5 98.5
t-76.5 38.5t-77.5 -39.5t-31.5 -97.5v-309z" />
    <glyph glyph-name="ecircumflex" unicode="&#xea;" horiz-adv-x="751" 
d="M182 1155l189 229h26l185 -229h-41l-158 107l-158 -107h-43zM70 729q0 124 92.5 214.5t218.5 90.5q127 0 222 -90.5t95 -212.5v-237h-422v-314q0 -65 43.5 -107t110.5 -42q70 0 133 46t92 118l45 -17q-41 -92 -121 -144t-180 -52q-137 0 -233 88.5t-96 214.5v444z
M276 541h216v309q0 60 -30.5 98.5t-76.5 38.5t-77.5 -39.5t-31.5 -97.5v-309z" />
    <glyph glyph-name="edieresis" unicode="&#xeb;" horiz-adv-x="751" 
d="M170 1260q0 35 24 58t60 23t61 -23t25 -58t-25 -58.5t-61 -23.5q-35 0 -59.5 23.5t-24.5 58.5zM426 1260q0 35 24 58t58 23q36 0 60 -23t24 -58t-23.5 -58.5t-60.5 -23.5q-34 0 -58 23.5t-24 58.5zM70 729q0 124 92.5 213.5t218.5 89.5q128 0 222.5 -90t94.5 -213v-235
h-422v-314q0 -65 43.5 -107t110.5 -42q70 0 133 46t92 118l45 -17q-41 -92 -121 -144t-180 -52q-137 0 -233 88.5t-96 214.5v444zM276 541h216v309q0 59 -30.5 97t-76.5 38t-77.5 -39t-31.5 -96v-309z" />
    <glyph glyph-name="igrave" unicode="&#xec;" horiz-adv-x="395" 
d="M231 1153h-38l-179 229h156zM98 1014h201v-1014h-201v1014z" />
    <glyph glyph-name="iacute" unicode="&#xed;" horiz-adv-x="395" 
d="M203 1153h-39l61 229h156zM98 1014h201v-1014h-201v1014z" />
    <glyph glyph-name="icircumflex" unicode="&#xee;" horiz-adv-x="395" 
d="M-2 1155l188 227h27l186 -227h-43l-157 105l-158 -105h-43zM98 1014h201v-1014h-201v1014z" />
    <glyph glyph-name="idieresis" unicode="&#xef;" horiz-adv-x="395" 
d="M-14 1260q0 35 24 58t60 23t61 -23t25 -58t-25 -58.5t-61 -23.5q-35 0 -59.5 23.5t-24.5 58.5zM242 1260q0 35 24 58t58 23q37 0 61.5 -23t24.5 -58t-24.5 -58.5t-61.5 -23.5q-34 0 -58 23.5t-24 58.5zM98 1014h201v-1014h-201v1014z" />
    <glyph glyph-name="eth" unicode="&#xf0;" horiz-adv-x="765" 
d="M311 1432q149 -42 246 -156l141 51l17 -43l-127 -47q96 -140 96 -305v-651q0 -124 -88 -211.5t-213 -87.5q-128 0 -220.5 88t-92.5 211v454q0 120 79 208.5t187 88.5q54 0 88.5 -29t56.5 -92l13 4l-9 60q0 121 -26 217l-133 -47l-19 43l137 49q-45 111 -145 149zM362 981
q-37 0 -61.5 -35t-24.5 -88v-696q0 -61 28 -97t75 -36t76.5 36.5t29.5 96.5v639q0 67 -38.5 123.5t-84.5 56.5z" />
    <glyph glyph-name="ntilde" unicode="&#xf1;" horiz-adv-x="774" 
d="M238 1202l-27 15q56 118 143 118q32 0 60 -14l53 -25q24 -12 51 -12q40 0 62 51l24 -14q-52 -121 -135 -121q-29 0 -68 17l-39 16q-36 16 -55 16q-43 0 -69 -47zM285 864q34 88 79 127t113 39q97 0 162.5 -61t65.5 -152v-817h-213v862q0 111 -64 111q-51 0 -99 -73
t-48 -150v-750h-201v1012h201v-84l-9 -60z" />
    <glyph glyph-name="ograve" unicode="&#xf2;" horiz-adv-x="765" 
d="M414 1153h-39l-178 229h155zM381 1032q128 0 222.5 -90t94.5 -211v-450q0 -123 -91.5 -211t-217.5 -88q-128 0 -223.5 89.5t-95.5 209.5v450q0 123 92.5 212t218.5 89zM387 985q-47 0 -79 -38.5t-32 -96.5v-686q0 -60 31 -97.5t80 -37.5q47 0 76 37t29 98v686
q0 60 -29.5 97.5t-75.5 37.5z" />
    <glyph glyph-name="oacute" unicode="&#xf3;" horiz-adv-x="765" 
d="M383 1153h-39l62 229h155zM381 1032q128 0 222.5 -90t94.5 -211v-450q0 -123 -91.5 -211t-217.5 -88q-128 0 -223.5 89.5t-95.5 209.5v450q0 123 92.5 212t218.5 89zM387 985q-47 0 -79 -38.5t-32 -96.5v-686q0 -60 31 -97.5t80 -37.5q47 0 76 37t29 98v686
q0 60 -29.5 97.5t-75.5 37.5z" />
    <glyph glyph-name="ocircumflex" unicode="&#xf4;" horiz-adv-x="765" 
d="M180 1155l189 227h26l185 -227h-41l-158 105l-158 -105h-43zM381 1032q128 0 222.5 -90t94.5 -211v-450q0 -123 -91.5 -211t-217.5 -88q-128 0 -223.5 89.5t-95.5 209.5v450q0 123 92.5 212t218.5 89zM387 985q-47 0 -79 -38.5t-32 -96.5v-686q0 -60 31 -97.5t80 -37.5
q47 0 76 37t29 98v686q0 60 -29.5 97.5t-75.5 37.5z" />
    <glyph glyph-name="otilde" unicode="&#xf5;" horiz-adv-x="765" 
d="M209 1202l-27 15q55 118 144 118q29 0 59 -12l53 -25q28 -14 51 -14q39 0 62 53l27 -14q-55 -121 -138 -121q-28 0 -67 17l-39 16q-32 14 -55 14q-44 0 -70 -47zM381 1032q128 0 222.5 -90t94.5 -211v-450q0 -123 -91.5 -211t-217.5 -88q-128 0 -223.5 89.5t-95.5 209.5
v450q0 123 92.5 212t218.5 89zM387 985q-47 0 -79 -38.5t-32 -96.5v-686q0 -60 31 -97.5t80 -37.5q47 0 76 37t29 98v686q0 60 -29.5 97.5t-75.5 37.5z" />
    <glyph glyph-name="odieresis" unicode="&#xf6;" horiz-adv-x="765" 
d="M166 1260q0 35 24 58t60 23t61 -23t25 -58t-25 -58.5t-61 -23.5q-35 0 -59.5 23.5t-24.5 58.5zM422 1260q0 35 24 58t58 23q36 0 60 -23t24 -58t-23.5 -58.5t-60.5 -23.5q-34 0 -58 23.5t-24 58.5zM381 1032q128 0 222.5 -90t94.5 -211v-450q0 -123 -91.5 -211
t-217.5 -88q-128 0 -223.5 89.5t-95.5 209.5v450q0 123 92.5 212t218.5 89zM387 985q-47 0 -79 -38.5t-32 -96.5v-688q0 -59 31 -96t80 -37q47 0 76 36.5t29 96.5v688q0 60 -29.5 97.5t-75.5 37.5z" />
    <glyph glyph-name="divide" unicode="&#xf7;" horiz-adv-x="849" 
d="M313 885q0 51 32.5 82.5t82.5 31.5q51 0 84 -31.5t33 -82.5q0 -50 -33 -82.5t-84 -32.5q-50 0 -82.5 33t-32.5 82zM793 666v-50h-734v50h734zM313 397q0 49 32.5 82t82.5 33q51 0 84 -32.5t33 -82.5t-33 -83t-84 -33q-49 0 -82 33t-33 83z" />
    <glyph glyph-name="oslash" unicode="&#xf8;" horiz-adv-x="765" 
d="M76 -12l61 114q-67 76 -67 179v450q0 123 92.5 212t218.5 89q121 0 215 -84l53 99l43 -25l-61 -111q67 -79 67 -180v-450q0 -123 -91.5 -211t-217.5 -88q-123 0 -217 84l-55 -101zM387 985q-47 0 -79 -38.5t-32 -96.5v-490l216 396v94q0 60 -29.5 97.5t-75.5 37.5z
M276 258v-94q0 -60 31 -97.5t80 -37.5q47 0 76 37t29 98v489z" />
    <glyph glyph-name="ugrave" unicode="&#xf9;" horiz-adv-x="759" 
d="M418 1153h-37l-180 229h155zM487 147q-34 -88 -78.5 -126.5t-113.5 -38.5q-97 0 -162 61t-65 152v817h213v-862q0 -111 63 -111q51 0 99.5 73t48.5 150v750h200v-1012h-200v84l10 59z" />
    <glyph glyph-name="uacute" unicode="&#xfa;" horiz-adv-x="759" 
d="M387 1153h-39l64 229h155zM487 147q-34 -88 -78.5 -126.5t-113.5 -38.5q-97 0 -162 61t-65 152v817h213v-862q0 -111 63 -111q51 0 99.5 73t48.5 150v750h200v-1012h-200v84l10 59z" />
    <glyph glyph-name="ucircumflex" unicode="&#xfb;" horiz-adv-x="759" 
d="M184 1153l189 227h26l185 -227h-41l-158 107l-158 -107h-43zM487 147q-34 -88 -78.5 -126.5t-113.5 -38.5q-97 0 -162 61t-65 152v817h213v-862q0 -111 63 -111q51 0 99.5 73t48.5 150v750h200v-1012h-200v84l10 59z" />
    <glyph glyph-name="udieresis" unicode="&#xfc;" horiz-adv-x="759" 
d="M174 1260q0 35 23.5 58t58.5 23q36 0 61 -23t25 -58t-25 -58.5t-61 -23.5q-35 0 -58.5 23.5t-23.5 58.5zM428 1260q0 35 24 58t58 23q36 0 60 -23t24 -58t-23.5 -58.5t-60.5 -23.5q-34 0 -58 23.5t-24 58.5zM487 147q-34 -88 -78.5 -126.5t-113.5 -38.5q-97 0 -162 61
t-65 152v819h213v-864q0 -111 63 -111q51 0 99.5 73t48.5 150v752h200v-1014h-200v84l10 59z" />
    <glyph glyph-name="yacute" unicode="&#xfd;" horiz-adv-x="659" 
d="M373 1153h-39l61 229h156zM27 1014h209l159 -600l11 -60h14l10 60l152 600h51l-357 -1372h-53l96 358h-14z" />
    <glyph glyph-name="thorn" unicode="&#xfe;" horiz-adv-x="768" 
d="M285 961l-9 -60l13 -4q26 70 64.5 102.5t95.5 32.5q103 0 177 -82t74 -196v-475q0 -120 -79 -208.5t-187 -88.5q-54 0 -88.5 28.5t-56.5 91.5l-13 -4l9 -59v-383h-199v1776h199v-471zM285 215q0 -69 38 -125.5t85 -56.5q37 0 61.5 35t24.5 88v684q0 52 -25.5 87.5
t-62.5 35.5q-46 0 -83.5 -53.5t-37.5 -118.5v-576z" />
    <glyph glyph-name="ydieresis" unicode="&#xff;" horiz-adv-x="659" 
d="M156 1260q0 35 24 58t58 23q37 0 61.5 -23t24.5 -58t-24.5 -58.5t-61.5 -23.5q-34 0 -58 23.5t-24 58.5zM410 1260q0 35 24 58t60 23t60 -23t24 -58t-24.5 -58.5t-59.5 -23.5t-59.5 23.5t-24.5 58.5zM27 1014h209l159 -600l11 -60h14l10 60l152 600h51l-357 -1372h-53
l96 358h-14z" />
    <glyph glyph-name="Amacron" unicode="&#x100;" horiz-adv-x="684" 
d="M483 1653v-49h-360v49h360zM-10 0l266 1432h94l344 -1432h-219l-102 428h-250l-80 -428h-53zM225 1022l-10 -82l-84 -463h229l-106 463l-14 82h-15z" />
    <glyph glyph-name="amacron" unicode="&#x101;" horiz-adv-x="714" 
d="M532 1288v-49h-360v49h360zM49 203v96q0 119 98.5 192.5t303.5 108.5v229q0 70 -36.5 111t-99.5 41q-49 0 -102 -24.5t-84 -61.5l-35 33q41 47 111 75.5t153 28.5q126 0 212.5 -80t86.5 -198v-754h-206v59l10 52l-15 4q-37 -61 -93.5 -97t-116.5 -36q-80 0 -133.5 63
t-53.5 158zM330 72q31 0 64.5 25.5t56.5 66.5v407q-106 -27 -151.5 -76.5t-45.5 -146.5v-155q0 -55 21 -88t55 -33z" />
    <glyph glyph-name="Abreve" unicode="&#x102;" horiz-adv-x="684" 
d="M444 1718h29q0 -83 -48 -136.5t-122 -53.5t-122 53.5t-48 136.5h29q0 -44 40 -73t101 -29t101 29t40 73zM-10 0l266 1432h94l344 -1432h-219l-102 428h-250l-80 -428h-53zM225 1022l-10 -82l-84 -463h229l-106 463l-14 82h-15z" />
    <glyph glyph-name="abreve" unicode="&#x103;" horiz-adv-x="714" 
d="M492 1354h30q0 -84 -48 -137.5t-122 -53.5t-122 54t-48 137h29q0 -44 40 -73.5t101 -29.5q62 0 101 28.5t39 74.5zM49 203v96q0 119 98.5 192.5t303.5 108.5v229q0 70 -36.5 111t-99.5 41q-49 0 -102 -24.5t-84 -61.5l-35 33q41 47 111 75.5t153 28.5q126 0 212.5 -80
t86.5 -198v-754h-206v59l10 52l-15 4q-37 -61 -93.5 -97t-116.5 -36q-80 0 -133.5 63t-53.5 158zM330 72q31 0 64.5 25.5t56.5 66.5v407q-106 -27 -151.5 -76.5t-45.5 -146.5v-155q0 -55 21 -88t55 -33z" />
    <glyph glyph-name="Aogonek" unicode="&#x104;" horiz-adv-x="684" 
d="M-10 0l266 1432h96l344 -1432h-186q-92 -58 -92 -137q0 -35 19.5 -59.5t47.5 -24.5q52 0 88 74l27 -15q-25 -57 -64.5 -88t-86.5 -31q-48 0 -82.5 31.5t-34.5 75.5q0 95 145 174l-102 428h-250l-80 -428h-55zM227 1022l-10 -82l-84 -463h229l-106 463l-14 82h-15z" />
    <glyph glyph-name="aogonek" unicode="&#x105;" horiz-adv-x="714" 
d="M49 203v96q0 119 98.5 192.5t303.5 108.5v229q0 71 -35.5 111.5t-98.5 40.5q-51 0 -104 -24.5t-84 -61.5l-35 33q41 47 111 75.5t153 28.5q126 0 212.5 -80t86.5 -198v-754h-174q-43 -26 -66.5 -62.5t-23.5 -72.5q0 -37 19.5 -61.5t48.5 -24.5q49 0 88 74l26 -15
q-25 -56 -65 -87.5t-86 -31.5q-49 0 -83 31.5t-34 75.5q0 94 144 174v59l10 52l-15 4q-35 -60 -92.5 -96.5t-117.5 -36.5q-80 0 -133.5 63t-53.5 158zM332 72q31 0 63.5 25.5t55.5 66.5v407q-106 -27 -151.5 -76.5t-45.5 -146.5v-155q0 -55 21.5 -88t56.5 -33z" />
    <glyph glyph-name="Cacute" unicode="&#x106;" horiz-adv-x="788" 
d="M451 1518h-39l61 229h156zM88 393v660q0 182 99 289.5t266 107.5q175 0 284 -121l-37 -33q-97 97 -213 97q-89 0 -137.5 -56t-48.5 -159v-914q0 -225 182 -225q86 0 154 46t100 124l47 -21q-40 -98 -125 -152t-202 -54q-170 0 -269.5 110.5t-99.5 300.5z" />
    <glyph glyph-name="cacute" unicode="&#x107;" horiz-adv-x="661" 
d="M383 1153h-39l62 229h155zM70 715q0 137 89 227t224 90q73 0 140 -27.5t112 -76.5l-35 -31q-34 37 -86.5 60.5t-101.5 23.5q-63 0 -99.5 -40.5t-36.5 -109.5v-634q0 -73 42 -118.5t110 -45.5q65 0 125 38.5t88 96.5l43 -18q-40 -78 -117 -123t-172 -45q-141 0 -233 89.5
t-92 227.5v416z" />
    <glyph glyph-name="Ccircumflex" unicode="&#x108;" horiz-adv-x="788" 
d="M248 1520l188 227h27l186 -227h-43l-160 104l-155 -104h-43zM88 393v660q0 182 99 289.5t266 107.5q175 0 284 -121l-37 -33q-97 97 -213 97q-89 0 -137.5 -56t-48.5 -159v-914q0 -225 182 -225q86 0 154 46t100 124l47 -21q-40 -98 -125 -152t-202 -54
q-170 0 -269.5 110.5t-99.5 300.5z" />
    <glyph glyph-name="ccircumflex" unicode="&#x109;" horiz-adv-x="661" 
d="M180 1155l189 227h26l187 -227h-43l-158 105l-158 -105h-43zM70 715q0 137 89 227t224 90q73 0 140 -27.5t112 -76.5l-35 -31q-34 37 -86.5 60.5t-101.5 23.5q-63 0 -99.5 -40.5t-36.5 -109.5v-634q0 -73 42 -118.5t110 -45.5q65 0 125 38.5t88 96.5l43 -18
q-40 -78 -117 -123t-172 -45q-141 0 -233 89.5t-92 227.5v416z" />
    <glyph glyph-name="Cdotaccent" unicode="&#x10a;" horiz-adv-x="788" 
d="M362 1626q0 34 23.5 57t58.5 23q37 0 61.5 -23t24.5 -57q0 -35 -24.5 -59.5t-61.5 -24.5q-35 0 -58.5 24.5t-23.5 59.5zM88 393v660q0 182 99 289.5t266 107.5q175 0 284 -121l-37 -33q-97 97 -213 97q-89 0 -137.5 -56t-48.5 -159v-914q0 -225 182 -225q86 0 154 46
t100 124l47 -21q-40 -98 -125 -152t-202 -54q-170 0 -269.5 110.5t-99.5 300.5z" />
    <glyph glyph-name="cdotaccent" unicode="&#x10b;" horiz-adv-x="661" 
d="M295 1262q0 34 24.5 56.5t59.5 22.5t59.5 -22.5t24.5 -56.5q0 -35 -24.5 -59.5t-59.5 -24.5q-36 0 -60 24t-24 60zM70 715q0 137 89 227t224 90q73 0 140 -27.5t112 -76.5l-35 -31q-34 37 -86.5 60.5t-101.5 23.5q-63 0 -99.5 -40.5t-36.5 -109.5v-634q0 -73 42 -118.5
t110 -45.5q65 0 125 38.5t88 96.5l43 -18q-40 -78 -117 -123t-172 -45q-141 0 -233 89.5t-92 227.5v416z" />
    <glyph glyph-name="Ccaron" unicode="&#x10c;" horiz-adv-x="788" 
d="M246 1747h43l155 -107l160 107h43l-186 -227h-27zM88 393v660q0 182 99 289.5t266 107.5q175 0 284 -121l-37 -33q-97 97 -213 97q-89 0 -137.5 -56t-48.5 -159v-914q0 -225 182 -225q86 0 154 46t100 124l47 -21q-40 -98 -125 -152t-202 -54q-170 0 -269.5 110.5
t-99.5 300.5z" />
    <glyph glyph-name="ccaron" unicode="&#x10d;" horiz-adv-x="661" 
d="M178 1382h43l158 -106l158 106h43l-187 -227h-26zM70 715q0 137 89 227t224 90q73 0 140 -27.5t112 -76.5l-35 -31q-34 37 -86.5 60.5t-101.5 23.5q-63 0 -99.5 -40.5t-36.5 -109.5v-634q0 -73 42 -118.5t110 -45.5q65 0 125 38.5t88 96.5l43 -18q-40 -78 -117 -123
t-172 -45q-141 0 -233 89.5t-92 227.5v416z" />
    <glyph glyph-name="Dcaron" unicode="&#x10e;" horiz-adv-x="862" 
d="M178 1747h43l156 -107l160 107h43l-187 -227h-26zM100 0v1432h349q146 0 235.5 -105t89.5 -274v-676q0 -163 -89.5 -270t-225.5 -107h-359zM313 1382v-1333h113q66 0 100.5 61t34.5 175v864q0 111 -39 172t-112 61h-97z" />
    <glyph glyph-name="dcaron" unicode="&#x10f;" 
d="M483 53l9 60l-13 4q-50 -135 -162 -135q-100 0 -173.5 82t-73.5 196v475q0 120 78 208.5t182 88.5q56 0 91.5 -29t57.5 -92l15 4l-11 60v457h199v-1432h-199v53zM803 1202h-37l41 230h139zM483 801q0 68 -37.5 124t-83.5 56q-37 0 -61.5 -35t-24.5 -88v-684
q0 -52 26 -87.5t63 -35.5q44 0 81 53.5t37 118.5v578z" />
    <glyph glyph-name="Dcroat" unicode="&#x110;" horiz-adv-x="862" 
d="M100 0v692h-92v49h92v691h349q146 0 235.5 -105t89.5 -274v-676q0 -163 -89.5 -270t-225.5 -107h-359zM313 1382v-641h131v-49h-131v-643h113q66 0 100.5 61t34.5 175v864q0 111 -39 172t-112 61h-97z" />
    <glyph glyph-name="dcroat" unicode="&#x111;" 
d="M483 53l9 60l-13 4q-50 -135 -162 -135q-100 0 -173.5 82t-73.5 196v475q0 120 78 208.5t182 88.5q56 0 91.5 -29t57.5 -92l15 4l-11 60v188h-155v47h155v222h199v-222h82v-47h-82v-1163h-199v53zM483 801q0 68 -37.5 124t-83.5 56q-37 0 -61.5 -35t-24.5 -88v-684
q0 -52 26 -87.5t63 -35.5q44 0 81 53.5t37 118.5v578z" />
    <glyph glyph-name="Emacron" unicode="&#x112;" horiz-adv-x="667" 
d="M549 1653v-49h-363v49h363zM100 1432h518v-50h-305v-626h262v-49h-262v-658h305v-49h-518v1432z" />
    <glyph glyph-name="emacron" unicode="&#x113;" horiz-adv-x="751" 
d="M561 1290v-51h-360v51h360zM70 729q0 124 92.5 214.5t218.5 90.5q127 0 222 -90.5t95 -212.5v-237h-422v-314q0 -65 43.5 -107t110.5 -42q70 0 133 46t92 118l45 -17q-41 -92 -121 -144t-180 -52q-137 0 -233 88.5t-96 214.5v444zM276 541h216v309q0 60 -30.5 98.5
t-76.5 38.5t-77.5 -39.5t-31.5 -97.5v-309z" />
    <glyph glyph-name="Ebreve" unicode="&#x114;" horiz-adv-x="667" 
d="M510 1718h29q0 -83 -48 -136.5t-122 -53.5q-75 0 -123.5 53.5t-48.5 136.5h30q0 -44 40 -73t102 -29q61 0 101 29t40 73zM100 1432h518v-50h-305v-626h262v-49h-262v-658h305v-49h-518v1432z" />
    <glyph glyph-name="ebreve" unicode="&#x115;" horiz-adv-x="751" 
d="M522 1354h29q0 -84 -47 -137.5t-121 -53.5q-75 0 -123.5 54t-48.5 137h31q0 -44 40 -73.5t101 -29.5q62 0 100.5 28.5t38.5 74.5zM70 729q0 124 92.5 213.5t218.5 89.5q128 0 222.5 -90t94.5 -211v-237h-422v-314q0 -65 43.5 -107t110.5 -42q70 0 133 46t92 118l45 -17
q-41 -92 -121 -144t-180 -52q-137 0 -233 88.5t-96 214.5v444zM276 541h216v309q0 60 -30.5 98.5t-76.5 38.5t-77.5 -39.5t-31.5 -97.5v-309z" />
    <glyph glyph-name="Edotaccent" unicode="&#x116;" horiz-adv-x="667" 
d="M283 1624q0 35 23.5 58.5t60.5 23.5q35 0 59.5 -23.5t24.5 -58.5q0 -34 -24.5 -58t-59.5 -24q-36 0 -60 24t-24 58zM100 1432h518v-50h-305v-626h262v-49h-262v-658h305v-49h-518v1432z" />
    <glyph glyph-name="edotaccent" unicode="&#x117;" horiz-adv-x="751" 
d="M297 1262q0 35 24 58t60 23t60 -23t24 -58q0 -34 -24.5 -58t-59.5 -24q-37 0 -60.5 23.5t-23.5 58.5zM70 729q0 124 92.5 214.5t218.5 90.5q127 0 222 -90.5t95 -212.5v-237h-422v-314q0 -65 43.5 -107t110.5 -42q70 0 133 46t92 118l45 -17q-41 -92 -121 -144t-180 -52
q-137 0 -233 88.5t-96 214.5v444zM276 541h216v309q0 60 -30.5 98.5t-76.5 38.5t-77.5 -39.5t-31.5 -97.5v-309z" />
    <glyph glyph-name="Eogonek" unicode="&#x118;" horiz-adv-x="667" 
d="M100 1432h516v-50h-303v-626h260v-49h-260v-658h303v-49h-86q-92 -58 -92 -137q0 -35 20 -59.5t48 -24.5q52 0 88 74l27 -15q-23 -56 -63.5 -87.5t-88.5 -31.5q-49 0 -83 31.5t-34 75.5t37.5 90t106.5 84h-396v1432z" />
    <glyph glyph-name="eogonek" unicode="&#x119;" horiz-adv-x="751" 
d="M70 729q0 124 92.5 214.5t218.5 90.5q127 0 222 -90.5t95 -212.5v-237h-422v-314q0 -65 43.5 -107t110.5 -42q70 0 133 46t92 118l45 -17q-59 -133 -190 -178q-44 -27 -68 -63t-24 -72t20 -60t49 -24q51 0 86 72l27 -15q-25 -56 -64.5 -87.5t-86.5 -31.5q-48 0 -82.5 32
t-34.5 77q0 40 31.5 81.5t89.5 76.5q-36 -4 -54 -4q-137 0 -233 88.5t-96 214.5v444zM276 541h216v309q0 60 -30.5 98.5t-76.5 38.5t-77.5 -39.5t-31.5 -97.5v-309z" />
    <glyph glyph-name="Ecaron" unicode="&#x11a;" horiz-adv-x="667" 
d="M166 1747h43l158 -107l157 107h43l-186 -229h-27zM100 1432h518v-50h-305v-626h262v-49h-262v-658h305v-49h-518v1432z" />
    <glyph glyph-name="ecaron" unicode="&#x11b;" horiz-adv-x="751" 
d="M180 1384h43l158 -106l158 106h41l-185 -229h-26zM70 729q0 124 92.5 214.5t218.5 90.5q127 0 222 -90.5t95 -212.5v-237h-422v-314q0 -65 43.5 -107t110.5 -42q70 0 133 46t92 118l45 -17q-41 -92 -121 -144t-180 -52q-137 0 -233 88.5t-96 214.5v444zM276 541h216v309
q0 60 -30.5 98.5t-76.5 38.5t-77.5 -39.5t-31.5 -97.5v-309z" />
    <glyph glyph-name="Gcircumflex" unicode="&#x11c;" horiz-adv-x="878" 
d="M256 1518l188 229h27l186 -229h-43l-159 106l-156 -106h-43zM88 1055q0 182 100.5 288.5t274.5 106.5q188 0 295 -119l-35 -35q-42 43 -100 68t-119 25q-95 0 -149 -56.5t-54 -154.5v-928q0 -106 48 -161.5t140 -55.5q63 0 115 24v615h-160v49h357v-649
q-58 -39 -152 -64.5t-180 -25.5q-179 0 -280 110t-101 299v664z" />
    <glyph glyph-name="gcircumflex" unicode="&#x11d;" horiz-adv-x="751" 
d="M168 1153l186 229h29l184 -229h-41l-159 107l-158 -107h-41zM365 -358q-150 0 -239 76t-81 198h115q-7 -101 53 -164t164 -63q94 0 164.5 50.5t70.5 117.5q0 47 -32.5 77.5t-83.5 30.5h-242q-89 0 -141 44.5t-52 121.5q0 61 38.5 118.5t107.5 98.5q-63 41 -98 106.5
t-35 141.5v158q0 114 85.5 196t205.5 82q58 0 117 -23t102 -61q17 47 57.5 74t95.5 27v-123q-38 12 -71 12q-36 0 -58 -16q62 -68 62 -160v-172q0 -129 -81.5 -211t-207.5 -82q-71 0 -139 33q-38 -19 -60 -46t-22 -55q0 -59 127 -59h276q85 0 139 -60.5t54 -154.5
q0 -132 -112.5 -222.5t-278.5 -90.5zM281 457q0 -50 26.5 -81.5t67.5 -31.5q40 0 64 31t24 82v413q0 49 -26 81t-66 32q-39 0 -64.5 -32t-25.5 -81v-413z" />
    <glyph glyph-name="Gbreve" unicode="&#x11e;" horiz-adv-x="878" 
d="M596 1718h31q0 -83 -48 -136.5t-122 -53.5q-75 0 -123.5 53.5t-48.5 136.5h30q0 -44 40 -73t102 -29q61 0 100 29t39 73zM88 1055q0 183 100 289t275 106q191 0 295 -119l-35 -35q-41 44 -99.5 69.5t-119.5 25.5q-95 0 -149 -57t-54 -156v-928q0 -106 48 -161.5
t140 -55.5q63 0 115 24v615h-160v49h357v-649q-58 -39 -152 -64.5t-180 -25.5q-179 0 -280 110t-101 299v664z" />
    <glyph glyph-name="gbreve" unicode="&#x11f;" horiz-adv-x="751" 
d="M508 1354h29q0 -85 -47.5 -138t-122.5 -53q-74 0 -122 54t-48 137h28q0 -44 40.5 -73.5t103.5 -29.5q60 0 99.5 29t39.5 74zM365 -358q-150 0 -239 76t-81 198h115q-7 -101 53 -164t164 -63q94 0 164.5 50.5t70.5 117.5q0 47 -32.5 77.5t-83.5 30.5h-242q-89 0 -141 44.5
t-52 121.5q0 61 38.5 118.5t107.5 98.5q-63 41 -98 106.5t-35 141.5v158q0 115 85.5 196.5t205.5 81.5q59 0 118 -22.5t101 -61.5q17 47 57.5 74t95.5 27v-121q-42 10 -71 10q-36 0 -58 -16q62 -65 62 -160v-172q0 -129 -81.5 -211t-207.5 -82q-71 0 -139 33
q-38 -19 -60 -46t-22 -55q0 -59 127 -59h276q85 0 139 -60.5t54 -154.5q0 -132 -112.5 -222.5t-278.5 -90.5zM281 457q0 -50 26.5 -81.5t67.5 -31.5q40 0 64 31t24 82v413q0 50 -26 82.5t-66 32.5q-38 0 -64 -33t-26 -82v-413z" />
    <glyph glyph-name="Gdotaccent" unicode="&#x120;" horiz-adv-x="878" 
d="M371 1624q0 35 23.5 58.5t58.5 23.5q37 0 61.5 -23.5t24.5 -58.5q0 -34 -25 -58t-61 -24q-35 0 -58.5 24t-23.5 58zM88 1055q0 182 100.5 288.5t274.5 106.5q188 0 295 -119l-35 -35q-42 43 -100 68t-119 25q-95 0 -149 -56.5t-54 -154.5v-928q0 -106 48 -161.5
t140 -55.5q63 0 115 24v615h-160v49h357v-649q-58 -39 -152 -64.5t-180 -25.5q-179 0 -280 110t-101 299v664z" />
    <glyph glyph-name="gdotaccent" unicode="&#x121;" horiz-adv-x="751" 
d="M283 1260q0 35 23.5 58t58.5 23q36 0 61 -23t25 -58q0 -34 -25 -58t-61 -24q-35 0 -58.5 24t-23.5 58zM365 -358q-150 0 -239 76t-81 198h115q-7 -101 53 -164t164 -63q94 0 164.5 50.5t70.5 117.5q0 47 -32.5 77.5t-83.5 30.5h-242q-89 0 -141 44.5t-52 121.5
q0 61 38.5 118.5t107.5 98.5q-63 41 -98 106.5t-35 141.5v158q0 114 85.5 196t205.5 82q58 0 117 -23t102 -61q17 47 57.5 74t95.5 27v-123q-38 12 -71 12q-36 0 -58 -16q62 -68 62 -160v-172q0 -129 -81.5 -211t-207.5 -82q-71 0 -139 33q-38 -19 -60 -46t-22 -55
q0 -59 127 -59h276q85 0 139 -60.5t54 -154.5q0 -132 -112.5 -222.5t-278.5 -90.5zM281 457q0 -50 26.5 -81.5t67.5 -31.5q40 0 64 31t24 82v413q0 49 -26 81t-66 32q-39 0 -64.5 -32t-25.5 -81v-413z" />
    <glyph glyph-name="uni0122" unicode="&#x122;" horiz-adv-x="878" 
d="M88 1055q0 182 100.5 288.5t274.5 106.5q188 0 295 -119l-35 -35q-42 43 -100 68t-119 25q-95 0 -149 -56.5t-54 -154.5v-928q0 -106 48 -161.5t140 -55.5q60 0 115 22v617h-160v49h357v-651q-58 -39 -152 -64.5t-180 -25.5q-179 0 -280 110.5t-101 300.5v664zM520 -215
q-23 -10 -39 -10q-34 0 -56 23t-22 57q0 37 23.5 60.5t58.5 23.5q40 0 64 -33t24 -88q0 -68 -36 -115.5t-99 -62.5l-8 26q99 37 90 119z" />
    <glyph glyph-name="uni0123" unicode="&#x123;" horiz-adv-x="751" 
d="M322 1298q21 9 40 9q34 0 55 -22.5t21 -57.5q0 -37 -22.5 -59.5t-57.5 -22.5q-41 0 -64.5 31.5t-23.5 87.5q0 68 35 115.5t98 62.5l9 -27q-99 -36 -90 -117zM365 -358q-150 0 -239 76t-81 198h115q-7 -101 53 -164t164 -63q94 0 164.5 50.5t70.5 117.5q0 47 -32.5 77.5
t-83.5 30.5h-242q-89 0 -141 44.5t-52 121.5q0 61 38.5 118.5t107.5 98.5q-63 41 -98 106.5t-35 141.5v158q0 114 85.5 196t205.5 82q58 0 117 -23t102 -61q17 47 57.5 74t95.5 27v-123q-38 12 -71 12q-36 0 -58 -16q62 -68 62 -160v-172q0 -129 -81.5 -211t-207.5 -82
q-71 0 -139 33q-38 -19 -60 -46t-22 -55q0 -59 127 -59h276q85 0 139 -60.5t54 -154.5q0 -132 -112.5 -222.5t-278.5 -90.5zM281 457q0 -50 26.5 -81.5t67.5 -31.5q40 0 64 31t24 82v413q0 49 -26 81t-66 32q-39 0 -64.5 -32t-25.5 -81v-413z" />
    <glyph glyph-name="Hcircumflex" unicode="&#x124;" horiz-adv-x="919" 
d="M260 1518l189 229h26l187 -229h-44l-157 106l-158 -106h-43zM100 1432h213v-693h295v693h213v-1432h-213v690h-295v-690h-213v1432z" />
    <glyph glyph-name="hcircumflex" unicode="&#x125;" horiz-adv-x="780" 
d="M258 1477l188 227h27l184 -227h-41l-157 106l-158 -106h-43zM291 864q34 88 79 127t113 39q97 0 162.5 -61t65.5 -152v-817h-213v862q0 111 -64 111q-51 0 -99 -73t-48 -150v-750h-201v1430h201v-502l-8 -60z" />
    <glyph glyph-name="Hbar" unicode="&#x126;" horiz-adv-x="919" 
d="M100 1432h213v-330h295v330h213v-330h84v-58h-84v-1044h-213v690h-295v-690h-213v1044h-82v58h82v330zM313 739h295v305h-295v-305z" />
    <glyph glyph-name="hbar" unicode="&#x127;" horiz-adv-x="780" 
d="M291 864q34 88 79 127t113 39q97 0 162.5 -61t65.5 -152v-817h-213v862q0 111 -64 111q-51 0 -99 -73t-48 -150v-750h-201v1167h-61v47h61v216h201v-216h174v-47h-174v-239l-8 -60z" />
    <glyph glyph-name="Itilde" unicode="&#x128;" horiz-adv-x="411" 
d="M37 1567l-27 14q55 119 144 119q29 0 59 -12l53 -25q32 -14 51 -14q42 0 62 53l27 -14q-52 -121 -138 -121q-30 0 -67 16l-39 16q-34 15 -56 15q-43 0 -69 -47zM100 1432h213v-1432h-213v1432z" />
    <glyph glyph-name="itilde" unicode="&#x129;" horiz-adv-x="395" 
d="M29 1202l-27 15q55 118 143 118q30 0 60 -12l53 -25q32 -14 51 -14q42 0 62 53l26 -14q-52 -121 -137 -121q-28 0 -67 17l-39 16q-32 14 -56 14q-43 0 -69 -47zM98 1014h201v-1014h-201v1014z" />
    <glyph glyph-name="Imacron" unicode="&#x12a;" horiz-adv-x="411" 
d="M387 1653v-49h-362v49h362zM100 1432h213v-1432h-213v1432z" />
    <glyph glyph-name="imacron" unicode="&#x12b;" horiz-adv-x="395" 
d="M379 1288v-49h-363v49h363zM98 1014h201v-1014h-201v1014z" />
    <glyph glyph-name="Ibreve" unicode="&#x12c;" horiz-adv-x="411" 
d="M348 1718h29q0 -83 -48 -136.5t-122 -53.5q-75 0 -123.5 53.5t-48.5 136.5h31q0 -44 40 -73t101 -29t101 29t40 73zM100 1432h213v-1432h-213v1432z" />
    <glyph glyph-name="ibreve" unicode="&#x12d;" horiz-adv-x="395" 
d="M340 1354h29q0 -84 -48 -137.5t-122 -53.5q-75 0 -123.5 54t-48.5 137h30q0 -44 40.5 -73.5t101.5 -29.5q62 0 101.5 28.5t39.5 74.5zM98 1014h201v-1014h-201v1014z" />
    <glyph glyph-name="Iogonek" unicode="&#x12e;" horiz-adv-x="411" 
d="M100 1432h213v-1432h-90q-92 -58 -92 -137q0 -35 20.5 -59.5t49.5 -24.5q50 0 86 74l26 -15q-23 -56 -63 -87.5t-86 -31.5q-49 0 -84 31.5t-35 75.5q0 45 37.5 90.5t107.5 83.5h-90v1432z" />
    <glyph glyph-name="iogonek" unicode="&#x12f;" horiz-adv-x="395" 
d="M82 1260q0 49 34 81.5t85 32.5t84.5 -32.5t33.5 -81.5q0 -51 -33.5 -85t-84.5 -34t-85 34t-34 85zM98 1014h201v-1014h-76q-92 -58 -92 -137q0 -35 20 -59.5t48 -24.5q52 0 88 74l26 -15q-23 -56 -63 -87.5t-88 -31.5q-49 0 -83 31.5t-34 75.5q0 45 37.5 90.5t105.5 83.5
h-90v1014z" />
    <glyph glyph-name="Idotaccent" unicode="&#x130;" horiz-adv-x="411" 
d="M123 1626q0 34 24 57t60 23q35 0 59.5 -23t24.5 -57q0 -35 -24.5 -59.5t-59.5 -24.5q-36 0 -60 24t-24 60zM100 1432h213v-1432h-213v1432z" />
    <glyph glyph-name="dotlessi" unicode="&#x131;" horiz-adv-x="395" 
d="M98 1014h201v-1014h-201v1014z" />
    <glyph glyph-name="Jcircumflex" unicode="&#x134;" horiz-adv-x="598" 
d="M195 1520l186 227h27l188 -227h-43l-160 104l-157 -104h-41zM-10 68l30 41q81 -66 154 -66q54 0 83.5 45.5t29.5 130.5v1213h213v-1102q0 -151 -82.5 -249.5t-208.5 -98.5q-113 0 -219 86z" />
    <glyph glyph-name="jcircumflex" unicode="&#x135;" horiz-adv-x="462" 
d="M72 1155l186 227h27l188 -227h-43l-160 105l-157 -105h-41zM371 49q0 -129 -65 -221t-222 -186l-23 32q36 29 56.5 53.5t36.5 69.5t16 105v1112h201v-965z" />
    <glyph glyph-name="uni0136" unicode="&#x136;" horiz-adv-x="858" 
d="M313 1430v-1432h-213v1432h213zM647 -2l-268 733v39l340 660h57l-264 -515l354 -917h-219zM524 -215q-18 -10 -39 -10q-34 0 -55.5 22.5t-21.5 57.5t23 58.5t58 23.5q40 0 64.5 -32t24.5 -87q0 -68 -36 -115.5t-100 -62.5l-8 24q102 39 90 121z" />
    <glyph glyph-name="uni0137" unicode="&#x137;" horiz-adv-x="778" 
d="M285 1430v-1432h-199v1432h199zM674 1012l-215 -285l327 -729h-206l-252 604v33l286 377h60zM477 -215q-15 -10 -39 -10q-34 0 -55 22.5t-21 57.5t23 58.5t57 23.5q40 0 64 -32t24 -87q0 -68 -35 -115.5t-98 -62.5l-8 24q100 40 88 121z" />
    <glyph glyph-name="kgreenlandic" unicode="&#x138;" horiz-adv-x="778" 
d="M86 1014h201v-1014h-201v1014zM676 1014l-215 -283l327 -731h-206l-252 604v31l286 379h60z" />
    <glyph glyph-name="Lacute" unicode="&#x139;" horiz-adv-x="593" 
d="M211 1518h-39l61 229h156zM100 1432h213v-1383h293v-49h-506v1432z" />
    <glyph glyph-name="lacute" unicode="&#x13a;" horiz-adv-x="354" 
d="M188 1518h-38l61 229h156zM86 0v1432h201v-1432h-201z" />
    <glyph glyph-name="uni013B" unicode="&#x13b;" horiz-adv-x="593" 
d="M100 1430h213v-1381h293v-51h-506v1432zM399 -215q-17 -10 -39 -10q-34 0 -55.5 22.5t-21.5 57.5t23.5 58.5t58.5 23.5q40 0 64 -32t24 -87q0 -68 -36 -115.5t-100 -62.5l-8 24q102 39 90 121z" />
    <glyph glyph-name="uni013C" unicode="&#x13c;" horiz-adv-x="354" 
d="M86 -2v1432h201v-1432h-201zM229 -215q-17 -10 -39 -10q-34 0 -55.5 22.5t-21.5 57.5t23.5 58.5t58.5 23.5q40 0 64 -32t24 -87q0 -68 -36 -115.5t-100 -62.5l-8 24q102 39 90 121z" />
    <glyph glyph-name="Lcaron" unicode="&#x13d;" horiz-adv-x="593" 
d="M477 1202h-39l41 230h142zM100 1432h213v-1383h293v-49h-506v1432z" />
    <glyph glyph-name="lcaron" unicode="&#x13e;" horiz-adv-x="366" 
d="M86 0v1432h201v-1432h-201zM551 1432l-143 -228h-37l41 228h139z" />
    <glyph glyph-name="Ldot" unicode="&#x13f;" horiz-adv-x="636" 
d="M100 1432h213v-1383h293v-49h-506v1432zM459 725q0 38 25 63t63 25t64 -25t26 -63t-26 -64t-64 -26t-63 26t-25 64z" />
    <glyph glyph-name="ldot" unicode="&#x140;" horiz-adv-x="585" 
d="M86 0v1432h201v-1432h-201zM385 725q0 38 25 63t63 25t64 -25t26 -63t-26 -64t-64 -26t-63 26t-25 64z" />
    <glyph glyph-name="Lslash" unicode="&#x141;" horiz-adv-x="591" 
d="M98 1432h213v-637l207 110l23 -43l-230 -125v-688h291v-49h-504v623l-73 -39l-25 43l98 53v752z" />
    <glyph glyph-name="lslash" unicode="&#x142;" horiz-adv-x="354" 
d="M86 0v696l-76 -41l-22 43l98 54v680h201v-576l75 39l21 -43l-96 -51v-801h-201z" />
    <glyph glyph-name="Nacute" unicode="&#x143;" horiz-adv-x="804" 
d="M414 1518h-37l61 229h156zM307 1432l324 -881l26 -82h15l-6 82v881h51v-1432h-94l-449 1190l-27 82h-12l4 -82v-1190h-51v1432h219z" />
    <glyph glyph-name="nacute" unicode="&#x144;" horiz-adv-x="774" 
d="M412 1153h-39l61 227h156zM285 864q34 88 79 127t113 39q97 0 162.5 -61t65.5 -152v-817h-213v862q0 111 -64 111q-51 0 -99 -73t-48 -150v-750h-201v1012h201v-84l-9 -60z" />
    <glyph glyph-name="uni0145" unicode="&#x145;" horiz-adv-x="804" 
d="M307 1430l324 -879l26 -82h15l-6 82v879h51v-1432h-94l-449 1190l-27 82h-12l4 -82v-1190h-51v1432h219zM434 -215q-18 -10 -41 -10q-34 0 -55 22.5t-21 57.5t23 58.5t57 23.5q41 0 64.5 -31.5t23.5 -87.5q0 -68 -35 -115.5t-98 -62.5l-8 24q99 39 90 121z" />
    <glyph glyph-name="uni0146" unicode="&#x146;" horiz-adv-x="774" 
d="M285 864q34 88 79 127t113 39q97 0 162.5 -61t65.5 -152v-819h-213v864q0 111 -64 111q-51 0 -99 -73t-48 -150v-752h-201v1014h201v-84l-9 -60zM426 -215q-23 -10 -39 -10q-34 0 -56 23t-22 57q0 35 23.5 58.5t58.5 23.5q40 0 64 -32t24 -87q0 -68 -35.5 -115.5
t-99.5 -62.5l-8 26q102 36 90 119z" />
    <glyph glyph-name="Ncaron" unicode="&#x147;" horiz-adv-x="804" 
d="M211 1747h41l158 -107l159 107h41l-186 -227h-27zM307 1432l324 -881l26 -82h15l-6 82v881h51v-1432h-94l-449 1190l-27 82h-12l4 -82v-1190h-51v1432h219z" />
    <glyph glyph-name="ncaron" unicode="&#x148;" horiz-adv-x="774" 
d="M207 1380h43l158 -104l157 104h41l-184 -227h-27zM285 864q34 88 79 127t113 39q97 0 162.5 -61t65.5 -152v-817h-213v862q0 111 -64 111q-51 0 -99 -73t-48 -150v-750h-201v1012h201v-84l-9 -60z" />
    <glyph glyph-name="Eng" unicode="&#x14a;" horiz-adv-x="804" 
d="M672 469l-6 82v881h51v-1467q0 -209 -176 -321l-25 39q56 37 80.5 80t24.5 116v125l-447 1186l-24 82h-15l4 -82v-1190h-51v1432h219l324 -881l26 -82h15z" />
    <glyph glyph-name="eng" unicode="&#x14b;" horiz-adv-x="780" 
d="M477 1030q97 0 162.5 -61t65.5 -152v-770q0 -124 -67.5 -215t-229.5 -190l-25 30q55 46 82 94.5t27 135.5v960q0 111 -64 111q-51 0 -99 -73t-48 -150v-750h-201v1012h201v-84l-9 -60l13 -4q34 88 78.5 127t113.5 39z" />
    <glyph glyph-name="Omacron" unicode="&#x14c;" horiz-adv-x="907" 
d="M635 1653v-49h-361v49h361zM88 389v670q0 173 102.5 282t266.5 109t264 -108t100 -283v-670q0 -183 -101 -295t-265 -112t-265.5 112t-101.5 295zM301 1178v-924q0 -107 40 -165t114 -58t113.5 58t39.5 165v924q0 108 -39.5 165.5t-111.5 57.5q-74 0 -115 -58.5
t-41 -164.5z" />
    <glyph glyph-name="omacron" unicode="&#x14d;" horiz-adv-x="765" 
d="M559 1288v-49h-360v49h360zM381 1032q128 0 222.5 -90t94.5 -211v-450q0 -123 -91.5 -211t-217.5 -88q-128 0 -223.5 89.5t-95.5 209.5v450q0 123 92.5 212t218.5 89zM387 985q-47 0 -79 -38.5t-32 -96.5v-686q0 -60 31 -97.5t80 -37.5q47 0 76 37t29 98v686
q0 60 -29.5 97.5t-75.5 37.5z" />
    <glyph glyph-name="Obreve" unicode="&#x14e;" horiz-adv-x="907" 
d="M596 1718h29q0 -83 -47 -136.5t-121 -53.5q-75 0 -123.5 53.5t-48.5 136.5h30q0 -44 40 -73t102 -29q61 0 100 29t39 73zM88 389v670q0 175 102.5 283t266.5 108t264 -107t100 -284v-670q0 -183 -101 -295t-265 -112t-265.5 112t-101.5 295zM301 1178v-924
q0 -106 40 -163.5t114 -57.5t113.5 57t39.5 164v924q0 108 -39.5 165.5t-111.5 57.5q-74 0 -115 -58.5t-41 -164.5z" />
    <glyph glyph-name="obreve" unicode="&#x14f;" horiz-adv-x="765" 
d="M520 1354h29q0 -84 -47 -137.5t-121 -53.5q-75 0 -123.5 54t-48.5 137h31q0 -44 40 -73.5t101 -29.5q62 0 100.5 28.5t38.5 74.5zM381 1032q128 0 222.5 -90t94.5 -211v-450q0 -123 -91.5 -211t-217.5 -88q-128 0 -223.5 89.5t-95.5 209.5v450q0 123 92.5 212t218.5 89z
M387 985q-47 0 -79 -38.5t-32 -96.5v-686q0 -60 31 -97.5t80 -37.5q47 0 76 37t29 98v686q0 60 -29.5 97.5t-75.5 37.5z" />
    <glyph glyph-name="Ohungarumlaut" unicode="&#x150;" horiz-adv-x="907" 
d="M580 1518h-39l63 229h139zM365 1518h-39l61 229h141zM88 389v670q0 173 102.5 282t266.5 109t264 -108t100 -283v-670q0 -183 -101 -295t-265 -112t-265.5 112t-101.5 295zM301 1178v-924q0 -107 40 -165t114 -58t113.5 58t39.5 165v924q0 108 -39.5 165.5t-111.5 57.5
q-74 0 -115 -58.5t-41 -164.5z" />
    <glyph glyph-name="ohungarumlaut" unicode="&#x151;" horiz-adv-x="765" 
d="M502 1153h-37l61 229h140zM287 1153h-39l63 229h142zM381 1032q128 0 222.5 -90t94.5 -211v-450q0 -123 -91.5 -211t-217.5 -88q-128 0 -223.5 89.5t-95.5 209.5v450q0 123 92.5 212t218.5 89zM387 985q-47 0 -79 -38.5t-32 -96.5v-686q0 -60 31 -97.5t80 -37.5
q47 0 76 37t29 98v686q0 60 -29.5 97.5t-75.5 37.5z" />
    <glyph glyph-name="OE" unicode="&#x152;" horiz-adv-x="1181" 
d="M88 408v630q0 175 102.5 284.5t266.5 109.5h676v-50h-308v-626h265v-49h-265v-658h308v-49h-678q-164 0 -265.5 112.5t-101.5 295.5zM301 1143v-854q0 -104 43.5 -172t110.5 -68h157v1333h-145q-72 0 -119 -67.5t-47 -171.5z" />
    <glyph glyph-name="oe" unicode="&#x153;" horiz-adv-x="1173" 
d="M385 1034q126 0 203 -86h12q80 86 203 86q130 0 223.5 -90.5t93.5 -216.5v-233h-422v-314q0 -66 43 -107.5t111 -41.5q70 0 134 46t93 118l43 -17q-41 -93 -121 -144.5t-182 -51.5q-131 0 -215 84h-12q-74 -84 -199 -84q-130 0 -226.5 89.5t-96.5 209.5v452
q0 122 93 211.5t222 89.5zM492 164v688q0 57 -30.5 96t-74.5 39q-46 0 -78.5 -40t-32.5 -97v-686q0 -56 32.5 -95.5t78.5 -39.5t75.5 38t29.5 97zM698 858v-317h215v313q0 56 -30 94.5t-74 38.5q-46 0 -78.5 -38t-32.5 -91z" />
    <glyph glyph-name="Racute" unicode="&#x154;" horiz-adv-x="890" 
d="M389 1518h-39l62 229h155zM100 1432h349q141 0 235 -98t94 -238v-49q0 -133 -83.5 -226.5t-211.5 -105.5v-15q74 -4 137 -58.5t78 -125.5l121 -516h-217l-125 545q-21 91 -40 118t-68 27h-56v-690h-213v1432zM565 1001v119q0 136 -33.5 199t-105.5 63h-113v-643h121
q70 0 100.5 62.5t30.5 199.5z" />
    <glyph glyph-name="racute" unicode="&#x155;" horiz-adv-x="532" 
d="M305 1155h-39l62 227h155zM80 1014h196v-144l-8 -59l15 -4q22 102 85.5 163.5t147.5 61.5v-168q-73 11 -142.5 -23.5t-97.5 -95.5v-745h-196v1014z" />
    <glyph glyph-name="uni0156" unicode="&#x156;" horiz-adv-x="890" 
d="M100 1432h349q141 0 235 -98t94 -238v-49q0 -133 -83.5 -226.5t-211.5 -105.5v-15q74 -4 137 -58.5t78 -125.5l121 -518h-217l-125 547q-21 91 -40 118t-68 27h-56v-692h-213v1434zM565 1001v119q0 136 -33.5 199t-105.5 63h-113v-643h121q70 0 100.5 62.5t30.5 199.5z
M475 -215q-23 -10 -39 -10q-34 0 -56 23t-22 57q0 37 23.5 60.5t58.5 23.5q40 0 64 -33t24 -88q0 -68 -35.5 -115.5t-99.5 -62.5l-8 26q102 39 90 119z" />
    <glyph glyph-name="uni0157" unicode="&#x157;" horiz-adv-x="532" 
d="M80 1014h196v-144l-8 -59l15 -4q22 102 85.5 163.5t147.5 61.5v-168q-73 11 -142.5 -23.5t-97.5 -95.5v-747h-196v1016zM225 -215q-23 -10 -39 -10q-33 0 -55 23t-22 57q0 37 22.5 59.5t58.5 22.5q40 0 64.5 -32t24.5 -87q0 -68 -36 -115.5t-100 -62.5l-8 26
q102 36 90 119z" />
    <glyph glyph-name="Rcaron" unicode="&#x158;" horiz-adv-x="890" 
d="M184 1747h43l158 -107l158 107h41l-185 -229h-26zM100 1432h349q141 0 235 -98t94 -238v-49q0 -133 -83.5 -226.5t-211.5 -105.5v-15q74 -4 137 -58.5t78 -125.5l121 -516h-217l-125 545q-21 91 -40 118t-68 27h-56v-690h-213v1432zM565 1001v119q0 136 -33.5 199
t-105.5 63h-113v-643h121q70 0 100.5 62.5t30.5 199.5z" />
    <glyph glyph-name="rcaron" unicode="&#x159;" horiz-adv-x="532" 
d="M100 1382h43l156 -104l160 104h43l-187 -227h-26zM80 1014h196v-144l-8 -59l15 -4q22 102 85.5 163.5t147.5 61.5v-168q-73 11 -142.5 -23.5t-97.5 -95.5v-745h-196v1014z" />
    <glyph glyph-name="Sacute" unicode="&#x15a;" horiz-adv-x="747" 
d="M397 1518h-37l62 229h156zM492 193q0 94 -74 239l-256 512q-56 112 -56 211q0 129 81 212t208 83q77 0 150 -32.5t125 -90.5l-35 -35q-40 43 -94 70t-101 27q-60 0 -95.5 -44t-35.5 -118q0 -87 56 -205l292 -596q43 -90 43 -170q0 -120 -93 -197t-236 -77q-149 0 -283 86
l27 43q124 -72 229 -72q71 0 109.5 40.5t38.5 113.5z" />
    <glyph glyph-name="sacute" unicode="&#x15b;" horiz-adv-x="591" 
d="M305 1153h-39l62 229h155zM537 950l-35 -32q-62 59 -140 59q-51 0 -83.5 -31.5t-32.5 -81.5q0 -55 41 -123l237 -393q45 -68 45 -135q0 -96 -82 -163.5t-198 -67.5q-142 0 -244 102l31 35q97 -84 184 -84q48 0 76.5 28.5t28.5 77.5q0 74 -68 183l-199 321q-51 85 -51 156
q0 97 79 164t193 67q127 0 218 -82z" />
    <glyph glyph-name="Scircumflex" unicode="&#x15c;" horiz-adv-x="747" 
d="M195 1520l186 227h27l188 -227h-43l-160 104l-157 -104h-41zM492 193q0 94 -74 239l-256 512q-56 112 -56 211q0 129 81 212t208 83q77 0 150 -32.5t125 -90.5l-35 -35q-40 43 -94 70t-101 27q-60 0 -95.5 -44t-35.5 -118q0 -87 56 -205l292 -596q43 -90 43 -170
q0 -120 -93 -197t-236 -77q-149 0 -283 86l27 43q124 -72 229 -72q71 0 109.5 40.5t38.5 113.5z" />
    <glyph glyph-name="scircumflex" unicode="&#x15d;" horiz-adv-x="591" 
d="M102 1155l189 227h26l185 -227h-43l-156 105l-158 -105h-43zM537 950l-35 -32q-62 59 -140 59q-51 0 -83.5 -31.5t-32.5 -81.5q0 -55 41 -123l237 -393q45 -68 45 -135q0 -96 -82 -163.5t-198 -67.5q-142 0 -244 102l31 35q97 -84 184 -84q48 0 76.5 28.5t28.5 77.5
q0 74 -68 183l-199 321q-51 85 -51 156q0 97 79 164t193 67q127 0 218 -82z" />
    <glyph glyph-name="Scedilla" unicode="&#x15e;" horiz-adv-x="747" 
d="M492 195q0 92 -74 237l-256 514q-56 109 -56 209q0 130 80.5 213.5t206.5 83.5q78 0 150.5 -32t126.5 -91l-35 -35q-40 43 -94 70t-101 27q-60 0 -95.5 -44.5t-35.5 -119.5q0 -88 56 -203l292 -598q43 -87 43 -170q0 -115 -87.5 -191t-223.5 -81l-16 -45q78 -3 128 -34.5
t50 -80.5q0 -42 -36.5 -68t-96.5 -26q-49 0 -94.5 18t-73.5 49l20 25q20 -21 52.5 -35t62.5 -14q28 0 44.5 14t16.5 39q0 32 -32 53t-88 27l30 78q-140 3 -268 86l27 41q120 -70 227 -70q71 0 110.5 40.5t39.5 113.5z" />
    <glyph glyph-name="scedilla" unicode="&#x15f;" horiz-adv-x="591" 
d="M537 950l-33 -32q-64 61 -142 61q-51 0 -83.5 -32t-32.5 -83q0 -57 43 -121l235 -395q45 -65 45 -135q0 -92 -78 -159t-190 -70l-14 -45q76 -3 126 -34.5t50 -80.5q0 -41 -36.5 -67.5t-94.5 -26.5q-106 0 -170 67l20 25q20 -21 52.5 -35t62.5 -14q29 0 45 14t16 39
q0 32 -31 53t-87 27l30 78q-132 6 -225 102l31 35q99 -86 184 -86q47 0 76 29.5t29 76.5q0 72 -66 183l-201 321q-51 85 -51 158q0 97 79 164t193 67q124 0 218 -84z" />
    <glyph glyph-name="Scaron" unicode="&#x160;" horiz-adv-x="747" 
d="M193 1747h40l158 -107l160 107h43l-188 -227h-27zM492 193q0 94 -74 239l-256 512q-56 112 -56 211q0 129 81 212t208 83q77 0 150 -32.5t125 -90.5l-35 -35q-40 43 -94 70t-101 27q-60 0 -95.5 -44t-35.5 -118q0 -87 56 -205l292 -596q43 -90 43 -170q0 -120 -93 -197
t-236 -77q-149 0 -283 86l27 43q124 -72 229 -72q71 0 109.5 40.5t38.5 113.5z" />
    <glyph glyph-name="scaron" unicode="&#x161;" horiz-adv-x="591" 
d="M100 1382h43l158 -106l156 106h43l-185 -227h-26zM537 950l-35 -32q-62 59 -140 59q-51 0 -83.5 -31.5t-32.5 -81.5q0 -55 41 -123l237 -393q45 -68 45 -135q0 -96 -82 -163.5t-198 -67.5q-142 0 -244 102l31 35q97 -84 184 -84q48 0 76.5 28.5t28.5 77.5q0 74 -68 183
l-199 321q-51 85 -51 156q0 97 79 164t193 67q127 0 218 -82z" />
    <glyph glyph-name="uni0162" unicode="&#x162;" horiz-adv-x="702" 
d="M713 1432v-50h-254v-1382h-92l-23 -59q78 -3 128 -34.5t50 -80.5q0 -43 -36.5 -68.5t-96.5 -25.5q-49 0 -94.5 18t-73.5 49l21 23q20 -20 52.5 -33.5t61.5 -13.5q28 0 45 14t17 37q0 32 -32.5 54t-88.5 28l39 92h-90v1382h-256v50h723z" />
    <glyph glyph-name="uni0163" unicode="&#x163;" horiz-adv-x="466" 
d="M156 -203l20 25q20 -22 52 -35.5t61 -13.5q28 0 44.5 14t16.5 39q0 32 -31.5 53t-87.5 27l31 78q-72 6 -114 66.5t-42 160.5v756h-104v47h104v231l199 68v-299h201v-47h-201v-791q0 -55 17 -86t47 -31q41 0 100 62l31 -33q-40 -44 -96.5 -72.5t-110.5 -31.5l-14 -45
q77 -3 127.5 -34.5t50.5 -80.5q0 -41 -37.5 -67.5t-97.5 -26.5q-48 0 -93 18t-73 49z" />
    <glyph glyph-name="Tcaron" unicode="&#x164;" horiz-adv-x="702" 
d="M150 1747h43l155 -107l160 107h43l-186 -227h-27zM715 1432v-50h-256v-1382h-213v1382h-256v50h725z" />
    <glyph glyph-name="tcaron" unicode="&#x165;" horiz-adv-x="466" 
d="M430 1204h-39l43 228h123zM279 -18q-78 0 -125.5 61.5t-47.5 165.5v758h-104v47h104v231l199 68v-299h199v-47h-199v-793q0 -54 17.5 -85.5t46.5 -31.5q42 0 98 62l33 -33q-42 -47 -103.5 -75.5t-117.5 -28.5z" />
    <glyph glyph-name="Tbar" unicode="&#x166;" horiz-adv-x="702" 
d="M715 1432v-50h-256v-518h194v-49h-194v-815h-213v815h-195v49h195v518h-256v50h725z" />
    <glyph glyph-name="tbar" unicode="&#x167;" horiz-adv-x="466" 
d="M279 -18q-78 0 -125.5 62.5t-47.5 166.5v559h-104v47h104v150h-104v47h104v231l199 68v-299h199v-47h-199v-150h199v-47h-199v-594q0 -55 17 -86t47 -31q42 0 98 62l33 -33q-43 -47 -104 -76.5t-117 -29.5z" />
    <glyph glyph-name="Utilde" unicode="&#x168;" horiz-adv-x="835" 
d="M281 1567l-27 14q55 119 143 119q30 0 60 -12l53 -25q28 -14 51 -14q39 0 62 53l26 -14q-52 -121 -137 -121q-31 0 -68 16l-38 16q-34 15 -56 15q-43 0 -69 -47zM100 1432h213v-1151q0 -113 46.5 -176.5t129.5 -63.5q95 0 152 82t57 221v1088h52v-1088
q0 -171 -80.5 -266.5t-223.5 -95.5q-157 0 -251.5 110.5t-94.5 296.5v1043z" />
    <glyph glyph-name="utilde" unicode="&#x169;" horiz-adv-x="759" 
d="M213 1202l-27 15q56 118 144 118q31 0 59 -14l53 -25q30 -12 52 -12q38 0 61 51l27 -14q-53 -121 -138 -121q-28 0 -67 17l-39 16q-36 16 -55 16q-44 0 -70 -47zM487 147q-34 -88 -78.5 -126.5t-113.5 -38.5q-97 0 -162 61t-65 152v817h213v-862q0 -111 63 -111
q51 0 99.5 73t48.5 150v750h200v-1012h-200v84l10 59z" />
    <glyph glyph-name="Umacron" unicode="&#x16a;" horiz-adv-x="835" 
d="M631 1653v-49h-363v49h363zM100 1432h213v-1151q0 -113 46.5 -176.5t129.5 -63.5q95 0 152 82t57 221v1088h52v-1088q0 -171 -80.5 -266.5t-223.5 -95.5q-157 0 -251.5 110.5t-94.5 296.5v1043z" />
    <glyph glyph-name="umacron" unicode="&#x16b;" horiz-adv-x="759" 
d="M563 1286v-49h-360v49h360zM487 147q-34 -88 -78.5 -126.5t-113.5 -38.5q-97 0 -162 61t-65 152v817h213v-862q0 -111 63 -111q51 0 99.5 73t48.5 150v750h200v-1012h-200v84l10 59z" />
    <glyph glyph-name="Ubreve" unicode="&#x16c;" horiz-adv-x="835" 
d="M590 1718h31q0 -83 -48 -136.5t-122 -53.5q-75 0 -123.5 53.5t-48.5 136.5h30q0 -44 40 -73t102 -29q61 0 100 29t39 73zM100 1432h213v-1151q0 -113 46.5 -175.5t129.5 -62.5q95 0 152 82t57 221v1086h52v-1088q0 -170 -80.5 -266t-223.5 -96q-157 0 -251.5 111.5
t-94.5 295.5v1043z" />
    <glyph glyph-name="ubreve" unicode="&#x16d;" horiz-adv-x="759" 
d="M524 1354h31q0 -84 -48 -137.5t-122 -53.5t-122 54t-48 137h29q0 -44 40 -73.5t101 -29.5q62 0 100.5 28.5t38.5 74.5zM487 147q-34 -88 -78.5 -126.5t-113.5 -38.5q-97 0 -162 61t-65 152v819h213v-864q0 -111 63 -111q51 0 99.5 73t48.5 150v752h200v-1014h-200v84
l10 59z" />
    <glyph glyph-name="Uring" unicode="&#x16e;" horiz-adv-x="835" 
d="M338 1640q0 48 32 79.5t81 31.5q47 0 79.5 -32t32.5 -79t-32.5 -79.5t-79.5 -32.5t-80 32.5t-33 79.5zM377 1640q0 -31 21.5 -52t52.5 -21t52 21t21 52t-21 52.5t-52 21.5t-52.5 -21.5t-21.5 -52.5zM100 1432h213v-1151q0 -113 45.5 -175.5t128.5 -62.5q96 0 153.5 82
t57.5 221v1086h52v-1088q0 -170 -80.5 -266t-225.5 -96q-155 0 -249.5 111.5t-94.5 295.5v1043z" />
    <glyph glyph-name="uring" unicode="&#x16f;" horiz-adv-x="759" 
d="M270 1274q0 47 33 79.5t80 32.5t80 -32.5t33 -79.5t-33.5 -79t-79.5 -32q-47 0 -80 32t-33 79zM309 1274q0 -31 21.5 -51.5t52.5 -20.5t51.5 20.5t20.5 51.5q0 32 -20.5 53t-51.5 21t-52.5 -21t-21.5 -53zM487 147q-34 -88 -78.5 -126.5t-113.5 -38.5q-97 0 -162 61
t-65 152v819h213v-864q0 -111 63 -111q51 0 99.5 73t48.5 150v752h200v-1014h-200v84l8 59z" />
    <glyph glyph-name="Uhungarumlaut" unicode="&#x170;" horiz-adv-x="835" 
d="M575 1518h-38l61 229h141zM358 1518h-39l64 229h141zM100 1432h213v-1151q0 -113 46.5 -176.5t129.5 -63.5q95 0 152 82t57 221v1088h52v-1088q0 -171 -80.5 -266.5t-223.5 -95.5q-157 0 -251.5 110.5t-94.5 296.5v1043z" />
    <glyph glyph-name="uhungarumlaut" unicode="&#x171;" horiz-adv-x="759" 
d="M508 1153h-39l61 229h140zM291 1153h-37l61 229h142zM487 147q-34 -88 -78.5 -126.5t-113.5 -38.5q-97 0 -162 61t-65 152v817h213v-862q0 -111 63 -111q51 0 99.5 73t48.5 150v750h200v-1012h-200v84l10 59z" />
    <glyph glyph-name="Uogonek" unicode="&#x172;" horiz-adv-x="835" 
d="M100 1432h213v-1151q0 -113 45.5 -176.5t128.5 -63.5q96 0 153.5 82t57.5 221v1088h52v-1088q0 -134 -50 -223t-143 -121q-92 -58 -92 -137q0 -35 19.5 -59.5t47.5 -24.5q53 0 89 74l26 -15q-23 -56 -63 -87.5t-88 -31.5q-49 0 -83 31.5t-34 75.5q0 83 119 160
q-32 -4 -54 -4q-156 0 -250 111t-94 296v1043z" />
    <glyph glyph-name="uogonek" unicode="&#x173;" horiz-adv-x="759" 
d="M487 147q-34 -87 -79 -126t-113 -39q-97 0 -162 61t-65 152v817h213v-862q0 -111 61 -111q52 0 101 73t49 150v750h200v-1012h-168q-92 -58 -92 -137q0 -35 20.5 -59.5t49.5 -24.5q25 0 48 19t38 55l26 -15q-23 -57 -63 -89t-86 -32q-49 0 -84 32t-35 77t38 90.5
t108 83.5v84l10 59z" />
    <glyph glyph-name="Wcircumflex" unicode="&#x174;" horiz-adv-x="1005" 
d="M281 1520l188 227h27l186 -227h-43l-160 104l-155 -104h-43zM594 1432l178 -906l12 -82h15l8 82l156 906h53l-250 -1432h-96l-140 694l-12 82h-14l-8 -82l-123 -694h-97l-286 1432h211l178 -906l12 -82h15l8 82l69 410l-98 496h209z" />
    <glyph glyph-name="wcircumflex" unicode="&#x175;" horiz-adv-x="997" 
d="M315 1153l187 229h26l187 -229h-41l-160 107l-158 -107h-41zM276 0l-249 1014h206l134 -565l10 -60h14l6 60l76 346l-53 219h209l133 -565l8 -60h14l9 60l127 565h51l-236 -1014h-63l-156 627l-8 59h-14l-9 -59l-143 -627h-66z" />
    <glyph glyph-name="Ycircumflex" unicode="&#x176;" horiz-adv-x="694" 
d="M188 1518l189 227h26l187 -227h-43l-160 106l-156 -106h-43zM213 1430l201 -594l24 -82h15l18 82l178 594h56l-232 -771v-659h-213v641l-270 789h223z" />
    <glyph glyph-name="ycircumflex" unicode="&#x177;" horiz-adv-x="659" 
d="M168 1153l186 229h27l186 -229h-41l-159 107l-158 -107h-41zM27 1014h209l159 -600l11 -60h14l10 60l152 600h51l-357 -1372h-53l96 358h-14z" />
    <glyph glyph-name="Ydieresis" unicode="&#x178;" horiz-adv-x="694" 
d="M176 1624q0 35 23.5 58.5t58.5 23.5t59.5 -23.5t24.5 -58.5t-24.5 -58.5t-59.5 -23.5t-58.5 23.5t-23.5 58.5zM428 1624q0 35 25 58.5t59 23.5q37 0 60.5 -23.5t23.5 -58.5q0 -37 -23.5 -59.5t-60.5 -22.5q-34 0 -59 23.5t-25 58.5zM213 1432l201 -596l24 -82h15l18 82
l178 596h56l-232 -773v-659h-213v641l-270 791h223z" />
    <glyph glyph-name="Zacute" unicode="&#x179;" horiz-adv-x="825" 
d="M432 1518h-39l62 229h155zM524 1382h-403v50h624v-50l-473 -1333h502v-49h-725v49z" />
    <glyph glyph-name="zacute" unicode="&#x17a;" horiz-adv-x="710" 
d="M395 1153h-39l62 229h155zM664 0h-603v47l373 920h-307v47h532v-47l-372 -920h377v-47z" />
    <glyph glyph-name="Zdotaccent" unicode="&#x17b;" horiz-adv-x="825" 
d="M344 1626q0 34 23.5 57t58.5 23t59.5 -23t24.5 -57q0 -36 -24 -60t-60 -24q-35 0 -58.5 24.5t-23.5 59.5zM524 1382h-403v50h624v-50l-473 -1333h502v-49h-725v49z" />
    <glyph glyph-name="zdotaccent" unicode="&#x17c;" horiz-adv-x="710" 
d="M305 1262q0 34 23.5 56.5t58.5 22.5t59.5 -22.5t24.5 -56.5q0 -36 -24 -60t-60 -24q-35 0 -58.5 24.5t-23.5 59.5zM664 0h-603v47l373 920h-307v47h532v-47l-372 -920h377v-47z" />
    <glyph glyph-name="Zcaron" unicode="&#x17d;" horiz-adv-x="825" 
d="M227 1747h41l158 -107l160 107h41l-187 -227h-26zM524 1382h-403v50h624v-50l-473 -1333h502v-49h-725v49z" />
    <glyph glyph-name="zcaron" unicode="&#x17e;" horiz-adv-x="710" 
d="M188 1382h41l158 -106l160 106h41l-187 -227h-26zM664 0h-603v47l373 920h-307v47h532v-47l-372 -920h377v-47z" />
    <glyph glyph-name="florin" unicode="&#x192;" horiz-adv-x="501" 
d="M59 -342q-110 0 -211 66l25 38q80 -47 139 -47q63 0 100.5 48t37.5 128v639h-189v48h189v569q0 132 82 218.5t208 86.5q105 0 209 -66l-24 -40q-73 49 -136 49t-102 -49t-39 -129v-639h191v-48h-191v-550q0 -143 -80 -232.5t-209 -89.5z" />
    <glyph glyph-name="AEacute" unicode="&#x1fc;" horiz-adv-x="950" 
d="M629 1518h-37l61 229h154zM350 1432h551v-52h-305v-624h262v-49h-262v-658h305v-51h-518v428h-262l-121 -428h-53zM360 1296l-14 -82l-211 -739h248v821h-23z" />
    <glyph glyph-name="aeacute" unicode="&#x1fd;" horiz-adv-x="1132" 
d="M567 1155h-39l62 229h153zM451 600v231q0 70 -36.5 110t-99.5 40q-49 0 -102 -24t-84 -60l-35 31q41 47 110.5 75.5t149.5 28.5q132 0 201 -78h12q80 80 197 80q129 0 222 -90.5t93 -216.5v-233h-422v-320q0 -63 43 -103t111 -40q70 0 134 46t93 118l43 -17
q-41 -93 -121 -144.5t-182 -51.5q-101 0 -178 49t-111 135h-12q-29 -79 -96.5 -131.5t-140.5 -52.5q-82 0 -136.5 63t-54.5 158v98q0 118 99 191.5t303 107.5zM657 856v-315h215v313q0 56 -30 94.5t-74 38.5q-46 0 -78.5 -38.5t-32.5 -92.5zM330 74q36 0 74.5 35.5
t60.5 87.5q-14 41 -14 88v286q-106 -27 -151.5 -76.5t-45.5 -146.5v-155q0 -54 20.5 -86.5t55.5 -32.5z" />
    <glyph glyph-name="Oslashacute" unicode="&#x1fe;" horiz-adv-x="907" 
d="M461 1518h-39l61 229h156zM88 389v670q0 173 102.5 282t266.5 109q155 0 254 -96l43 100l49 -22l-55 -123q73 -103 73 -250v-670q0 -183 -101 -295t-265 -112q-159 0 -256 102l-49 -109l-48 25l58 131q-72 109 -72 258zM301 1178v-736l307 684v52q0 108 -39.5 165.5
t-111.5 57.5q-74 0 -115 -58.5t-41 -164.5zM301 313v-59q0 -107 40 -165t114 -58t113.5 58t39.5 165v743z" />
    <glyph glyph-name="oslashacute" unicode="&#x1ff;" horiz-adv-x="765" 
d="M383 1153h-39l62 229h155zM76 -12l61 114q-67 76 -67 179v450q0 123 92.5 212t218.5 89q121 0 215 -84l53 99l43 -25l-61 -111q67 -79 67 -180v-450q0 -123 -91.5 -211t-217.5 -88q-123 0 -217 84l-55 -101zM387 985q-47 0 -79 -38.5t-32 -96.5v-490l216 396v94
q0 60 -29.5 97.5t-75.5 37.5zM276 258v-94q0 -60 31 -97.5t80 -37.5q47 0 76 37t29 98v489z" />
    <glyph glyph-name="uni0218" unicode="&#x218;" horiz-adv-x="747" 
d="M492 193q0 92 -74 237l-256 514q-56 109 -56 209q0 129 81 212t208 83q77 0 150 -32t125 -89l-35 -35q-41 42 -95 69.5t-100 27.5q-60 0 -95.5 -44.5t-35.5 -119.5q0 -88 56 -203l292 -598q43 -87 43 -170q0 -120 -93 -197t-236 -77q-149 0 -283 86l27 43
q124 -72 229 -72q71 0 109.5 40.5t38.5 115.5zM424 -215q-18 -10 -41 -10q-34 0 -55 22.5t-21 57.5t22.5 58.5t57.5 23.5q41 0 64.5 -31.5t23.5 -87.5q0 -68 -35 -115.5t-98 -62.5l-8 24q99 39 90 121z" />
    <glyph glyph-name="uni0219" unicode="&#x219;" horiz-adv-x="591" 
d="M537 948l-35 -33q-63 60 -140 60q-51 0 -83.5 -31t-32.5 -82q0 -55 41 -123l237 -393q45 -65 45 -135q0 -95 -82.5 -163t-197.5 -68q-142 0 -244 102l31 37q95 -86 184 -86q47 0 76 29.5t29 76.5q0 74 -68 183l-199 321q-51 85 -51 156q0 98 79 164.5t193 66.5
q127 0 218 -82zM336 -215q-18 -10 -39 -10q-34 0 -56 22.5t-22 57.5t23.5 58.5t58.5 23.5q40 0 64 -32t24 -87q0 -68 -35.5 -115.5t-99.5 -62.5l-8 24q102 39 90 121z" />
    <glyph glyph-name="uni021A" unicode="&#x21a;" horiz-adv-x="702" 
d="M715 1432v-50h-256v-1382h-213v1382h-256v50h725zM397 -211q-19 -8 -39 -8q-34 0 -55.5 22.5t-21.5 57.5t23 58.5t58 23.5q40 0 64.5 -32.5t24.5 -88.5q0 -68 -36 -115.5t-100 -60.5l-8 24q102 39 90 119z" />
    <glyph glyph-name="uni021B" unicode="&#x21b;" horiz-adv-x="466" 
d="M279 -20q-78 0 -125.5 62.5t-47.5 166.5v758h-104v47h104v231l199 68v-299h199v-47h-199v-793q0 -55 17 -86t47 -31q42 0 98 62l33 -33q-43 -47 -104 -76.5t-117 -29.5zM330 -215q-20 -10 -39 -10q-33 0 -54.5 23t-21.5 57q0 37 22.5 59.5t57.5 22.5q40 0 64 -32t24 -87
q0 -68 -35.5 -115.5t-99.5 -62.5l-6 26q100 37 88 119z" />
    <glyph glyph-name="uni0237" unicode="&#x237;" horiz-adv-x="462" 
d="M371 49q0 -129 -65 -221t-222 -186l-23 32q36 29 56.5 53.5t36.5 69.5t16 105v1112h201v-965z" />
    <glyph glyph-name="circumflex" unicode="&#x2c6;" horiz-adv-x="518" 
d="M59 1169l187 228h26l187 -228h-41l-160 105l-158 -105h-41z" />
    <glyph glyph-name="caron" unicode="&#x2c7;" horiz-adv-x="518" 
d="M59 1397h41l158 -107l160 107h41l-187 -228h-26z" />
    <glyph glyph-name="breve" unicode="&#x2d8;" horiz-adv-x="458" 
d="M371 1368h28q0 -83 -48 -136.5t-122 -53.5t-122 53.5t-48 136.5h29q0 -44 40 -73t101 -29q62 0 102 29t40 73z" />
    <glyph glyph-name="dotaccent" unicode="&#x2d9;" horiz-adv-x="280" 
d="M57 1276q0 34 23.5 57t58.5 23t59.5 -23t24.5 -57q0 -36 -24 -60t-60 -24q-35 0 -58.5 24.5t-23.5 59.5z" />
    <glyph glyph-name="ring" unicode="&#x2da;" horiz-adv-x="337" 
d="M57 1290q0 48 32 79.5t81 31.5q47 0 79 -32t32 -79t-32.5 -79.5t-78.5 -32.5q-47 0 -80 32.5t-33 79.5zM96 1290q0 -31 21.5 -52t52.5 -21t51.5 21t20.5 52t-20.5 51.5t-51.5 20.5t-52.5 -20.5t-21.5 -51.5z" />
    <glyph glyph-name="ogonek" unicode="&#x2db;" horiz-adv-x="385" 
d="M301 -150l27 -14q-25 -57 -65 -88t-87 -31q-48 0 -82.5 31.5t-34.5 75.5q0 46 39.5 92t112.5 86h33q-47 -28 -73 -65t-26 -76q0 -35 20 -59.5t48 -24.5q52 0 88 73z" />
    <glyph glyph-name="tilde" unicode="&#x2dc;" horiz-adv-x="514" 
d="M86 1217l-27 14q55 119 142 119q27 0 59 -13l53 -24q34 -15 52 -15q40 0 63 54l25 -15q-51 -120 -138 -120q-30 0 -67 16l-37 16q-34 15 -57 15q-42 0 -68 -47z" />
    <glyph glyph-name="hungarumlaut" unicode="&#x2dd;" horiz-adv-x="536" 
d="M313 1167h-39l62 230h141zM98 1167h-39l62 230h141z" />
    <glyph glyph-name="uni03BC" unicode="&#x3bc;" horiz-adv-x="759" 
d="M350 -8q-39 -6 -69 6v-389h-213v1405h213v-864q0 -111 63 -111q52 0 100 73.5t48 149.5v752h200v-1014h-200v84l10 59l-15 4q-51 -135 -137 -155z" />
    <glyph glyph-name="uni0400" unicode="&#x400;" horiz-adv-x="667" 
d="M401 1518h-39l-178 229h156zM100 1432h518v-50h-305v-626h262v-49h-262v-658h305v-49h-518v1432z" />
    <glyph glyph-name="uni0401" unicode="&#x401;" horiz-adv-x="667" 
d="M154 1624q0 35 24 58.5t58 23.5q37 0 61.5 -23.5t24.5 -58.5t-24.5 -58.5t-61.5 -23.5q-34 0 -58 23.5t-24 58.5zM408 1624q0 35 24.5 58.5t59.5 23.5t59 -23.5t24 -58.5t-24 -58.5t-59 -23.5t-59.5 23.5t-24.5 58.5zM100 1432h518v-50h-307v-626h264v-49h-264v-658h307
v-49h-518v1432z" />
    <glyph glyph-name="uni0402" unicode="&#x402;" horiz-adv-x="907" 
d="M651 1432v-50h-254v-454l-10 -60l14 -4q34 89 79.5 128.5t113.5 39.5q95 0 160 -62t65 -153v-770q0 -125 -68.5 -217.5t-226.5 -187.5l-24 30q54 45 81 94t27 136v960q0 113 -63 113q-51 0 -99.5 -74t-48.5 -151v-750h-213v1382h-194v50h661z" />
    <glyph glyph-name="uni0403" unicode="&#x403;" horiz-adv-x="593" 
d="M342 1518h-39l62 229h155zM100 0v1432h506v-50h-293v-1382h-213z" />
    <glyph glyph-name="uni0404" unicode="&#x404;" horiz-adv-x="788" 
d="M88 393v660q0 182 99 289.5t266 107.5q172 0 284 -121l-37 -33q-97 97 -213 97q-89 0 -137.5 -56t-48.5 -159v-437h322v-49h-322v-428q0 -223 182 -223q86 0 154 45t100 123l47 -21q-40 -98 -125.5 -152t-201.5 -54q-170 0 -269.5 111t-99.5 300z" />
    <glyph glyph-name="uni0405" unicode="&#x405;" horiz-adv-x="747" 
d="M492 193q0 94 -74 239l-256 512q-56 112 -56 211q0 129 81 212t208 83q77 0 150 -32.5t125 -90.5l-35 -35q-40 43 -94 70t-101 27q-60 0 -95.5 -44t-35.5 -118q0 -87 56 -205l292 -596q43 -90 43 -170q0 -120 -93 -197t-236 -77q-149 0 -283 86l27 43q124 -72 229 -72
q71 0 109.5 40.5t38.5 113.5z" />
    <glyph glyph-name="uni0406" unicode="&#x406;" horiz-adv-x="411" 
d="M100 1432h213v-1432h-213v1432z" />
    <glyph glyph-name="uni0407" unicode="&#x407;" horiz-adv-x="411" 
d="M-6 1624q0 35 24.5 58.5t59.5 23.5q36 0 61 -23.5t25 -58.5t-25 -58.5t-61 -23.5q-35 0 -59.5 23.5t-24.5 58.5zM250 1624q0 35 24 58.5t58 23.5q37 0 61.5 -23.5t24.5 -58.5t-24.5 -58.5t-61.5 -23.5q-34 0 -58 23.5t-24 58.5zM100 1432h213v-1432h-213v1432z" />
    <glyph glyph-name="uni0408" unicode="&#x408;" horiz-adv-x="598" 
d="M-10 68l30 41q81 -66 154 -66q54 0 83.5 45.5t29.5 130.5v1213h213v-1102q0 -151 -82.5 -249.5t-208.5 -98.5q-113 0 -219 86z" />
    <glyph glyph-name="uni0409" unicode="&#x409;" horiz-adv-x="1501" 
d="M977 1432v-627h127q149 0 247.5 -98.5t98.5 -247.5v-121q0 -139 -90.5 -238.5t-218.5 -99.5h-375v1382h-287l-37 -933q-9 -232 -86.5 -349.5t-205.5 -117.5q-86 0 -160 45l20 45q54 -31 103 -31q55 0 83.5 55.5t32.5 192.5l37 1143h711zM1239 301v195q0 260 -149 260
h-111v-705h125q71 0 103 57.5t32 192.5z" />
    <glyph glyph-name="uni040A" unicode="&#x40a;" horiz-adv-x="1341" 
d="M100 1432h213v-693h295v693h213v-693h125q149 0 248.5 -98.5t99.5 -247.5v-57q0 -138 -91 -237t-220 -99h-375v690h-295v-690h-213v1432zM1081 301v129q0 260 -149 260h-111v-641h125q71 0 103 58.5t32 193.5z" />
    <glyph glyph-name="uni040B" unicode="&#x40b;" horiz-adv-x="907" 
d="M651 1432v-50h-254v-454l-10 -60l14 -4q34 89 79.5 128.5t113.5 39.5q97 0 162 -62t65 -153v-817h-213v862q0 113 -63 113q-51 0 -99.5 -74t-48.5 -151v-750h-213v1382h-194v50h661z" />
    <glyph glyph-name="uni040C" unicode="&#x40c;" horiz-adv-x="858" 
d="M438 1518h-39l62 229h155zM866 0h-219l-223 618q-23 64 -47.5 86.5t-59.5 24.5h-4v-729h-213v1432h213v-654h62l340 654h61l-342 -654q75 -6 124.5 -52.5t88.5 -152.5z" />
    <glyph glyph-name="uni040D" unicode="&#x40d;" horiz-adv-x="804" 
d="M414 1520h-37l-178 227h153zM498 1432h219v-1432h-51v1190l6 82h-17l-24 -82l-447 -1190h-96v1432h51v-881l-6 -82h17l24 82z" />
    <glyph glyph-name="uni040E" unicode="&#x40e;" horiz-adv-x="546" 
d="M440 1718h29q0 -83 -48 -136.5t-122 -53.5t-122 53.5t-48 136.5h29q0 -44 40 -73t101 -29t101 29t40 73zM209 1432l135 -631l12 -82h15l12 82l119 631h53l-254 -1301q-13 -71 -56 -108t-108 -37q-19 0 -59 8l12 51q27 -6 51 -6q89 0 109 102l12 66l-272 1225h219z" />
    <glyph glyph-name="uni040F" unicode="&#x40f;" horiz-adv-x="919" 
d="M100 0v1432h213v-1385h295v1385h213v-1432h-299v-223h-125v223h-297z" />
    <glyph glyph-name="uni0410" unicode="&#x410;" horiz-adv-x="684" 
d="M-10 0l266 1432h94l344 -1432h-219l-102 428h-250l-80 -428h-53zM225 1022l-10 -82l-84 -463h229l-106 463l-14 82h-15z" />
    <glyph glyph-name="uni0411" unicode="&#x411;" horiz-adv-x="833" 
d="M313 743h162q127 0 219 -102.5t92 -243.5v-59q0 -140 -91 -239t-220 -99h-375v1432h578v-50h-365v-639zM573 305v127q0 262 -151 262h-109v-643h123q73 0 105 58t32 196z" />
    <glyph glyph-name="uni0412" unicode="&#x412;" horiz-adv-x="833" 
d="M758 1110v-51q0 -133 -64.5 -215.5t-161.5 -95.5l-30 -5v-12l30 -4q105 -15 179.5 -111.5t74.5 -218.5v-61q0 -84 -36.5 -159.5t-109.5 -126t-165 -50.5h-375v1432h346q130 0 221 -92t91 -230zM313 762h109q69 0 96 58.5t27 199.5v110q0 140 -27.5 196t-99.5 56h-105
v-620zM573 305v146q0 131 -39.5 196.5t-111.5 65.5h-109v-664h125q73 0 104 60.5t31 195.5z" />
    <glyph glyph-name="uni0413" unicode="&#x413;" horiz-adv-x="593" 
d="M100 0v1432h506v-50h-293v-1382h-213z" />
    <glyph glyph-name="uni0414" unicode="&#x414;" horiz-adv-x="806" 
d="M41 -309h-51v340h53q64 84 93.5 266t29.5 508v627h545v-1401h104v-340h-211v291h-563v-291zM94 31h406v1351h-283v-600q0 -601 -123 -751z" />
    <glyph glyph-name="uni0415" unicode="&#x415;" horiz-adv-x="667" 
d="M100 1432h518v-50h-307v-626h264v-49h-264v-658h307v-49h-518v1432z" />
    <glyph glyph-name="uni0416" unicode="&#x416;" horiz-adv-x="1300" 
d="M1309 0h-219l-224 618q-22 63 -46.5 86t-59.5 25h-4v-729h-213v729h-2q-36 -2 -60.5 -23.5t-46.5 -84.5l-223 -621h-221l219 573q39 105 89.5 152t125.5 53l-342 654h59l342 -654h60v654h213v-654h61l340 654h62l-342 -654q75 -6 124.5 -52.5t90.5 -152.5z" />
    <glyph glyph-name="uni0417" unicode="&#x417;" horiz-adv-x="925" 
d="M432 -18q-198 0 -346 90l29 43q134 -76 264 -76q131 0 210 81.5t79 221.5v102q0 127 -67 200t-179 73h-45v49h45q103 0 163 71.5t60 200.5v72q0 126 -68.5 201t-175.5 75q-127 0 -243 -96l-35 37q57 58 145.5 90.5t190.5 32.5q175 0 286 -92.5t111 -245.5v-63
q0 -135 -73 -210.5t-208 -86.5l-38 -2v-15l38 -4q145 -14 224.5 -91t79.5 -212v-80q0 -169 -122.5 -267.5t-324.5 -98.5z" />
    <glyph glyph-name="uni0418" unicode="&#x418;" horiz-adv-x="804" 
d="M498 1432h219v-1432h-51v1190l6 82h-17l-24 -82l-447 -1190h-96v1432h51v-881l-6 -82h17l24 82z" />
    <glyph glyph-name="uni0419" unicode="&#x419;" horiz-adv-x="804" 
d="M522 1718h29q0 -83 -48 -136.5t-122 -53.5t-122 53.5t-48 136.5h29q0 -44 40 -73t101 -29t101 29t40 73zM498 1432h219v-1432h-51v1190l6 82h-17l-24 -82l-447 -1190h-96v1432h51v-881l-6 -82h17l24 82z" />
    <glyph glyph-name="uni041A" unicode="&#x41a;" horiz-adv-x="858" 
d="M866 0h-219l-223 618q-23 64 -47.5 86.5t-59.5 24.5h-4v-729h-213v1432h213v-654h62l340 654h61l-342 -654q75 -6 124.5 -52.5t88.5 -152.5z" />
    <glyph glyph-name="uni041B" unicode="&#x41b;" horiz-adv-x="1077" 
d="M-10 25l20 47q54 -31 103 -31q55 0 83.5 55.5t32.5 192.5l37 1143h713v-1432h-213v1382h-287l-37 -936q-9 -231 -86 -347.5t-206 -116.5q-84 0 -160 43z" />
    <glyph glyph-name="uni041C" unicode="&#x41c;" horiz-adv-x="1067" 
d="M967 1432v-1432h-213v1137l4 82h-15l-8 -82l-207 -1137h-96l-270 1137l-15 82h-14l6 -82v-1137h-51v1432h225l217 -924l15 -82h14l8 82l168 924h232z" />
    <glyph glyph-name="uni041D" unicode="&#x41d;" horiz-adv-x="919" 
d="M100 1432h213v-693h295v693h213v-1432h-213v690h-295v-690h-213v1432z" />
    <glyph glyph-name="uni041E" unicode="&#x41e;" horiz-adv-x="907" 
d="M88 389v670q0 173 102.5 282t266.5 109t264 -108t100 -283v-670q0 -183 -101 -295t-265 -112t-265.5 112t-101.5 295zM301 1178v-924q0 -107 40 -165t114 -58t113.5 58t39.5 165v924q0 108 -39.5 165.5t-111.5 57.5q-74 0 -115 -58.5t-41 -164.5z" />
    <glyph glyph-name="uni041F" unicode="&#x41f;" horiz-adv-x="919" 
d="M100 0v1432h721v-1432h-213v1382h-295v-1382h-213z" />
    <glyph glyph-name="uni0420" unicode="&#x420;" horiz-adv-x="821" 
d="M100 1432h349q141 0 235 -98t94 -238v-88q0 -140 -92.5 -239t-232.5 -99h-140v-670h-213v1432zM565 981v139q0 136 -33.5 199t-105.5 63h-113v-663h121q70 0 100.5 62.5t30.5 199.5z" />
    <glyph glyph-name="uni0421" unicode="&#x421;" horiz-adv-x="788" 
d="M88 393v660q0 182 99 289.5t266 107.5q175 0 284 -121l-37 -33q-97 97 -213 97q-89 0 -137.5 -56t-48.5 -159v-914q0 -225 182 -225q86 0 154 46t100 124l47 -21q-40 -98 -125 -152t-202 -54q-170 0 -269.5 110.5t-99.5 300.5z" />
    <glyph glyph-name="uni0422" unicode="&#x422;" horiz-adv-x="702" 
d="M715 1432v-50h-256v-1382h-213v1382h-256v50h725z" />
    <glyph glyph-name="uni0423" unicode="&#x423;" horiz-adv-x="546" 
d="M209 1432l135 -631l12 -82h15l12 82l119 631l53 -2l-254 -1299q-13 -71 -56 -108t-108 -37q-19 0 -59 8l12 51q27 -6 51 -6q89 0 109 102l12 66l-272 1225h219z" />
    <glyph glyph-name="uni0424" unicode="&#x424;" horiz-adv-x="1019" 
d="M483 -63v122q-395 15 -395 463v387q0 219 101.5 337t293.5 126v123h56v-123q194 -6 294.5 -123.5t100.5 -339.5v-387q0 -451 -395 -463v-122h-56zM539 1323v-1214q70 3 108.5 30.5t56 89.5t17.5 174v611q0 168 -39 235.5t-143 73.5zM301 1014v-611q0 -163 39.5 -225.5
t142.5 -68.5v1214q-102 -7 -142 -76.5t-40 -232.5z" />
    <glyph glyph-name="uni0425" unicode="&#x425;" horiz-adv-x="712" 
d="M231 1432l158 -461l23 -80h12l27 80l180 461h55l-242 -623l279 -809h-221l-185 537l-22 77h-14l-25 -77l-209 -537h-57l272 696l-256 736h225z" />
    <glyph glyph-name="uni0426" unicode="&#x426;" horiz-adv-x="950" 
d="M100 0v1432h213v-1383h295v1383h213v-1381h146v-274h-127v223h-740z" />
    <glyph glyph-name="uni0427" unicode="&#x427;" horiz-adv-x="878" 
d="M561 565q-71 -166 -227 -166q-103 0 -168.5 66t-65.5 178v787h213v-848q0 -125 78 -125q61 0 117.5 73t56.5 150v750h213v-1430h-213v502l10 59z" />
    <glyph glyph-name="uni0428" unicode="&#x428;" horiz-adv-x="1267" 
d="M100 0v1432h213v-1383h213v1383h213v-1383h215v1383h213v-1432h-1067z" />
    <glyph glyph-name="uni0429" unicode="&#x429;" horiz-adv-x="1296" 
d="M100 0v1432h213v-1383h213v1383h213v-1383h215v1383h213v-1381h148v-274h-127v223h-1088z" />
    <glyph glyph-name="uni042A" unicode="&#x42a;" horiz-adv-x="882" 
d="M362 805h125q150 0 249.5 -98.5t99.5 -247.5v-121q0 -140 -91.5 -239t-220.5 -99h-374v1382h-160v50h372v-627zM623 301v195q0 129 -38.5 194.5t-111.5 65.5h-111v-705h125q71 0 103.5 57.5t32.5 192.5z" />
    <glyph glyph-name="uni042B" unicode="&#x42b;" horiz-adv-x="1220" 
d="M313 805h125q149 0 248.5 -98.5t99.5 -247.5v-121q0 -140 -91 -239t-220 -99h-375v1432h213v-627zM907 1432h213v-1432h-213v1432zM573 301v195q0 260 -149 260h-111v-705h125q71 0 103 57.5t32 192.5z" />
    <glyph glyph-name="uni042C" unicode="&#x42c;" horiz-adv-x="833" 
d="M313 805h125q149 0 248.5 -98.5t99.5 -247.5v-121q0 -140 -91 -239t-220 -99h-375v1432h213v-627zM573 301v195q0 260 -149 260h-111v-705h125q71 0 103 57.5t32 192.5z" />
    <glyph glyph-name="uni042D" unicode="&#x42d;" horiz-adv-x="774" 
d="M686 393q0 -189 -99.5 -300t-269.5 -111q-116 0 -201.5 54t-125.5 152l47 21q32 -78 100 -123t154 -45q182 0 182 223v428h-321v49h321v437q0 103 -47.5 159t-136.5 56q-118 0 -215 -97l-35 33q109 121 283 121q167 0 265.5 -107.5t98.5 -289.5v-660z" />
    <glyph glyph-name="uni042E" unicode="&#x42e;" horiz-adv-x="1280" 
d="M100 1432h213v-693h146v318q0 175 102 284t266 109t264.5 -108t100.5 -285v-668q0 -183 -101.5 -295t-265.5 -112t-265 112t-101 295v301h-146v-690h-213v1432zM672 1178v-924q0 -107 39.5 -165t113.5 -58t114 58t40 165v924q0 108 -39.5 165.5t-112.5 57.5
q-72 0 -113.5 -59t-41.5 -164z" />
    <glyph glyph-name="uni042F" unicode="&#x42f;" horiz-adv-x="890" 
d="M793 1432v-1432h-213v690h-56q-49 0 -69 -27.5t-39 -117.5l-127 -545h-217l121 516q15 71 78 125.5t137 58.5v15q-128 12 -211.5 105.5t-83.5 226.5v49q0 140 94 238t237 98h349zM326 1001q0 -136 31 -199t100 -63h123v643h-113q-73 0 -107 -62.5t-34 -199.5v-119z" />
    <glyph glyph-name="uni0430" unicode="&#x430;" horiz-adv-x="714" 
d="M49 203v96q0 119 98.5 192.5t303.5 108.5v229q0 70 -36.5 111t-99.5 41q-49 0 -102 -24.5t-84 -61.5l-35 33q41 47 111 75.5t153 28.5q126 0 212.5 -80t86.5 -198v-754h-206v59l10 52l-15 4q-37 -61 -93.5 -97t-116.5 -36q-80 0 -133.5 63t-53.5 158zM330 72
q31 0 64.5 25.5t56.5 66.5v407q-106 -27 -151.5 -76.5t-45.5 -146.5v-155q0 -55 21 -88t55 -33z" />
    <glyph glyph-name="uni0431" unicode="&#x431;" horiz-adv-x="909" 
d="M86 393v563q0 88 13.5 160t34.5 122.5t56 90.5t69.5 64.5t84 43.5t89.5 28.5t95 19.5l275 51l8 -49l-270 -51q-55 -10 -86.5 -19t-63.5 -27t-47.5 -42t-29 -65.5t-17.5 -97.5t-4 -138v-177q38 43 106.5 70t137.5 27q131 0 217 -91.5t86 -250.5v-230q0 -187 -108.5 -300
t-268.5 -113t-268.5 112.5t-108.5 298.5zM293 817v-563q0 -100 50.5 -161.5t119.5 -61.5q71 0 120.5 72.5t49.5 213.5v316q0 139 -46.5 204.5t-119.5 65.5q-44 0 -93.5 -23.5t-80.5 -62.5z" />
    <glyph glyph-name="uni0432" unicode="&#x432;" horiz-adv-x="757" 
d="M686 786v-36q0 -56 -19.5 -98.5t-52.5 -66.5t-67 -36.5t-72 -16.5l-20 -2v-14l20 -2q39 -6 78 -22.5t74.5 -43.5t57.5 -70t22 -95v-43q0 -106 -82 -173t-189 -67h-356v1014h336q67 0 126 -22.5t101.5 -76t42.5 -129.5zM281 547h94q56 0 83 43.5t27 140.5v60
q0 95 -25.5 135.5t-80.5 40.5h-98v-420zM506 225v84q0 94 -36 142.5t-95 48.5h-94v-453h114q111 0 111 178z" />
    <glyph glyph-name="uni0433" unicode="&#x433;" horiz-adv-x="548" 
d="M80 0v1014h452v-47h-251v-967h-201z" />
    <glyph glyph-name="uni0434" unicode="&#x434;" horiz-adv-x="749" 
d="M51 -268h-47v299h64q57 88 83.5 267t26.5 490v228h502v-985h108v-299h-200v252h-537v-252zM115 31h366v938h-256v-203q0 -575 -110 -735z" />
    <glyph glyph-name="uni0435" unicode="&#x435;" horiz-adv-x="751" 
d="M70 729q0 124 92.5 214.5t218.5 90.5q127 0 222 -90.5t95 -212.5v-237h-422v-314q0 -65 43.5 -107t110.5 -42q70 0 133 46t92 118l45 -17q-41 -92 -121 -144t-180 -52q-137 0 -233 88.5t-96 214.5v444zM276 541h216v309q0 60 -30.5 98.5t-76.5 38.5t-77.5 -39.5
t-31.5 -97.5v-309z" />
    <glyph glyph-name="uni0436" unicode="&#x436;" horiz-adv-x="1073" 
d="M877 0l-168 451q-18 59 -68 59h-6v-510h-199v510h-6q-50 0 -68 -59l-165 -451h-207l162 414q24 67 77.5 102t108.5 39l-244 459h56l243 -457h43v457h199v-457h43l244 457h57l-246 -459q55 -3 109.5 -39t77.5 -102l161 -414h-204z" />
    <glyph glyph-name="uni0437" unicode="&#x437;" horiz-adv-x="684" 
d="M262 -18q-154 0 -258 63l25 41q88 -51 182 -51q92 0 147.5 54.5t55.5 150.5v61q0 97 -45.5 150t-126.5 55h-33l2 47h31q157 0 157 201v41q0 88 -44.5 137t-121.5 49q-97 0 -174 -68l-30 33q85 88 254 88q146 0 231.5 -68t85.5 -188v-30q0 -87 -71 -143.5t-181 -65.5
l-33 -2v-15l33 -2q119 -9 191.5 -70.5t72.5 -158.5v-49q0 -122 -94.5 -191t-255.5 -69z" />
    <glyph glyph-name="uni0438" unicode="&#x438;" horiz-adv-x="712" 
d="M444 1014h199v-1014h-47v834l6 59l-12 2l-25 -59l-399 -836h-86v1014h47v-615l-4 -59l14 -2l21 59z" />
    <glyph glyph-name="uni0439" unicode="&#x439;" horiz-adv-x="712" 
d="M496 1354h28q0 -85 -47.5 -138t-122.5 -53q-74 0 -122 54t-48 137h29q0 -45 40 -74t103 -29q61 0 100.5 29t39.5 74zM444 1014h199v-1014h-47v834l6 59l-12 2l-25 -59l-399 -836h-86v1014h47v-615l-4 -59l14 -2l21 59z" />
    <glyph glyph-name="uni043A" unicode="&#x43a;" horiz-adv-x="716" 
d="M520 0l-168 451q-18 59 -67 59h-6v-510h-199v1014h199v-457h43l243 457h58l-246 -457q55 -5 109 -40.5t77 -100.5l162 -416h-205z" />
    <glyph glyph-name="uni043B" unicode="&#x43b;" horiz-adv-x="858" 
d="M2 12l21 43q35 -18 67 -18q42 0 60.5 44.5t23.5 149.5l41 783h573v-1014h-198v967h-176l-37 -684q-7 -139 -86 -220t-176 -81q-58 0 -113 30z" />
    <glyph glyph-name="uni043C" unicode="&#x43c;" horiz-adv-x="860" 
d="M791 1014v-1014h-201v801l4 61h-12l-7 -61l-159 -801h-86l-185 801l-10 61h-14l6 -61v-801h-47v1014h219l127 -555l8 -60h15l8 60l112 555h222z" />
    <glyph glyph-name="uni043D" unicode="&#x43d;" horiz-adv-x="778" 
d="M80 1014h199v-484h229v484h201v-1016h-201v485h-229v-485h-199v1016z" />
    <glyph glyph-name="uni043E" unicode="&#x43e;" horiz-adv-x="765" 
d="M381 1032q128 0 222.5 -90t94.5 -211v-450q0 -123 -91.5 -211t-217.5 -88q-128 0 -223.5 89.5t-95.5 209.5v450q0 123 92.5 212t218.5 89zM387 985q-47 0 -79 -38.5t-32 -96.5v-686q0 -60 31 -97.5t80 -37.5q47 0 76 37t29 98v686q0 60 -29.5 97.5t-75.5 37.5z" />
    <glyph glyph-name="uni043F" unicode="&#x43f;" horiz-adv-x="757" 
d="M80 1014h606v-1014h-199v967h-208v-967h-199v1014z" />
    <glyph glyph-name="uni0440" unicode="&#x440;" horiz-adv-x="770" 
d="M285 961l-9 -60l13 -4q50 135 162 135q100 0 173.5 -82t73.5 -196v-475q0 -120 -77 -208.5t-183 -88.5q-108 0 -149 120l-13 -4l9 -59v-383h-199v1358h199v-53zM285 215q0 -69 38 -124.5t85 -55.5q37 0 61.5 34.5t24.5 88.5v682q0 52 -25.5 87.5t-62.5 35.5
q-46 0 -83.5 -53.5t-37.5 -118.5v-576z" />
    <glyph glyph-name="uni0441" unicode="&#x441;" horiz-adv-x="661" 
d="M70 715q0 137 89 227t224 90q73 0 140 -27.5t112 -76.5l-35 -31q-34 37 -86.5 60.5t-101.5 23.5q-63 0 -99.5 -40.5t-36.5 -109.5v-634q0 -73 42 -118.5t110 -45.5q65 0 125 38.5t88 96.5l43 -18q-40 -78 -117 -123t-172 -45q-141 0 -233 89.5t-92 227.5v416z" />
    <glyph glyph-name="uni0442" unicode="&#x442;" horiz-adv-x="657" 
d="M631 1014v-47h-201v-967h-201v967h-200v47h602z" />
    <glyph glyph-name="uni0443" unicode="&#x443;" horiz-adv-x="661" 
d="M27 1014h209l163 -598l11 -60h14l10 60l150 598h51l-313 -1229q-35 -143 -164 -143q-20 0 -60 8l13 45q66 -13 104.5 9.5t56.5 92.5l47 178z" />
    <glyph glyph-name="uni0444" unicode="&#x444;" horiz-adv-x="839" 
d="M395 1432h49v-400q137 -9 230.5 -95.5t93.5 -205.5v-450q0 -124 -92.5 -208.5t-231.5 -90.5v-326h-49v328q-138 9 -231.5 94t-93.5 203v450q0 124 93 208.5t232 92.5v400zM444 985v-956q119 9 119 135v686q0 126 -119 135zM395 31v954q-119 -15 -119 -135v-686
q0 -121 119 -133z" />
    <glyph glyph-name="uni0445" unicode="&#x445;" horiz-adv-x="731" 
d="M35 1012h209l135 -301l20 -56h15l18 56l133 301h53l-184 -418l271 -594h-209l-183 401l-20 58h-14l-19 -58l-178 -401h-55l231 522z" />
    <glyph glyph-name="uni0446" unicode="&#x446;" horiz-adv-x="804" 
d="M80 0v1014h199v-967h208v967h199v-967h150v-270h-127v223h-629z" />
    <glyph glyph-name="uni0447" unicode="&#x447;" horiz-adv-x="737" 
d="M467 403q-31 -63 -72.5 -91.5t-103.5 -28.5q-98 0 -160.5 62t-62.5 165v502h198v-580q0 -98 60 -98q52 0 96.5 52t44.5 108v518h201v-1012h-201v338l12 59z" />
    <glyph glyph-name="uni0448" unicode="&#x448;" horiz-adv-x="1058" 
d="M80 0v1014h201v-967h153v967h201v-967h156v967h200v-1014h-911z" />
    <glyph glyph-name="uni0449" unicode="&#x449;" horiz-adv-x="1105" 
d="M80 0v1014h201v-967h153v967h201v-967h156v967h200v-967h148v-270h-127v223h-932z" />
    <glyph glyph-name="uni044A" unicode="&#x44a;" horiz-adv-x="811" 
d="M336 569h139q108 0 187 -70.5t79 -174.5v-86q0 -97 -79.5 -167.5t-184.5 -70.5h-342v967h-133v47h334v-445zM541 227v109q0 186 -105 186h-100v-475h110q50 0 72.5 41t22.5 139z" />
    <glyph glyph-name="uni044B" unicode="&#x44b;" horiz-adv-x="1058" 
d="M281 569h139q108 0 187 -70.5t79 -174.5v-86q0 -97 -79.5 -167.5t-184.5 -70.5h-342v1012l201 2v-445zM788 1014h201v-1014h-201v1014zM485 227v109q0 186 -104 186h-100v-475h110q50 0 72 41t22 139z" />
    <glyph glyph-name="uni044C" unicode="&#x44c;" horiz-adv-x="755" 
d="M281 569h139q108 0 187 -70.5t79 -174.5v-86q0 -97 -79.5 -167.5t-184.5 -70.5h-342v1012l201 2v-445zM485 227v109q0 186 -104 186h-100v-475h110q50 0 72 41t22 139z" />
    <glyph glyph-name="uni044D" unicode="&#x44d;" horiz-adv-x="684" 
d="M616 717v-418q0 -137 -92 -227t-231 -90q-97 0 -174 45t-115 123l41 20q28 -59 88 -97t125 -38q68 0 110 44.5t42 117.5v286h-265v47h265v301q0 69 -36.5 110.5t-99.5 41.5q-50 0 -102 -24t-86 -62l-35 33q46 47 114 74.5t140 27.5q133 0 222 -90t89 -225z" />
    <glyph glyph-name="uni044E" unicode="&#x44e;" horiz-adv-x="1120" 
d="M733 1032q128 0 223 -90t95 -211v-450q0 -123 -92 -212t-218 -89q-128 0 -223.5 90t-95.5 211v202h-143v-485h-199v1016h199v-484h143v201q0 123 92.5 212t218.5 89zM739 985q-47 0 -78.5 -38.5t-31.5 -96.5v-688q0 -59 30.5 -97t79.5 -38q47 0 76 37.5t29 97.5v688
q0 60 -29.5 97.5t-75.5 37.5z" />
    <glyph glyph-name="uni044F" unicode="&#x44f;" horiz-adv-x="751" 
d="M682 1014v-1014h-201v483h-45q-32 0 -46.5 -20.5t-31.5 -93.5l-86 -369h-204l86 362q12 55 62 93t116 39v14q-108 7 -171 73.5t-63 161.5v33q0 100 67 169t169 69h348zM299 709q0 -92 22 -135.5t72 -43.5h88v437h-82q-54 0 -77 -43.5t-23 -141.5v-73z" />
    <glyph glyph-name="uni0450" unicode="&#x450;" horiz-adv-x="751" 
d="M416 1155h-39l-178 229h155zM70 729q0 124 92.5 214.5t218.5 90.5q127 0 222 -90.5t95 -212.5v-237h-422v-314q0 -65 43.5 -107t110.5 -42q70 0 133 46t92 118l45 -17q-41 -92 -121 -144t-180 -52q-137 0 -233 88.5t-96 214.5v444zM276 541h216v309q0 60 -30.5 98.5
t-76.5 38.5t-77.5 -39.5t-31.5 -97.5v-309z" />
    <glyph glyph-name="uni0451" unicode="&#x451;" horiz-adv-x="751" 
d="M170 1260q0 35 24 58t60 23t61 -23t25 -58t-25 -58.5t-61 -23.5q-35 0 -59.5 23.5t-24.5 58.5zM426 1260q0 35 24 58t58 23q36 0 60 -23t24 -58t-23.5 -58.5t-60.5 -23.5q-34 0 -58 23.5t-24 58.5zM70 729q0 124 92.5 213.5t218.5 89.5q128 0 222.5 -90t94.5 -213v-235
h-422v-314q0 -65 43.5 -107t110.5 -42q70 0 133 46t92 118l45 -17q-41 -92 -121 -144t-180 -52q-137 0 -233 88.5t-96 214.5v444zM276 541h216v309q0 59 -30.5 97t-76.5 38t-77.5 -39t-31.5 -96v-309z" />
    <glyph glyph-name="uni0452" unicode="&#x452;" horiz-adv-x="788" 
d="M291 864q34 89 79 128.5t113 39.5q99 0 163.5 -61t64.5 -152v-774q0 -126 -65 -217.5t-220 -185.5l-25 32q50 41 73.5 92t23.5 136v960q0 54 -16.5 83.5t-47.5 29.5q-51 0 -99 -74t-48 -151v-750h-201v1165h-61v47h61v222h201v-222h164v-47h-164v-237l-8 -60z" />
    <glyph glyph-name="uni0453" unicode="&#x453;" horiz-adv-x="548" 
d="M281 1100h-39l61 229h156zM80 0v1014h452v-47h-251v-967h-201z" />
    <glyph glyph-name="uni0454" unicode="&#x454;" horiz-adv-x="661" 
d="M70 717q0 135 89 225t224 90q72 0 139 -27.5t113 -74.5l-35 -33q-34 38 -86 62t-102 24q-63 0 -99.5 -41.5t-36.5 -110.5v-301h265v-47h-265v-286q0 -73 42 -117.5t110 -44.5q65 0 125 38t88 97l43 -20q-40 -78 -117 -123t-172 -45q-141 0 -233 90t-92 227v418z" />
    <glyph glyph-name="uni0455" unicode="&#x455;" horiz-adv-x="591" 
d="M537 950l-35 -32q-62 59 -140 59q-51 0 -83.5 -31.5t-32.5 -81.5q0 -55 41 -123l237 -393q45 -68 45 -135q0 -96 -82 -163.5t-198 -67.5q-142 0 -244 102l31 35q97 -84 184 -84q48 0 76.5 28.5t28.5 77.5q0 74 -68 183l-199 321q-51 85 -51 156q0 97 79 164t193 67
q127 0 218 -82z" />
    <glyph glyph-name="uni0456" unicode="&#x456;" horiz-adv-x="395" 
d="M84 1260q0 50 33 82t84 32t84.5 -32.5t33.5 -81.5q0 -51 -33.5 -85t-84.5 -34t-84 34t-33 85zM98 1014h201v-1014h-201v1014z" />
    <glyph glyph-name="uni0457" unicode="&#x457;" horiz-adv-x="395" 
d="M-14 1260q0 35 24 58t60 23t61 -23t25 -58t-25 -58.5t-61 -23.5q-35 0 -59.5 23.5t-24.5 58.5zM242 1260q0 35 24 58t58 23q37 0 61.5 -23t24.5 -58t-24.5 -58.5t-61.5 -23.5q-34 0 -58 23.5t-24 58.5zM98 1014h201v-1014h-201v1014z" />
    <glyph glyph-name="uni0458" unicode="&#x458;" horiz-adv-x="462" 
d="M154 1260q0 50 32 82t82 32q51 0 85 -33t34 -81q0 -51 -34 -85t-85 -34q-49 0 -81.5 34t-32.5 85zM371 49q0 -129 -65 -221t-222 -186l-23 32q36 29 56.5 53.5t36.5 69.5t16 105v1112h201v-965z" />
    <glyph glyph-name="uni0459" unicode="&#x459;" horiz-adv-x="1353" 
d="M879 569h141q107 0 185.5 -70.5t78.5 -174.5v-86q0 -97 -79.5 -167.5t-184.5 -70.5h-340v967h-215l-21 -521q-9 -233 -82 -348.5t-200 -115.5q-85 0 -158 43l19 45q60 -31 102 -31q55 0 84 56.5t33 193.5l24 725h613v-445zM1083 227v109q0 186 -104 186h-100v-475h110
q50 0 72 41t22 139z" />
    <glyph glyph-name="uni045A" unicode="&#x45a;" horiz-adv-x="1183" 
d="M80 1014h199v-445h229v445h201v-445h139q108 0 187 -70.5t79 -174.5v-86q0 -97 -79.5 -167.5t-184.5 -70.5h-342v522h-229v-522h-199v1014zM913 227v109q0 186 -104 186h-100v-475h110q50 0 72 41t22 139z" />
    <glyph glyph-name="uni045B" unicode="&#x45b;" horiz-adv-x="780" 
d="M291 864q34 88 79 127t113 39q97 0 162.5 -61t65.5 -152v-817h-213v862q0 111 -64 111q-51 0 -99 -73t-48 -150v-750h-201v1430h201v-502l-8 -60z" />
    <glyph glyph-name="uni045C" unicode="&#x45c;" horiz-adv-x="716" 
d="M389 1102h-39l62 227h155zM520 0l-168 451q-18 59 -67 59h-6v-510h-199v1014h199v-457h43l243 457h58l-246 -457q55 -5 109 -40.5t77 -100.5l162 -416h-205z" />
    <glyph glyph-name="uni045D" unicode="&#x45d;" horiz-adv-x="712" 
d="M387 1153h-37l-178 229h154zM444 1014h199v-1014h-47v834l6 59l-12 2l-25 -59l-399 -836h-86v1014h47v-615l-4 -59l14 -2l21 59z" />
    <glyph glyph-name="uni045E" unicode="&#x45e;" horiz-adv-x="661" 
d="M518 1354h29q0 -84 -48 -137.5t-122 -53.5t-122 54t-48 137h29q0 -44 40 -73.5t101 -29.5q62 0 101.5 28.5t39.5 74.5zM27 1014h209l163 -598l11 -60h14l10 60l150 598h51l-313 -1229q-35 -143 -164 -143q-20 0 -60 8l13 45q66 -13 104.5 9.5t56.5 92.5l47 178z" />
    <glyph glyph-name="uni045F" unicode="&#x45f;" horiz-adv-x="757" 
d="M80 0v1014h199v-967h208v967h199v-1014h-240v-223h-124v223h-242z" />
    <glyph glyph-name="uni0462" unicode="&#x462;" horiz-adv-x="833" 
d="M313 805h125q149 0 248.5 -98.5t99.5 -247.5v-121q0 -140 -91 -239t-220 -99h-375v1163h-92v49h92v220h213v-220h131v-49h-131v-358zM573 301v195q0 260 -149 260h-111v-705h125q71 0 103 57.5t32 192.5z" />
    <glyph glyph-name="uni0463" unicode="&#x463;" horiz-adv-x="755" 
d="M281 569h139q108 0 187 -70.5t79 -174.5v-86q0 -97 -79.5 -167.5t-184.5 -70.5h-342v840h-92v47h92v125l201 2v-127h145v-47h-145v-271zM485 227v109q0 186 -104 186h-100v-475h110q50 0 72 41t22 139z" />
    <glyph glyph-name="uni046A" unicode="&#x46a;" horiz-adv-x="1300" 
d="M1192 1380l-315 -602q75 -6 124.5 -52.5t90.5 -152.5l217 -573h-219l-224 618q-22 63 -46.5 86t-59.5 25h-4v-729h-213v729h-2q-36 -2 -60.5 -23.5t-46.5 -84.5l-223 -621h-221l219 573q39 106 89.5 153t125.5 52l-315 602v52h1083v-52zM483 778h60v602h-375zM756 778h61
l313 602h-374v-602z" />
    <glyph glyph-name="uni046B" unicode="&#x46b;" horiz-adv-x="1073" 
d="M877 0l-168 451q-18 59 -68 59h-6v-510h-199v510h-6q-50 0 -68 -59l-165 -451h-207l162 414q24 67 77.5 102t108.5 39l-221 412v47h837v-47l-221 -412q55 -3 109.5 -39t77.5 -102l161 -414h-204zM393 557h43v410h-264zM635 557h43l221 410h-264v-410z" />
    <glyph glyph-name="uni0472" unicode="&#x472;" horiz-adv-x="907" 
d="M88 389v668q0 175 102.5 284t266.5 109t264 -108t100 -285v-668q0 -183 -101 -295t-265 -112t-265.5 112t-101.5 295zM301 1178v-437h307v437q0 108 -39.5 165.5t-111.5 57.5q-74 0 -115 -58.5t-41 -164.5zM301 692v-438q0 -107 40 -165t114 -58t113.5 58t39.5 165v438
h-307z" />
    <glyph glyph-name="uni0473" unicode="&#x473;" horiz-adv-x="765" 
d="M381 1030q127 0 222 -89.5t95 -209.5v-450q0 -123 -91.5 -211t-217.5 -88q-128 0 -223.5 89t-95.5 210v450q0 121 92.5 210t218.5 89zM387 985q-47 0 -79 -39.5t-32 -97.5v-318h216v318q0 60 -29.5 98.5t-75.5 38.5zM492 481h-216v-319q0 -59 31 -97t80 -38q47 0 76 37.5
t29 97.5v319z" />
    <glyph glyph-name="uni0474" unicode="&#x474;" horiz-adv-x="716" 
d="M207 1432l201 -930l14 -82h14l10 82l146 760q37 180 168 180q32 0 59 -8l-18 -50q-31 9 -43 9q-86 0 -115 -142l-244 -1251h-96l-313 1432h217z" />
    <glyph glyph-name="uni0475" unicode="&#x475;" horiz-adv-x="706" 
d="M725 969q-16 8 -35 8q-68 0 -98 -125l-223 -852h-64l-278 1014h209l159 -602l11 -60h14l10 60l113 446q19 74 56 120t93 46q25 0 49 -8z" />
    <glyph glyph-name="uni0476" unicode="&#x476;" horiz-adv-x="716" 
d="M336 1518h-39l-164 229h141zM551 1518h-39l-164 229h141zM207 1432l201 -930l14 -82h14l10 82l146 760q37 180 168 180q32 0 59 -8l-18 -50q-31 9 -43 9q-86 0 -115 -142l-244 -1251h-96l-313 1432h217z" />
    <glyph glyph-name="uni0477" unicode="&#x477;" horiz-adv-x="706" 
d="M313 1153h-39l-163 229h141zM528 1153h-39l-163 229h141zM725 969q-16 8 -35 8q-68 0 -98 -125l-223 -852h-64l-278 1014h209l159 -602l11 -60h14l10 60l113 446q19 74 56 120t93 46q25 0 49 -8z" />
    <glyph glyph-name="uni048A" unicode="&#x48a;" horiz-adv-x="841" 
d="M522 1718h29q0 -83 -48 -136.5t-122 -53.5t-122 53.5t-48 136.5h29q0 -44 40 -73t101 -29t101 29t40 73zM498 1432h219v-1383h160l-78 -272h-127l63 223h-69v1190l6 82h-17l-24 -82l-447 -1190h-96v1432h51v-881l-6 -82h17l24 82z" />
    <glyph glyph-name="uni048B" unicode="&#x48b;" horiz-adv-x="780" 
d="M496 1354h28q0 -85 -47.5 -138t-122.5 -53q-74 0 -122 54t-48 137h29q0 -45 40 -74t103 -29q61 0 100.5 29t39.5 74zM444 1014h199v-967h160l-78 -270h-127l64 223h-66v834l6 59l-12 2l-25 -59l-399 -836h-86v1014h47v-615l-4 -59l14 -2l21 59z" />
    <glyph glyph-name="uni048C" unicode="&#x48c;" horiz-adv-x="833" 
d="M313 805h125q149 0 248.5 -98.5t99.5 -247.5v-121q0 -140 -91 -239t-220 -99h-375v1163h-92v49h92v220h213v-220h131v-49h-131v-358zM573 301v195q0 260 -149 260h-111v-705h125q71 0 103 57.5t32 192.5z" />
    <glyph glyph-name="uni048D" unicode="&#x48d;" horiz-adv-x="755" 
d="M281 569h139q108 0 187 -70.5t79 -174.5v-86q0 -97 -79.5 -167.5t-184.5 -70.5h-342v840h-92v47h92v125l201 2v-127h145v-47h-145v-271zM485 227v109q0 186 -104 186h-100v-475h110q50 0 72 41t22 139z" />
    <glyph glyph-name="uni048E" unicode="&#x48e;" horiz-adv-x="821" 
d="M100 1432h349q141 0 235 -98t94 -238v-88q0 -114 -63 -203.5t-166 -120.5l53 -94l-33 -17l-57 103q-30 -6 -59 -6h-140v-670h-213v1432zM565 981v139q0 136 -33.5 199t-105.5 63h-113v-663h121q28 0 47 8l-69 125l30 18l70 -122q53 56 53 233z" />
    <glyph glyph-name="uni048F" unicode="&#x48f;" horiz-adv-x="770" 
d="M285 961l-9 -60l13 -4q50 135 162 135q100 0 173.5 -82t73.5 -196v-475q0 -97 -53.5 -177t-134.5 -108l47 -84l-31 -19l-53 93q-6 0 -17.5 -1t-17.5 -1q-108 0 -149 120l-13 -4l9 -59v-383h-199v1358h199v-53zM285 215q0 -69 38 -124.5t85 -55.5q19 0 30 8l-73 129l32 16
l70 -120q27 39 27 90v682q0 52 -25.5 87.5t-62.5 35.5q-46 0 -83.5 -53.5t-37.5 -118.5v-576z" />
    <glyph glyph-name="uni0490" unicode="&#x490;" horiz-adv-x="593" 
d="M100 0v1432h369v200h135v-250h-291v-1382h-213z" />
    <glyph glyph-name="uni0491" unicode="&#x491;" horiz-adv-x="548" 
d="M80 0v1014h315l-2 200h137v-247h-249v-967h-201z" />
    <glyph glyph-name="uni0492" unicode="&#x492;" horiz-adv-x="593" 
d="M100 0v737h-92v49h92v646h506v-50h-293v-596h133v-49h-133v-737h-213z" />
    <glyph glyph-name="uni0493" unicode="&#x493;" horiz-adv-x="548" 
d="M80 0v535h-92v45h92v434h452v-47h-251v-387h145v-45h-145v-535h-201z" />
    <glyph glyph-name="uni0494" unicode="&#x494;" horiz-adv-x="870" 
d="M621 1382h-308v-571l-20 -53l10 -10q75 47 168 47q132 0 221.5 -90.5t89.5 -223.5v-409q0 -137 -92.5 -225.5t-238.5 -88.5v45q54 1 86 46t32 110v635q0 71 -36.5 111t-100.5 40q-56 0 -119 -34v-713h-213v1434h521v-50z" />
    <glyph glyph-name="uni0495" unicode="&#x495;" horiz-adv-x="749" 
d="M559 969h-280v-404l-21 -53l10 -10q65 35 140 35q127 0 199.5 -66t72.5 -170v-305q0 -106 -77.5 -171t-219.5 -65v37q44 0 67 33.5t23 83.5v471q0 113 -102 113q-43 0 -92 -27v-471h-199v1014h479v-45z" />
    <glyph glyph-name="uni0496" unicode="&#x496;" horiz-adv-x="1429" 
d="M1219 1432l-342 -654q75 -6 125.5 -53t89.5 -152l198 -524h148v-272h-127v223h-221l-224 618q-22 63 -46.5 86t-59.5 25h-4v-729h-213v729h-2q-36 -2 -60.5 -23.5t-46.5 -84.5l-223 -621h-221l219 573q39 105 89.5 152t125.5 53l-342 654h59l342 -654h60v654h213v-654h61
l340 654h62z" />
    <glyph glyph-name="uni0497" unicode="&#x497;" horiz-adv-x="1236" 
d="M877 0l-168 451q-18 59 -68 59h-6v-510h-199v510h-6q-50 0 -68 -59l-165 -451h-207l162 414q24 67 77.5 102t108.5 39l-244 459h56l243 -457h43v457h199v-457h43l244 457h57l-244 -459q55 -3 108.5 -39t76.5 -102l145 -365h145v-270h-127v221h-206z" />
    <glyph glyph-name="uni0498" unicode="&#x498;" horiz-adv-x="925" 
d="M319 -152q36 -73 89 -73q28 0 47.5 24.5t19.5 59.5q0 69 -72 123q-184 9 -315 90l27 43q137 -76 264 -76q131 0 210 81.5t79 221.5v102q0 128 -66.5 200.5t-177.5 72.5h-47v49h47q102 0 161.5 71.5t59.5 200.5v72q0 126 -67.5 201t-176.5 75q-128 0 -241 -96l-37 37
q58 58 146.5 90.5t189.5 32.5q175 0 286 -92.5t111 -245.5v-63q0 -135 -72 -210.5t-206 -86.5l-39 -2v-15l39 -4q143 -14 222 -91t79 -212v-80q0 -166 -121 -265t-318 -101q121 -76 121 -160q0 -44 -34.5 -75.5t-82.5 -31.5q-47 0 -86.5 31t-64.5 88z" />
    <glyph glyph-name="uni0499" unicode="&#x499;" horiz-adv-x="684" 
d="M156 -152q36 -73 88 -73q29 0 48 24.5t19 61.5q0 67 -69 121q-148 6 -240 63l25 41q88 -51 182 -51q92 0 148.5 55t56.5 150v61q0 97 -46.5 150t-127.5 55h-33l2 47h31q159 0 159 201v41q0 88 -45 137t-123 49q-97 0 -174 -68l-30 33q88 88 256 88q146 0 231.5 -68
t85.5 -188v-30q0 -87 -71 -143.5t-183 -65.5l-33 -2v-15l33 -2q120 -9 193 -70.5t73 -158.5v-49q0 -119 -89 -187t-244 -73q57 -35 87.5 -76.5t30.5 -81.5q0 -46 -33.5 -77.5t-82.5 -31.5q-47 0 -87 31.5t-65 87.5z" />
    <glyph glyph-name="uni049A" unicode="&#x49a;" horiz-adv-x="985" 
d="M776 1432l-342 -654q75 -6 124.5 -52.5t90.5 -152.5l199 -524h145l2 -272h-127v223h-221l-223 618q-23 64 -47.5 86.5t-59.5 24.5h-4v-729h-213v1432h213v-654h62l340 654h61z" />
    <glyph glyph-name="uni049B" unicode="&#x49b;" horiz-adv-x="843" 
d="M520 0l-168 451q-18 59 -67 59h-6v-510h-199v1014h199v-457h43l243 457h58l-244 -457q55 -5 108 -40.5t76 -100.5l146 -369l143 2v-270h-125v221h-207z" />
    <glyph glyph-name="uni049C" unicode="&#x49c;" horiz-adv-x="940" 
d="M948 0h-219l-223 618q-21 57 -42 80.5t-50 28.5v-131h-41v133h-60v-729h-213v1432h213v-654h60v160h41v-160h43l340 654h61l-344 -654q76 -6 126 -52.5t89 -152.5z" />
    <glyph glyph-name="uni049D" unicode="&#x49d;" horiz-adv-x="778" 
d="M582 0l-148 451q-15 55 -63 59v-135h-39v135h-53v-510h-199v1014h199v-457h53v162h39v-162h30l226 457h57l-225 -457q56 -5 109.5 -40.5t76.5 -102.5l141 -414h-204z" />
    <glyph glyph-name="uni049E" unicode="&#x49e;" horiz-adv-x="858" 
d="M866 0h-219l-223 618q-23 64 -47.5 86.5t-59.5 24.5h-4v-729h-213v1210h-92v50h92v172h213v-172h131v-50h-131v-432h62l340 654h61l-342 -654q75 -6 124.5 -52.5t88.5 -152.5z" />
    <glyph glyph-name="uni049F" unicode="&#x49f;" horiz-adv-x="716" 
d="M520 0l-168 451q-18 59 -67 59h-6v-510h-199v1165h-92v47h92v220h199v-220h145v-47h-145v-608h43l243 457h58l-246 -459q55 -3 109 -39t77 -102l162 -414h-205z" />
    <glyph glyph-name="uni04A0" unicode="&#x4a0;" horiz-adv-x="1009" 
d="M1018 0h-219l-224 618q-23 64 -47.5 86.5t-60.5 24.5h-2v-729h-213v1382h-262v50h475v-654h61l340 654h62l-344 -654q76 -6 126 -52.5t89 -152.5z" />
    <glyph glyph-name="uni04A1" unicode="&#x4a1;" horiz-adv-x="860" 
d="M664 0l-166 451q-18 59 -68 59h-6v-510h-199l-2 969h-223v47h225l199 -2v-457h43l244 457h55l-244 -457q55 -5 108.5 -40.5t76.5 -100.5l163 -416h-206z" />
    <glyph glyph-name="uni04A2" unicode="&#x4a2;" horiz-adv-x="950" 
d="M100 1432h213v-693h295v693h213v-1381h148v-272h-127v221h-234v690h-295v-690h-213v1432z" />
    <glyph glyph-name="uni04A3" unicode="&#x4a3;" horiz-adv-x="825" 
d="M80 1014h199v-484h229v484h201v-967h145v-270h-125v221h-221v485h-229v-485h-199v1016z" />
    <glyph glyph-name="uni04A4" unicode="&#x4a4;" horiz-adv-x="1071" 
d="M100 1432h213v-693h295v693h475v-50h-262v-1382h-213v690h-295v-690h-213v1432z" />
    <glyph glyph-name="uni04A5" unicode="&#x4a5;" horiz-adv-x="948" 
d="M80 1014h199v-484h229v484h422v-47h-221v-969h-201v485h-229v-485h-199v1016z" />
    <glyph glyph-name="uni04A6" unicode="&#x4a6;" horiz-adv-x="1378" 
d="M100 1430h721v-621l-20 -51l10 -10q75 47 168 47q132 0 221.5 -90.5t89.5 -223.5v-409q0 -137 -93 -225.5t-239 -88.5v45q54 1 86.5 45.5t32.5 106.5v643q0 68 -36.5 107.5t-100.5 39.5q-56 0 -119 -34v-713h-213v1382h-295v-1382h-213v1432z" />
    <glyph glyph-name="uni04A7" unicode="&#x4a7;" horiz-adv-x="1159" 
d="M82 1014h606v-451l-20 -53l10 -10q61 37 137 37q127 0 199.5 -66.5t72.5 -169.5v-307q0 -106 -77 -171t-219 -65v37q43 0 66.5 32.5t23.5 80.5v479q0 51 -26 80t-77 29q-38 0 -90 -25v-471h-199v967h-208v-967h-199v1014z" />
    <glyph glyph-name="uni04A8" unicode="&#x4a8;" horiz-adv-x="1058" 
d="M301 1163v-893q0 -112 64 -174.5t180 -62.5q45 0 86 12q-87 57 -134.5 139t-47.5 181v483q0 172 69 267t191 95t192 -97t70 -271v-477q0 -113 -47.5 -196.5t-137.5 -129.5q70 -33 185 -33v-51q-145 0 -266 51q-80 -22 -179 -22q-195 0 -316.5 112.5t-121.5 292.5v670
q0 173 102.5 282t266.5 109q112 0 192 -51l-22 -43q-77 45 -154 45q-88 0 -130 -57.5t-42 -180.5zM709 92q65 65 65 184v680q0 109 -14.5 157t-48.5 48q-35 0 -50.5 -49t-15.5 -158v-675q0 -117 64 -187z" />
    <glyph glyph-name="uni04A9" unicode="&#x4a9;" horiz-adv-x="952" 
d="M276 809v-604q0 -81 56.5 -128.5t150.5 -47.5q39 0 70 8q-156 88 -156 244v290q0 289 240 289q244 0 244 -295v-284q0 -77 -45 -142t-123 -104q67 -27 168 -27v-47q-143 0 -252 41q-64 -20 -146 -20q-183 0 -298 83.5t-115 215.5v452q0 122 98 210.5t233 88.5
q84 0 148 -37l-21 -41q-58 33 -110 33q-69 0 -105.5 -45.5t-36.5 -132.5zM637 78q53 43 53 108v486q0 77 -11.5 109t-39.5 32t-39.5 -32.5t-11.5 -110.5v-484q0 -62 49 -108z" />
    <glyph glyph-name="uni04AA" unicode="&#x4aa;" horiz-adv-x="788" 
d="M88 393v660q0 182 99 289.5t266 107.5q172 0 284 -121l-37 -33q-97 97 -215 97q-88 0 -136 -56t-48 -159v-914q0 -225 182 -225q86 0 154 46t100 124l47 -21q-37 -89 -110.5 -142t-173.5 -62q123 -77 123 -162q0 -44 -34.5 -75.5t-82.5 -31.5q-47 0 -87 31t-65 88l27 14
q36 -73 88 -73q28 0 48 24.5t20 59.5q0 69 -72 123q-183 0 -280 112t-97 299z" />
    <glyph glyph-name="uni04AB" unicode="&#x4ab;" horiz-adv-x="661" 
d="M70 715q0 136 88.5 226.5t222.5 90.5q73 0 141 -27.5t113 -76.5l-35 -31q-34 37 -86.5 60.5t-101.5 23.5q-63 0 -99.5 -40.5t-36.5 -109.5v-634q0 -73 42 -118.5t110 -45.5q65 0 125 38.5t88 96.5l41 -18q-34 -69 -97 -112t-143 -54q121 -73 121 -160q0 -44 -34 -75.5
t-83 -31.5q-47 0 -86.5 31t-64.5 88l27 14q36 -73 88 -73q29 0 48 24t19 60q0 69 -67 121q-149 0 -244.5 85t-95.5 232v416z" />
    <glyph glyph-name="uni04AC" unicode="&#x4ac;" horiz-adv-x="702" 
d="M713 1432v-50h-254v-1327h39l2 -274h-127v219h-127v1382h-256v50h723z" />
    <glyph glyph-name="uni04AD" unicode="&#x4ad;" horiz-adv-x="657" 
d="M631 1014v-47h-201v-920h145v-270h-126v223h-220v967h-200v47h602z" />
    <glyph glyph-name="uni04AE" unicode="&#x4ae;" horiz-adv-x="694" 
d="M213 1430l201 -594l24 -82h15l18 82l178 594h56l-232 -771v-659h-213v641l-270 789h223z" />
    <glyph glyph-name="uni04AF" unicode="&#x4af;" horiz-adv-x="710" 
d="M686 1014l-211 -903v-469h-201v391l-247 981h211l184 -762l10 -59h14l11 59l176 762h53z" />
    <glyph glyph-name="uni04B0" unicode="&#x4b0;" horiz-adv-x="694" 
d="M213 1430l201 -594l24 -82h15l18 82l178 594h56l-232 -771v-4h115v-49h-115v-606h-213v606h-110v49h104l-264 775h223z" />
    <glyph glyph-name="uni04B1" unicode="&#x4b1;" horiz-adv-x="710" 
d="M686 1014l-211 -903v-64h119v-47h-119v-358h-201v358h-118v47h114l-243 967h211l184 -762l10 -59h14l11 59l176 762h53z" />
    <glyph glyph-name="uni04B2" unicode="&#x4b2;" horiz-adv-x="845" 
d="M229 1432l158 -461l23 -80h14l27 80l178 461h57l-242 -623l261 -758h149v-272h-127v221h-227l-185 537l-22 77h-12l-27 -77l-209 -537h-55l270 696l-254 736h223z" />
    <glyph glyph-name="uni04B3" unicode="&#x4b3;" horiz-adv-x="788" 
d="M35 1012h209l135 -301l18 -56h15l20 56l133 301h53l-186 -418l250 -547h154v-270h-127v223h-213l-183 401l-20 58h-14l-19 -58l-178 -401h-55l231 522z" />
    <glyph glyph-name="uni04B4" unicode="&#x4b4;" horiz-adv-x="1007" 
d="M539 1432v-50h-168v-1333h295v1383h213v-1381h147v-274h-127v223h-741v1382h-168v50h549z" />
    <glyph glyph-name="uni04B5" unicode="&#x4b5;" horiz-adv-x="880" 
d="M479 1014v-47h-125v-920h209v967h201v-967h145v-270h-125v223h-630v967h-127v47h452z" />
    <glyph glyph-name="uni04B6" unicode="&#x4b6;" horiz-adv-x="909" 
d="M561 565q-71 -166 -227 -166q-103 0 -168.5 66t-65.5 178v787h213v-848q0 -125 78 -125q61 0 117.5 73t56.5 150v750h213v-1381h148v-272h-127v223h-234v502l10 59z" />
    <glyph glyph-name="uni04B7" unicode="&#x4b7;" horiz-adv-x="784" 
d="M467 403q-31 -63 -72.5 -91.5t-103.5 -28.5q-98 0 -160.5 62t-62.5 165v502h198v-580q0 -98 60 -98q52 0 96.5 52t44.5 108v518h201v-965h145l2 -270h-127v223h-221v338l12 59z" />
    <glyph glyph-name="uni04B8" unicode="&#x4b8;" horiz-adv-x="878" 
d="M561 565q-40 -94 -106 -135v-133h-43v115q-41 -13 -78 -13q-103 0 -168.5 66t-65.5 178v787h213v-848q0 -125 78 -125q3 0 10.5 1t10.5 1v180h43v-162q45 30 77.5 88.5t32.5 114.5v750h213v-1430h-213v502l10 59z" />
    <glyph glyph-name="uni04B9" unicode="&#x4b9;" horiz-adv-x="737" 
d="M467 403q-35 -71 -84 -98v-143h-39v127q-24 -6 -53 -6q-98 0 -160.5 62t-62.5 165v502h198v-580q0 -98 60 -98q12 0 18 2v168h39v-152q36 22 60 62.5t24 79.5v518h201v-1012h-201v338l12 59z" />
    <glyph glyph-name="uni04BA" unicode="&#x4ba;" horiz-adv-x="878" 
d="M317 866q70 166 228 166q103 0 168 -66t65 -178v-786h-213v848q0 125 -78 125q-61 0 -117.5 -73t-56.5 -150v-750h-213v1430h213v-502l-8 -60z" />
    <glyph glyph-name="uni04BB" unicode="&#x4bb;" horiz-adv-x="747" 
d="M276 610q31 63 73.5 92t103.5 29q98 0 160.5 -62.5t62.5 -166.5v-502h-201v582q0 52 -14 75t-45 23q-51 0 -95.5 -52.5t-44.5 -109.5v-518h-198v1014h198v-338l-10 -62z" />
    <glyph glyph-name="uni04BC" unicode="&#x4bc;" horiz-adv-x="1030" 
d="M209 702h-19q-71 0 -109 38t-38 110h49q0 -55 25 -76.5t82 -21.5h10v305q0 175 102.5 284t266.5 109t264 -108t100 -285v-355h-520v-438q0 -223 182 -223q86 0 154 45t100 123l47 -21q-40 -98 -125.5 -152t-201.5 -54q-170 0 -269.5 111t-99.5 300v309zM422 1178v-426
h307v426q0 107 -39.5 164t-111.5 57q-74 0 -115 -58t-41 -163z" />
    <glyph glyph-name="uni04BD" unicode="&#x4bd;" horiz-adv-x="864" 
d="M182 729q0 123 92.5 213t219.5 90q128 0 222.5 -90t94.5 -213v-235h-424v-314q0 -65 43.5 -107t112.5 -42q71 0 133.5 45.5t91.5 118.5l45 -17q-41 -92 -121.5 -144t-181.5 -52q-136 0 -232 88.5t-96 214.5v209h-12q-60 0 -92.5 40.5t-32.5 108.5h47q0 -104 90 -104v190z
M387 539h217v311q0 58 -30 96.5t-76 38.5q-47 0 -79 -39t-32 -96v-311z" />
    <glyph glyph-name="uni04BE" unicode="&#x4be;" horiz-adv-x="1030" 
d="M731 -158l27 -14q-23 -56 -63.5 -87.5t-86.5 -31.5q-49 0 -82.5 31t-33.5 76q0 43 34.5 87.5t98.5 80.5q-8 0 -23.5 -1t-23.5 -1q-170 0 -269.5 111t-99.5 300v309h-19q-71 0 -109 38t-38 110h49q0 -55 25 -76.5t82 -21.5h10v305q0 175 102.5 284t266.5 109t264 -108
t100 -285v-355h-520v-438q0 -223 182 -223q86 0 154 45t100 123l47 -21q-65 -157 -233 -196q-45 -27 -69.5 -64t-24.5 -75q0 -36 19 -60t48 -24q50 0 86 73zM422 1178v-426h307v426q0 107 -39 164t-112 57q-74 0 -115 -58t-41 -163z" />
    <glyph glyph-name="uni04BF" unicode="&#x4bf;" horiz-adv-x="864" 
d="M182 729q0 123 92.5 213t219.5 90q128 0 222.5 -90t94.5 -213v-235h-424v-314q0 -64 44 -106.5t112 -42.5q71 0 133.5 45.5t91.5 118.5l45 -17q-63 -136 -195 -180q-42 -26 -65 -61.5t-23 -71.5q0 -37 19.5 -61.5t48.5 -24.5q50 0 86 74l27 -15q-23 -57 -62.5 -88
t-87.5 -31q-49 0 -83 31.5t-34 75.5q0 85 119 160q-32 -4 -51 -4q-138 0 -234 88.5t-96 214.5v209h-12q-60 0 -92.5 40.5t-32.5 108.5h47q0 -104 90 -104v190zM387 539h217v311q0 58 -30 96.5t-76 38.5t-78.5 -39t-32.5 -96v-311z" />
    <glyph glyph-name="uni04C0" unicode="&#x4c0;" horiz-adv-x="411" 
d="M100 1432h213v-1432h-213v1432z" />
    <glyph glyph-name="uni04C1" unicode="&#x4c1;" horiz-adv-x="1300" 
d="M788 1718h31q0 -83 -48 -136.5t-122 -53.5t-122 53.5t-48 136.5h29q0 -44 40 -73t101 -29t100 29t39 73zM1309 0h-219l-224 618q-22 63 -46.5 86t-59.5 25h-4v-729h-213v729h-2q-36 -2 -60.5 -23.5t-46.5 -84.5l-223 -621h-221l219 573q39 106 89.5 153t125.5 52
l-342 654h59l342 -654h60v654h213v-654h61l340 654h62l-342 -654q75 -6 124.5 -52.5t90.5 -152.5z" />
    <glyph glyph-name="uni04C2" unicode="&#x4c2;" horiz-adv-x="1073" 
d="M676 1354h31q0 -84 -48 -137.5t-122 -53.5t-122 54t-48 137h28q0 -44 40.5 -73.5t101.5 -29.5q62 0 100.5 28.5t38.5 74.5zM877 0l-168 451q-18 59 -68 59h-6v-510h-199v510h-6q-50 0 -68 -59l-165 -451h-207l162 414q24 67 77.5 102t108.5 39l-244 459h56l243 -457h43
v457h199v-457h43l244 457h57l-246 -459q55 -3 109.5 -39t77.5 -102l161 -414h-204z" />
    <glyph glyph-name="uni04C3" unicode="&#x4c3;" horiz-adv-x="905" 
d="M100 1434h211v-680q20 13 62 26l342 654h59l-334 -639q14 2 43 2q148 0 242 -89t94 -227v-407q0 -143 -100.5 -228.5t-267.5 -85.5v45q69 0 112 42t43 110v643q0 66 -43.5 104.5t-118.5 38.5q-67 0 -133 -32v-711h-211v1434z" />
    <glyph glyph-name="uni04C4" unicode="&#x4c4;" horiz-adv-x="747" 
d="M80 1014h199v-506q11 3 22 10l244 496h57l-235 -479q12 2 39 2q123 0 196.5 -64.5t73.5 -171.5v-305q0 -109 -79.5 -172.5t-215.5 -63.5v37q40 0 65 31t25 82v479q0 52 -27.5 80.5t-78.5 28.5q-35 0 -86 -23v-475h-199v1014z" />
    <glyph glyph-name="uni04C5" unicode="&#x4c5;" horiz-adv-x="1118" 
d="M-10 25l20 47q54 -31 103 -31q55 0 83.5 55.5t32.5 192.5l37 1143h713v-1383h156l-78 -272h-127l65 223h-229v1382h-287l-37 -936q-9 -231 -86 -347.5t-206 -116.5q-84 0 -160 43z" />
    <glyph glyph-name="uni04C6" unicode="&#x4c6;" horiz-adv-x="915" 
d="M2 12l21 43q35 -18 67 -18q42 0 60.5 44.5t23.5 149.5l41 783h573v-967h158l-78 -270h-127l64 223h-215v967h-176l-37 -684q-7 -139 -86 -220t-176 -81q-58 0 -113 30z" />
    <glyph glyph-name="uni04C7" unicode="&#x4c7;" horiz-adv-x="919" 
d="M100 1432h213v-693h295v693h213v-1383q0 -127 -69.5 -219t-229.5 -186l-22 30q54 43 81 92.5t27 135.5v788h-295v-690h-213v1432z" />
    <glyph glyph-name="uni04C8" unicode="&#x4c8;" horiz-adv-x="778" 
d="M80 1014h199v-484h229v484h201v-967q0 -127 -65 -219t-222 -186l-23 30q55 46 82 94.5t27 135.5v581h-229v-485h-199v1016z" />
    <glyph glyph-name="uni04C9" unicode="&#x4c9;" horiz-adv-x="968" 
d="M100 1432h213v-693h295v693h213v-1383h168l-80 -272h-127l66 223h-240v690h-295v-690h-213v1432z" />
    <glyph glyph-name="uni04CA" unicode="&#x4ca;" horiz-adv-x="843" 
d="M80 1014h199v-484h229v484h201v-969h165l-77 -270h-127l63 223h-225v485h-229v-485h-199v1016z" />
    <glyph glyph-name="uni04CB" unicode="&#x4cb;" horiz-adv-x="878" 
d="M561 565q-71 -166 -227 -166q-103 0 -168.5 66t-65.5 178v787h213v-848q0 -125 78 -125q62 0 118 73t56 150v750h213v-1430h-256v-223h-127v272h170v453l10 59z" />
    <glyph glyph-name="uni04CC" unicode="&#x4cc;" horiz-adv-x="737" 
d="M467 403q-31 -63 -72 -91.5t-104 -28.5q-98 0 -160.5 62t-62.5 165v502h198v-580q0 -98 60 -98q53 0 97 51.5t44 108.5v518h201v-1012h-244v-223h-127v270h170v291l12 59z" />
    <glyph glyph-name="uni04CD" unicode="&#x4cd;" horiz-adv-x="1105" 
d="M967 1432v-1383h157l-77 -272h-127l65 223h-231v1137l4 82h-15l-8 -82l-207 -1137h-96l-270 1137l-15 82h-14l6 -82v-1137h-51v1432h225l217 -924l15 -82h14l8 82l168 924h232z" />
    <glyph glyph-name="uni04CE" unicode="&#x4ce;" horiz-adv-x="913" 
d="M791 1014v-967h155l-78 -270h-127l64 223h-215v801l4 61h-12l-7 -61l-159 -801h-86l-185 801l-10 61h-14l6 -61v-801h-47v1014h219l127 -555l8 -60h15l8 60l112 555h222z" />
    <glyph glyph-name="uni04CF" unicode="&#x4cf;" horiz-adv-x="411" 
d="M100 1432h213v-1432h-213v1432z" />
    <glyph glyph-name="uni04D0" unicode="&#x4d0;" horiz-adv-x="684" 
d="M444 1718h29q0 -83 -48 -136.5t-122 -53.5t-122 53.5t-48 136.5h29q0 -44 40 -73t101 -29t101 29t40 73zM-10 0l266 1432h94l344 -1432h-219l-102 428h-250l-80 -428h-53zM225 1022l-10 -82l-84 -463h229l-106 463l-14 82h-15z" />
    <glyph glyph-name="uni04D1" unicode="&#x4d1;" horiz-adv-x="714" 
d="M492 1354h30q0 -84 -48 -137.5t-122 -53.5t-122 54t-48 137h29q0 -44 40 -73.5t101 -29.5q62 0 101 28.5t39 74.5zM49 203v96q0 119 98.5 192.5t303.5 108.5v229q0 70 -36.5 111t-99.5 41q-49 0 -102 -24.5t-84 -61.5l-35 33q41 47 111 75.5t153 28.5q126 0 212.5 -80
t86.5 -198v-754h-206v59l10 52l-15 4q-37 -61 -93.5 -97t-116.5 -36q-80 0 -133.5 63t-53.5 158zM330 72q31 0 64.5 25.5t56.5 66.5v407q-106 -27 -151.5 -76.5t-45.5 -146.5v-155q0 -55 21 -88t55 -33z" />
    <glyph glyph-name="uni04D2" unicode="&#x4d2;" horiz-adv-x="684" 
d="M92 1624q0 35 24 58.5t58 23.5q37 0 61.5 -23.5t24.5 -58.5t-24.5 -58.5t-61.5 -23.5q-34 0 -58 23.5t-24 58.5zM346 1624q0 35 24.5 58.5t59.5 23.5t59.5 -23.5t24.5 -58.5t-24.5 -58.5t-59.5 -23.5t-59.5 23.5t-24.5 58.5zM-10 0l266 1432h94l344 -1432h-219l-102 428
h-250l-80 -428h-53zM225 1022l-10 -82l-84 -463h229l-106 463l-14 82h-15z" />
    <glyph glyph-name="uni04D3" unicode="&#x4d3;" horiz-adv-x="714" 
d="M139 1260q0 35 24 58t58 23q36 0 61 -23t25 -58t-24.5 -58.5t-61.5 -23.5q-34 0 -58 23.5t-24 58.5zM393 1260q0 35 24 58t58 23q37 0 61.5 -23t24.5 -58t-24.5 -58.5t-61.5 -23.5q-34 0 -58 23.5t-24 58.5zM49 203v96q0 118 99 191.5t303 107.5v231q0 70 -36.5 110
t-99.5 40q-50 0 -102.5 -23.5t-83.5 -60.5l-35 31q41 47 111.5 76.5t152.5 29.5q126 0 212.5 -80t86.5 -198v-754h-206v59l10 52l-15 4q-37 -61 -93.5 -97t-116.5 -36q-80 0 -133.5 63t-53.5 158zM330 72q31 0 64.5 25.5t56.5 66.5v407q-106 -27 -151.5 -76.5t-45.5 -146.5
v-155q0 -55 21 -88t55 -33z" />
    <glyph glyph-name="uni04D4" unicode="&#x4d4;" horiz-adv-x="950" 
d="M350 1432h551v-52h-305v-624h262v-49h-262v-658h305v-51h-518v428h-262l-121 -428h-53zM360 1296l-14 -82l-211 -739h248v821h-23z" />
    <glyph glyph-name="uni04D5" unicode="&#x4d5;" horiz-adv-x="1132" 
d="M451 600v231q0 70 -36.5 110t-99.5 40q-49 0 -102 -24t-84 -60l-35 31q41 47 110.5 75.5t149.5 28.5q132 0 201 -78h12q80 80 197 80q129 0 222 -90.5t93 -216.5v-233h-422v-320q0 -63 43 -103t111 -40q70 0 134 46t93 118l43 -17q-41 -93 -121 -144.5t-182 -51.5
q-101 0 -178 49t-111 135h-12q-29 -79 -96.5 -131.5t-140.5 -52.5q-82 0 -136.5 63t-54.5 158v98q0 118 99 191.5t303 107.5zM657 856v-315h215v313q0 56 -30 94.5t-74 38.5q-46 0 -78.5 -38.5t-32.5 -92.5zM330 74q36 0 74.5 35.5t60.5 87.5q-14 41 -14 88v286
q-106 -27 -151.5 -76.5t-45.5 -146.5v-155q0 -54 20.5 -86.5t55.5 -32.5z" />
    <glyph glyph-name="uni04D6" unicode="&#x4d6;" horiz-adv-x="667" 
d="M510 1718h29q0 -83 -48 -136.5t-122 -53.5q-75 0 -123.5 53.5t-48.5 136.5h30q0 -44 40 -73t102 -29q61 0 101 29t40 73zM100 1432h518v-50h-305v-626h262v-49h-262v-658h305v-49h-518v1432z" />
    <glyph glyph-name="uni04D7" unicode="&#x4d7;" horiz-adv-x="751" 
d="M522 1354h29q0 -84 -47 -137.5t-121 -53.5q-75 0 -123.5 54t-48.5 137h31q0 -44 40 -73.5t101 -29.5q62 0 100.5 28.5t38.5 74.5zM70 729q0 124 92.5 213.5t218.5 89.5q128 0 222.5 -90t94.5 -211v-237h-422v-314q0 -65 43.5 -107t110.5 -42q70 0 133 46t92 118l45 -17
q-41 -92 -121 -144t-180 -52q-137 0 -233 88.5t-96 214.5v444zM276 541h216v309q0 60 -30.5 98.5t-76.5 38.5t-77.5 -39.5t-31.5 -97.5v-309z" />
    <glyph glyph-name="uni04D8" unicode="&#x4d8;" horiz-adv-x="907" 
d="M88 729h520v438q0 226 -182 226q-86 0 -154 -46t-100 -124l-47 20q40 98 126 152.5t202 54.5q170 0 269 -111.5t99 -300.5v-663q0 -175 -102 -284t-266 -109q-163 0 -264 108t-101 285v354zM608 254v426h-307v-426q0 -107 40 -164t112 -57q74 0 114.5 57.5t40.5 163.5z
" />
    <glyph glyph-name="uni04D9" unicode="&#x4d9;" horiz-adv-x="770" 
d="M700 285q0 -123 -92 -213t-219 -90q-128 0 -222.5 90t-94.5 213v235h422v314q0 65 -43.5 107t-110.5 42q-72 0 -134 -45t-91 -119l-43 17q40 93 118.5 144.5t180.5 51.5q138 0 233.5 -87.5t95.5 -213.5v-446zM279 475v-311q0 -58 30 -96.5t76 -38.5t77.5 39t31.5 96v311
h-215z" />
    <glyph glyph-name="uni04DA" unicode="&#x4da;" horiz-adv-x="907" 
d="M244 1624q0 35 24.5 58.5t59.5 23.5t59.5 -23.5t24.5 -58.5t-24.5 -58.5t-59.5 -23.5t-59.5 23.5t-24.5 58.5zM498 1624q0 35 25 58.5t59 23.5q37 0 60.5 -23.5t23.5 -58.5t-23.5 -58.5t-60.5 -23.5q-34 0 -59 23.5t-25 58.5zM88 729h520v438q0 226 -182 226
q-86 0 -153.5 -45.5t-100.5 -122.5l-47 18q40 99 126 153t202 54q170 0 269 -110.5t99 -301.5v-663q0 -175 -102 -284t-266 -109q-163 0 -264 108t-101 285v354zM608 254v426h-307v-426q0 -107 40 -164t112 -57q74 0 114.5 57.5t40.5 163.5z" />
    <glyph glyph-name="uni04DB" unicode="&#x4db;" horiz-adv-x="770" 
d="M170 1260q0 35 24 58t58 23q37 0 61.5 -23t24.5 -58t-24.5 -58.5t-61.5 -23.5q-34 0 -58 23.5t-24 58.5zM424 1260q0 35 24 58t60 23t60 -23t24 -58t-24.5 -58.5t-59.5 -23.5t-59.5 23.5t-24.5 58.5zM700 285q0 -124 -91.5 -213.5t-219.5 -89.5t-222.5 90t-94.5 213v235
h422v314q0 65 -43.5 107t-110.5 42q-72 0 -134 -45t-91 -119l-43 17q40 92 119 144t180 52q138 0 233.5 -87.5t95.5 -213.5v-446zM279 473v-309q0 -60 30 -97.5t76 -37.5t77.5 39t31.5 96v309h-215z" />
    <glyph glyph-name="uni04DC" unicode="&#x4dc;" horiz-adv-x="1300" 
d="M438 1624q0 35 23.5 58.5t58.5 23.5q36 0 61 -23.5t25 -58.5t-25 -58.5t-61 -23.5q-35 0 -58.5 23.5t-23.5 58.5zM692 1624q0 35 24 58.5t58 23.5q37 0 60.5 -23.5t23.5 -58.5t-23.5 -58.5t-60.5 -23.5q-34 0 -58 23.5t-24 58.5zM1309 0h-219l-224 618q-22 63 -46.5 86
t-59.5 25h-4v-729h-213v729h-2q-36 -2 -60.5 -23.5t-46.5 -84.5l-223 -621h-221l219 573q39 105 89.5 152t125.5 53l-342 654h59l342 -654h60v654h213v-654h61l340 654h62l-342 -654q75 -6 124.5 -52.5t90.5 -152.5z" />
    <glyph glyph-name="uni04DD" unicode="&#x4dd;" horiz-adv-x="1073" 
d="M326 1260q0 35 23.5 58t58.5 23q36 0 61 -23t25 -58t-25 -58.5t-61 -23.5q-35 0 -58.5 23.5t-23.5 58.5zM580 1260q0 35 24 58t58 23q37 0 60 -23t23 -58q0 -36 -23.5 -59t-59.5 -23q-34 0 -58 23.5t-24 58.5zM877 0l-168 451q-18 59 -68 59h-6v-510h-199v510h-6
q-50 0 -68 -59l-165 -451h-207l162 414q24 67 77.5 102t108.5 39l-244 459h56l243 -457h43v457h199v-457h43l244 457h57l-246 -459q55 -3 109.5 -39t77.5 -102l161 -414h-204z" />
    <glyph glyph-name="uni04DE" unicode="&#x4de;" horiz-adv-x="925" 
d="M276 1624q0 35 24 58.5t58 23.5q36 0 61 -23.5t25 -58.5t-24.5 -58.5t-61.5 -23.5q-35 0 -58.5 23.5t-23.5 58.5zM530 1624q0 35 24 58.5t58 23.5q37 0 61.5 -23.5t24.5 -58.5t-24.5 -58.5t-59.5 -23.5t-59.5 23.5t-24.5 58.5zM432 -18q-198 0 -346 90l29 43
q134 -76 264 -76q131 0 210 81.5t79 221.5v102q0 127 -67 200t-179 73h-45v49h45q103 0 163 71.5t60 200.5v72q0 126 -68.5 201t-175.5 75q-127 0 -243 -96l-35 37q57 58 145.5 90.5t190.5 32.5q175 0 286 -92.5t111 -245.5v-63q0 -135 -73 -210.5t-208 -86.5l-38 -2v-15
l38 -4q145 -14 224.5 -91t79.5 -212v-80q0 -169 -122.5 -267.5t-324.5 -98.5z" />
    <glyph glyph-name="uni04DF" unicode="&#x4df;" horiz-adv-x="684" 
d="M94 1260q0 35 23.5 58t58.5 23q36 0 60 -23t24 -58t-24.5 -58.5t-59.5 -23.5t-58.5 23.5t-23.5 58.5zM346 1260q0 35 25 58t59 23q36 0 60 -23t24 -58t-24.5 -58.5t-59.5 -23.5q-34 0 -59 23.5t-25 58.5zM262 -18q-154 0 -258 63l25 41q88 -51 182 -51q92 0 147.5 54.5
t55.5 150.5v61q0 97 -45.5 150t-126.5 55h-33l2 47h31q157 0 157 201v41q0 88 -44.5 137t-121.5 49q-97 0 -174 -68l-30 33q85 88 254 88q146 0 231.5 -68t85.5 -188v-30q0 -87 -71 -143.5t-181 -65.5l-33 -2v-15l33 -2q119 -9 191.5 -70.5t72.5 -158.5v-49
q0 -122 -94.5 -191t-255.5 -69z" />
    <glyph glyph-name="uni04E0" unicode="&#x4e0;" horiz-adv-x="841" 
d="M391 -35q-177 0 -305 88l27 41q118 -71 231 -71q238 0 238 339v17q0 169 -57.5 239t-194.5 70v49l297 514h-516v183h665v-50l-387 -649q202 -3 304 -88t102 -266v-29q0 -181 -109.5 -284t-294.5 -103z" />
    <glyph glyph-name="uni04E1" unicode="&#x4e1;" horiz-adv-x="702" 
d="M274 -358q-162 0 -270 82l25 38q98 -67 200 -67q101 0 149 74.5t48 240.5v19q0 159 -52.5 230t-156.5 71v47l262 471h-452v166h589v-47l-340 -588q95 0 165 -26.5t111.5 -75t61 -110.5t19.5 -138v-25q0 -169 -97.5 -265.5t-261.5 -96.5z" />
    <glyph glyph-name="uni04E2" unicode="&#x4e2;" horiz-adv-x="804" 
d="M561 1653v-49h-360v49h360zM498 1432h219v-1432h-51v1190l6 82h-17l-24 -82l-447 -1190h-96v1432h51v-881l-6 -82h17l24 82z" />
    <glyph glyph-name="uni04E3" unicode="&#x4e3;" horiz-adv-x="712" 
d="M535 1286v-49h-361v49h361zM444 1014h199v-1014h-47v834l6 59l-12 2l-25 -59l-399 -836h-86v1014h47v-615l-4 -59l14 -2l21 59z" />
    <glyph glyph-name="uni04E4" unicode="&#x4e4;" horiz-adv-x="804" 
d="M170 1626q0 34 24 57t58 23q37 0 61.5 -23t24.5 -57q0 -37 -24.5 -60.5t-61.5 -23.5q-34 0 -58 24t-24 60zM424 1626q0 34 24.5 57t59.5 23t59.5 -23t24.5 -57q0 -36 -24 -60t-60 -24t-60 24t-24 60zM498 1432h219v-1432h-51v1190l6 82h-17l-24 -82l-447 -1190h-96v1432
h51v-881l-6 -82h17l24 82z" />
    <glyph glyph-name="uni04E5" unicode="&#x4e5;" horiz-adv-x="712" 
d="M143 1260q0 35 24 58t58 23q37 0 61.5 -23t24.5 -58t-24.5 -58.5t-61.5 -23.5q-34 0 -58 23.5t-24 58.5zM397 1260q0 35 25 58t59 23q37 0 60.5 -23t23.5 -58t-23.5 -58.5t-60.5 -23.5q-34 0 -59 23.5t-25 58.5zM444 1014h199v-1014h-47v834l6 59l-12 2l-25 -59
l-399 -836h-86v1014h47v-615l-4 -59l14 -2l21 59z" />
    <glyph glyph-name="uni04E6" unicode="&#x4e6;" horiz-adv-x="907" 
d="M244 1624q0 35 24.5 58.5t59.5 23.5t59.5 -23.5t24.5 -58.5t-24.5 -58.5t-59.5 -23.5t-59.5 23.5t-24.5 58.5zM498 1624q0 35 25 58.5t59 23.5q37 0 60.5 -23.5t23.5 -58.5t-23.5 -58.5t-60.5 -23.5q-34 0 -59 23.5t-25 58.5zM88 389v670q0 173 102.5 282t266.5 109
t264 -108t100 -283v-670q0 -183 -101 -295t-265 -112t-265.5 112t-101.5 295zM301 1178v-924q0 -107 40 -165t114 -58t113.5 58t39.5 165v924q0 108 -39.5 165.5t-111.5 57.5q-74 0 -115 -58.5t-41 -164.5z" />
    <glyph glyph-name="uni04E7" unicode="&#x4e7;" horiz-adv-x="765" 
d="M166 1260q0 35 24 58t60 23t61 -23t25 -58t-25 -58.5t-61 -23.5q-35 0 -59.5 23.5t-24.5 58.5zM422 1260q0 35 24 58t58 23q36 0 60 -23t24 -58t-23.5 -58.5t-60.5 -23.5q-34 0 -58 23.5t-24 58.5zM381 1032q128 0 222.5 -90t94.5 -211v-450q0 -123 -91.5 -211
t-217.5 -88q-128 0 -223.5 89.5t-95.5 209.5v450q0 123 92.5 212t218.5 89zM387 985q-47 0 -79 -38.5t-32 -96.5v-688q0 -59 31 -96t80 -37q47 0 76 36.5t29 96.5v688q0 60 -29.5 97.5t-75.5 37.5z" />
    <glyph glyph-name="uni04E8" unicode="&#x4e8;" horiz-adv-x="907" 
d="M88 389v668q0 175 102.5 284t266.5 109t264 -108t100 -285v-668q0 -183 -101 -295t-265 -112t-265.5 112t-101.5 295zM301 1178v-437h307v437q0 108 -39.5 165.5t-111.5 57.5q-74 0 -115 -58.5t-41 -164.5zM301 692v-438q0 -107 40 -165t114 -58t113.5 58t39.5 165v438
h-307z" />
    <glyph glyph-name="uni04E9" unicode="&#x4e9;" horiz-adv-x="765" 
d="M381 1030q127 0 222 -89.5t95 -209.5v-450q0 -123 -91.5 -211t-217.5 -88q-128 0 -223.5 89t-95.5 210v450q0 121 92.5 210t218.5 89zM387 985q-47 0 -79 -39.5t-32 -97.5v-318h216v318q0 60 -29.5 98.5t-75.5 38.5zM492 481h-216v-319q0 -59 31 -97t80 -38q47 0 76 37.5
t29 97.5v319z" />
    <glyph glyph-name="uni04EA" unicode="&#x4ea;" horiz-adv-x="907" 
d="M244 1624q0 35 24.5 58.5t59.5 23.5t59.5 -23.5t24.5 -58.5t-24.5 -58.5t-59.5 -23.5t-59.5 23.5t-24.5 58.5zM498 1624q0 35 25 58.5t59 23.5q37 0 60.5 -23.5t23.5 -58.5t-23.5 -58.5t-60.5 -23.5q-34 0 -59 23.5t-25 58.5zM88 389v668q0 175 102.5 284t266.5 109
t264 -108t100 -285v-668q0 -183 -101 -295t-265 -112t-265.5 112t-101.5 295zM301 1178v-437h307v437q0 108 -39.5 165.5t-111.5 57.5q-74 0 -115 -58.5t-41 -164.5zM301 692v-438q0 -107 40 -165t114 -58t113.5 58t39.5 165v438h-307z" />
    <glyph glyph-name="uni04EB" unicode="&#x4eb;" horiz-adv-x="765" 
d="M166 1260q0 35 24 58t60 23t61 -23t25 -58t-25 -58.5t-61 -23.5q-35 0 -59.5 23.5t-24.5 58.5zM422 1260q0 35 24 58t58 23q36 0 60 -23t24 -58t-23.5 -58.5t-60.5 -23.5q-34 0 -58 23.5t-24 58.5zM381 1032q128 0 222.5 -90t94.5 -211v-450q0 -123 -91.5 -211
t-217.5 -88q-128 0 -223.5 89t-95.5 210v450q0 122 92.5 211.5t218.5 89.5zM387 985q-48 0 -79.5 -38.5t-31.5 -98.5v-318h216v318q0 61 -29.5 99t-75.5 38zM492 481h-216v-319q0 -59 31 -97t80 -38q47 0 76 37.5t29 97.5v319z" />
    <glyph glyph-name="uni04EC" unicode="&#x4ec;" horiz-adv-x="774" 
d="M137 1624q0 35 24.5 58.5t59.5 23.5t59.5 -23.5t24.5 -58.5t-24.5 -58.5t-59.5 -23.5t-59.5 23.5t-24.5 58.5zM391 1624q0 35 25 58.5t59 23.5q35 0 59.5 -23.5t24.5 -58.5t-23.5 -58.5t-60.5 -23.5q-35 0 -59.5 23.5t-24.5 58.5zM686 393q0 -189 -99.5 -300t-269.5 -111
q-116 0 -201.5 54t-125.5 152l47 21q32 -78 100 -123t154 -45q182 0 182 223v428h-321v49h321v437q0 103 -48 159t-138 56q-116 0 -213 -97l-35 33q109 121 283 121q167 0 265.5 -107.5t98.5 -289.5v-660z" />
    <glyph glyph-name="uni04ED" unicode="&#x4ed;" horiz-adv-x="684" 
d="M94 1260q0 35 24 58t60 23t60 -23t24 -58t-24.5 -58.5t-59.5 -23.5t-59.5 23.5t-24.5 58.5zM348 1260q0 35 25 58t59 23q37 0 60.5 -23t23.5 -58t-23.5 -58.5t-60.5 -23.5q-34 0 -59 23.5t-25 58.5zM616 717v-418q0 -137 -92 -227t-231 -90q-97 0 -174 45t-115 123l41 20
q28 -59 88 -97t125 -38q68 0 110 44.5t42 117.5v286h-265v47h265v301q0 69 -36.5 109.5t-99.5 40.5q-49 0 -101.5 -23.5t-86.5 -60.5l-35 31q45 49 113 76.5t141 27.5q133 0 222 -90t89 -225z" />
    <glyph glyph-name="uni04EE" unicode="&#x4ee;" horiz-adv-x="546" 
d="M479 1651v-49h-360v49h360zM209 1432l135 -631l12 -82h15l12 82l119 631l53 -2l-254 -1299q-13 -71 -56 -108t-108 -37q-19 0 -59 8l12 51q27 -6 51 -6q89 0 109 102l12 66l-272 1225h219z" />
    <glyph glyph-name="uni04EF" unicode="&#x4ef;" horiz-adv-x="661" 
d="M557 1288v-49h-360v49h360zM27 1014h209l163 -598l11 -60h14l10 60l150 598h51l-313 -1229q-35 -143 -164 -143q-20 0 -60 8l13 45q66 -13 104.5 9.5t56.5 92.5l47 178z" />
    <glyph glyph-name="uni04F0" unicode="&#x4f0;" horiz-adv-x="546" 
d="M88 1624q0 35 24 58.5t58 23.5q37 0 61.5 -23.5t24.5 -58.5t-24.5 -58.5t-61.5 -23.5q-34 0 -58 23.5t-24 58.5zM342 1624q0 35 24.5 58.5t59.5 23.5t59.5 -23.5t24.5 -58.5t-24.5 -58.5t-59.5 -23.5t-59.5 23.5t-24.5 58.5zM209 1432l135 -631l12 -82h15l12 82l119 631
h53l-254 -1301q-13 -71 -56 -108t-108 -37q-19 0 -59 8l12 51q27 -6 51 -6q89 0 109 102l12 66l-272 1225h219z" />
    <glyph glyph-name="uni04F1" unicode="&#x4f1;" horiz-adv-x="661" 
d="M164 1260q0 35 24 58t58 23q37 0 61.5 -23t24.5 -58t-24.5 -58.5t-61.5 -23.5q-34 0 -58 23.5t-24 58.5zM418 1260q0 35 24 58t60 23t60 -23t24 -58t-24.5 -58.5t-59.5 -23.5t-59.5 23.5t-24.5 58.5zM27 1014h209l163 -598l11 -60h14l10 60l150 598h51l-313 -1229
q-35 -143 -164 -143q-20 0 -60 8l13 45q66 -13 104.5 9.5t56.5 92.5l47 178z" />
    <glyph glyph-name="uni04F2" unicode="&#x4f2;" horiz-adv-x="546" 
d="M424 1518h-39l61 229h142zM209 1518h-39l61 229h142zM209 1432l135 -631l12 -82h15l12 82l119 631l53 -2l-254 -1299q-13 -71 -56 -108t-108 -37q-19 0 -59 8l12 51q27 -6 51 -6q89 0 109 102l12 66l-272 1225h219z" />
    <glyph glyph-name="uni04F3" unicode="&#x4f3;" horiz-adv-x="661" 
d="M500 1153h-39l61 229h142zM285 1153h-39l61 229h142zM27 1014h209l163 -598l11 -60h14l10 60l150 598h51l-313 -1229q-35 -143 -164 -143q-20 0 -60 8l13 45q66 -13 104.5 9.5t56.5 92.5l47 178z" />
    <glyph glyph-name="uni04F4" unicode="&#x4f4;" horiz-adv-x="878" 
d="M225 1624q0 35 24.5 58.5t59.5 23.5q36 0 61 -23.5t25 -58.5t-25 -58.5t-61 -23.5q-35 0 -59.5 23.5t-24.5 58.5zM481 1624q0 35 24 58.5t58 23.5q35 0 59.5 -23.5t24.5 -58.5t-23.5 -58.5t-60.5 -23.5q-34 0 -58 23.5t-24 58.5zM561 565q-71 -166 -227 -166
q-103 0 -168.5 66t-65.5 178v789h213v-850q0 -125 78 -125q61 0 117.5 73t56.5 150v752h213v-1432h-213v502l10 59z" />
    <glyph glyph-name="uni04F5" unicode="&#x4f5;" horiz-adv-x="737" 
d="M160 1260q0 35 23.5 58t58.5 23q36 0 60 -23t24 -58t-24.5 -58.5t-59.5 -23.5t-58.5 23.5t-23.5 58.5zM412 1260q0 35 25 58t59 23q36 0 60 -23t24 -58t-24.5 -58.5t-59.5 -23.5t-59.5 23.5t-24.5 58.5zM467 403q-31 -63 -72.5 -91.5t-103.5 -28.5q-98 0 -160.5 62
t-62.5 165v504h198v-582q0 -98 60 -98q52 0 96.5 52t44.5 108v520h201v-1014h-201v338l12 59z" />
    <glyph glyph-name="uni04F6" unicode="&#x4f6;" horiz-adv-x="593" 
d="M100 0v1432h504v-50h-291v-1331h148v-274h-127v223h-234z" />
    <glyph glyph-name="uni04F7" unicode="&#x4f7;" horiz-adv-x="548" 
d="M80 0v1014h450v-47h-249v-920h147v-270h-127v223h-221z" />
    <glyph glyph-name="uni04F8" unicode="&#x4f8;" horiz-adv-x="1220" 
d="M397 1624q0 35 24.5 58.5t59.5 23.5q36 0 61 -23.5t25 -58.5t-25 -58.5t-61 -23.5q-35 0 -59.5 23.5t-24.5 58.5zM653 1624q0 35 24 58.5t58 23.5q37 0 60.5 -23.5t23.5 -58.5t-23.5 -58.5t-60.5 -23.5q-34 0 -58 23.5t-24 58.5zM313 805h125q149 0 248.5 -98.5
t99.5 -247.5v-121q0 -140 -91 -239t-220 -99h-375v1432h213v-627zM907 1432h213v-1432h-213v1432zM573 301v195q0 260 -149 260h-111v-705h125q71 0 103 57.5t32 192.5z" />
    <glyph glyph-name="uni04F9" unicode="&#x4f9;" horiz-adv-x="1058" 
d="M319 1260q0 35 23.5 58t58.5 23q36 0 61 -23t25 -58t-25 -58.5t-61 -23.5q-35 0 -58.5 23.5t-23.5 58.5zM573 1260q0 35 24 58t58 23q37 0 61.5 -23t24.5 -58t-24.5 -58.5t-61.5 -23.5q-34 0 -58 23.5t-24 58.5zM281 569h139q108 0 187 -70.5t79 -174.5v-86
q0 -97 -79.5 -167.5t-184.5 -70.5h-342v1014h201v-445zM788 1014h201v-1014h-201v1014zM485 227v109q0 186 -104 186h-100v-475h110q50 0 72 41t22 139z" />
    <glyph glyph-name="uni0500" unicode="&#x500;" horiz-adv-x="872" 
d="M434 805h125v627h213v-1432h-373q-129 0 -220 99t-91 239v121q0 149 99 247.5t247 98.5zM301 496v-195q0 -135 32 -192.5t103 -57.5h123v705h-108q-150 0 -150 -260z" />
    <glyph glyph-name="uni0501" unicode="&#x501;" 
d="M483 53l9 60l-13 4q-50 -135 -162 -135q-100 0 -173.5 82t-73.5 196v475q0 120 78 208.5t182 88.5q56 0 91.5 -29t57.5 -92l15 4l-11 60v457h199v-1432h-199v53zM483 801q0 68 -37.5 124t-83.5 56q-37 0 -61.5 -35t-24.5 -88v-684q0 -52 26 -87.5t63 -35.5q44 0 81 53.5
t37 118.5v578z" />
    <glyph glyph-name="uni0502" unicode="&#x502;" horiz-adv-x="1275" 
d="M434 805h125v627h213v-1383h92q64 1 87.5 40.5t23.5 131.5v584h213v-590q0 -95 -74 -155t-205 -60h-510q-129 0 -220 99t-91 239v121q0 149 99 247.5t247 98.5zM301 494v-189q0 -138 32 -196t103 -58h123v705h-108q-150 0 -150 -262z" />
    <glyph glyph-name="uni0503" unicode="&#x503;" horiz-adv-x="1120" 
d="M1053 211q0 -109 -84 -169t-199 -60q-92 0 -164.5 41t-97.5 120h-16q-17 -81 -62.5 -121t-110.5 -40q-100 0 -174.5 82t-74.5 194v479q0 119 78.5 207t181.5 88q107 0 149 -121l13 4l-9 60v457h199v-1270q0 -142 82 -142t82 142v471h207v-422zM365 31q44 0 81 53.5
t37 116.5v610q0 67 -37.5 121.5t-83.5 54.5q-37 0 -61.5 -35t-24.5 -86v-710q0 -52 26 -88.5t63 -36.5z" />
    <glyph glyph-name="uni0504" unicode="&#x504;" horiz-adv-x="1095" 
d="M707 -18q-297 0 -297 274v260q0 98 -61 149.5t-204 51.5v49q139 0 192.5 53t53.5 166v156q0 115 -47 180t-129 65q-95 0 -190 -92l-35 35q49 58 120.5 89.5t153.5 31.5q146 0 240 -92.5t94 -235.5v-100q0 -117 -59.5 -186t-167.5 -80l-58 -6v-17l58 -6q115 -12 179 -83.5
t64 -186.5v-301q0 -64 22.5 -93.5t72.5 -29.5q48 0 70 29.5t22 93.5v649h207v-549q0 -274 -301 -274z" />
    <glyph glyph-name="uni0505" unicode="&#x505;" horiz-adv-x="929" 
d="M590 -18q-123 0 -197 50.5t-74 143.5v176q0 35 -7 59t-27 44t-59.5 29.5t-100.5 9.5v47q59 0 95.5 9.5t54 31t23 46t5.5 66.5v113q0 83 -32.5 125.5t-92.5 42.5q-77 0 -143 -66l-33 35q84 84 217 84q119 0 201 -64.5t82 -164.5v-84q0 -76 -51 -127t-138 -58l-49 -4v-16
l49 -4q93 -9 148 -63t55 -136v-190q0 -86 76 -86q70 0 70 86v448h198v-389q0 -93 -74 -143.5t-196 -50.5z" />
    <glyph glyph-name="uni0506" unicode="&#x506;" horiz-adv-x="745" 
d="M410 0v516q0 98 -61 149.5t-204 51.5v49q139 0 192.5 53t53.5 166v156q0 115 -47 180t-129 65q-95 0 -190 -92l-35 35q49 58 120.5 89.5t153.5 31.5q146 0 240 -92.5t94 -235.5v-100q0 -117 -59.5 -186t-167.5 -80l-58 -6v-17l58 -6q115 -12 179 -83.5t64 -186.5v-406
h148v-272h-127v221h-225z" />
    <glyph glyph-name="uni0507" unicode="&#x507;" horiz-adv-x="632" 
d="M516 2l-197 -2v352q0 35 -7 59t-27 44t-59.5 29.5t-100.5 9.5v47q59 0 95.5 9.5t54 31t23 46t5.5 66.5v113q0 83 -32.5 125.5t-92.5 42.5q-77 0 -143 -66l-33 35q84 84 217 84q119 0 201 -64.5t82 -164.5v-84q0 -76 -51 -127t-138 -58l-49 -4v-16l49 -4q93 -9 148 -63
t55 -136v-258h146v-270h-127v223h-19z" />
    <glyph glyph-name="uni0508" unicode="&#x508;" horiz-adv-x="1458" 
d="M-10 25l20 47q54 -31 103 -31q55 0 83.5 55.5t32.5 192.5l37 1143h711l2 -1276q0 -64 22.5 -94.5t69.5 -30.5t69.5 30.5t22.5 94.5v649h207v-549q0 -274 -301 -274q-149 0 -226 69.5t-77 204.5v1126h-287l-37 -936q-9 -231 -86 -347.5t-206 -116.5q-84 0 -160 43z" />
    <glyph glyph-name="uni0509" unicode="&#x509;" horiz-adv-x="1202" 
d="M4 12l19 43q35 -18 67 -18q42 0 60.5 44.5t23.5 149.5l41 783h573v-897q0 -88 76 -88q70 0 70 88v446h199v-389q0 -93 -74.5 -142.5t-196.5 -49.5q-123 0 -197.5 50t-74.5 144v791h-176l-37 -684q-7 -139 -86 -220t-176 -81q-59 0 -111 30z" />
    <glyph glyph-name="uni050A" unicode="&#x50a;" horiz-adv-x="1298" 
d="M100 1432h213v-693h295v693h213v-1276q0 -64 22 -93.5t70 -29.5t70.5 29.5t22.5 93.5v649h206v-549q0 -274 -301 -274q-149 0 -226 69.5t-77 204.5v434h-295v-690h-213v1432z" />
    <glyph glyph-name="uni050B" unicode="&#x50b;" horiz-adv-x="1122" 
d="M80 1014h199v-484h229v484h201v-899q0 -86 75 -86q70 0 70 86v448h199v-389q0 -93 -74.5 -143.5t-196.5 -50.5t-198 50.5t-76 143.5v309h-229v-485h-199v1016z" />
    <glyph glyph-name="uni050C" unicode="&#x50c;" horiz-adv-x="878" 
d="M88 1055q0 183 100 289t275 106q188 0 295 -119l-35 -35q-42 43 -100 68t-119 25q-94 0 -148.5 -56.5t-54.5 -154.5v-924q0 -107 40.5 -165t115.5 -58q72 0 109.5 57t37.5 166v418h-160v49h357v-332q0 -187 -92 -297t-254 -110q-166 0 -266.5 111t-100.5 298v664z" />
    <glyph glyph-name="uni050D" unicode="&#x50d;" horiz-adv-x="765" 
d="M385 522h313v-241q0 -122 -91.5 -210.5t-217.5 -88.5q-128 0 -223.5 89.5t-95.5 209.5v436q0 135 89 225t222 90q72 0 139 -27t115 -75l-35 -33q-35 38 -87.5 61t-100.5 23q-63 0 -99.5 -40.5t-36.5 -109.5v-667q0 -59 31 -97t80 -38q47 0 76 37t29 98v311h-107v47z" />
    <glyph glyph-name="uni050E" unicode="&#x50e;" horiz-adv-x="935" 
d="M713 1432v-50h-254v-1226q0 -64 22.5 -94.5t69.5 -30.5t69.5 30.5t22.5 94.5v649h207v-549q0 -274 -301 -274q-149 0 -226 69.5t-77 204.5v1126h-256v50h723z" />
    <glyph glyph-name="uni050F" unicode="&#x50f;" horiz-adv-x="843" 
d="M633 1014v-47h-203v-850q0 -88 74 -88q37 0 54 21t17 67v446h199v-389q0 -93 -74 -142.5t-196 -49.5q-124 0 -199.5 49.5t-75.5 142.5v793h-200v47h604z" />
    <glyph glyph-name="uni0510" unicode="&#x510;" horiz-adv-x="884" 
d="M535 -18q-202 0 -324.5 98.5t-122.5 267.5v80q0 135 79 212t224 91l39 4v15l-39 2q-135 11 -207.5 86.5t-72.5 210.5v63q0 153 111 245.5t286 92.5q102 0 190.5 -32.5t145.5 -90.5l-35 -37q-116 96 -244 96q-107 0 -175 -75t-68 -201v-72q0 -129 60 -200.5t163 -71.5h45
v-49h-45q-112 0 -179 -73t-67 -200v-102q0 -140 79.5 -221.5t211.5 -81.5q128 0 262 76l29 -43q-148 -90 -346 -90z" />
    <glyph glyph-name="uni0511" unicode="&#x511;" horiz-adv-x="661" 
d="M422 -18q-163 0 -257.5 69t-94.5 191v49q0 97 74 158.5t194 70.5l31 2v15l-31 2q-113 9 -183.5 65.5t-70.5 143.5v30q0 121 85 188.5t232 67.5q169 0 254 -88l-30 -33q-77 68 -174 68q-77 0 -121.5 -49t-44.5 -137v-41q0 -201 157 -201h33v-47h-33q-81 -2 -127.5 -55
t-46.5 -150v-61q0 -95 56.5 -150t150.5 -55q92 0 180 51l25 -41q-104 -63 -258 -63z" />
    <glyph glyph-name="uni0512" unicode="&#x512;" horiz-adv-x="1077" 
d="M-10 25l20 47q54 -31 103 -31q55 0 83.5 55.5t32.5 192.5l37 1143h713l-2 -1434q0 -175 -91.5 -264.5t-271.5 -89.5v49q41 1 69 12.5t44.5 30.5t25 56t11 75.5t2.5 101.5v1413h-287l-37 -936q-9 -231 -86 -347.5t-206 -116.5q-84 0 -160 43z" />
    <glyph glyph-name="uni0513" unicode="&#x513;" horiz-adv-x="866" 
d="M4 12l19 43q35 -18 67 -18q42 0 60.5 44.5t23.5 149.5l41 783h573v-979q0 -391 -315 -391v47q73 0 95 67.5t22 243.5v965h-176l-37 -684q-7 -139 -86 -220t-176 -81q-59 0 -111 30z" />
    <glyph glyph-name="uni0514" unicode="&#x514;" horiz-adv-x="1374" 
d="M-10 27l20 45q54 -31 103 -31q55 0 83.5 55.5t32.5 192.5l39 1143h625l158 -461l22 -80h14l27 80l178 461h58l-242 -623l278 -809h-223l-184 537l-23 77h-14l-24 -77l-209 -537h-58l273 696l-238 686h-207l-37 -933q-9 -232 -86.5 -349.5t-205.5 -117.5q-81 0 -160 45z
" />
    <glyph glyph-name="uni0515" unicode="&#x515;" horiz-adv-x="1253" 
d="M4 12l19 43q38 -20 67 -20q42 0 60.5 44.5t23.5 149.5l41 785h412l139 -2l135 -301l21 -56h14l18 56l133 301h54l-185 -418l271 -594h-209l-182 401l-21 58h-14l-19 -58l-178 -401h-55l231 522l-202 445h-164l-37 -686q-7 -138 -86 -218.5t-176 -80.5q-59 0 -111 30z" />
    <glyph glyph-name="uni0516" unicode="&#x516;" horiz-adv-x="1134" 
d="M100 1432h349q141 0 235 -98t94 -238v-86l219 422h58l-264 -517l354 -915h-221l-273 737q-83 -67 -198 -67h-140v-670h-213v1432zM565 981v139q0 136 -33.5 199t-105.5 63h-113v-663h121q70 0 100.5 62.5t30.5 199.5z" />
    <glyph glyph-name="uni0517" unicode="&#x517;" horiz-adv-x="1101" 
d="M285 961l-9 -60l13 -4q50 135 162 135q100 0 173.5 -82t73.5 -196v-58l242 318h59l-217 -285l328 -729h-207l-205 494v-215q0 -120 -77 -208.5t-183 -88.5q-108 0 -149 120l-13 -4l9 -59v-383h-199v1358h199v-53zM285 215q0 -69 38 -124.5t85 -55.5q37 0 61.5 34.5
t24.5 88.5v682q0 52 -25.5 87.5t-62.5 35.5q-46 0 -83.5 -53.5t-37.5 -118.5v-576z" />
    <glyph glyph-name="uni0518" unicode="&#x518;" horiz-adv-x="1161" 
d="M88 0l121 516q18 72 80 126t137 58v15q-129 12 -212 105.5t-83 226.5v49q0 140 94.5 238t235.5 98h651v-50h-303v-626h260v-49h-260v-658h303v-49h-516v690h-55q-49 0 -69.5 -27.5t-39.5 -117.5l-125 -545h-219zM344 1001q0 -136 30.5 -199t98.5 -63h123v643h-113
q-73 0 -106 -62.5t-33 -199.5v-119z" />
    <glyph glyph-name="uni0519" unicode="&#x519;" horiz-adv-x="1163" 
d="M68 0l86 375q12 54 62 91t116 38v14q-108 7 -171 73t-63 161v24q0 100 67 169t169 69h354q50 18 107 18q128 0 222.5 -90t94.5 -213v-235h-424v-314q0 -64 44 -106.5t110 -42.5q72 0 135 46t92 118l43 -17q-40 -92 -120 -144t-181 -52q-137 0 -233.5 88.5t-96.5 214.5
v209h-45q-34 0 -48.5 -21t-29.5 -94l-86 -379h-204zM688 541h217v309q0 60 -30 97.5t-76 37.5t-78.5 -39t-32.5 -96v-309zM481 729q0 70 33 133t88 105h-205q-52 0 -75 -44t-23 -141v-67q0 -91 21.5 -132.5t70.5 -41.5h90v188z" />
    <glyph glyph-name="uni051A" unicode="&#x51a;" horiz-adv-x="907" 
d="M367 -20l26 6l-2 4h-26q-128 26 -202.5 133t-74.5 266v668q0 177 101.5 285t265.5 108t265 -108t101 -285v-668q0 -187 -99 -297t-267 -110q-35 0 -77.5 -20.5t-76.5 -53.5q27 18 74 18q71 0 176 -51l16 -8q69 -35 115 -35q71 0 113 86l24 -14q-35 -72 -93 -112t-128 -40
q-58 0 -137 29l-10 4q-68 29 -127 29q-75 0 -125 -50l-25 15q86 152 193 201zM301 1163v-895q0 -115 39 -176t113 -61q75 0 115 63t40 182v887q0 114 -39.5 176t-111.5 62t-114 -63t-42 -175z" />
    <glyph glyph-name="uni051B" unicode="&#x51b;" 
d="M483 961v53h201v-1358h-201v383l11 59l-15 4q-41 -120 -151 -120q-103 0 -180.5 88.5t-77.5 208.5v475q0 114 73.5 196t173.5 82q112 0 162 -135l13 4zM483 215v576q0 65 -37 118.5t-81 53.5q-38 0 -64.5 -35.5t-26.5 -87.5v-682q0 -54 24.5 -88.5t61.5 -34.5
q47 0 85 55.5t38 124.5z" />
    <glyph glyph-name="uni051C" unicode="&#x51c;" horiz-adv-x="1005" 
d="M594 1432l178 -906l12 -82h15l8 82l156 906h53l-250 -1432h-96l-140 694l-12 82h-14l-8 -82l-123 -694h-97l-286 1432h211l178 -906l12 -82h15l8 82l69 410l-98 496h209z" />
    <glyph glyph-name="uni051D" unicode="&#x51d;" horiz-adv-x="997" 
d="M276 0l-249 1014h206l134 -565l10 -60h14l6 60l76 346l-53 219h209l133 -565l8 -60h14l9 60l127 565h51l-236 -1014h-63l-156 627l-8 59h-14l-9 -59l-143 -627h-66z" />
    <glyph glyph-name="uni051E" unicode="&#x51e;" horiz-adv-x="858" 
d="M866 0h-219l-223 618q-23 64 -47.5 86.5t-59.5 24.5h-4v-729h-213v1432h213v-654h62l198 383l-67 121l31 16l57 -98l121 232h61l-149 -287l71 -125l-32 -19l-60 105l-172 -328q75 -6 124.5 -52.5t88.5 -152.5z" />
    <glyph glyph-name="uni051F" unicode="&#x51f;" horiz-adv-x="716" 
d="M520 0l-168 451q-18 59 -67 59h-6v-510h-199v1014h199v-457h43l137 258l-78 135l31 19l67 -117l86 162h58l-115 -213l65 -111l-32 -18l-54 92l-110 -207q55 -5 109 -40.5t77 -100.5l162 -416h-205z" />
    <glyph glyph-name="uni0520" unicode="&#x520;" horiz-adv-x="1536" 
d="M-10 25l20 45q54 -31 103 -31q55 0 83.5 55.5t32.5 194.5l37 1141h711l2 -621l-23 -51l11 -10q78 47 170 47q132 0 221.5 -90.5t89.5 -223.5v-409q0 -137 -93 -225.5t-239 -88.5v45q54 1 86.5 45.5t32.5 106.5v643q0 68 -36.5 107.5t-100.5 39.5q-56 0 -119 -34v-713
h-213v1382h-287l-37 -934q-9 -231 -86.5 -348.5t-205.5 -117.5q-81 0 -160 45z" />
    <glyph glyph-name="uni0521" unicode="&#x521;" horiz-adv-x="1263" 
d="M4 12l19 43q38 -20 67 -20q42 0 60.5 44.5t23.5 149.5l41 785h571v-451l-20 -53l10 -10q64 37 139 37q127 0 200 -66.5t73 -169.5v-307q0 -106 -77.5 -171t-219.5 -65v37q43 0 66.5 32.5t23.5 80.5v479q0 51 -25.5 80t-76.5 29q-41 0 -93 -25v-471h-198v967h-174
l-37 -686q-7 -138 -86 -218.5t-176 -80.5q-59 0 -111 30z" />
    <glyph glyph-name="uni0522" unicode="&#x522;" horiz-adv-x="1378" 
d="M100 1430h213v-691h293v691h213v-621l-20 -51l10 -10q75 47 168 47q134 0 223.5 -89.5t89.5 -224.5v-407q0 -137 -93 -226.5t-239 -89.5l-2 47q55 0 88 44t33 108v643q0 66 -37 105.5t-100 39.5q-58 0 -121 -34v-711h-213v690h-293v-690h-213v1430z" />
    <glyph glyph-name="uni0523" unicode="&#x523;" horiz-adv-x="1183" 
d="M80 1014h199v-484h229v484h201v-451l-21 -53l10 -10q61 37 140 37q126 0 198 -66.5t72 -169.5v-307q0 -106 -77.5 -171t-219.5 -65v37q43 0 66.5 32.5t23.5 80.5v479q0 51 -25.5 80t-76.5 29q-38 0 -90 -25v-473h-201v485h-229v-485h-199v1016z" />
    <glyph glyph-name="uni0524" unicode="&#x524;" horiz-adv-x="950" 
d="M100 0v1432h721v-1381h148v-274h-127v223h-234v1382h-295v-1382h-213z" />
    <glyph glyph-name="uni0525" unicode="&#x525;" horiz-adv-x="804" 
d="M80 1014h606v-967h148l2 -270h-127v223h-222v967h-208v-967h-199v1014z" />
    <glyph glyph-name="uni0526" unicode="&#x526;" horiz-adv-x="909" 
d="M317 864q70 168 228 168q103 0 168 -66t65 -178v-737h148v-274h-127v223h-232v848q0 127 -80 127q-61 0 -117.5 -74t-56.5 -151v-750h-213v1432h213v-502l-10 -62z" />
    <glyph glyph-name="uni0527" unicode="&#x527;" horiz-adv-x="784" 
d="M686 0h-219v582q0 98 -61 98q-50 0 -95 -53t-45 -109v-518h-200v1014h200v-338l-12 -62l12 -4q31 64 72.5 92.5t103.5 28.5q98 0 161 -63t63 -166v-455h147v-270h-127v223z" />
    <glyph glyph-name="uni0528" unicode="&#x528;" horiz-adv-x="919" 
d="M313 49q0 -127 -69.5 -219t-229.5 -186l-24 30q55 43 82.5 92t27.5 136v1530h213v-693h295v693h213v-1432h-213v690h-295v-641z" />
    <glyph glyph-name="uni0529" unicode="&#x529;" horiz-adv-x="870" 
d="M369 47q0 -127 -65 -219t-220 -186l-25 30q56 45 83.5 94t27.5 136v1112h199v-484h231v484h201v-1016h-201v485h-231v-436z" />
    <glyph glyph-name="uni052A" unicode="&#x52a;" horiz-adv-x="1763" 
d="M41 -309h-51v340h53q64 84 93.5 266t29.5 508v627h545v-654h297v654h213v-654h61l340 654h61l-342 -654q74 -5 125 -52t90 -151l220 -575h-222l-223 621q-22 62 -46.5 84t-59.5 24h-4v-747h-406v-291h-211v291h-563v-291zM94 31h406v1351h-283v-600q0 -601 -123 -751z
M711 31h297v698h-297v-698z" />
    <glyph glyph-name="uni052B" unicode="&#x52b;" horiz-adv-x="1548" 
d="M39 -268h-49v299h65q58 89 84.5 267.5t26.5 489.5v228h502v-459h229v457h201v-457h43l243 459h58l-244 -459q55 -5 108 -41t76 -102l162 -414h-205l-168 451q-18 59 -67 59h-6v-526h-324v-252h-201v252h-534v-252zM104 31h365v938h-256v-203q0 -573 -109 -735zM668 31
h229v479h-229v-479z" />
    <glyph glyph-name="uni052C" unicode="&#x52c;" horiz-adv-x="937" 
d="M297 -309h-51v340h51q81 111 104 383q-12 -2 -34 -2q-118 0 -198.5 60.5t-80.5 170.5v789h213v-785q0 -75 29 -118t78 -52q8 125 8 328v627h426v-1401h104v-340h-211v291h-438v-291zM631 580v802h-164v-600q0 -188 -10 -305q97 9 174 103zM348 31h283v491
q-66 -78 -178 -100q-26 -291 -105 -391z" />
    <glyph glyph-name="uni052D" unicode="&#x52d;" horiz-adv-x="790" 
d="M233 -268h-49v299h64q57 84 80 252q-110 2 -185 71t-75 191v469h200v-537q0 -121 68 -139q20 167 20 448v228h365v-983h108v-299h-200v252h-396v-252zM522 444v523h-116v-203q0 -248 -23 -428q81 10 139 108zM297 31h225v358q-56 -86 -145 -102q-25 -174 -80 -256z" />
    <glyph glyph-name="uni052E" unicode="&#x52e;" horiz-adv-x="1097" 
d="M-10 25l20 47q54 -31 103 -31q55 0 83.5 55.5t32.5 192.5l37 1143h711v-1381h137l2 -274h-127v223h-223v1382h-287l-37 -936q-9 -231 -86 -347.5t-206 -116.5q-84 0 -160 43z" />
    <glyph glyph-name="uni052F" unicode="&#x52f;" horiz-adv-x="897" 
d="M2 12l21 43q35 -18 67 -18q42 0 60.5 44.5t23.5 149.5l41 783h573v-967h138v-270h-127v223h-209v967h-176l-37 -684q-7 -139 -86 -220t-176 -81q-58 0 -113 30z" />
    <glyph glyph-name="Wgrave" unicode="&#x1e80;" horiz-adv-x="1005" 
d="M514 1518h-39l-178 229h156zM594 1432l178 -906l12 -82h15l8 82l156 906h53l-250 -1432h-96l-140 694l-12 82h-14l-8 -82l-123 -694h-97l-286 1432h211l178 -906l12 -82h15l8 82l69 410l-98 496h209z" />
    <glyph glyph-name="wgrave" unicode="&#x1e81;" horiz-adv-x="997" 
d="M547 1153h-37l-178 229h153zM276 0l-249 1014h206l134 -565l10 -60h14l6 60l76 346l-53 219h209l133 -565l8 -60h14l9 60l127 565h51l-236 -1014h-63l-156 627l-8 59h-14l-9 -59l-143 -627h-66z" />
    <glyph glyph-name="Wacute" unicode="&#x1e82;" horiz-adv-x="1005" 
d="M485 1518h-39l62 229h156zM594 1432l178 -906l12 -82h15l8 82l156 906h53l-250 -1432h-96l-140 694l-12 82h-14l-8 -82l-123 -694h-97l-286 1432h211l178 -906l12 -82h15l8 82l69 410l-98 496h209z" />
    <glyph glyph-name="wacute" unicode="&#x1e83;" horiz-adv-x="997" 
d="M520 1153h-39l62 229h155zM276 0l-249 1014h206l134 -565l10 -60h14l6 60l76 346l-53 219h209l133 -565l8 -60h14l9 60l127 565h51l-236 -1014h-63l-156 627l-8 59h-14l-9 -59l-143 -627h-66z" />
    <glyph glyph-name="Wdieresis" unicode="&#x1e84;" horiz-adv-x="1005" 
d="M270 1624q0 35 23.5 58.5t58.5 23.5t59.5 -23.5t24.5 -58.5t-24.5 -58.5t-59.5 -23.5t-58.5 23.5t-23.5 58.5zM524 1624q0 35 24 58.5t58 23.5q37 0 61.5 -23.5t24.5 -58.5t-24.5 -58.5t-61.5 -23.5q-34 0 -58 23.5t-24 58.5zM594 1432l178 -906l12 -82h15l8 82l156 906
h53l-250 -1432h-96l-140 694l-12 82h-14l-8 -82l-123 -694h-97l-286 1432h211l178 -906l12 -82h15l8 82l69 410l-98 496h209z" />
    <glyph glyph-name="wdieresis" unicode="&#x1e85;" horiz-adv-x="997" 
d="M303 1260q0 35 24 58t58 23q37 0 61.5 -23t24.5 -58t-24.5 -58.5t-61.5 -23.5q-34 0 -58 23.5t-24 58.5zM557 1260q0 35 24 58t60 23t60 -23t24 -58t-24.5 -58.5t-59.5 -23.5t-59.5 23.5t-24.5 58.5zM276 0l-249 1014h206l134 -565l10 -60h14l6 60l76 346l-53 219h209
l133 -565l8 -60h14l9 60l127 565h51l-236 -1014h-63l-156 627l-8 59h-14l-9 -59l-143 -627h-66z" />
    <glyph glyph-name="Ygrave" unicode="&#x1ef2;" horiz-adv-x="694" 
d="M422 1518h-39l-178 227h155zM213 1430l201 -594l24 -82h15l18 82l178 594h56l-232 -771v-659h-213v641l-270 789h223z" />
    <glyph glyph-name="ygrave" unicode="&#x1ef3;" horiz-adv-x="659" 
d="M399 1153h-37l-178 229h154zM27 1014h209l159 -600l11 -60h14l10 60l152 600h51l-357 -1372h-53l96 358h-14z" />
    <glyph glyph-name="uni200B" unicode="&#x200b;" horiz-adv-x="2048" 
 />
    <glyph glyph-name="endash" unicode="&#x2013;" horiz-adv-x="921" 
d="M59 664h803v-50h-803v50z" />
    <glyph glyph-name="emdash" unicode="&#x2014;" horiz-adv-x="1300" 
d="M59 664h1182v-50h-1182v50z" />
    <glyph glyph-name="quoteleft" unicode="&#x2018;" horiz-adv-x="354" 
d="M131 1235q28 14 57 14q47 0 78 -32.5t31 -81.5q0 -51 -32.5 -84t-82.5 -33q-58 0 -91.5 45t-33.5 123q0 97 51 163t140 83l10 -35q-69 -20 -102.5 -62.5t-24.5 -99.5z" />
    <glyph glyph-name="quoteright" unicode="&#x2019;" horiz-adv-x="354" 
d="M223 1233q-30 -12 -57 -12q-47 0 -78 31.5t-31 80.5q0 51 32.5 84t82.5 33q58 0 91.5 -45t33.5 -123q0 -96 -51.5 -162.5t-139.5 -81.5l-10 33q69 22 102.5 64.5t24.5 97.5z" />
    <glyph glyph-name="quotesinglbase" unicode="&#x201a;" horiz-adv-x="354" 
d="M223 -4q-28 -14 -57 -14q-47 0 -78 32.5t-31 81.5q0 51 32.5 84t82.5 33q58 0 91.5 -45t33.5 -123q0 -97 -51 -163t-140 -83l-10 35q69 20 102.5 62.5t24.5 99.5z" />
    <glyph glyph-name="quotedblleft" unicode="&#x201c;" horiz-adv-x="677" 
d="M131 1235q28 14 57 14q47 0 78 -32.5t31 -81.5q0 -51 -32.5 -84t-82.5 -33q-58 0 -91.5 45t-33.5 123q0 97 51 163t140 83l10 -35q-69 -20 -102.5 -62.5t-24.5 -99.5zM457 1235q28 14 57 14q47 0 78 -32.5t31 -81.5q0 -51 -32.5 -84t-82.5 -33q-58 0 -91.5 45t-33.5 123
q0 97 50.5 163t139.5 83l11 -35q-69 -20 -102.5 -62.5t-24.5 -99.5z" />
    <glyph glyph-name="quotedblright" unicode="&#x201d;" horiz-adv-x="677" 
d="M223 1233q-30 -12 -57 -12q-47 0 -78 31.5t-31 80.5q0 51 32.5 84t82.5 33q58 0 91.5 -45t33.5 -123q0 -96 -51.5 -162.5t-139.5 -81.5l-10 33q69 22 102.5 64.5t24.5 97.5zM549 1233q-30 -12 -57 -12q-47 0 -78 31.5t-31 80.5q0 51 32.5 84t82.5 33q58 0 91.5 -45
t33.5 -123q0 -96 -51.5 -162.5t-139.5 -81.5l-10 33q69 22 102.5 64.5t24.5 97.5z" />
    <glyph glyph-name="quotedblbase" unicode="&#x201e;" horiz-adv-x="677" 
d="M223 -4q-28 -14 -57 -14q-47 0 -78 32.5t-31 81.5q0 51 32.5 84t82.5 33q58 0 91.5 -45t33.5 -123q0 -97 -51 -163t-140 -83l-10 35q69 20 102.5 62.5t24.5 99.5zM549 -4q-28 -14 -57 -14q-47 0 -78 32.5t-31 81.5q0 51 32.5 84t82.5 33q58 0 91.5 -45t33.5 -123
q0 -97 -51 -163t-140 -83l-10 35q69 20 102.5 62.5t24.5 99.5z" />
    <glyph glyph-name="dagger" unicode="&#x2020;" horiz-adv-x="790" 
d="M432 1432l-2 -332h301v-49h-303l-12 -1389h-41l-13 1389h-303v49h301l-2 332h74z" />
    <glyph glyph-name="daggerdbl" unicode="&#x2021;" horiz-adv-x="790" 
d="M432 1432l-6 -332h305v-49h-307l-8 -506l8 -500h307v-49h-305l6 -334h-74l7 334h-306v49h306l10 500l-10 506h-306v49h306l-7 332h74z" />
    <glyph glyph-name="bullet" unicode="&#x2022;" horiz-adv-x="544" 
d="M274 424q-89 0 -152 64.5t-63 152.5t61.5 148.5t149.5 60.5q89 0 152 -62.5t63 -150.5q0 -89 -62 -151t-149 -62z" />
    <glyph glyph-name="ellipsis" unicode="&#x2026;" horiz-adv-x="1116" 
d="M57 104q0 50 32 82.5t83 32.5q50 0 82.5 -32.5t32.5 -82.5t-33 -83t-82 -33q-50 0 -82.5 32.5t-32.5 83.5zM442 104q0 50 33 82.5t82 32.5q50 0 83.5 -33t33.5 -82t-33.5 -82.5t-83.5 -33.5t-82.5 32.5t-32.5 83.5zM829 104q0 50 32 82.5t81 32.5q51 0 84 -32.5t33 -82.5
t-33 -83t-84 -33q-50 0 -81.5 32.5t-31.5 83.5z" />
    <glyph glyph-name="perthousand" unicode="&#x2030;" horiz-adv-x="2146" 
d="M59 1014v131q0 122 93 211.5t219 89.5t221.5 -90.5t95.5 -210.5v-131q0 -122 -91.5 -210.5t-217.5 -88.5q-127 0 -223.5 90t-96.5 209zM483 0h-53l514 1434h51zM266 1262v-365q0 -58 32 -96.5t79 -38.5q46 0 75 37.5t29 97.5v365q0 59 -30 98t-76 39t-77.5 -39.5
t-31.5 -97.5zM750 289v129q0 122 92.5 211.5t218.5 89.5t221.5 -90.5t95.5 -210.5v-129q0 -123 -91.5 -212t-217.5 -89q-127 0 -223 90.5t-96 210.5zM1460 289v129q0 122 93 211.5t219 89.5t221.5 -90.5t95.5 -210.5v-129q0 -123 -91.5 -212t-217.5 -89q-128 0 -224 90.5
t-96 210.5zM956 537v-367q0 -58 32 -96.5t79 -38.5q46 0 75 37.5t29 97.5v367q0 55 -31.5 95t-74.5 40q-44 0 -76.5 -40t-32.5 -95zM1667 537v-367q0 -58 32 -96.5t79 -38.5q46 0 75 37.5t29 97.5v367q0 55 -31.5 95t-74.5 40q-44 0 -76.5 -40t-32.5 -95z" />
    <glyph glyph-name="guilsinglleft" unicode="&#x2039;" horiz-adv-x="438" 
d="M59 618v17l295 262l23 -23l-141 -243v-8l141 -244l-23 -21z" />
    <glyph glyph-name="guilsinglright" unicode="&#x203a;" horiz-adv-x="438" 
d="M377 635v-17l-295 -262l-23 21l144 246v8l-144 243l23 23z" />
    <glyph glyph-name="fraction" unicode="&#x2044;" horiz-adv-x="555" 
d="M59 -182l383 1718h52l-381 -1718h-54z" />
    <glyph glyph-name="uni2074" unicode="&#x2074;" horiz-adv-x="401" 
d="M57 934v43l191 455h49v-428h47v-70h-47v-119h-90v119h-150zM207 1251h-4l-99 -243v-4h103v247z" />
    <glyph glyph-name="Euro" unicode="&#x20ac;" horiz-adv-x="788" 
d="M88 393v195h-88v49h88v149h-88v50h88v217q0 182 99 289.5t266 107.5q172 0 284 -121l-37 -33q-97 97 -213 97q-89 0 -137.5 -56t-48.5 -159v-342h350l-8 -50h-342v-149h311l-6 -49h-305v-324q0 -223 182 -223q86 0 154 45t100 123l47 -21q-40 -98 -125 -152t-202 -54
q-170 0 -269.5 111t-99.5 300z" />
    <glyph glyph-name="uni20B4" unicode="&#x20b4;" horiz-adv-x="747" 
d="M297 195q0 -75 38.5 -115.5t110.5 -40.5q103 0 230 72l24 -43q-134 -86 -282 -86q-143 0 -236.5 77t-93.5 197q0 83 43 170l72 143h-113v49h135l97 195h-232v49h256l78 162q55 113 55 203q0 75 -35.5 118.5t-95.5 43.5q-47 0 -100.5 -27t-93.5 -70l-35 35q52 58 125 90.5
t151 32.5q126 0 206.5 -83t80.5 -212q0 -101 -55 -211l-41 -82h129v-49h-154l-96 -195h250v-49h-277l-67 -137q-74 -145 -74 -237z" />
    <glyph glyph-name="uni20B8" unicode="&#x20b8;" horiz-adv-x="702" 
d="M715 1432v-50h-725v50h725zM715 1083v-49h-256v-1034h-213v1034h-256v49h725z" />
    <glyph glyph-name="uni20B9" unicode="&#x20b9;" horiz-adv-x="1015" 
d="M545 1001v46h-445l11 49h434v24q0 136 -33.5 199t-105.5 63h-306l11 50h833l-10 -50h-330q71 -45 112.5 -120.5t41.5 -165.5h186l-10 -49h-176q0 -133 -83.5 -226.5t-211.5 -105.5v-15q74 -4 137 -58.5t78 -125.5l121 -516h-217l-125 545q-20 90 -41 117.5t-70 27.5h-227
v49h295q70 0 100.5 62.5t30.5 199.5z" />
    <glyph glyph-name="uni20BD" unicode="&#x20bd;" horiz-adv-x="866" 
d="M53 494v49h92v129h-90v49h90v713h349q143 0 237 -98t94 -238v-88q0 -141 -92.5 -239.5t-234.5 -98.5h-140v-129h131v-49h-131v-492h-213v492h-92zM612 983v139q0 136 -33.5 199t-105.5 63h-115v-663h123q70 0 100.5 62.5t30.5 199.5z" />
    <glyph glyph-name="trademark" unicode="&#x2122;" horiz-adv-x="688" 
d="M539 1432h90v-418h-68v313h-4l-61 -313h-41l-78 313h-4v-313h-39v418h94l57 -242h4zM283 1432v-39h-78v-379h-68v379h-78v39h224z" />
    <glyph glyph-name="arrowleft" unicode="&#x2190;" horiz-adv-x="1359" 
d="M59 692l404 357l35 -41l-328 -291h1130v-51h-1130l330 -291l-37 -39z" />
    <glyph glyph-name="arrowup" unicode="&#x2191;" horiz-adv-x="831" 
d="M416 1237l356 -403l-43 -35l-287 327v-976h-53v974l-287 -325l-43 35z" />
    <glyph glyph-name="arrowright" unicode="&#x2192;" horiz-adv-x="1359" 
d="M1300 694l-403 -356l-35 41l328 291h-1131v51l1131 -2l-328 293l35 39z" />
    <glyph glyph-name="arrowdown" unicode="&#x2193;" horiz-adv-x="831" 
d="M414 150l-357 403l43 33l287 -326v977h53v-977l287 328l43 -35z" />
    <glyph glyph-name="arrowboth" unicode="&#x2194;" horiz-adv-x="1421" 
d="M1362 692l-404 -356l-36 41l327 289h-1079l330 -291l-37 -39l-404 356l404 357l35 -41l-328 -291h1081l-329 293l36 39z" />
    <glyph glyph-name="arrowupdn" unicode="&#x2195;" horiz-adv-x="831" 
d="M416 150l-357 403l43 35l287 -324v860l-287 -325l-43 35l357 403l356 -403l-43 -33l-287 325v-864l287 326l43 -35z" />
    <glyph glyph-name="uni2196" unicode="&#x2196;" horiz-adv-x="905" 
d="M59 1432h535v-52h-447l697 -698l-35 -37l-698 698v-446l-52 -2v537z" />
    <glyph glyph-name="uni2197" unicode="&#x2197;" horiz-adv-x="905" 
d="M307 1432h537v-537l-53 2v446l-697 -698l-35 37l697 698h-449v52z" />
    <glyph glyph-name="uni2198" unicode="&#x2198;" horiz-adv-x="905" 
d="M469 672h-35v8h17l-33 35l6 8l35 -35v17h10v-33z" />
    <glyph glyph-name="uni2199" unicode="&#x2199;" horiz-adv-x="905" 
d="M471 672h-35v33h10v-17l35 35l8 -8l-34 -35h16v-8z" />
    <glyph glyph-name="uni21A9" unicode="&#x21a9;" horiz-adv-x="1564" 
d="M59 692l404 357l35 -43l-326 -287h1057q95 0 158 64t63 155q0 89 -62 150t-157 61h-51v53h61q108 0 185 -77t77 -187t-78.5 -191t-185.5 -81h-1067l326 -289l-35 -41z" />
    <glyph glyph-name="uni21AA" unicode="&#x21aa;" horiz-adv-x="1564" 
d="M1100 1049l403 -357l-403 -356l-35 41l326 289h-1067q-107 0 -186 81t-79 191t77.5 187t185.5 77h61v-53h-51q-95 0 -157 -61t-62 -150q0 -91 63 -155t158 -64h1057l-326 287z" />
    <glyph glyph-name="arrowdblleft" unicode="&#x21d0;" horiz-adv-x="1357" 
d="M59 692l404 357l35 -41l-236 -209h1038v-51h-1095l-64 -56l64 -57h1095v-51h-1038l238 -209l-37 -39z" />
    <glyph glyph-name="arrowdblright" unicode="&#x21d2;" horiz-adv-x="1359" 
d="M1298 694l-403 -356l-35 41l236 209h-1037v51h1094l64 55l-64 58h-1094v51h1037l-236 209l35 39z" />
    <glyph glyph-name="arrowdblboth" unicode="&#x21d4;" horiz-adv-x="1462" 
d="M59 692l404 357l35 -41l-236 -209h938l-235 211l36 39l402 -357l-402 -356l-36 41l233 207h-936l238 -209l-37 -39zM141 692l64 -57h1050l66 57l-64 56h-1052z" />
    <glyph glyph-name="minus" unicode="&#x2212;" horiz-adv-x="743" 
d="M59 664h625v-50h-625v50z" />
    <glyph glyph-name="uni2215" unicode="&#x2215;" horiz-adv-x="555" 
d="M59 -182l383 1718h52l-381 -1718h-54z" />
    <glyph glyph-name="uni27F5" unicode="&#x27f5;" horiz-adv-x="1912" 
d="M59 692l404 357l35 -41l-328 -291h1683v-51h-1683l330 -291l-37 -39z" />
    <glyph glyph-name="uni27F6" unicode="&#x27f6;" horiz-adv-x="1912" 
d="M1851 694l-403 -356l-35 41l328 291h-1682v51l1682 -2l-328 293l35 39z" />
    <glyph glyph-name="uni27F7" unicode="&#x27f7;" horiz-adv-x="1974" 
d="M59 692l404 357l35 -41l-328 -291h1634l-329 293l36 39l404 -357l-404 -356l-36 41l327 289h-1632l330 -291l-37 -39z" />
    <glyph glyph-name="uni27F8" unicode="&#x27f8;" horiz-adv-x="1912" 
d="M59 692l404 357l35 -41l-236 -209h1591v-51h-1648l-64 -56l64 -57h1648v-51h-1591l238 -209l-37 -39z" />
    <glyph glyph-name="uni27F9" unicode="&#x27f9;" horiz-adv-x="1912" 
d="M1851 694l-403 -356l-35 41l236 209h-1590v51h1647l63 55l-63 58h-1647v51h1590l-236 209l35 39z" />
    <glyph glyph-name="uni27FA" unicode="&#x27fa;" horiz-adv-x="1912" 
d="M59 692l404 357l35 -41l-234 -207h1385l-236 209l37 39l403 -357l-403 -356l-37 41l236 209h-1387l238 -211l-37 -39zM141 692l62 -55h1503l63 57l-63 56h-1499z" />
    <glyph glyph-name="uniF8FF" unicode="&#xf8ff;" horiz-adv-x="2048" 
 />
    <glyph glyph-name="u1F850" unicode="&#x1f850;" horiz-adv-x="3336" 
d="M59 692l404 357l35 -41l-328 -291h3107v-51h-3107l330 -291l-37 -39z" />
    <glyph glyph-name="u1F852" unicode="&#x1f852;" horiz-adv-x="3336" 
d="M3277 694l-404 -356l-34 41l327 291h-3107v51l3107 -2l-327 293l34 39z" />
    <glyph glyph-name="a.alt1" 
d="M483 53l9 60l-13 4q-50 -135 -162 -135q-100 0 -173.5 83t-73.5 195v475q0 120 78 208.5t182 88.5q56 0 91.5 -29t57.5 -92l15 4l-11 60v39h199v-1014h-199v53zM483 801q0 68 -37.5 124t-83.5 56q-37 0 -61.5 -35t-24.5 -88v-684q0 -52 26 -87.5t63 -35.5q44 0 81 53.5
t37 118.5v578z" />
    <glyph glyph-name="g.alt1" 
d="M494 915l-11 60v39h201v-1096q0 -118 -96 -197t-238 -79q-154 0 -256 102l33 35q86 -86 190 -86q75 0 120.5 53.5t45.5 142.5v164l9 60l-13 4q-50 -135 -162 -135q-100 0 -173.5 83t-73.5 195v475q0 120 78 208.5t182 88.5q56 0 91.5 -29t57.5 -92zM276 174
q0 -52 26 -87.5t63 -35.5q44 0 81 53.5t37 118.5v578q0 68 -37.5 124t-83.5 56q-37 0 -61.5 -35t-24.5 -88v-684z" />
    <glyph glyph-name="comma1" horiz-adv-x="282" 
d="M174 43q-19 -8 -41 -8q-34 0 -55 22.5t-21 57.5t23 58.5t57 23.5q41 0 64.5 -32t23.5 -89q0 -68 -35.5 -115.5t-97.5 -60.5l-8 24q99 39 90 119z" />
    <glyph glyph-name="agrave.alt1" 
d="M432 1153h-39l-178 229h156zM483 53l9 60l-13 4q-50 -135 -162 -135q-100 0 -173.5 83t-73.5 195v475q0 120 78 208.5t182 88.5q56 0 91.5 -29t57.5 -92l15 4l-11 60v39h199v-1014h-199v53zM483 801q0 68 -37.5 124t-83.5 56q-37 0 -61.5 -35t-24.5 -88v-684
q0 -52 26 -87.5t63 -35.5q44 0 81 53.5t37 118.5v578z" />
    <glyph glyph-name="aacute.alt1" 
d="M403 1153h-38l61 229h156zM483 53l9 60l-13 4q-50 -135 -162 -135q-100 0 -173.5 83t-73.5 195v475q0 120 78 208.5t182 88.5q56 0 91.5 -29t57.5 -92l15 4l-11 60v39h199v-1014h-199v53zM483 801q0 68 -37.5 124t-83.5 56q-37 0 -61.5 -35t-24.5 -88v-684
q0 -52 26 -87.5t63 -35.5q44 0 81 53.5t37 118.5v578z" />
    <glyph glyph-name="acircumflex.alt1" 
d="M199 1153l188 229h27l186 -229h-43l-158 107l-157 -107h-43zM483 53l9 60l-13 4q-50 -135 -162 -135q-100 0 -173.5 83t-73.5 195v475q0 120 78 208.5t182 88.5q56 0 91.5 -29t57.5 -92l15 4l-11 60v39h199v-1014h-199v53zM483 801q0 68 -37.5 124t-83.5 56
q-37 0 -61.5 -35t-24.5 -88v-684q0 -52 26 -87.5t63 -35.5q44 0 81 53.5t37 118.5v578z" />
    <glyph glyph-name="atilde.alt1" 
d="M229 1202l-26 15q55 118 143 118q30 0 60 -12l53 -25q28 -14 51 -14q38 0 61 53l27 -14q-52 -121 -137 -121q-29 0 -68 17l-39 16q-32 14 -55 14q-44 0 -70 -47zM483 53l9 60l-13 4q-50 -135 -162 -135q-100 0 -173.5 83t-73.5 195v475q0 120 78 208.5t182 88.5
q56 0 91.5 -29t57.5 -92l15 4l-11 60v39h199v-1014h-199v53zM483 801q0 68 -37.5 124t-83.5 56q-37 0 -61.5 -35t-24.5 -88v-684q0 -52 26 -87.5t63 -35.5q44 0 81 53.5t37 118.5v578z" />
    <glyph glyph-name="aring.alt1" 
d="M287 1274q0 47 32.5 79.5t79.5 32.5t79 -32.5t32 -79.5t-32 -79t-79 -32t-79.5 32t-32.5 79zM326 1274q0 -31 21 -51.5t52 -20.5t52.5 20.5t21.5 51.5q0 32 -21.5 53t-52.5 21t-52 -21t-21 -53zM483 53l9 60l-13 4q-50 -135 -162 -135q-100 0 -173.5 83t-73.5 195v475
q0 120 78 208.5t182 88.5q107 0 149 -121l13 4l-9 60v39h199v-1014h-199v53zM483 801q0 68 -38 124t-85 56q-37 0 -60.5 -35t-23.5 -88v-684q0 -53 24.5 -88t61.5 -35q46 0 83.5 53.5t37.5 118.5v578z" />
    <glyph glyph-name="abreve.alt1" 
d="M539 1354h30q0 -84 -48 -137.5t-122 -53.5q-75 0 -123.5 54t-48.5 137h31q0 -44 40 -73.5t101 -29.5q62 0 101 28.5t39 74.5zM483 53l9 60l-13 4q-50 -135 -162 -135q-100 0 -173.5 83t-73.5 195v475q0 120 78 208.5t182 88.5q56 0 91.5 -29t57.5 -92l15 4l-11 60v39h199
v-1014h-199v53zM483 801q0 68 -37.5 124t-83.5 56q-37 0 -61.5 -35t-24.5 -88v-684q0 -52 26 -87.5t63 -35.5q44 0 81 53.5t37 118.5v578z" />
    <glyph glyph-name="amacron.alt1" 
d="M578 1288v-49h-361v49h361zM483 53l9 60l-13 4q-50 -135 -162 -135q-100 0 -173.5 83t-73.5 195v475q0 120 78 208.5t182 88.5q56 0 91.5 -29t57.5 -92l15 4l-11 60v39h199v-1014h-199v53zM483 801q0 68 -37.5 124t-83.5 56q-37 0 -61.5 -35t-24.5 -88v-684
q0 -52 26 -87.5t63 -35.5q44 0 81 53.5t37 118.5v578z" />
    <glyph glyph-name="aogonek.alt1" 
d="M483 53l9 60l-13 4q-50 -135 -162 -135q-100 0 -173.5 83t-73.5 195v475q0 120 78 208.5t182 88.5q107 0 149 -121l15 4l-11 60v39h199v-1014h-166q-92 -58 -92 -137q0 -35 20.5 -59.5t49.5 -24.5q50 0 86 74l24 -15q-23 -57 -62.5 -88t-86.5 -31q-48 0 -82.5 31.5
t-34.5 75.5q0 45 37.5 90.5t107.5 83.5v53zM483 801q0 67 -38.5 123.5t-84.5 56.5q-37 0 -60.5 -35t-23.5 -88v-684q0 -53 24.5 -88t61.5 -35q46 0 83.5 53.5t37.5 118.5v578z" />
    <glyph glyph-name="ae.alt1" horiz-adv-x="1161" 
d="M70 739q0 118 78 206.5t182 88.5q68 0 109.5 -47.5t60.5 -148.5h10q32 89 108 142.5t173 53.5q130 0 222.5 -90.5t92.5 -216.5v-233h-420v-314q0 -66 43 -107.5t111 -41.5q70 0 133 46t92 118l43 -17q-40 -92 -119.5 -144t-179.5 -52q-105 0 -188 54t-115 142h-10
q-17 -94 -65 -145t-118 -51q-97 0 -170 83t-73 195v479zM686 541h215v313q0 56 -30 94.5t-74 38.5t-77.5 -38.5t-33.5 -90.5v-317zM276 858v-680q0 -52 26 -88.5t63 -36.5q40 0 75 48t47 120q-8 31 -8 70v438q0 30 10 68q-12 79 -48.5 130.5t-80.5 51.5q-37 0 -60.5 -34
t-23.5 -87z" />
    <glyph glyph-name="aeacute.alt1" horiz-adv-x="1161" 
d="M549 1102h-39l61 229h156zM70 739q0 118 78 206.5t182 88.5q68 0 109.5 -47.5t60.5 -148.5h10q32 89 108 142.5t173 53.5q130 0 222.5 -90.5t92.5 -216.5v-233h-420v-314q0 -66 43 -107.5t111 -41.5q70 0 133 46t92 118l43 -17q-40 -92 -119.5 -144t-179.5 -52
q-105 0 -188 54t-115 142h-10q-17 -94 -65 -145t-118 -51q-97 0 -170 83t-73 195v479zM686 541h215v313q0 56 -30 94.5t-74 38.5t-77.5 -38.5t-33.5 -90.5v-317zM276 858v-680q0 -52 26 -88.5t63 -36.5q40 0 75 48t47 120q-8 31 -8 70v438q0 30 10 68q-12 79 -48.5 130.5
t-80.5 51.5q-37 0 -60.5 -34t-23.5 -87z" />
    <glyph glyph-name="gbreve.alt1" 
d="M539 1354h30q0 -84 -48 -137.5t-122 -53.5q-75 0 -123.5 54t-48.5 137h31q0 -44 40 -73.5t101 -29.5q62 0 101 28.5t39 74.5zM494 915l-11 60v39h201v-1096q0 -118 -96 -197t-238 -79q-154 0 -256 102l33 35q86 -86 190 -86q75 0 120.5 53.5t45.5 142.5v164l9 60l-13 4
q-50 -135 -162 -135q-100 0 -173.5 83t-73.5 195v475q0 120 78 208.5t182 88.5q56 0 91.5 -29t57.5 -92zM276 174q0 -52 26 -87.5t63 -35.5q44 0 81 53.5t37 118.5v578q0 68 -37.5 124t-83.5 56q-37 0 -61.5 -35t-24.5 -88v-684z" />
    <glyph glyph-name="gcircumflex.alt1" 
d="M199 1153l188 229h27l186 -229h-43l-158 107l-157 -107h-43zM494 915l-11 60v39h201v-1096q0 -118 -96 -197t-238 -79q-154 0 -256 102l33 35q86 -86 190 -86q75 0 120.5 53.5t45.5 142.5v164l9 60l-13 4q-50 -135 -162 -135q-100 0 -173.5 83t-73.5 195v475
q0 120 78 208.5t182 88.5q56 0 91.5 -29t57.5 -92zM276 174q0 -52 26 -87.5t63 -35.5q44 0 81 53.5t37 118.5v578q0 68 -37.5 124t-83.5 56q-37 0 -61.5 -35t-24.5 -88v-684z" />
    </font>
</defs>
</svg>
