<svg width="20" height="21" viewBox="0 0 20 21" fill="none" xmlns="http://www.w3.org/2000/svg">
<g clip-path="url(#clip0_310_24)">
<path fill-rule="evenodd" clip-rule="evenodd" d="M10 20.5C15.5228 20.5 20 16.0228 20 10.5C20 4.97715 15.5228 0.5 10 0.5C4.47715 0.5 0 4.97715 0 10.5C0 16.0228 4.47715 20.5 10 20.5ZM5.69408 6.11977H6.98647V14.8802H5.65543V7.44582H5.60391L3.5 8.81464V7.54848L5.69408 6.11977ZM10.4018 15C9.78641 15 9.24255 14.8945 8.77024 14.6835C8.3008 14.4724 7.93297 14.1816 7.66677 13.8108C7.40055 13.4401 7.26888 13.0181 7.27174 12.5447C7.26888 12.174 7.34474 11.8332 7.49932 11.5223C7.65675 11.2086 7.87 10.9477 8.13907 10.7395C8.40814 10.5285 8.7087 10.3945 9.04074 10.3375V10.2861C8.60279 10.1806 8.25213 9.94677 7.98879 9.5846C7.72545 9.22244 7.59521 8.80608 7.59807 8.33555C7.59521 7.88783 7.71399 7.48859 7.95444 7.13783C8.19775 6.78422 8.53122 6.50618 8.95487 6.30371C9.37851 6.10124 9.86084 6 10.4018 6C10.9371 6 11.4152 6.10266 11.8359 6.30798C12.2596 6.51046 12.5931 6.7885 12.8364 7.14211C13.0797 7.49287 13.2028 7.89068 13.2056 8.33555C13.2028 8.80608 13.0682 9.22244 12.802 9.5846C12.5358 9.94677 12.1895 10.1806 11.7629 10.2861V10.3375C12.0921 10.3945 12.3884 10.5285 12.6517 10.7395C12.918 10.9477 13.1298 11.2086 13.2872 11.5223C13.4475 11.8332 13.5291 12.174 13.532 12.5447C13.5291 13.0181 13.3945 13.4401 13.1283 13.8108C12.8621 14.1816 12.4929 14.4724 12.0206 14.6835C11.5511 14.8945 11.0115 15 10.4018 15ZM10.4018 13.9178C10.7654 13.9178 11.0802 13.8579 11.3465 13.7381C11.6127 13.6155 11.8188 13.4458 11.9647 13.2291C12.1107 13.0095 12.1851 12.7528 12.188 12.4591C12.1851 12.154 12.105 11.8845 11.9476 11.6507C11.793 11.4168 11.5826 11.2329 11.3164 11.0989C11.0502 10.9648 10.7453 10.8978 10.4018 10.8978C10.0555 10.8978 9.74777 10.9648 9.4787 11.0989C9.20963 11.2329 8.99781 11.4168 8.84323 11.6507C8.68866 11.8845 8.61281 12.154 8.61567 12.4591C8.61281 12.7528 8.68294 13.0095 8.82606 13.2291C8.97204 13.4458 9.17957 13.6155 9.44864 13.7381C9.71772 13.8579 10.0354 13.9178 10.4018 13.9178ZM10.4018 9.84125C10.6938 9.84125 10.9529 9.78279 11.179 9.66588C11.4051 9.54895 11.5826 9.38641 11.7114 9.17823C11.8431 8.97006 11.9104 8.72624 11.9132 8.44677C11.9104 8.173 11.8445 7.93346 11.7157 7.72814C11.5898 7.52281 11.4137 7.36454 11.1876 7.25333C10.9615 7.13926 10.6995 7.08222 10.4018 7.08222C10.0984 7.08222 9.83222 7.13926 9.60321 7.25333C9.37708 7.36454 9.20105 7.52281 9.0751 7.72814C8.94915 7.93346 8.88761 8.173 8.89047 8.44677C8.88761 8.72624 8.95058 8.97006 9.07939 9.17823C9.2082 9.38641 9.38567 9.54895 9.61181 9.66588C9.8408 9.78279 10.1041 9.84125 10.4018 9.84125ZM15.1784 12.2509V10.7053H13.6299V9.9382H15.1784V8.39543H15.9485V9.9382H17.4999V10.7053H15.9485V12.2509H15.1784Z" fill="url(#paint0_linear_310_24)"/>
</g>
<defs>
<linearGradient id="paint0_linear_310_24" x1="1.26596" y1="1.47938" x2="20.3279" y2="2.32534" gradientUnits="userSpaceOnUse">
<stop stop-color="#F4D6FF"/>
<stop offset="1" stop-color="#D6FFF8"/>
</linearGradient>
<clipPath id="clip0_310_24">
<rect width="20" height="20" fill="white" transform="translate(0 0.5)"/>
</clipPath>
</defs>
</svg>
