<svg width="2139" height="8298" viewBox="0 0 2139 8298" fill="none" xmlns="http://www.w3.org/2000/svg">
<g clip-path="url(#clip0_209_236)">
<rect width="2139" height="8298" fill="#121212"/>
<g filter="url(#filter0_f_209_236)">
<ellipse cx="1712" cy="422.326" rx="244" ry="357" transform="rotate(46.7541 1712 422.326)" fill="#F85E5E"/>
</g>
<g filter="url(#filter1_f_209_236)">
<ellipse cx="1830.58" cy="2319.35" rx="235.744" ry="344.92" transform="rotate(46.7541 1830.58 2319.35)" fill="url(#paint0_radial_209_236)" fill-opacity="0.25"/>
</g>
<g filter="url(#filter2_f_209_236)">
<ellipse cx="33.762" cy="5927.04" rx="235.744" ry="344.92" transform="rotate(46.7541 33.762 5927.04)" fill="url(#paint1_radial_209_236)"/>
</g>
<g filter="url(#filter3_f_209_236)">
<ellipse cx="122.904" cy="3580.76" rx="421.471" ry="218.586" transform="rotate(46.7541 122.904 3580.76)" fill="url(#paint2_linear_209_236)" fill-opacity="0.5"/>
</g>
<g filter="url(#filter4_f_209_236)">
<ellipse cx="1946.99" cy="7505.44" rx="421.471" ry="218.586" transform="rotate(46.7541 1946.99 7505.44)" fill="url(#paint3_linear_209_236)" fill-opacity="0.5"/>
</g>
<g filter="url(#filter5_f_209_236)">
<ellipse cx="157.533" cy="1244.88" rx="123.614" ry="100" transform="rotate(46.7541 157.533 1244.88)" fill="#009AF0"/>
</g>
<g filter="url(#filter6_f_209_236)">
<ellipse cx="1981.61" cy="5169.56" rx="123.614" ry="100" transform="rotate(46.7541 1981.61 5169.56)" fill="#009AF0"/>
</g>
<g filter="url(#filter7_f_209_236)">
<ellipse cx="1872.38" cy="5668.88" rx="123.614" ry="366.123" transform="rotate(46.7541 1872.38 5668.88)" fill="#009AF0"/>
</g>
<g filter="url(#filter8_f_209_236)">
<ellipse cx="407.925" cy="7906.27" rx="78.4232" ry="232.277" transform="rotate(46.7541 407.925 7906.27)" fill="#009AF0"/>
</g>
<g filter="url(#filter9_f_209_236)">
<ellipse cx="326.534" cy="1362.56" rx="84.0624" ry="68.0042" transform="rotate(104.21 326.534 1362.56)" fill="#363EFF"/>
</g>
<g filter="url(#filter10_f_209_236)">
<ellipse cx="97.9943" cy="8007.98" rx="517.503" ry="418.646" transform="rotate(104.21 97.9943 8007.98)" fill="#363EFF"/>
</g>
<g filter="url(#filter11_f_209_236)">
<ellipse cx="499" cy="3771.5" rx="134" ry="118.5" fill="#017FF4" fill-opacity="0.5"/>
</g>
<path fill-rule="evenodd" clip-rule="evenodd" d="M0 906.611V809.692V800H9.69189H106.611H116.303H213.222H222.913H319.832H329.524H426.443H436.135H533.054H542.746H639.665H649.357H746.276H755.967H852.886H862.578H959.497H969.189H1066.11H1075.8H1172.72H1182.41H1279.33H1289.02H1385.94H1395.63H1492.55H1502.24H1599.16H1608.85H1705.77H1715.46H1812.38H1822.08H1918.99H1928.69H2025.6H2035.3H2139V809.692H2035.3V906.611H2139V916.303H2035.3V1013.22H2139V1022.91H2035.3V1119.83H2139V1129.52H2035.3V1226.44H2139V1236.13H2035.3V1333.05H2139V1342.75H2035.3V1439.66H2139V1449.36H2035.3V1546.28H2139V1555.97H2035.3V1652.89H2139V1662.58H2035.3V1759.5H2139V1769.19H2035.3H2025.6H1928.69H1918.99H1822.08H1812.38H1715.46H1705.77H1608.85H1599.16H1502.24H1492.55H1395.63H1385.94H1289.02H1279.33H1182.41H1172.72H1075.8H1066.11H969.189H959.497H862.578H852.886H755.967H746.276H649.357H639.665H542.746H533.054H436.135H426.443H329.524H319.832H222.913H213.222H116.303H106.611H9.69189H0V1759.5V1662.58V1652.89V1555.97V1546.28V1449.36V1439.66V1342.75V1333.05V1236.13V1226.44V1129.52V1119.83V1022.91V1013.22V916.303V906.611ZM2025.6 809.692H1928.69V906.611H2025.6V809.692ZM1918.99 809.692H1822.08V906.611H1918.99V809.692ZM1812.38 809.692H1715.46V906.611H1812.38V809.692ZM1705.77 809.692H1608.85V906.611H1705.77V809.692ZM1599.16 809.692H1502.24V906.611H1599.16V809.692ZM1492.55 809.692H1395.63V906.611H1492.55V809.692ZM1385.94 809.692H1289.02V906.611H1385.94V809.692ZM1279.33 809.692H1182.41V906.611H1279.33V809.692ZM1172.72 809.692H1075.8V906.611H1172.72V809.692ZM1066.11 809.692H969.189V906.611H1066.11V809.692ZM959.497 809.692H862.578V906.611H959.497V809.692ZM852.886 809.692H755.967V906.611H852.886V809.692ZM746.276 809.692H649.357V906.611H746.276V809.692ZM639.665 809.692H542.746V906.611H639.665V809.692ZM533.054 809.692H436.135V906.611H533.054V809.692ZM426.443 809.692H329.524V906.611H426.443V809.692ZM319.832 809.692H222.913V906.611H319.832V809.692ZM213.222 809.692H116.303V906.611H213.222V809.692ZM106.611 809.692H9.69189V906.611H106.611V809.692ZM9.69189 1013.22V916.303H106.611V1013.22H9.69189ZM116.303 1013.22V916.303H213.222V1013.22H116.303ZM222.913 1013.22V916.303H319.832V1013.22H222.913ZM329.524 1013.22V916.303H426.443V1013.22H329.524ZM436.135 1013.22V916.303H533.054V1013.22H436.135ZM542.746 1013.22V916.303H639.665V1013.22H542.746ZM649.357 1013.22V916.303H746.276V1013.22H649.357ZM755.967 1013.22V916.303H852.886V1013.22H755.967ZM862.578 1013.22V916.303H959.497V1013.22H862.578ZM969.189 1013.22V916.303H1066.11V1013.22H969.189ZM1075.8 1013.22V916.303H1172.72V1013.22H1075.8ZM1182.41 1013.22V916.303H1279.33V1013.22H1182.41ZM1289.02 1013.22V916.303H1385.94V1013.22H1289.02ZM1395.63 1013.22V916.303H1492.55V1013.22H1395.63ZM1502.24 1013.22V916.303H1599.16V1013.22H1502.24ZM1608.85 1013.22V916.303H1705.77V1013.22H1608.85ZM1715.46 1013.22V916.303H1812.38V1013.22H1715.46ZM1822.08 1013.22V916.303H1918.99V1013.22H1822.08ZM1928.69 1013.22V916.303H2025.6V1013.22H1928.69ZM9.69189 1022.91V1119.83H106.611V1022.91H9.69189ZM116.303 1022.91V1119.83H213.222V1022.91H116.303ZM222.913 1022.91V1119.83H319.832V1022.91H222.913ZM329.524 1022.91V1119.83H426.443V1022.91H329.524ZM436.135 1022.91V1119.83H533.054V1022.91H436.135ZM542.746 1022.91V1119.83H639.665V1022.91H542.746ZM649.357 1022.91V1119.83H746.276V1022.91H649.357ZM755.967 1022.91V1119.83H852.886V1022.91H755.967ZM862.578 1022.91V1119.83H959.497V1022.91H862.578ZM969.189 1022.91V1119.83H1066.11V1022.91H969.189ZM1075.8 1022.91V1119.83H1172.72V1022.91H1075.8ZM1182.41 1022.91V1119.83H1279.33V1022.91H1182.41ZM1289.02 1022.91V1119.83H1385.94V1022.91H1289.02ZM1395.63 1022.91V1119.83H1492.55V1022.91H1395.63ZM1502.24 1022.91V1119.83H1599.16V1022.91H1502.24ZM1608.85 1022.91V1119.83H1705.77V1022.91H1608.85ZM1715.46 1022.91V1119.83H1812.38V1022.91H1715.46ZM1822.08 1022.91V1119.83H1918.99V1022.91H1822.08ZM1928.69 1022.91V1119.83H2025.6V1022.91H1928.69ZM9.69189 1226.44V1129.52H106.611V1226.44H9.69189ZM116.303 1226.44V1129.52H213.222V1226.44H116.303ZM222.913 1226.44V1129.52H319.832V1226.44H222.913ZM329.524 1226.44V1129.52H426.443V1226.44H329.524ZM436.135 1226.44V1129.52H533.054V1226.44H436.135ZM542.746 1226.44V1129.52H639.665V1226.44H542.746ZM649.357 1226.44V1129.52H746.276V1226.44H649.357ZM755.967 1226.44V1129.52H852.886V1226.44H755.967ZM862.578 1226.44V1129.52H959.497V1226.44H862.578ZM969.189 1226.44V1129.52H1066.11V1226.44H969.189ZM1075.8 1226.44V1129.52H1172.72V1226.44H1075.8ZM1182.41 1226.44V1129.52H1279.33V1226.44H1182.41ZM1289.02 1226.44V1129.52H1385.94V1226.44H1289.02ZM1395.63 1226.44V1129.52H1492.55V1226.44H1395.63ZM1502.24 1226.44V1129.52H1599.16V1226.44H1502.24ZM1608.85 1226.44V1129.52H1705.77V1226.44H1608.85ZM1715.46 1226.44V1129.52H1812.38V1226.44H1715.46ZM1822.08 1226.44V1129.52H1918.99V1226.44H1822.08ZM1928.69 1226.44V1129.52H2025.6V1226.44H1928.69ZM9.69189 1236.13V1333.05H106.611V1236.13H9.69189ZM116.303 1236.13V1333.05H213.222V1236.13H116.303ZM222.913 1236.13V1333.05H319.832V1236.13H222.913ZM329.524 1236.13V1333.05H426.443V1236.13H329.524ZM436.135 1236.13V1333.05H533.054V1236.13H436.135ZM542.746 1236.13V1333.05H639.665V1236.13H542.746ZM649.357 1236.13V1333.05H746.276V1236.13H649.357ZM755.967 1236.13V1333.05H852.886V1236.13H755.967ZM862.578 1236.13V1333.05H959.497V1236.13H862.578ZM969.189 1236.13V1333.05H1066.11V1236.13H969.189ZM1075.8 1236.13V1333.05H1172.72V1236.13H1075.8ZM1182.41 1236.13V1333.05H1279.33V1236.13H1182.41ZM1289.02 1236.13V1333.05H1385.94V1236.13H1289.02ZM1395.63 1236.13V1333.05H1492.55V1236.13H1395.63ZM1502.24 1236.13V1333.05H1599.16V1236.13H1502.24ZM1608.85 1236.13V1333.05H1705.77V1236.13H1608.85ZM1715.46 1236.13V1333.05H1812.38V1236.13H1715.46ZM1822.08 1236.13V1333.05H1918.99V1236.13H1822.08ZM1928.69 1236.13V1333.05H2025.6V1236.13H1928.69ZM9.69189 1439.66V1342.75H106.611V1439.66H9.69189ZM116.303 1439.66V1342.75H213.222V1439.66H116.303ZM222.913 1439.66V1342.75H319.832V1439.66H222.913ZM329.524 1439.66V1342.75H426.443V1439.66H329.524ZM436.135 1439.66V1342.75H533.054V1439.66H436.135ZM542.746 1439.66V1342.75H639.665V1439.66H542.746ZM649.357 1439.66V1342.75H746.276V1439.66H649.357ZM755.967 1439.66V1342.75H852.886V1439.66H755.967ZM862.578 1439.66V1342.75H959.497V1439.66H862.578ZM969.189 1439.66V1342.75H1066.11V1439.66H969.189ZM1075.8 1439.66V1342.75H1172.72V1439.66H1075.8ZM1182.41 1439.66V1342.75H1279.33V1439.66H1182.41ZM1289.02 1439.66V1342.75H1385.94V1439.66H1289.02ZM1395.63 1439.66V1342.75H1492.55V1439.66H1395.63ZM1502.24 1439.66V1342.75H1599.16V1439.66H1502.24ZM1608.85 1439.66V1342.75H1705.77V1439.66H1608.85ZM1715.46 1439.66V1342.75H1812.38V1439.66H1715.46ZM1822.08 1439.66V1342.75H1918.99V1439.66H1822.08ZM1928.69 1439.66V1342.75H2025.6V1439.66H1928.69ZM9.69189 1449.36V1546.28H106.611V1449.36H9.69189ZM116.303 1449.36V1546.28H213.222V1449.36H116.303ZM222.913 1449.36V1546.28H319.832V1449.36H222.913ZM329.524 1449.36V1546.28H426.443V1449.36H329.524ZM436.135 1449.36V1546.28H533.054V1449.36H436.135ZM542.746 1449.36V1546.28H639.665V1449.36H542.746ZM649.357 1449.36V1546.28H746.276V1449.36H649.357ZM755.967 1449.36V1546.28H852.886V1449.36H755.967ZM862.578 1449.36V1546.28H959.497V1449.36H862.578ZM969.189 1449.36V1546.28H1066.11V1449.36H969.189ZM1075.8 1449.36V1546.28H1172.72V1449.36H1075.8ZM1182.41 1449.36V1546.28H1279.33V1449.36H1182.41ZM1289.02 1449.36V1546.28H1385.94V1449.36H1289.02ZM1395.63 1449.36V1546.28H1492.55V1449.36H1395.63ZM1502.24 1449.36V1546.28H1599.16V1449.36H1502.24ZM1608.85 1449.36V1546.28H1705.77V1449.36H1608.85ZM1715.46 1449.36V1546.28H1812.38V1449.36H1715.46ZM1822.08 1449.36V1546.28H1918.99V1449.36H1822.08ZM1928.69 1449.36V1546.28H2025.6V1449.36H1928.69ZM9.69189 1652.89V1555.97H106.611V1652.89H9.69189ZM116.303 1652.89V1555.97H213.222V1652.89H116.303ZM222.913 1652.89V1555.97H319.832V1652.89H222.913ZM329.524 1652.89V1555.97H426.443V1652.89H329.524ZM436.135 1652.89V1555.97H533.054V1652.89H436.135ZM542.746 1652.89V1555.97H639.665V1652.89H542.746ZM649.357 1652.89V1555.97H746.276V1652.89H649.357ZM755.967 1652.89V1555.97H852.886V1652.89H755.967ZM862.578 1652.89V1555.97H959.497V1652.89H862.578ZM969.189 1652.89V1555.97H1066.11V1652.89H969.189ZM1075.8 1652.89V1555.97H1172.72V1652.89H1075.8ZM1182.41 1652.89V1555.97H1279.33V1652.89H1182.41ZM1289.02 1652.89V1555.97H1385.94V1652.89H1289.02ZM1395.63 1652.89V1555.97H1492.55V1652.89H1395.63ZM1502.24 1652.89V1555.97H1599.16V1652.89H1502.24ZM1608.85 1652.89V1555.97H1705.77V1652.89H1608.85ZM1715.46 1652.89V1555.97H1812.38V1652.89H1715.46ZM1822.08 1652.89V1555.97H1918.99V1652.89H1822.08ZM1928.69 1652.89V1555.97H2025.6V1652.89H1928.69ZM9.69189 1662.58V1759.5H106.611V1662.58H9.69189ZM116.303 1662.58V1759.5H213.222V1662.58H116.303ZM222.913 1662.58V1759.5H319.832V1662.58H222.913ZM329.524 1662.58V1759.5H426.443V1662.58H329.524ZM436.135 1662.58V1759.5H533.054V1662.58H436.135ZM542.746 1662.58V1759.5H639.665V1662.58H542.746ZM649.357 1662.58V1759.5H746.276V1662.58H649.357ZM755.967 1662.58V1759.5H852.886V1662.58H755.967ZM862.578 1662.58V1759.5H959.497V1662.58H862.578ZM969.189 1662.58V1759.5H1066.11V1662.58H969.189ZM1075.8 1662.58V1759.5H1172.72V1662.58H1075.8ZM1182.41 1662.58V1759.5H1279.33V1662.58H1182.41ZM1289.02 1662.58V1759.5H1385.94V1662.58H1289.02ZM1395.63 1662.58V1759.5H1492.55V1662.58H1395.63ZM1502.24 1662.58V1759.5H1599.16V1662.58H1502.24ZM1608.85 1662.58V1759.5H1705.77V1662.58H1608.85ZM1715.46 1662.58V1759.5H1812.38V1662.58H1715.46ZM1822.08 1662.58V1759.5H1918.99V1662.58H1822.08ZM1928.69 1662.58V1759.5H2025.6V1662.58H1928.69Z" fill="url(#paint4_linear_209_236)" fill-opacity="0.02"/>
<path fill-rule="evenodd" clip-rule="evenodd" d="M0 6416.61V6319.69V6310H9.69189H106.611H116.303H213.222H222.913H319.832H329.524H426.443H436.135H533.054H542.746H639.665H649.357H746.276H755.967H852.886H862.578H959.497H969.189H1066.11H1075.8H1172.72H1182.41H1279.33H1289.02H1385.94H1395.63H1492.55H1502.24H1599.16H1608.85H1705.77H1715.46H1812.38H1822.08H1918.99H1928.69H2025.6H2035.3H2139V6319.69H2035.3V6416.61H2139V6426.3H2035.3V6523.22H2139V6532.91H2035.3V6629.83H2139V6639.52H2035.3V6736.44H2139V6746.14H2035.3V6843.05H2139V6852.75H2035.3V6949.66H2139V6959.36H2035.3V7056.28H2139V7065.97H2035.3V7162.89H2139V7172.58H2035.3V7269.5H2139V7279.19H2035.3H2025.6H1928.69H1918.99H1822.08H1812.38H1715.46H1705.77H1608.85H1599.16H1502.24H1492.55H1395.63H1385.94H1289.02H1279.33H1182.41H1172.72H1075.8H1066.11H969.189H959.497H862.578H852.886H755.967H746.276H649.357H639.665H542.746H533.054H436.135H426.443H329.524H319.832H222.913H213.222H116.303H106.611H9.69189H0V7269.5V7172.58V7162.89V7065.97V7056.28V6959.36V6949.66V6852.75V6843.05V6746.14V6736.44V6639.52V6629.83V6532.91V6523.22V6426.3V6416.61ZM2025.6 6319.69H1928.69V6416.61H2025.6V6319.69ZM1918.99 6319.69H1822.08V6416.61H1918.99V6319.69ZM1812.38 6319.69H1715.46V6416.61H1812.38V6319.69ZM1705.77 6319.69H1608.85V6416.61H1705.77V6319.69ZM1599.16 6319.69H1502.24V6416.61H1599.16V6319.69ZM1492.55 6319.69H1395.63V6416.61H1492.55V6319.69ZM1385.94 6319.69H1289.02V6416.61H1385.94V6319.69ZM1279.33 6319.69H1182.41V6416.61H1279.33V6319.69ZM1172.72 6319.69H1075.8V6416.61H1172.72V6319.69ZM1066.11 6319.69H969.189V6416.61H1066.11V6319.69ZM959.497 6319.69H862.578V6416.61H959.497V6319.69ZM852.886 6319.69H755.967V6416.61H852.886V6319.69ZM746.276 6319.69H649.357V6416.61H746.276V6319.69ZM639.665 6319.69H542.746V6416.61H639.665V6319.69ZM533.054 6319.69H436.135V6416.61H533.054V6319.69ZM426.443 6319.69H329.524V6416.61H426.443V6319.69ZM319.832 6319.69H222.913V6416.61H319.832V6319.69ZM213.222 6319.69H116.303V6416.61H213.222V6319.69ZM106.611 6319.69H9.69189V6416.61H106.611V6319.69ZM9.69189 6523.22V6426.3H106.611V6523.22H9.69189ZM116.303 6523.22V6426.3H213.222V6523.22H116.303ZM222.913 6523.22V6426.3H319.832V6523.22H222.913ZM329.524 6523.22V6426.3H426.443V6523.22H329.524ZM436.135 6523.22V6426.3H533.054V6523.22H436.135ZM542.746 6523.22V6426.3H639.665V6523.22H542.746ZM649.357 6523.22V6426.3H746.276V6523.22H649.357ZM755.967 6523.22V6426.3H852.886V6523.22H755.967ZM862.578 6523.22V6426.3H959.497V6523.22H862.578ZM969.189 6523.22V6426.3H1066.11V6523.22H969.189ZM1075.8 6523.22V6426.3H1172.72V6523.22H1075.8ZM1182.41 6523.22V6426.3H1279.33V6523.22H1182.41ZM1289.02 6523.22V6426.3H1385.94V6523.22H1289.02ZM1395.63 6523.22V6426.3H1492.55V6523.22H1395.63ZM1502.24 6523.22V6426.3H1599.16V6523.22H1502.24ZM1608.85 6523.22V6426.3H1705.77V6523.22H1608.85ZM1715.46 6523.22V6426.3H1812.38V6523.22H1715.46ZM1822.08 6523.22V6426.3H1918.99V6523.22H1822.08ZM1928.69 6523.22V6426.3H2025.6V6523.22H1928.69ZM9.69189 6532.91V6629.83H106.611V6532.91H9.69189ZM116.303 6532.91V6629.83H213.222V6532.91H116.303ZM222.913 6532.91V6629.83H319.832V6532.91H222.913ZM329.524 6532.91V6629.83H426.443V6532.91H329.524ZM436.135 6532.91V6629.83H533.054V6532.91H436.135ZM542.746 6532.91V6629.83H639.665V6532.91H542.746ZM649.357 6532.91V6629.83H746.276V6532.91H649.357ZM755.967 6532.91V6629.83H852.886V6532.91H755.967ZM862.578 6532.91V6629.83H959.497V6532.91H862.578ZM969.189 6532.91V6629.83H1066.11V6532.91H969.189ZM1075.8 6532.91V6629.83H1172.72V6532.91H1075.8ZM1182.41 6532.91V6629.83H1279.33V6532.91H1182.41ZM1289.02 6532.91V6629.83H1385.94V6532.91H1289.02ZM1395.63 6532.91V6629.83H1492.55V6532.91H1395.63ZM1502.24 6532.91V6629.83H1599.16V6532.91H1502.24ZM1608.85 6532.91V6629.83H1705.77V6532.91H1608.85ZM1715.46 6532.91V6629.83H1812.38V6532.91H1715.46ZM1822.08 6532.91V6629.83H1918.99V6532.91H1822.08ZM1928.69 6532.91V6629.83H2025.6V6532.91H1928.69ZM9.69189 6736.44V6639.52H106.611V6736.44H9.69189ZM116.303 6736.44V6639.52H213.222V6736.44H116.303ZM222.913 6736.44V6639.52H319.832V6736.44H222.913ZM329.524 6736.44V6639.52H426.443V6736.44H329.524ZM436.135 6736.44V6639.52H533.054V6736.44H436.135ZM542.746 6736.44V6639.52H639.665V6736.44H542.746ZM649.357 6736.44V6639.52H746.276V6736.44H649.357ZM755.967 6736.44V6639.52H852.886V6736.44H755.967ZM862.578 6736.44V6639.52H959.497V6736.44H862.578ZM969.189 6736.44V6639.52H1066.11V6736.44H969.189ZM1075.8 6736.44V6639.52H1172.72V6736.44H1075.8ZM1182.41 6736.44V6639.52H1279.33V6736.44H1182.41ZM1289.02 6736.44V6639.52H1385.94V6736.44H1289.02ZM1395.63 6736.44V6639.52H1492.55V6736.44H1395.63ZM1502.24 6736.44V6639.52H1599.16V6736.44H1502.24ZM1608.85 6736.44V6639.52H1705.77V6736.44H1608.85ZM1715.46 6736.44V6639.52H1812.38V6736.44H1715.46ZM1822.08 6736.44V6639.52H1918.99V6736.44H1822.08ZM1928.69 6736.44V6639.52H2025.6V6736.44H1928.69ZM9.69189 6746.14V6843.05H106.611V6746.14H9.69189ZM116.303 6746.14V6843.05H213.222V6746.14H116.303ZM222.913 6746.14V6843.05H319.832V6746.14H222.913ZM329.524 6746.14V6843.05H426.443V6746.14H329.524ZM436.135 6746.14V6843.05H533.054V6746.14H436.135ZM542.746 6746.14V6843.05H639.665V6746.14H542.746ZM649.357 6746.14V6843.05H746.276V6746.14H649.357ZM755.967 6746.14V6843.05H852.886V6746.14H755.967ZM862.578 6746.14V6843.05H959.497V6746.14H862.578ZM969.189 6746.14V6843.05H1066.11V6746.14H969.189ZM1075.8 6746.14V6843.05H1172.72V6746.14H1075.8ZM1182.41 6746.14V6843.05H1279.33V6746.14H1182.41ZM1289.02 6746.14V6843.05H1385.94V6746.14H1289.02ZM1395.63 6746.14V6843.05H1492.55V6746.14H1395.63ZM1502.24 6746.14V6843.05H1599.16V6746.14H1502.24ZM1608.85 6746.14V6843.05H1705.77V6746.14H1608.85ZM1715.46 6746.14V6843.05H1812.38V6746.14H1715.46ZM1822.08 6746.14V6843.05H1918.99V6746.14H1822.08ZM1928.69 6746.14V6843.05H2025.6V6746.14H1928.69ZM9.69189 6949.66V6852.75H106.611V6949.66H9.69189ZM116.303 6949.66V6852.75H213.222V6949.66H116.303ZM222.913 6949.66V6852.75H319.832V6949.66H222.913ZM329.524 6949.66V6852.75H426.443V6949.66H329.524ZM436.135 6949.66V6852.75H533.054V6949.66H436.135ZM542.746 6949.66V6852.75H639.665V6949.66H542.746ZM649.357 6949.66V6852.75H746.276V6949.66H649.357ZM755.967 6949.66V6852.75H852.886V6949.66H755.967ZM862.578 6949.66V6852.75H959.497V6949.66H862.578ZM969.189 6949.66V6852.75H1066.11V6949.66H969.189ZM1075.8 6949.66V6852.75H1172.72V6949.66H1075.8ZM1182.41 6949.66V6852.75H1279.33V6949.66H1182.41ZM1289.02 6949.66V6852.75H1385.94V6949.66H1289.02ZM1395.63 6949.66V6852.75H1492.55V6949.66H1395.63ZM1502.24 6949.66V6852.75H1599.16V6949.66H1502.24ZM1608.85 6949.66V6852.75H1705.77V6949.66H1608.85ZM1715.46 6949.66V6852.75H1812.38V6949.66H1715.46ZM1822.08 6949.66V6852.75H1918.99V6949.66H1822.08ZM1928.69 6949.66V6852.75H2025.6V6949.66H1928.69ZM9.69189 6959.36V7056.28H106.611V6959.36H9.69189ZM116.303 6959.36V7056.28H213.222V6959.36H116.303ZM222.913 6959.36V7056.28H319.832V6959.36H222.913ZM329.524 6959.36V7056.28H426.443V6959.36H329.524ZM436.135 6959.36V7056.28H533.054V6959.36H436.135ZM542.746 6959.36V7056.28H639.665V6959.36H542.746ZM649.357 6959.36V7056.28H746.276V6959.36H649.357ZM755.967 6959.36V7056.28H852.886V6959.36H755.967ZM862.578 6959.36V7056.28H959.497V6959.36H862.578ZM969.189 6959.36V7056.28H1066.11V6959.36H969.189ZM1075.8 6959.36V7056.28H1172.72V6959.36H1075.8ZM1182.41 6959.36V7056.28H1279.33V6959.36H1182.41ZM1289.02 6959.36V7056.28H1385.94V6959.36H1289.02ZM1395.63 6959.36V7056.28H1492.55V6959.36H1395.63ZM1502.24 6959.36V7056.28H1599.16V6959.36H1502.24ZM1608.85 6959.36V7056.28H1705.77V6959.36H1608.85ZM1715.46 6959.36V7056.28H1812.38V6959.36H1715.46ZM1822.08 6959.36V7056.28H1918.99V6959.36H1822.08ZM1928.69 6959.36V7056.28H2025.6V6959.36H1928.69ZM9.69189 7162.89V7065.97H106.611V7162.89H9.69189ZM116.303 7162.89V7065.97H213.222V7162.89H116.303ZM222.913 7162.89V7065.97H319.832V7162.89H222.913ZM329.524 7162.89V7065.97H426.443V7162.89H329.524ZM436.135 7162.89V7065.97H533.054V7162.89H436.135ZM542.746 7162.89V7065.97H639.665V7162.89H542.746ZM649.357 7162.89V7065.97H746.276V7162.89H649.357ZM755.967 7162.89V7065.97H852.886V7162.89H755.967ZM862.578 7162.89V7065.97H959.497V7162.89H862.578ZM969.189 7162.89V7065.97H1066.11V7162.89H969.189ZM1075.8 7162.89V7065.97H1172.72V7162.89H1075.8ZM1182.41 7162.89V7065.97H1279.33V7162.89H1182.41ZM1289.02 7162.89V7065.97H1385.94V7162.89H1289.02ZM1395.63 7162.89V7065.97H1492.55V7162.89H1395.63ZM1502.24 7162.89V7065.97H1599.16V7162.89H1502.24ZM1608.85 7162.89V7065.97H1705.77V7162.89H1608.85ZM1715.46 7162.89V7065.97H1812.38V7162.89H1715.46ZM1822.08 7162.89V7065.97H1918.99V7162.89H1822.08ZM1928.69 7162.89V7065.97H2025.6V7162.89H1928.69ZM9.69189 7172.58V7269.5H106.611V7172.58H9.69189ZM116.303 7172.58V7269.5H213.222V7172.58H116.303ZM222.913 7172.58V7269.5H319.832V7172.58H222.913ZM329.524 7172.58V7269.5H426.443V7172.58H329.524ZM436.135 7172.58V7269.5H533.054V7172.58H436.135ZM542.746 7172.58V7269.5H639.665V7172.58H542.746ZM649.357 7172.58V7269.5H746.276V7172.58H649.357ZM755.967 7172.58V7269.5H852.886V7172.58H755.967ZM862.578 7172.58V7269.5H959.497V7172.58H862.578ZM969.189 7172.58V7269.5H1066.11V7172.58H969.189ZM1075.8 7172.58V7269.5H1172.72V7172.58H1075.8ZM1182.41 7172.58V7269.5H1279.33V7172.58H1182.41ZM1289.02 7172.58V7269.5H1385.94V7172.58H1289.02ZM1395.63 7172.58V7269.5H1492.55V7172.58H1395.63ZM1502.24 7172.58V7269.5H1599.16V7172.58H1502.24ZM1608.85 7172.58V7269.5H1705.77V7172.58H1608.85ZM1715.46 7172.58V7269.5H1812.38V7172.58H1715.46ZM1822.08 7172.58V7269.5H1918.99V7172.58H1822.08ZM1928.69 7172.58V7269.5H2025.6V7172.58H1928.69Z" fill="url(#paint5_linear_209_236)" fill-opacity="0.02"/>
<path fill-rule="evenodd" clip-rule="evenodd" d="M0 2514.61V2417.69V2408H9.69189H106.611H116.303H213.222H222.913H319.832H329.524H426.443H436.135H533.054H542.746H639.665H649.357H746.276H755.967H852.886H862.578H959.497H969.189H1066.11H1075.8H1172.72H1182.41H1279.33H1289.02H1385.94H1395.63H1492.55H1502.24H1599.16H1608.85H1705.77H1715.46H1812.38H1822.08H1918.99H1928.69H2025.6H2035.3H2139V2417.69H2035.3V2514.61H2139V2524.3H2035.3V2621.22H2139V2630.91H2035.3V2727.83H2139V2737.52H2035.3V2834.44H2139V2844.14H2035.3V2941.05H2139V2950.75H2035.3V3047.66H2139V3057.36H2035.3V3154.28H2139V3163.97H2035.3V3260.89H2139V3270.58H2035.3V3367.5H2139V3377.19H2035.3H2025.6H1928.69H1918.99H1822.08H1812.38H1715.46H1705.77H1608.85H1599.16H1502.24H1492.55H1395.63H1385.94H1289.02H1279.33H1182.41H1172.72H1075.8H1066.11H969.189H959.497H862.578H852.886H755.967H746.276H649.357H639.665H542.746H533.054H436.135H426.443H329.524H319.832H222.913H213.222H116.303H106.611H9.69189H0V3367.5V3270.58V3260.89V3163.97V3154.28V3057.36V3047.66V2950.75V2941.05V2844.14V2834.44V2737.52V2727.83V2630.91V2621.22V2524.3V2514.61ZM2025.6 2417.69H1928.69V2514.61H2025.6V2417.69ZM1918.99 2417.69H1822.08V2514.61H1918.99V2417.69ZM1812.38 2417.69H1715.46V2514.61H1812.38V2417.69ZM1705.77 2417.69H1608.85V2514.61H1705.77V2417.69ZM1599.16 2417.69H1502.24V2514.61H1599.16V2417.69ZM1492.55 2417.69H1395.63V2514.61H1492.55V2417.69ZM1385.94 2417.69H1289.02V2514.61H1385.94V2417.69ZM1279.33 2417.69H1182.41V2514.61H1279.33V2417.69ZM1172.72 2417.69H1075.8V2514.61H1172.72V2417.69ZM1066.11 2417.69H969.189V2514.61H1066.11V2417.69ZM959.497 2417.69H862.578V2514.61H959.497V2417.69ZM852.886 2417.69H755.967V2514.61H852.886V2417.69ZM746.276 2417.69H649.357V2514.61H746.276V2417.69ZM639.665 2417.69H542.746V2514.61H639.665V2417.69ZM533.054 2417.69H436.135V2514.61H533.054V2417.69ZM426.443 2417.69H329.524V2514.61H426.443V2417.69ZM319.832 2417.69H222.913V2514.61H319.832V2417.69ZM213.222 2417.69H116.303V2514.61H213.222V2417.69ZM106.611 2417.69H9.69189V2514.61H106.611V2417.69ZM9.69189 2621.22V2524.3H106.611V2621.22H9.69189ZM116.303 2621.22V2524.3H213.222V2621.22H116.303ZM222.913 2621.22V2524.3H319.832V2621.22H222.913ZM329.524 2621.22V2524.3H426.443V2621.22H329.524ZM436.135 2621.22V2524.3H533.054V2621.22H436.135ZM542.746 2621.22V2524.3H639.665V2621.22H542.746ZM649.357 2621.22V2524.3H746.276V2621.22H649.357ZM755.967 2621.22V2524.3H852.886V2621.22H755.967ZM862.578 2621.22V2524.3H959.497V2621.22H862.578ZM969.189 2621.22V2524.3H1066.11V2621.22H969.189ZM1075.8 2621.22V2524.3H1172.72V2621.22H1075.8ZM1182.41 2621.22V2524.3H1279.33V2621.22H1182.41ZM1289.02 2621.22V2524.3H1385.94V2621.22H1289.02ZM1395.63 2621.22V2524.3H1492.55V2621.22H1395.63ZM1502.24 2621.22V2524.3H1599.16V2621.22H1502.24ZM1608.85 2621.22V2524.3H1705.77V2621.22H1608.85ZM1715.46 2621.22V2524.3H1812.38V2621.22H1715.46ZM1822.08 2621.22V2524.3H1918.99V2621.22H1822.08ZM1928.69 2621.22V2524.3H2025.6V2621.22H1928.69ZM9.69189 2630.91V2727.83H106.611V2630.91H9.69189ZM116.303 2630.91V2727.83H213.222V2630.91H116.303ZM222.913 2630.91V2727.83H319.832V2630.91H222.913ZM329.524 2630.91V2727.83H426.443V2630.91H329.524ZM436.135 2630.91V2727.83H533.054V2630.91H436.135ZM542.746 2630.91V2727.83H639.665V2630.91H542.746ZM649.357 2630.91V2727.83H746.276V2630.91H649.357ZM755.967 2630.91V2727.83H852.886V2630.91H755.967ZM862.578 2630.91V2727.83H959.497V2630.91H862.578ZM969.189 2630.91V2727.83H1066.11V2630.91H969.189ZM1075.8 2630.91V2727.83H1172.72V2630.91H1075.8ZM1182.41 2630.91V2727.83H1279.33V2630.91H1182.41ZM1289.02 2630.91V2727.83H1385.94V2630.91H1289.02ZM1395.63 2630.91V2727.83H1492.55V2630.91H1395.63ZM1502.24 2630.91V2727.83H1599.16V2630.91H1502.24ZM1608.85 2630.91V2727.83H1705.77V2630.91H1608.85ZM1715.46 2630.91V2727.83H1812.38V2630.91H1715.46ZM1822.08 2630.91V2727.83H1918.99V2630.91H1822.08ZM1928.69 2630.91V2727.83H2025.6V2630.91H1928.69ZM9.69189 2834.44V2737.52H106.611V2834.44H9.69189ZM116.303 2834.44V2737.52H213.222V2834.44H116.303ZM222.913 2834.44V2737.52H319.832V2834.44H222.913ZM329.524 2834.44V2737.52H426.443V2834.44H329.524ZM436.135 2834.44V2737.52H533.054V2834.44H436.135ZM542.746 2834.44V2737.52H639.665V2834.44H542.746ZM649.357 2834.44V2737.52H746.276V2834.44H649.357ZM755.967 2834.44V2737.52H852.886V2834.44H755.967ZM862.578 2834.44V2737.52H959.497V2834.44H862.578ZM969.189 2834.44V2737.52H1066.11V2834.44H969.189ZM1075.8 2834.44V2737.52H1172.72V2834.44H1075.8ZM1182.41 2834.44V2737.52H1279.33V2834.44H1182.41ZM1289.02 2834.44V2737.52H1385.94V2834.44H1289.02ZM1395.63 2834.44V2737.52H1492.55V2834.44H1395.63ZM1502.24 2834.44V2737.52H1599.16V2834.44H1502.24ZM1608.85 2834.44V2737.52H1705.77V2834.44H1608.85ZM1715.46 2834.44V2737.52H1812.38V2834.44H1715.46ZM1822.08 2834.44V2737.52H1918.99V2834.44H1822.08ZM1928.69 2834.44V2737.52H2025.6V2834.44H1928.69ZM9.69189 2844.14V2941.05H106.611V2844.14H9.69189ZM116.303 2844.14V2941.05H213.222V2844.14H116.303ZM222.913 2844.14V2941.05H319.832V2844.14H222.913ZM329.524 2844.14V2941.05H426.443V2844.14H329.524ZM436.135 2844.14V2941.05H533.054V2844.14H436.135ZM542.746 2844.14V2941.05H639.665V2844.14H542.746ZM649.357 2844.14V2941.05H746.276V2844.14H649.357ZM755.967 2844.14V2941.05H852.886V2844.14H755.967ZM862.578 2844.14V2941.05H959.497V2844.14H862.578ZM969.189 2844.14V2941.05H1066.11V2844.14H969.189ZM1075.8 2844.14V2941.05H1172.72V2844.14H1075.8ZM1182.41 2844.14V2941.05H1279.33V2844.14H1182.41ZM1289.02 2844.14V2941.05H1385.94V2844.14H1289.02ZM1395.63 2844.14V2941.05H1492.55V2844.14H1395.63ZM1502.24 2844.14V2941.05H1599.16V2844.14H1502.24ZM1608.85 2844.14V2941.05H1705.77V2844.14H1608.85ZM1715.46 2844.14V2941.05H1812.38V2844.14H1715.46ZM1822.08 2844.14V2941.05H1918.99V2844.14H1822.08ZM1928.69 2844.14V2941.05H2025.6V2844.14H1928.69ZM9.69189 3047.66V2950.75H106.611V3047.66H9.69189ZM116.303 3047.66V2950.75H213.222V3047.66H116.303ZM222.913 3047.66V2950.75H319.832V3047.66H222.913ZM329.524 3047.66V2950.75H426.443V3047.66H329.524ZM436.135 3047.66V2950.75H533.054V3047.66H436.135ZM542.746 3047.66V2950.75H639.665V3047.66H542.746ZM649.357 3047.66V2950.75H746.276V3047.66H649.357ZM755.967 3047.66V2950.75H852.886V3047.66H755.967ZM862.578 3047.66V2950.75H959.497V3047.66H862.578ZM969.189 3047.66V2950.75H1066.11V3047.66H969.189ZM1075.8 3047.66V2950.75H1172.72V3047.66H1075.8ZM1182.41 3047.66V2950.75H1279.33V3047.66H1182.41ZM1289.02 3047.66V2950.75H1385.94V3047.66H1289.02ZM1395.63 3047.66V2950.75H1492.55V3047.66H1395.63ZM1502.24 3047.66V2950.75H1599.16V3047.66H1502.24ZM1608.85 3047.66V2950.75H1705.77V3047.66H1608.85ZM1715.46 3047.66V2950.75H1812.38V3047.66H1715.46ZM1822.08 3047.66V2950.75H1918.99V3047.66H1822.08ZM1928.69 3047.66V2950.75H2025.6V3047.66H1928.69ZM9.69189 3057.36V3154.28H106.611V3057.36H9.69189ZM116.303 3057.36V3154.28H213.222V3057.36H116.303ZM222.913 3057.36V3154.28H319.832V3057.36H222.913ZM329.524 3057.36V3154.28H426.443V3057.36H329.524ZM436.135 3057.36V3154.28H533.054V3057.36H436.135ZM542.746 3057.36V3154.28H639.665V3057.36H542.746ZM649.357 3057.36V3154.28H746.276V3057.36H649.357ZM755.967 3057.36V3154.28H852.886V3057.36H755.967ZM862.578 3057.36V3154.28H959.497V3057.36H862.578ZM969.189 3057.36V3154.28H1066.11V3057.36H969.189ZM1075.8 3057.36V3154.28H1172.72V3057.36H1075.8ZM1182.41 3057.36V3154.28H1279.33V3057.36H1182.41ZM1289.02 3057.36V3154.28H1385.94V3057.36H1289.02ZM1395.63 3057.36V3154.28H1492.55V3057.36H1395.63ZM1502.24 3057.36V3154.28H1599.16V3057.36H1502.24ZM1608.85 3057.36V3154.28H1705.77V3057.36H1608.85ZM1715.46 3057.36V3154.28H1812.38V3057.36H1715.46ZM1822.08 3057.36V3154.28H1918.99V3057.36H1822.08ZM1928.69 3057.36V3154.28H2025.6V3057.36H1928.69ZM9.69189 3260.89V3163.97H106.611V3260.89H9.69189ZM116.303 3260.89V3163.97H213.222V3260.89H116.303ZM222.913 3260.89V3163.97H319.832V3260.89H222.913ZM329.524 3260.89V3163.97H426.443V3260.89H329.524ZM436.135 3260.89V3163.97H533.054V3260.89H436.135ZM542.746 3260.89V3163.97H639.665V3260.89H542.746ZM649.357 3260.89V3163.97H746.276V3260.89H649.357ZM755.967 3260.89V3163.97H852.886V3260.89H755.967ZM862.578 3260.89V3163.97H959.497V3260.89H862.578ZM969.189 3260.89V3163.97H1066.11V3260.89H969.189ZM1075.8 3260.89V3163.97H1172.72V3260.89H1075.8ZM1182.41 3260.89V3163.97H1279.33V3260.89H1182.41ZM1289.02 3260.89V3163.97H1385.94V3260.89H1289.02ZM1395.63 3260.89V3163.97H1492.55V3260.89H1395.63ZM1502.24 3260.89V3163.97H1599.16V3260.89H1502.24ZM1608.85 3260.89V3163.97H1705.77V3260.89H1608.85ZM1715.46 3260.89V3163.97H1812.38V3260.89H1715.46ZM1822.08 3260.89V3163.97H1918.99V3260.89H1822.08ZM1928.69 3260.89V3163.97H2025.6V3260.89H1928.69ZM9.69189 3270.58V3367.5H106.611V3270.58H9.69189ZM116.303 3270.58V3367.5H213.222V3270.58H116.303ZM222.913 3270.58V3367.5H319.832V3270.58H222.913ZM329.524 3270.58V3367.5H426.443V3270.58H329.524ZM436.135 3270.58V3367.5H533.054V3270.58H436.135ZM542.746 3270.58V3367.5H639.665V3270.58H542.746ZM649.357 3270.58V3367.5H746.276V3270.58H649.357ZM755.967 3270.58V3367.5H852.886V3270.58H755.967ZM862.578 3270.58V3367.5H959.497V3270.58H862.578ZM969.189 3270.58V3367.5H1066.11V3270.58H969.189ZM1075.8 3270.58V3367.5H1172.72V3270.58H1075.8ZM1182.41 3270.58V3367.5H1279.33V3270.58H1182.41ZM1289.02 3270.58V3367.5H1385.94V3270.58H1289.02ZM1395.63 3270.58V3367.5H1492.55V3270.58H1395.63ZM1502.24 3270.58V3367.5H1599.16V3270.58H1502.24ZM1608.85 3270.58V3367.5H1705.77V3270.58H1608.85ZM1715.46 3270.58V3367.5H1812.38V3270.58H1715.46ZM1822.08 3270.58V3367.5H1918.99V3270.58H1822.08ZM1928.69 3270.58V3367.5H2025.6V3270.58H1928.69Z" fill="url(#paint6_linear_209_236)" fill-opacity="0.05"/>
<path fill-rule="evenodd" clip-rule="evenodd" d="M0 4380.61V4283.69V4274H9.69189H106.611H116.303H213.222H222.913H319.832H329.524H426.443H436.135H533.054H542.746H639.665H649.357H746.276H755.967H852.886H862.578H959.497H969.189H1066.11H1075.8H1172.72H1182.41H1279.33H1289.02H1385.94H1395.63H1492.55H1502.24H1599.16H1608.85H1705.77H1715.46H1812.38H1822.08H1918.99H1928.69H2025.6H2035.3H2139V4283.69H2035.3V4380.61H2139V4390.3H2035.3V4487.22H2139V4496.91H2035.3V4593.83H2139V4603.52H2035.3V4700.44H2139V4710.14H2035.3V4807.05H2139V4816.75H2035.3V4913.66H2139V4923.36H2035.3V5020.28H2139V5029.97H2035.3V5126.89H2139V5136.58H2035.3V5233.5H2139V5243.19H2035.3H2025.6H1928.69H1918.99H1822.08H1812.38H1715.46H1705.77H1608.85H1599.16H1502.24H1492.55H1395.63H1385.94H1289.02H1279.33H1182.41H1172.72H1075.8H1066.11H969.189H959.497H862.578H852.886H755.967H746.276H649.357H639.665H542.746H533.054H436.135H426.443H329.524H319.832H222.913H213.222H116.303H106.611H9.69189H0V5233.5V5136.58V5126.89V5029.97V5020.28V4923.36V4913.66V4816.75V4807.05V4710.14V4700.44V4603.52V4593.83V4496.91V4487.22V4390.3V4380.61ZM2025.6 4283.69H1928.69V4380.61H2025.6V4283.69ZM1918.99 4283.69H1822.08V4380.61H1918.99V4283.69ZM1812.38 4283.69H1715.46V4380.61H1812.38V4283.69ZM1705.77 4283.69H1608.85V4380.61H1705.77V4283.69ZM1599.16 4283.69H1502.24V4380.61H1599.16V4283.69ZM1492.55 4283.69H1395.63V4380.61H1492.55V4283.69ZM1385.94 4283.69H1289.02V4380.61H1385.94V4283.69ZM1279.33 4283.69H1182.41V4380.61H1279.33V4283.69ZM1172.72 4283.69H1075.8V4380.61H1172.72V4283.69ZM1066.11 4283.69H969.189V4380.61H1066.11V4283.69ZM959.497 4283.69H862.578V4380.61H959.497V4283.69ZM852.886 4283.69H755.967V4380.61H852.886V4283.69ZM746.276 4283.69H649.357V4380.61H746.276V4283.69ZM639.665 4283.69H542.746V4380.61H639.665V4283.69ZM533.054 4283.69H436.135V4380.61H533.054V4283.69ZM426.443 4283.69H329.524V4380.61H426.443V4283.69ZM319.832 4283.69H222.913V4380.61H319.832V4283.69ZM213.222 4283.69H116.303V4380.61H213.222V4283.69ZM106.611 4283.69H9.69189V4380.61H106.611V4283.69ZM9.69189 4487.22V4390.3H106.611V4487.22H9.69189ZM116.303 4487.22V4390.3H213.222V4487.22H116.303ZM222.913 4487.22V4390.3H319.832V4487.22H222.913ZM329.524 4487.22V4390.3H426.443V4487.22H329.524ZM436.135 4487.22V4390.3H533.054V4487.22H436.135ZM542.746 4487.22V4390.3H639.665V4487.22H542.746ZM649.357 4487.22V4390.3H746.276V4487.22H649.357ZM755.967 4487.22V4390.3H852.886V4487.22H755.967ZM862.578 4487.22V4390.3H959.497V4487.22H862.578ZM969.189 4487.22V4390.3H1066.11V4487.22H969.189ZM1075.8 4487.22V4390.3H1172.72V4487.22H1075.8ZM1182.41 4487.22V4390.3H1279.33V4487.22H1182.41ZM1289.02 4487.22V4390.3H1385.94V4487.22H1289.02ZM1395.63 4487.22V4390.3H1492.55V4487.22H1395.63ZM1502.24 4487.22V4390.3H1599.16V4487.22H1502.24ZM1608.85 4487.22V4390.3H1705.77V4487.22H1608.85ZM1715.46 4487.22V4390.3H1812.38V4487.22H1715.46ZM1822.08 4487.22V4390.3H1918.99V4487.22H1822.08ZM1928.69 4487.22V4390.3H2025.6V4487.22H1928.69ZM9.69189 4496.91V4593.83H106.611V4496.91H9.69189ZM116.303 4496.91V4593.83H213.222V4496.91H116.303ZM222.913 4496.91V4593.83H319.832V4496.91H222.913ZM329.524 4496.91V4593.83H426.443V4496.91H329.524ZM436.135 4496.91V4593.83H533.054V4496.91H436.135ZM542.746 4496.91V4593.83H639.665V4496.91H542.746ZM649.357 4496.91V4593.83H746.276V4496.91H649.357ZM755.967 4496.91V4593.83H852.886V4496.91H755.967ZM862.578 4496.91V4593.83H959.497V4496.91H862.578ZM969.189 4496.91V4593.83H1066.11V4496.91H969.189ZM1075.8 4496.91V4593.83H1172.72V4496.91H1075.8ZM1182.41 4496.91V4593.83H1279.33V4496.91H1182.41ZM1289.02 4496.91V4593.83H1385.94V4496.91H1289.02ZM1395.63 4496.91V4593.83H1492.55V4496.91H1395.63ZM1502.24 4496.91V4593.83H1599.16V4496.91H1502.24ZM1608.85 4496.91V4593.83H1705.77V4496.91H1608.85ZM1715.46 4496.91V4593.83H1812.38V4496.91H1715.46ZM1822.08 4496.91V4593.83H1918.99V4496.91H1822.08ZM1928.69 4496.91V4593.83H2025.6V4496.91H1928.69ZM9.69189 4700.44V4603.52H106.611V4700.44H9.69189ZM116.303 4700.44V4603.52H213.222V4700.44H116.303ZM222.913 4700.44V4603.52H319.832V4700.44H222.913ZM329.524 4700.44V4603.52H426.443V4700.44H329.524ZM436.135 4700.44V4603.52H533.054V4700.44H436.135ZM542.746 4700.44V4603.52H639.665V4700.44H542.746ZM649.357 4700.44V4603.52H746.276V4700.44H649.357ZM755.967 4700.44V4603.52H852.886V4700.44H755.967ZM862.578 4700.44V4603.52H959.497V4700.44H862.578ZM969.189 4700.44V4603.52H1066.11V4700.44H969.189ZM1075.8 4700.44V4603.52H1172.72V4700.44H1075.8ZM1182.41 4700.44V4603.52H1279.33V4700.44H1182.41ZM1289.02 4700.44V4603.52H1385.94V4700.44H1289.02ZM1395.63 4700.44V4603.52H1492.55V4700.44H1395.63ZM1502.24 4700.44V4603.52H1599.16V4700.44H1502.24ZM1608.85 4700.44V4603.52H1705.77V4700.44H1608.85ZM1715.46 4700.44V4603.52H1812.38V4700.44H1715.46ZM1822.08 4700.44V4603.52H1918.99V4700.44H1822.08ZM1928.69 4700.44V4603.52H2025.6V4700.44H1928.69ZM9.69189 4710.14V4807.05H106.611V4710.14H9.69189ZM116.303 4710.14V4807.05H213.222V4710.14H116.303ZM222.913 4710.14V4807.05H319.832V4710.14H222.913ZM329.524 4710.14V4807.05H426.443V4710.14H329.524ZM436.135 4710.14V4807.05H533.054V4710.14H436.135ZM542.746 4710.14V4807.05H639.665V4710.14H542.746ZM649.357 4710.14V4807.05H746.276V4710.14H649.357ZM755.967 4710.14V4807.05H852.886V4710.14H755.967ZM862.578 4710.14V4807.05H959.497V4710.14H862.578ZM969.189 4710.14V4807.05H1066.11V4710.14H969.189ZM1075.8 4710.14V4807.05H1172.72V4710.14H1075.8ZM1182.41 4710.14V4807.05H1279.33V4710.14H1182.41ZM1289.02 4710.14V4807.05H1385.94V4710.14H1289.02ZM1395.63 4710.14V4807.05H1492.55V4710.14H1395.63ZM1502.24 4710.14V4807.05H1599.16V4710.14H1502.24ZM1608.85 4710.14V4807.05H1705.77V4710.14H1608.85ZM1715.46 4710.14V4807.05H1812.38V4710.14H1715.46ZM1822.08 4710.14V4807.05H1918.99V4710.14H1822.08ZM1928.69 4710.14V4807.05H2025.6V4710.14H1928.69ZM9.69189 4913.66V4816.75H106.611V4913.66H9.69189ZM116.303 4913.66V4816.75H213.222V4913.66H116.303ZM222.913 4913.66V4816.75H319.832V4913.66H222.913ZM329.524 4913.66V4816.75H426.443V4913.66H329.524ZM436.135 4913.66V4816.75H533.054V4913.66H436.135ZM542.746 4913.66V4816.75H639.665V4913.66H542.746ZM649.357 4913.66V4816.75H746.276V4913.66H649.357ZM755.967 4913.66V4816.75H852.886V4913.66H755.967ZM862.578 4913.66V4816.75H959.497V4913.66H862.578ZM969.189 4913.66V4816.75H1066.11V4913.66H969.189ZM1075.8 4913.66V4816.75H1172.72V4913.66H1075.8ZM1182.41 4913.66V4816.75H1279.33V4913.66H1182.41ZM1289.02 4913.66V4816.75H1385.94V4913.66H1289.02ZM1395.63 4913.66V4816.75H1492.55V4913.66H1395.63ZM1502.24 4913.66V4816.75H1599.16V4913.66H1502.24ZM1608.85 4913.66V4816.75H1705.77V4913.66H1608.85ZM1715.46 4913.66V4816.75H1812.38V4913.66H1715.46ZM1822.08 4913.66V4816.75H1918.99V4913.66H1822.08ZM1928.69 4913.66V4816.75H2025.6V4913.66H1928.69ZM9.69189 4923.36V5020.28H106.611V4923.36H9.69189ZM116.303 4923.36V5020.28H213.222V4923.36H116.303ZM222.913 4923.36V5020.28H319.832V4923.36H222.913ZM329.524 4923.36V5020.28H426.443V4923.36H329.524ZM436.135 4923.36V5020.28H533.054V4923.36H436.135ZM542.746 4923.36V5020.28H639.665V4923.36H542.746ZM649.357 4923.36V5020.28H746.276V4923.36H649.357ZM755.967 4923.36V5020.28H852.886V4923.36H755.967ZM862.578 4923.36V5020.28H959.497V4923.36H862.578ZM969.189 4923.36V5020.28H1066.11V4923.36H969.189ZM1075.8 4923.36V5020.28H1172.72V4923.36H1075.8ZM1182.41 4923.36V5020.28H1279.33V4923.36H1182.41ZM1289.02 4923.36V5020.28H1385.94V4923.36H1289.02ZM1395.63 4923.36V5020.28H1492.55V4923.36H1395.63ZM1502.24 4923.36V5020.28H1599.16V4923.36H1502.24ZM1608.85 4923.36V5020.28H1705.77V4923.36H1608.85ZM1715.46 4923.36V5020.28H1812.38V4923.36H1715.46ZM1822.08 4923.36V5020.28H1918.99V4923.36H1822.08ZM1928.69 4923.36V5020.28H2025.6V4923.36H1928.69ZM9.69189 5126.89V5029.97H106.611V5126.89H9.69189ZM116.303 5126.89V5029.97H213.222V5126.89H116.303ZM222.913 5126.89V5029.97H319.832V5126.89H222.913ZM329.524 5126.89V5029.97H426.443V5126.89H329.524ZM436.135 5126.89V5029.97H533.054V5126.89H436.135ZM542.746 5126.89V5029.97H639.665V5126.89H542.746ZM649.357 5126.89V5029.97H746.276V5126.89H649.357ZM755.967 5126.89V5029.97H852.886V5126.89H755.967ZM862.578 5126.89V5029.97H959.497V5126.89H862.578ZM969.189 5126.89V5029.97H1066.11V5126.89H969.189ZM1075.8 5126.89V5029.97H1172.72V5126.89H1075.8ZM1182.41 5126.89V5029.97H1279.33V5126.89H1182.41ZM1289.02 5126.89V5029.97H1385.94V5126.89H1289.02ZM1395.63 5126.89V5029.97H1492.55V5126.89H1395.63ZM1502.24 5126.89V5029.97H1599.16V5126.89H1502.24ZM1608.85 5126.89V5029.97H1705.77V5126.89H1608.85ZM1715.46 5126.89V5029.97H1812.38V5126.89H1715.46ZM1822.08 5126.89V5029.97H1918.99V5126.89H1822.08ZM1928.69 5126.89V5029.97H2025.6V5126.89H1928.69ZM9.69189 5136.58V5233.5H106.611V5136.58H9.69189ZM116.303 5136.58V5233.5H213.222V5136.58H116.303ZM222.913 5136.58V5233.5H319.832V5136.58H222.913ZM329.524 5136.58V5233.5H426.443V5136.58H329.524ZM436.135 5136.58V5233.5H533.054V5136.58H436.135ZM542.746 5136.58V5233.5H639.665V5136.58H542.746ZM649.357 5136.58V5233.5H746.276V5136.58H649.357ZM755.967 5136.58V5233.5H852.886V5136.58H755.967ZM862.578 5136.58V5233.5H959.497V5136.58H862.578ZM969.189 5136.58V5233.5H1066.11V5136.58H969.189ZM1075.8 5136.58V5233.5H1172.72V5136.58H1075.8ZM1182.41 5136.58V5233.5H1279.33V5136.58H1182.41ZM1289.02 5136.58V5233.5H1385.94V5136.58H1289.02ZM1395.63 5136.58V5233.5H1492.55V5136.58H1395.63ZM1502.24 5136.58V5233.5H1599.16V5136.58H1502.24ZM1608.85 5136.58V5233.5H1705.77V5136.58H1608.85ZM1715.46 5136.58V5233.5H1812.38V5136.58H1715.46ZM1822.08 5136.58V5233.5H1918.99V5136.58H1822.08ZM1928.69 5136.58V5233.5H2025.6V5136.58H1928.69Z" fill="url(#paint7_linear_209_236)" fill-opacity="0.05"/>
<g filter="url(#filter12_f_209_236)">
<path d="M1837.94 801.367C1865.64 913.826 1802.53 1038.92 1674.64 1150.51C1547.01 1261.88 1356.17 1358.51 1132.33 1413.65C908.484 1468.79 694.596 1471.86 529.844 1432.51C364.755 1393.09 250.759 1311.62 223.057 1199.16C195.355 1086.71 258.468 961.613 386.357 850.018C513.984 738.652 704.824 642.022 928.668 586.882C1152.51 531.742 1366.4 528.674 1531.15 568.018C1696.24 607.443 1810.24 688.907 1837.94 801.367Z" stroke="url(#paint8_linear_209_236)" stroke-width="12"/>
</g>
<g filter="url(#filter13_f_209_236)">
<path d="M1862.21 2710.65C1826.78 2820.92 1707.41 2894.29 1539.99 2922.17C1372.9 2950.01 1159.74 2932.12 940.26 2861.6C720.776 2791.07 537.093 2681.45 417.492 2561.5C297.646 2441.31 243.355 2312.15 278.785 2201.88C314.216 2091.61 433.583 2018.24 601.009 1990.36C768.091 1962.53 981.252 1980.41 1200.74 2050.93C1420.22 2121.46 1603.9 2231.08 1723.5 2351.03C1843.35 2471.22 1897.64 2600.38 1862.21 2710.65Z" stroke="url(#paint9_linear_209_236)" stroke-width="12"/>
</g>
<g filter="url(#filter14_f_209_236)">
<path d="M1874.35 4432.03C1521.15 4744.05 1032.4 4764.39 782.252 4481.23C532.106 4198.07 612.575 3715.55 965.773 3403.54C1318.97 3091.52 1807.72 3071.18 2057.87 3354.34C2308.02 3637.5 2227.55 4120.02 1874.35 4432.03Z" stroke="url(#paint10_linear_209_236)" stroke-width="12"/>
</g>
<g filter="url(#filter15_f_209_236)">
<path d="M826.21 6667.65C790.779 6777.92 671.412 6851.29 503.986 6879.17C336.904 6907.01 123.744 6889.12 -95.7401 6818.6C-315.224 6748.07 -498.907 6638.45 -618.508 6518.5C-738.354 6398.31 -792.645 6269.15 -757.215 6158.88C-721.784 6048.61 -602.417 5975.24 -434.991 5947.36C-267.909 5919.53 -54.7484 5937.41 164.735 6007.93C384.219 6078.46 567.902 6188.08 687.503 6308.03C807.349 6428.22 861.64 6557.38 826.21 6667.65Z" stroke="url(#paint11_linear_209_236)" stroke-width="12"/>
</g>
</g>
<defs>
<filter id="filter0_f_209_236" x="602.818" y="-680.044" width="2218.36" height="2204.74" filterUnits="userSpaceOnUse" color-interpolation-filters="sRGB">
<feFlood flood-opacity="0" result="BackgroundImageFix"/>
<feBlend mode="normal" in="SourceGraphic" in2="BackgroundImageFix" result="shape"/>
<feGaussianBlur stdDeviation="400" result="effect1_foregroundBlur_209_236"/>
</filter>
<filter id="filter1_f_209_236" x="931.856" y="1427.21" width="1797.44" height="1784.28" filterUnits="userSpaceOnUse" color-interpolation-filters="sRGB">
<feFlood flood-opacity="0" result="BackgroundImageFix"/>
<feBlend mode="normal" in="SourceGraphic" in2="BackgroundImageFix" result="shape"/>
<feGaussianBlur stdDeviation="300" result="effect1_foregroundBlur_209_236"/>
</filter>
<filter id="filter2_f_209_236" x="-1464.96" y="4434.9" width="2997.44" height="2984.28" filterUnits="userSpaceOnUse" color-interpolation-filters="sRGB">
<feFlood flood-opacity="0" result="BackgroundImageFix"/>
<feBlend mode="normal" in="SourceGraphic" in2="BackgroundImageFix" result="shape"/>
<feGaussianBlur stdDeviation="600" result="effect1_foregroundBlur_209_236"/>
</filter>
<filter id="filter3_f_209_236" x="-1006.91" y="2439.1" width="2259.62" height="2283.33" filterUnits="userSpaceOnUse" color-interpolation-filters="sRGB">
<feFlood flood-opacity="0" result="BackgroundImageFix"/>
<feBlend mode="normal" in="SourceGraphic" in2="BackgroundImageFix" result="shape"/>
<feGaussianBlur stdDeviation="400" result="effect1_foregroundBlur_209_236"/>
</filter>
<filter id="filter4_f_209_236" x="817.173" y="6363.77" width="2259.62" height="2283.33" filterUnits="userSpaceOnUse" color-interpolation-filters="sRGB">
<feFlood flood-opacity="0" result="BackgroundImageFix"/>
<feBlend mode="normal" in="SourceGraphic" in2="BackgroundImageFix" result="shape"/>
<feGaussianBlur stdDeviation="400" result="effect1_foregroundBlur_209_236"/>
</filter>
<filter id="filter5_f_209_236" x="-354.176" y="731.731" width="1023.42" height="1026.3" filterUnits="userSpaceOnUse" color-interpolation-filters="sRGB">
<feFlood flood-opacity="0" result="BackgroundImageFix"/>
<feBlend mode="normal" in="SourceGraphic" in2="BackgroundImageFix" result="shape"/>
<feGaussianBlur stdDeviation="200" result="effect1_foregroundBlur_209_236"/>
</filter>
<filter id="filter6_f_209_236" x="1269.91" y="4456.41" width="1423.42" height="1426.3" filterUnits="userSpaceOnUse" color-interpolation-filters="sRGB">
<feFlood flood-opacity="0" result="BackgroundImageFix"/>
<feBlend mode="normal" in="SourceGraphic" in2="BackgroundImageFix" result="shape"/>
<feGaussianBlur stdDeviation="300" result="effect1_foregroundBlur_209_236"/>
</filter>
<filter id="filter7_f_209_236" x="792.492" y="4602.3" width="2159.78" height="2133.17" filterUnits="userSpaceOnUse" color-interpolation-filters="sRGB">
<feFlood flood-opacity="0" result="BackgroundImageFix"/>
<feBlend mode="normal" in="SourceGraphic" in2="BackgroundImageFix" result="shape"/>
<feGaussianBlur stdDeviation="400" result="effect1_foregroundBlur_209_236"/>
</filter>
<filter id="filter8_f_209_236" x="-169.644" y="7337.14" width="1155.14" height="1138.26" filterUnits="userSpaceOnUse" color-interpolation-filters="sRGB">
<feFlood flood-opacity="0" result="BackgroundImageFix"/>
<feBlend mode="normal" in="SourceGraphic" in2="BackgroundImageFix" result="shape"/>
<feGaussianBlur stdDeviation="200" result="effect1_foregroundBlur_209_236"/>
</filter>
<filter id="filter9_f_209_236" x="97.4376" y="1119.36" width="458.192" height="486.398" filterUnits="userSpaceOnUse" color-interpolation-filters="sRGB">
<feFlood flood-opacity="0" result="BackgroundImageFix"/>
<feBlend mode="normal" in="SourceGraphic" in2="BackgroundImageFix" result="shape"/>
<feGaussianBlur stdDeviation="80" result="effect1_foregroundBlur_209_236"/>
</filter>
<filter id="filter10_f_209_236" x="-1927.37" y="5895.79" width="4050.74" height="4224.38" filterUnits="userSpaceOnUse" color-interpolation-filters="sRGB">
<feFlood flood-opacity="0" result="BackgroundImageFix"/>
<feBlend mode="normal" in="SourceGraphic" in2="BackgroundImageFix" result="shape"/>
<feGaussianBlur stdDeviation="800" result="effect1_foregroundBlur_209_236"/>
</filter>
<filter id="filter11_f_209_236" x="-35.0001" y="3253" width="1068" height="1037" filterUnits="userSpaceOnUse" color-interpolation-filters="sRGB">
<feFlood flood-opacity="0" result="BackgroundImageFix"/>
<feBlend mode="normal" in="SourceGraphic" in2="BackgroundImageFix" result="shape"/>
<feGaussianBlur stdDeviation="200" result="effect1_foregroundBlur_209_236"/>
</filter>
<filter id="filter12_f_209_236" x="110.613" y="435.539" width="1839.77" height="1129.45" filterUnits="userSpaceOnUse" color-interpolation-filters="sRGB">
<feFlood flood-opacity="0" result="BackgroundImageFix"/>
<feBlend mode="normal" in="SourceGraphic" in2="BackgroundImageFix" result="shape"/>
<feGaussianBlur stdDeviation="50" result="effect1_foregroundBlur_209_236"/>
</filter>
<filter id="filter13_f_209_236" x="162.084" y="1871.84" width="1816.83" height="1168.85" filterUnits="userSpaceOnUse" color-interpolation-filters="sRGB">
<feFlood flood-opacity="0" result="BackgroundImageFix"/>
<feBlend mode="normal" in="SourceGraphic" in2="BackgroundImageFix" result="shape"/>
<feGaussianBlur stdDeviation="50" result="effect1_foregroundBlur_209_236"/>
</filter>
<filter id="filter14_f_209_236" x="530.975" y="3048.98" width="1778.17" height="1737.61" filterUnits="userSpaceOnUse" color-interpolation-filters="sRGB">
<feFlood flood-opacity="0" result="BackgroundImageFix"/>
<feBlend mode="normal" in="SourceGraphic" in2="BackgroundImageFix" result="shape"/>
<feGaussianBlur stdDeviation="50" result="effect1_foregroundBlur_209_236"/>
</filter>
<filter id="filter15_f_209_236" x="-873.916" y="5828.84" width="1816.83" height="1168.85" filterUnits="userSpaceOnUse" color-interpolation-filters="sRGB">
<feFlood flood-opacity="0" result="BackgroundImageFix"/>
<feBlend mode="normal" in="SourceGraphic" in2="BackgroundImageFix" result="shape"/>
<feGaussianBlur stdDeviation="50" result="effect1_foregroundBlur_209_236"/>
</filter>
<radialGradient id="paint0_radial_209_236" cx="0" cy="0" r="1" gradientUnits="userSpaceOnUse" gradientTransform="translate(1830.58 2319.35) rotate(90) scale(344.92 235.744)">
<stop stop-color="#5838B5"/>
<stop offset="0.59375" stop-color="#010BF4"/>
<stop offset="1" stop-color="#2C13C9"/>
</radialGradient>
<radialGradient id="paint1_radial_209_236" cx="0" cy="0" r="1" gradientUnits="userSpaceOnUse" gradientTransform="translate(33.762 5927.04) rotate(90) scale(344.92 235.744)">
<stop stop-color="#3A38B5"/>
<stop offset="0.59375" stop-color="#019DF4"/>
<stop offset="1" stop-color="#6313C9"/>
</radialGradient>
<linearGradient id="paint2_linear_209_236" x1="184.205" y1="2848.91" x2="122.904" y2="3799.35" gradientUnits="userSpaceOnUse">
<stop stop-color="#3845B5"/>
<stop offset="0.593613" stop-color="#01BAF4"/>
<stop offset="1" stop-color="#1346C9"/>
</linearGradient>
<linearGradient id="paint3_linear_209_236" x1="2008.29" y1="6773.58" x2="1946.99" y2="7724.02" gradientUnits="userSpaceOnUse">
<stop stop-color="#3845B5"/>
<stop offset="0.593613" stop-color="#01BAF4"/>
<stop offset="1" stop-color="#1346C9"/>
</linearGradient>
<linearGradient id="paint4_linear_209_236" x1="337.762" y1="818.899" x2="405.606" y2="1738.17" gradientUnits="userSpaceOnUse">
<stop offset="0.00861032" stop-color="#F85E5E" stop-opacity="0"/>
<stop offset="0.579643" stop-color="#01BAF4"/>
<stop offset="0.875891" stop-color="#13C99F" stop-opacity="0"/>
</linearGradient>
<linearGradient id="paint5_linear_209_236" x1="337.762" y1="6328.9" x2="405.606" y2="7248.17" gradientUnits="userSpaceOnUse">
<stop offset="0.00861032" stop-color="#F85E5E" stop-opacity="0"/>
<stop offset="0.579643" stop-color="#01BAF4"/>
<stop offset="0.875891" stop-color="#13C99F" stop-opacity="0"/>
</linearGradient>
<linearGradient id="paint6_linear_209_236" x1="1217.5" y1="2449.5" x2="1298.5" y2="3121" gradientUnits="userSpaceOnUse">
<stop offset="0.0443692" stop-color="#5E93F8" stop-opacity="0"/>
<stop offset="0.578137" stop-color="#3713C9"/>
<stop offset="1" stop-color="#2301F4" stop-opacity="0"/>
</linearGradient>
<linearGradient id="paint7_linear_209_236" x1="1217.5" y1="4315.5" x2="1298.5" y2="4987" gradientUnits="userSpaceOnUse">
<stop stop-color="#2C13C9" stop-opacity="0"/>
<stop offset="0.515625" stop-color="#AFFFF5"/>
<stop offset="1" stop-color="#0136F4" stop-opacity="0"/>
</linearGradient>
<linearGradient id="paint8_linear_209_236" x1="1348.16" y1="1141" x2="633.525" y2="546.415" gradientUnits="userSpaceOnUse">
<stop stop-color="#017FF4"/>
<stop offset="0.481486" stop-color="#0145F4" stop-opacity="0"/>
</linearGradient>
<linearGradient id="paint9_linear_209_236" x1="323" y1="2921.5" x2="1539" y2="1863.5" gradientUnits="userSpaceOnUse">
<stop stop-color="#0162F4"/>
<stop offset="0.481486" stop-color="#A601F4" stop-opacity="0"/>
</linearGradient>
<linearGradient id="paint10_linear_209_236" x1="1252" y1="5004" x2="1649.67" y2="3654.05" gradientUnits="userSpaceOnUse">
<stop stop-color="#01ABF4"/>
<stop offset="0.481486" stop-color="#F40101" stop-opacity="0"/>
</linearGradient>
<linearGradient id="paint11_linear_209_236" x1="1061" y1="5514" x2="-351" y2="7159" gradientUnits="userSpaceOnUse">
<stop stop-color="#4BB8F6"/>
<stop offset="0.724392" stop-color="#6C01F4" stop-opacity="0"/>
</linearGradient>
<clipPath id="clip0_209_236">
<rect width="2139" height="8298" fill="white"/>
</clipPath>
</defs>
</svg>
