<svg width="122" height="49" viewBox="0 0 122 49" fill="none" xmlns="http://www.w3.org/2000/svg">
<rect x="0.5" width="121" height="49" rx="24" fill="url(#paint0_linear_205_20)"/>
<path d="M20.0294 31.7188C20.0294 32.1771 19.9721 32.5365 19.8575 32.7969C19.7533 33.0573 19.5294 33.2552 19.1856 33.3906C18.8523 33.526 18.3367 33.6458 17.6387 33.75V35H27.7794V33.75C27.144 33.6562 26.6648 33.5469 26.3419 33.4219C26.0294 33.2865 25.8158 33.0938 25.7012 32.8438C25.5971 32.5938 25.545 32.25 25.545 31.8125V12.4375H17.6387V13.6875C18.3367 13.7812 18.8523 13.901 19.1856 14.0469C19.5294 14.1823 19.7533 14.3802 19.8575 14.6406C19.9721 14.901 20.0294 15.2604 20.0294 15.7188V31.7188ZM35.4356 14V12.4375H24.6387V14H35.4356ZM34.5294 31.8125C34.5294 32.25 34.4773 32.5938 34.3731 32.8438C34.269 33.0938 34.0554 33.2865 33.7325 33.4219C33.42 33.5469 32.946 33.6562 32.3106 33.75V35H42.4356V33.75C41.7377 33.6458 41.2169 33.526 40.8731 33.3906C40.5398 33.2552 40.3158 33.0573 40.2012 32.7969C40.0971 32.5365 40.045 32.1771 40.045 31.7188V15.7188C40.045 15.2604 40.0971 14.901 40.2012 14.6406C40.3158 14.3802 40.5398 14.1823 40.8731 14.0469C41.2169 13.901 41.7377 13.7812 42.4356 13.6875V12.4375H34.5294V31.8125ZM42.2806 33C42.2806 33.6979 42.5046 34.2656 42.9525 34.7031C43.4004 35.1302 43.9837 35.3438 44.7025 35.3438C45.6712 35.3438 46.4525 34.974 47.0462 34.2344C47.64 33.4844 48.0775 32.3177 48.3587 30.7344C48.6504 29.151 48.8431 27.1146 48.9369 24.625L49.0462 20.6562H54.3275V19.1875H45.0306V20.4375C45.9785 20.5521 46.5879 20.7396 46.8587 21C47.14 21.25 47.2754 21.7083 47.265 22.375L47.2025 24.5625C47.1504 26.5104 47.0358 28.125 46.8587 29.4062C46.6817 30.6875 46.4108 31.6771 46.0462 32.375C45.6817 33.0729 45.1869 33.5104 44.5619 33.6875V35.1406C45.1452 35.1406 45.6556 34.9323 46.0931 34.5156C46.541 34.0885 46.765 33.5573 46.765 32.9219C46.765 32.2969 46.5567 31.7708 46.14 31.3438C45.7233 30.9062 45.1921 30.6875 44.5462 30.6875C43.8796 30.6875 43.3327 30.9115 42.9056 31.3594C42.489 31.8073 42.2806 32.3542 42.2806 33ZM53.4212 19.1875V32.2188C53.4212 32.7396 53.3119 33.0938 53.0931 33.2812C52.8848 33.4688 52.39 33.625 51.6087 33.75V35H60.5775V33.75C59.7025 33.625 59.1452 33.4635 58.9056 33.2656C58.6765 33.0573 58.5619 32.6823 58.5619 32.1406V22.0312C58.5619 21.5 58.6765 21.1354 58.9056 20.9375C59.1452 20.7292 59.7025 20.5625 60.5775 20.4375V19.1875H53.4212ZM68.5006 32.2344V21.9375C68.5006 21.4271 68.5996 21.0781 68.7975 20.8906C68.9954 20.7031 69.4694 20.5521 70.2194 20.4375V19.1875H61.36V20.4375C62.2246 20.5625 62.7767 20.7292 63.0162 20.9375C63.2558 21.1354 63.3756 21.5 63.3756 22.0312V32.1406C63.3756 32.6823 63.2558 33.0573 63.0162 33.2656C62.7767 33.474 62.2246 33.6354 61.36 33.75V35H70.2194V33.75C69.4694 33.6354 68.9954 33.4844 68.7975 33.2969C68.5996 33.1094 68.5006 32.7552 68.5006 32.2344ZM66.4069 27.7188H73.7037V26.2656H66.4069V27.7188ZM79.5162 35.3438C81.2037 35.3438 82.7037 34.9896 84.0162 34.2812C85.3392 33.5729 86.3756 32.5938 87.1256 31.3438C87.886 30.0938 88.2662 28.651 88.2662 27.0156C88.2662 25.3594 87.9069 23.9219 87.1881 22.7031C86.4694 21.474 85.4642 20.526 84.1725 19.8594C82.8808 19.1823 81.3808 18.8438 79.6725 18.8438C77.985 18.8438 76.4798 19.1979 75.1569 19.9062C73.834 20.6042 72.7975 21.5781 72.0475 22.8281C71.2975 24.0781 70.9225 25.526 70.9225 27.1719C70.9225 28.8177 71.2819 30.2552 72.0006 31.4844C72.7194 32.7031 73.7246 33.651 75.0162 34.3281C76.3079 35.0052 77.8079 35.3438 79.5162 35.3438ZM79.6881 33.6719C79.011 33.6719 78.4173 33.4062 77.9069 32.875C77.3965 32.3333 77.0006 31.5625 76.7194 30.5625C76.4485 29.5521 76.3131 28.3438 76.3131 26.9375C76.3131 25.5625 76.4329 24.401 76.6725 23.4531C76.9121 22.4948 77.2662 21.7656 77.735 21.2656C78.2142 20.7552 78.8027 20.5 79.5006 20.5C80.1777 20.5 80.7662 20.7708 81.2662 21.3125C81.7767 21.8438 82.1725 22.6146 82.4537 23.625C82.735 24.625 82.8756 25.8333 82.8756 27.25C82.8756 28.6146 82.7506 29.776 82.5006 30.7344C82.261 31.6927 81.9017 32.4219 81.4225 32.9219C80.9537 33.4219 80.3756 33.6719 79.6881 33.6719ZM97.8925 35.3438C99.3196 35.3438 100.596 35.1146 101.721 34.6562C102.856 34.1875 103.731 33.5677 104.346 32.7969V31.5312C103.908 31.9167 103.346 32.224 102.658 32.4531C101.971 32.6823 101.268 32.7969 100.549 32.7969C99.455 32.7969 98.4706 32.5417 97.5956 32.0312C96.731 31.5104 96.0435 30.7656 95.5331 29.7969C95.0331 28.8281 94.7831 27.6615 94.7831 26.2969C94.7831 25.1198 94.9758 24.1146 95.3613 23.2812C95.7571 22.4375 96.2935 21.7865 96.9706 21.3281C97.6581 20.8698 98.4446 20.6406 99.33 20.6406C99.9446 20.6406 100.486 20.7396 100.955 20.9375C101.434 21.125 101.83 21.401 102.143 21.7656C102.455 22.1198 102.679 22.5625 102.814 23.0938H103.893C103.893 22.4792 103.679 21.9635 103.252 21.5469C102.825 21.1198 102.32 20.9062 101.736 20.9062C101.132 20.9062 100.616 21.1302 100.189 21.5781C99.7623 22.026 99.5488 22.5677 99.5488 23.2031C99.5488 23.8594 99.7727 24.4115 100.221 24.8594C100.679 25.3073 101.241 25.5312 101.908 25.5312C102.564 25.5312 103.127 25.3073 103.596 24.8594C104.064 24.401 104.299 23.8021 104.299 23.0625C104.299 22.2917 104.064 21.5885 103.596 20.9531C103.137 20.3073 102.455 19.7969 101.549 19.4219C100.653 19.0365 99.5435 18.8438 98.2206 18.8438C96.606 18.8438 95.1373 19.1875 93.8144 19.875C92.4915 20.5521 91.4342 21.5156 90.6425 22.7656C89.8613 24.0156 89.4706 25.4948 89.4706 27.2031C89.4706 28.8906 89.8508 30.3438 90.6113 31.5625C91.3717 32.7708 92.3873 33.7031 93.6581 34.3594C94.929 35.0156 96.3404 35.3438 97.8925 35.3438Z" fill="#121212"/>
<defs>
<linearGradient id="paint0_linear_205_20" x1="0.895428" y1="-2.35248e-06" x2="120.7" y2="51.7656" gradientUnits="userSpaceOnUse">
<stop stop-color="#F4D6FF"/>
<stop offset="1" stop-color="#D6FFF8"/>
</linearGradient>
</defs>
</svg>
