<svg width="20" height="21" viewBox="0 0 20 21" fill="none" xmlns="http://www.w3.org/2000/svg">
<g clip-path="url(#clip0_310_20)">
<path fill-rule="evenodd" clip-rule="evenodd" d="M10 20.5C15.5228 20.5 20 16.0228 20 10.5C20 4.97715 15.5228 0.5 10 0.5C4.47715 0.5 0 4.97715 0 10.5C0 16.0228 4.47715 20.5 10 20.5ZM6.97744 5.46452C7.92667 4.89484 9.01056 4.60688 10.107 4.63309L9.95079 5.74448C9.92507 5.92749 9.97132 6.11297 10.0794 6.26011C10.1874 6.40726 10.3484 6.50401 10.5269 6.5291C10.7054 6.55419 10.8868 6.50555 11.0312 6.39389C11.1756 6.28222 11.2712 6.11668 11.2969 5.93367L11.4531 4.82228C14.0369 5.49782 15.8349 7.86991 15.8448 10.5602L14.3371 10.3483C14.1586 10.3232 13.9772 10.3719 13.8328 10.4835C13.6884 10.5952 13.5928 10.7607 13.5671 10.9437C13.5414 11.1267 13.5876 11.3122 13.6956 11.4594C13.8037 11.6065 13.9647 11.7033 14.1432 11.7284L15.6921 11.946C15.3594 13.402 14.5187 14.6865 13.3287 15.5572C13.1838 15.6652 13.0859 15.827 13.0561 16.0076C13.0262 16.1881 13.0669 16.373 13.1693 16.5222C13.2716 16.6714 13.4275 16.773 13.6031 16.8049C13.7788 16.8369 13.9601 16.7967 14.108 16.6931C14.9199 16.1003 15.6066 15.3454 16.1264 14.4743C16.6463 13.6031 16.9883 12.634 17.1318 11.6258C17.6999 7.58411 14.9398 3.86559 10.9794 3.30899C7.01908 2.7524 3.34085 5.56702 2.77295 9.60779C2.47776 11.7082 3.12068 13.7951 4.31614 15.3169C4.42971 15.4573 4.59296 15.5459 4.77062 15.5636C4.94828 15.5813 5.12608 15.5266 5.2656 15.4114C5.40512 15.2962 5.49516 15.1297 5.51625 14.9479C5.53735 14.7661 5.48782 14.5836 5.37836 14.4398C4.46686 13.2755 4.00172 11.8088 4.06951 10.3126L5.61758 10.5302C5.79609 10.5552 5.97751 10.5066 6.12192 10.3949C6.26633 10.2833 6.36191 10.1177 6.38763 9.93473C6.41335 9.75173 6.36711 9.56625 6.25907 9.41911C6.15103 9.27196 5.99005 9.1752 5.81154 9.15011L4.30385 8.93822C4.59616 7.93418 5.1419 7.02531 5.88577 6.30372L6.52038 7.16692C6.63084 7.30674 6.79027 7.39681 6.96509 7.41817C7.1399 7.43952 7.31645 7.39048 7.45754 7.28139C7.59862 7.1723 7.69323 7.01167 7.72143 6.83333C7.74963 6.655 7.70922 6.4729 7.60871 6.32538L6.97744 5.46452ZM13.8837 7.18721C13.7798 7.17064 13.6733 7.19162 13.5824 7.24656L13.5823 7.24748L13.4054 7.35396C12.7664 7.74079 12.129 8.13032 11.4932 8.52255C10.9601 8.85106 10.4125 9.19253 9.97412 9.47243C9.75572 9.61343 9.56144 9.73905 9.40963 9.8425C9.26808 9.938 9.13488 10.0328 9.0594 10.101C8.78845 10.3468 8.6232 10.6922 8.60002 11.061C8.57684 11.4299 8.69762 11.7921 8.9358 12.0679C9.17397 12.3438 9.51002 12.5106 9.87003 12.5319C10.23 12.5531 10.5845 12.4269 10.8555 12.181C10.9309 12.1128 11.0381 11.9881 11.1482 11.8563C11.2923 11.6817 11.4342 11.5052 11.574 11.3269C11.9467 10.8533 12.3157 10.3766 12.681 9.89695C13.1378 9.29764 13.5926 8.69668 14.0454 8.09408L14.1694 7.92763C14.2338 7.84195 14.2672 7.7362 14.264 7.62852C14.2608 7.52083 14.221 7.41791 14.1516 7.33739C14.0823 7.25688 13.9875 7.20378 13.8837 7.18721Z" fill="url(#paint0_linear_310_20)"/>
</g>
<defs>
<linearGradient id="paint0_linear_310_20" x1="1.26596" y1="1.47938" x2="20.3279" y2="2.32534" gradientUnits="userSpaceOnUse">
<stop stop-color="#F4D6FF"/>
<stop offset="1" stop-color="#D6FFF8"/>
</linearGradient>
<clipPath id="clip0_310_20">
<rect width="20" height="20" fill="white" transform="translate(0 0.5)"/>
</clipPath>
</defs>
</svg>
