<svg width="20" height="21" viewBox="0 0 20 21" fill="none" xmlns="http://www.w3.org/2000/svg">
<g clip-path="url(#clip0_310_16)">
<path fill-rule="evenodd" clip-rule="evenodd" d="M10 20.5C15.5228 20.5 20 16.0228 20 10.5C20 4.97715 15.5228 0.5 10 0.5C4.47715 0.5 0 4.97715 0 10.5C0 16.0228 4.47715 20.5 10 20.5ZM11.4725 5.43501C11.3916 4.85943 10.6215 4.72363 10.3486 5.23683L9.03253 7.71196C8.9105 7.94147 8.65456 8.0663 8.39857 8.02116L5.6379 7.53438C5.06549 7.43345 4.69834 8.12396 5.1021 8.54206L7.04941 10.5586C7.22998 10.7455 7.26961 11.0275 7.14758 11.257L5.83153 13.7322C5.55865 14.2454 6.10191 14.8079 6.62432 14.5531L9.14387 13.3243C9.3775 13.2103 9.65793 13.2598 9.8385 13.4467L11.7858 15.4632C12.1896 15.8813 12.8925 15.5385 12.8116 14.9629L12.4214 12.187C12.3853 11.9296 12.5189 11.6781 12.7526 11.5642L15.2721 10.3353C15.7945 10.0805 15.6857 9.30608 15.1133 9.20515L12.3526 8.71837C12.0966 8.67323 11.8988 8.4684 11.8626 8.21099L11.4725 5.43501Z" fill="url(#paint0_linear_310_16)"/>
</g>
<defs>
<linearGradient id="paint0_linear_310_16" x1="1.26596" y1="1.47938" x2="20.3279" y2="2.32534" gradientUnits="userSpaceOnUse">
<stop stop-color="#F4D6FF"/>
<stop offset="1" stop-color="#D6FFF8"/>
</linearGradient>
<clipPath id="clip0_310_16">
<rect width="20" height="20" fill="white" transform="translate(0 0.5)"/>
</clipPath>
</defs>
</svg>
